<svg width="75" height="74" xmlns="http://www.w3.org/2000/svg" xmlns:xlink="http://www.w3.org/1999/xlink" xml:space="preserve" overflow="hidden"><g transform="translate(-429 -163)"><path d="M58.7293 21.8773C60.3516 21.8773 61.6667 23.1924 61.6667 24.8147L61.6667 54.1783C61.6667 55.8006 60.3516 57.1157 58.7293 57.1157L15.2707 57.1157C13.6484 57.1157 12.3333 55.8006 12.3333 54.1783L12.3333 24.8147C12.3333 23.1924 13.6484 21.8773 15.2707 21.8773Z" stroke="#333333" stroke-width="2.56944" stroke-linecap="round" stroke-linejoin="round" fill="none" transform="matrix(1.01351 0 0 1 429 163)"/><path d="M38.2333 37.9394 35.7667 37.9394C35.5029 37.9256 35.2805 37.7386 35.2219 37.481L33.559 31.635C33.4363 31.2919 33.6151 30.9143 33.9582 30.7916 34.0059 30.7745 34.0554 30.763 34.1058 30.7573L39.886 30.7573C40.248 30.7984 40.5082 31.1254 40.4671 31.4874 40.4614 31.5378 40.4498 31.5873 40.4328 31.635L38.7698 37.481C38.7121 37.7357 38.494 37.9221 38.2333 37.9394Z" stroke="#333333" stroke-width="2.56944" stroke-linecap="round" stroke-linejoin="round" fill="none" transform="matrix(1.01351 0 0 1 429 163)"/><path d="M12.3333 34.3483 34.336 34.3483" stroke="#333333" stroke-width="2.56944" stroke-linecap="round" stroke-linejoin="round" fill="none" transform="matrix(1.01351 0 0 1 429 163)"/><path d="M39.664 34.3483 61.6029 34.3483" stroke="#333333" stroke-width="2.56944" stroke-linecap="round" stroke-linejoin="round" fill="none" transform="matrix(1.01351 0 0 1 429 163)"/><path d="M30.1201 21.8773 30.1201 21.8773C30.1201 19.8875 31.1088 16.8843 32.3298 16.8843L41.6702 16.8843C42.8912 16.8843 43.8799 19.8875 43.8799 21.8773L43.8799 21.8773" stroke="#333333" stroke-width="2.56944" stroke-linecap="round" stroke-linejoin="round" fill="none" transform="matrix(1.01351 0 0 1 429 163)"/></g></svg>