<svg width="40" height="40" xmlns="http://www.w3.org/2000/svg" xmlns:xlink="http://www.w3.org/1999/xlink" xml:space="preserve" overflow="hidden"><g transform="translate(-1038 -476)"><path d="M1063.96 496C1063.96 499.292 1061.29 501.96 1058 501.96 1054.71 501.96 1052.04 499.292 1052.04 496 1052.04 492.708 1054.71 490.04 1058 490.04 1061.29 490.04 1063.96 492.708 1063.96 496Z" stroke="#5B059C" stroke-width="1.66667" stroke-linecap="round" stroke-linejoin="round" fill="#E8E8E8"/><path d="M1058 482.667C1058 482.667 1064.42 487.579 1068.86 485.641L1068.86 499.476C1068.86 504.756 1058 509.333 1058 509.333 1058 509.333 1047.14 504.789 1047.14 499.509L1047.14 485.674C1051.58 487.546 1058 482.667 1058 482.667Z" stroke="#5B059C" stroke-width="1.66667" stroke-linecap="round" stroke-linejoin="round" fill="#E8E8E8"/><path d="M1055.06 496.167 1057.16 498.372 1060.94 493.994" stroke="#5B059C" stroke-width="1.66667" stroke-linecap="round" stroke-linejoin="round" fill="#E8E8E8"/></g></svg>