<svg width="1500" height="300" viewBox="0 0 1500 300" fill="none" xmlns="http://www.w3.org/2000/svg">
<path d="M450.59 194.44C444.11 194.44 438.07 193.4 432.47 191.32C426.95 189.16 422.15 186.12 418.07 182.2C413.99 178.28 410.79 173.68 408.47 168.4C406.23 163.12 405.11 157.32 405.11 151C405.11 144.68 406.23 138.88 408.47 133.6C410.79 128.32 413.99 123.72 418.07 119.8C422.23 115.88 427.07 112.88 432.59 110.8C438.11 108.64 444.15 107.56 450.71 107.56C457.99 107.56 464.55 108.84 470.39 111.4C476.31 113.88 481.27 117.56 485.27 122.44L472.79 133.96C469.91 130.68 466.71 128.24 463.19 126.64C459.67 124.96 455.83 124.12 451.67 124.12C447.75 124.12 444.15 124.76 440.87 126.04C437.59 127.32 434.75 129.16 432.35 131.56C429.95 133.96 428.07 136.8 426.71 140.08C425.43 143.36 424.79 147 424.79 151C424.79 155 425.43 158.64 426.71 161.92C428.07 165.2 429.95 168.04 432.35 170.44C434.75 172.84 437.59 174.68 440.87 175.96C444.15 177.24 447.75 177.88 451.67 177.88C455.83 177.88 459.67 177.08 463.19 175.48C466.71 173.8 469.91 171.28 472.79 167.92L485.27 179.44C481.27 184.32 476.31 188.04 470.39 190.6C464.55 193.16 457.95 194.44 450.59 194.44ZM525.571 193.96C518.691 193.96 512.571 192.52 507.211 189.64C501.931 186.76 497.731 182.84 494.611 177.88C491.571 172.84 490.051 167.12 490.051 160.72C490.051 154.24 491.571 148.52 494.611 143.56C497.731 138.52 501.931 134.6 507.211 131.8C512.571 128.92 518.691 127.48 525.571 127.48C532.371 127.48 538.451 128.92 543.811 131.8C549.171 134.6 553.371 138.48 556.411 143.44C559.451 148.4 560.971 154.16 560.971 160.72C560.971 167.12 559.451 172.84 556.411 177.88C553.371 182.84 549.171 186.76 543.811 189.64C538.451 192.52 532.371 193.96 525.571 193.96ZM525.571 178.6C528.691 178.6 531.491 177.88 533.971 176.44C536.451 175 538.411 172.96 539.851 170.32C541.291 167.6 542.011 164.4 542.011 160.72C542.011 156.96 541.291 153.76 539.851 151.12C538.411 148.48 536.451 146.44 533.971 145C531.491 143.56 528.691 142.84 525.571 142.84C522.451 142.84 519.651 143.56 517.171 145C514.691 146.44 512.691 148.48 511.171 151.12C509.731 153.76 509.011 156.96 509.011 160.72C509.011 164.4 509.731 167.6 511.171 170.32C512.691 172.96 514.691 175 517.171 176.44C519.651 177.88 522.451 178.6 525.571 178.6ZM573.484 193V128.44H591.364V146.68L588.844 141.4C590.764 136.84 593.844 133.4 598.084 131.08C602.324 128.68 607.484 127.48 613.564 127.48V144.76C612.764 144.68 612.044 144.64 611.404 144.64C610.764 144.56 610.084 144.52 609.364 144.52C604.244 144.52 600.084 146 596.884 148.96C593.764 151.84 592.204 156.36 592.204 162.52V193H573.484ZM662.972 193.96C657.532 193.96 652.772 192.76 648.692 190.36C644.612 187.96 641.412 184.32 639.092 179.44C636.852 174.48 635.732 168.24 635.732 160.72C635.732 153.12 636.812 146.88 638.972 142C641.132 137.12 644.252 133.48 648.332 131.08C652.412 128.68 657.292 127.48 662.972 127.48C669.052 127.48 674.492 128.88 679.292 131.68C684.172 134.4 688.012 138.24 690.812 143.2C693.692 148.16 695.132 154 695.132 160.72C695.132 167.52 693.692 173.4 690.812 178.36C688.012 183.32 684.172 187.16 679.292 189.88C674.492 192.6 669.052 193.96 662.972 193.96ZM624.812 216.28V128.44H642.692V141.64L642.332 160.84L643.532 179.92V216.28H624.812ZM659.732 178.6C662.852 178.6 665.612 177.88 668.012 176.44C670.492 175 672.452 172.96 673.892 170.32C675.412 167.6 676.172 164.4 676.172 160.72C676.172 156.96 675.412 153.76 673.892 151.12C672.452 148.48 670.492 146.44 668.012 145C665.612 143.56 662.852 142.84 659.732 142.84C656.612 142.84 653.812 143.56 651.332 145C648.852 146.44 646.892 148.48 645.452 151.12C644.012 153.76 643.292 156.96 643.292 160.72C643.292 164.4 644.012 167.6 645.452 170.32C646.892 172.96 648.852 175 651.332 176.44C653.812 177.88 656.612 178.6 659.732 178.6ZM738.383 193.96C731.503 193.96 725.383 192.52 720.023 189.64C714.743 186.76 710.543 182.84 707.423 177.88C704.383 172.84 702.863 167.12 702.863 160.72C702.863 154.24 704.383 148.52 707.423 143.56C710.543 138.52 714.743 134.6 720.023 131.8C725.383 128.92 731.503 127.48 738.383 127.48C745.183 127.48 751.263 128.92 756.623 131.8C761.983 134.6 766.183 138.48 769.223 143.44C772.263 148.4 773.783 154.16 773.783 160.72C773.783 167.12 772.263 172.84 769.223 177.88C766.183 182.84 761.983 186.76 756.623 189.64C751.263 192.52 745.183 193.96 738.383 193.96ZM738.383 178.6C741.503 178.6 744.303 177.88 746.783 176.44C749.263 175 751.223 172.96 752.663 170.32C754.103 167.6 754.823 164.4 754.823 160.72C754.823 156.96 754.103 153.76 752.663 151.12C751.223 148.48 749.263 146.44 746.783 145C744.303 143.56 741.503 142.84 738.383 142.84C735.263 142.84 732.463 143.56 729.983 145C727.503 146.44 725.503 148.48 723.983 151.12C722.543 153.76 721.823 156.96 721.823 160.72C721.823 164.4 722.543 167.6 723.983 170.32C725.503 172.96 727.503 175 729.983 176.44C732.463 177.88 735.263 178.6 738.383 178.6ZM786.296 193V128.44H804.176V146.68L801.656 141.4C803.576 136.84 806.656 133.4 810.896 131.08C815.136 128.68 820.296 127.48 826.376 127.48V144.76C825.576 144.68 824.856 144.64 824.216 144.64C823.576 144.56 822.896 144.52 822.176 144.52C817.056 144.52 812.896 146 809.696 148.96C806.576 151.84 805.016 156.36 805.016 162.52V193H786.296ZM872.888 193V180.4L871.688 177.64V155.08C871.688 151.08 870.448 147.96 867.968 145.72C865.568 143.48 861.848 142.36 856.808 142.36C853.368 142.36 849.968 142.92 846.608 144.04C843.328 145.08 840.528 146.52 838.208 148.36L831.488 135.28C835.008 132.8 839.248 130.88 844.208 129.52C849.168 128.16 854.208 127.48 859.328 127.48C869.168 127.48 876.808 129.8 882.248 134.44C887.688 139.08 890.408 146.32 890.408 156.16V193H872.888ZM853.208 193.96C848.168 193.96 843.848 193.12 840.248 191.44C836.648 189.68 833.888 187.32 831.968 184.36C830.048 181.4 829.088 178.08 829.088 174.4C829.088 170.56 830.008 167.2 831.848 164.32C833.768 161.44 836.768 159.2 840.848 157.6C844.928 155.92 850.248 155.08 856.808 155.08H873.968V166H858.848C854.448 166 851.408 166.72 849.728 168.16C848.128 169.6 847.328 171.4 847.328 173.56C847.328 175.96 848.248 177.88 850.088 179.32C852.008 180.68 854.608 181.36 857.888 181.36C861.008 181.36 863.808 180.64 866.288 179.2C868.768 177.68 870.568 175.48 871.688 172.6L874.568 181.24C873.208 185.4 870.728 188.56 867.128 190.72C863.528 192.88 858.888 193.96 853.208 193.96ZM933.751 193.96C926.151 193.96 920.231 192.04 915.991 188.2C911.751 184.28 909.631 178.48 909.631 170.8V114.16H928.351V170.56C928.351 173.28 929.071 175.4 930.511 176.92C931.951 178.36 933.911 179.08 936.391 179.08C939.351 179.08 941.871 178.28 943.951 176.68L948.991 189.88C947.071 191.24 944.751 192.28 942.031 193C939.391 193.64 936.631 193.96 933.751 193.96ZM899.671 144.28V129.88H944.431V144.28H899.671ZM989.547 193.96C982.187 193.96 975.707 192.52 970.107 189.64C964.587 186.76 960.307 182.84 957.267 177.88C954.227 172.84 952.707 167.12 952.707 160.72C952.707 154.24 954.187 148.52 957.147 143.56C960.187 138.52 964.307 134.6 969.507 131.8C974.707 128.92 980.587 127.48 987.147 127.48C993.467 127.48 999.147 128.84 1004.19 131.56C1009.31 134.2 1013.35 138.04 1016.31 143.08C1019.27 148.04 1020.75 154 1020.75 160.96C1020.75 161.68 1020.71 162.52 1020.63 163.48C1020.55 164.36 1020.47 165.2 1020.39 166H967.947V155.08H1010.55L1003.35 158.32C1003.35 154.96 1002.67 152.04 1001.31 149.56C999.947 147.08 998.067 145.16 995.667 143.8C993.267 142.36 990.467 141.64 987.267 141.64C984.067 141.64 981.227 142.36 978.747 143.8C976.347 145.16 974.467 147.12 973.107 149.68C971.747 152.16 971.067 155.12 971.067 158.56V161.44C971.067 164.96 971.827 168.08 973.347 170.8C974.947 173.44 977.147 175.48 979.947 176.92C982.827 178.28 986.187 178.96 990.027 178.96C993.467 178.96 996.467 178.44 999.027 177.4C1001.67 176.36 1004.07 174.8 1006.23 172.72L1016.19 183.52C1013.23 186.88 1009.51 189.48 1005.03 191.32C1000.55 193.08 995.387 193.96 989.547 193.96Z" fill="#444444"/>
<path d="M325 149.854C325 157.218 319.031 163.187 311.667 163.187C304.303 163.187 298.333 157.218 298.333 149.854C298.333 142.49 304.303 136.521 311.667 136.521C319.031 136.521 325 142.49 325 149.854Z" stroke="#444444" stroke-width="15" stroke-linecap="round" stroke-linejoin="round"/>
<path d="M199.344 91.6979H250.833V51.6666" stroke="#444444" stroke-width="15" stroke-linecap="round" stroke-linejoin="round"/>
<path d="M264.167 38.3333C264.167 45.697 258.197 51.6667 250.833 51.6667C243.47 51.6667 237.5 45.697 237.5 38.3333C237.5 30.9696 243.47 25 250.833 25C258.197 25 264.167 30.9696 264.167 38.3333Z" stroke="#444444" stroke-width="15" stroke-linecap="round" stroke-linejoin="round"/>
<path d="M199.344 120.677H265.448L300.938 83.2812" stroke="#444444" stroke-width="15" stroke-linecap="round" stroke-linejoin="round"/>
<path d="M321.333 71.9791C321.333 79.3429 315.364 85.3125 308 85.3125C300.636 85.3125 294.667 79.3429 294.667 71.9791C294.667 64.6154 300.636 58.6458 308 58.6458C315.364 58.6458 321.333 64.6154 321.333 71.9791Z" stroke="#444444" stroke-width="15" stroke-linecap="round" stroke-linejoin="round"/>
<path d="M199.344 26.0312C193.906 26.0312 188.49 26.5729 188.49 26.5729C185.533 26.9731 183.225 29.3281 182.885 32.2917L180.885 56.5208C176.625 57.3542 173.406 58.3437 173.406 58.3437C170.443 59.1007 167.314 58.0139 165.458 55.5833L154.542 39.8646C152.782 37.4922 149.602 36.6753 146.917 37.9062L128.125 48.8125C125.713 50.5356 124.843 53.7161 126.042 56.4271L134.187 73.6979C135.422 76.1996 135.062 79.1944 133.271 81.3333C131.552 82.9479 125.198 86.5416 122.604 85.2812L105.333 77.1354C102.622 75.9366 99.4418 76.8064 97.7187 79.2187L86.8542 97.9687C85.6172 100.656 86.4349 103.844 88.8125 105.604L104.552 116.521C106.997 118.394 108.138 121.512 107.479 124.521C107.015 125.549 106.666 126.625 106.437 127.729C105.484 130.361 103.064 132.181 100.271 132.365L81.25 133.917C78.2865 134.256 75.9314 136.564 75.5312 139.521C75.5312 139.521 75 144.937 75 150.375C75 155.812 75.5417 161.219 75.5417 161.219C75.941 164.177 78.2951 166.489 81.2604 166.833L105.49 168.844C106.323 173.104 107.312 176.302 107.312 176.302C108.069 179.269 106.983 182.399 104.552 184.26L88.8333 195.167C86.4557 196.927 85.638 200.115 86.875 202.802L97.7396 221.552C99.4627 223.964 102.643 224.834 105.354 223.635L122.625 215.49C125.126 214.25 128.124 214.61 130.26 216.406C131.875 218.125 135.469 224.479 134.208 227.073L126.042 244.365C124.843 247.076 125.713 250.256 128.125 251.979L146.875 262.844C149.561 264.075 152.74 263.259 154.5 260.885L165.417 245.167C167.292 242.724 170.406 241.58 173.417 242.229C174.443 242.699 175.519 243.049 176.625 243.271C179.255 244.233 181.072 246.653 181.26 249.448L182.844 268.49C183.181 271.453 185.491 273.806 188.448 274.198C188.448 274.198 193.865 274.75 199.302 274.75" stroke="#444444" stroke-width="15" stroke-linecap="round" stroke-linejoin="round"/>
<path d="M199.344 181.521H265.448L300.938 218.917" stroke="#444444" stroke-width="15" stroke-linecap="round" stroke-linejoin="round"/>
<path d="M321.333 230.208C321.333 237.572 315.364 243.542 308 243.542C300.636 243.542 294.667 237.572 294.667 230.208C294.667 222.845 300.636 216.875 308 216.875C315.364 216.875 321.333 222.845 321.333 230.208Z" stroke="#444444" stroke-width="15" stroke-linecap="round" stroke-linejoin="round"/>
<path d="M199.344 209.094C166.915 209.094 140.625 182.804 140.625 150.375C140.625 117.946 166.915 91.6562 199.344 91.6562" stroke="#444444" stroke-width="15" stroke-linecap="round" stroke-linejoin="round"/>
<path d="M199.344 209.094H250.833V249.115" stroke="#444444" stroke-width="15" stroke-linecap="round" stroke-linejoin="round"/>
<path d="M264.167 262.448C264.167 269.812 258.197 275.781 250.833 275.781C243.47 275.781 237.5 269.812 237.5 262.448C237.5 255.084 243.47 249.115 250.833 249.115C258.197 249.115 264.167 255.084 264.167 262.448Z" stroke="#444444" stroke-width="15" stroke-linecap="round" stroke-linejoin="round"/>
<path d="M169.25 149.854H298.323" stroke="#444444" stroke-width="15" stroke-linecap="round" stroke-linejoin="round"/>
</svg>
