<svg width="1500" height="300" viewBox="0 0 1500 300" fill="none" xmlns="http://www.w3.org/2000/svg">
<path d="M450.16 194.44C443.68 194.44 437.64 193.4 432.04 191.32C426.52 189.16 421.72 186.12 417.64 182.2C413.56 178.28 410.36 173.68 408.04 168.4C405.8 163.12 404.68 157.32 404.68 151C404.68 144.68 405.8 138.88 408.04 133.6C410.36 128.32 413.56 123.72 417.64 119.8C421.8 115.88 426.64 112.88 432.16 110.8C437.68 108.64 443.72 107.56 450.28 107.56C457.56 107.56 464.12 108.84 469.96 111.4C475.88 113.88 480.84 117.56 484.84 122.44L472.36 133.96C469.48 130.68 466.28 128.24 462.76 126.64C459.24 124.96 455.4 124.12 451.24 124.12C447.32 124.12 443.72 124.76 440.44 126.04C437.16 127.32 434.32 129.16 431.92 131.56C429.52 133.96 427.64 136.8 426.28 140.08C425 143.36 424.36 147 424.36 151C424.36 155 425 158.64 426.28 161.92C427.64 165.2 429.52 168.04 431.92 170.44C434.32 172.84 437.16 174.68 440.44 175.96C443.72 177.24 447.32 177.88 451.24 177.88C455.4 177.88 459.24 177.08 462.76 175.48C466.28 173.8 469.48 171.28 472.36 167.92L484.84 179.44C480.84 184.32 475.88 188.04 469.96 190.6C464.12 193.16 457.52 194.44 450.16 194.44ZM525.141 193.96C518.261 193.96 512.141 192.52 506.781 189.64C501.501 186.76 497.301 182.84 494.181 177.88C491.141 172.84 489.621 167.12 489.621 160.72C489.621 154.24 491.141 148.52 494.181 143.56C497.301 138.52 501.501 134.6 506.781 131.8C512.141 128.92 518.261 127.48 525.141 127.48C531.941 127.48 538.021 128.92 543.381 131.8C548.741 134.6 552.941 138.48 555.981 143.44C559.021 148.4 560.541 154.16 560.541 160.72C560.541 167.12 559.021 172.84 555.981 177.88C552.941 182.84 548.741 186.76 543.381 189.64C538.021 192.52 531.941 193.96 525.141 193.96ZM525.141 178.6C528.261 178.6 531.061 177.88 533.541 176.44C536.021 175 537.981 172.96 539.421 170.32C540.861 167.6 541.581 164.4 541.581 160.72C541.581 156.96 540.861 153.76 539.421 151.12C537.981 148.48 536.021 146.44 533.541 145C531.061 143.56 528.261 142.84 525.141 142.84C522.021 142.84 519.221 143.56 516.741 145C514.261 146.44 512.261 148.48 510.741 151.12C509.301 153.76 508.581 156.96 508.581 160.72C508.581 164.4 509.301 167.6 510.741 170.32C512.261 172.96 514.261 175 516.741 176.44C519.221 177.88 522.021 178.6 525.141 178.6ZM573.054 193V128.44H590.934V146.68L588.414 141.4C590.334 136.84 593.414 133.4 597.654 131.08C601.894 128.68 607.054 127.48 613.134 127.48V144.76C612.334 144.68 611.614 144.64 610.974 144.64C610.334 144.56 609.654 144.52 608.934 144.52C603.814 144.52 599.654 146 596.454 148.96C593.334 151.84 591.774 156.36 591.774 162.52V193H573.054ZM662.542 193.96C657.102 193.96 652.342 192.76 648.262 190.36C644.182 187.96 640.982 184.32 638.662 179.44C636.422 174.48 635.302 168.24 635.302 160.72C635.302 153.12 636.382 146.88 638.542 142C640.702 137.12 643.822 133.48 647.902 131.08C651.982 128.68 656.862 127.48 662.542 127.48C668.622 127.48 674.062 128.88 678.862 131.68C683.742 134.4 687.582 138.24 690.382 143.2C693.262 148.16 694.702 154 694.702 160.72C694.702 167.52 693.262 173.4 690.382 178.36C687.582 183.32 683.742 187.16 678.862 189.88C674.062 192.6 668.622 193.96 662.542 193.96ZM624.382 216.28V128.44H642.262V141.64L641.902 160.84L643.102 179.92V216.28H624.382ZM659.302 178.6C662.422 178.6 665.182 177.88 667.582 176.44C670.062 175 672.022 172.96 673.462 170.32C674.982 167.6 675.742 164.4 675.742 160.72C675.742 156.96 674.982 153.76 673.462 151.12C672.022 148.48 670.062 146.44 667.582 145C665.182 143.56 662.422 142.84 659.302 142.84C656.182 142.84 653.382 143.56 650.902 145C648.422 146.44 646.462 148.48 645.022 151.12C643.582 153.76 642.862 156.96 642.862 160.72C642.862 164.4 643.582 167.6 645.022 170.32C646.462 172.96 648.422 175 650.902 176.44C653.382 177.88 656.182 178.6 659.302 178.6ZM737.954 193.96C731.074 193.96 724.954 192.52 719.594 189.64C714.314 186.76 710.114 182.84 706.994 177.88C703.954 172.84 702.434 167.12 702.434 160.72C702.434 154.24 703.954 148.52 706.994 143.56C710.114 138.52 714.314 134.6 719.594 131.8C724.954 128.92 731.074 127.48 737.954 127.48C744.754 127.48 750.834 128.92 756.194 131.8C761.554 134.6 765.754 138.48 768.794 143.44C771.834 148.4 773.354 154.16 773.354 160.72C773.354 167.12 771.834 172.84 768.794 177.88C765.754 182.84 761.554 186.76 756.194 189.64C750.834 192.52 744.754 193.96 737.954 193.96ZM737.954 178.6C741.074 178.6 743.874 177.88 746.354 176.44C748.834 175 750.794 172.96 752.234 170.32C753.674 167.6 754.394 164.4 754.394 160.72C754.394 156.96 753.674 153.76 752.234 151.12C750.794 148.48 748.834 146.44 746.354 145C743.874 143.56 741.074 142.84 737.954 142.84C734.834 142.84 732.034 143.56 729.554 145C727.074 146.44 725.074 148.48 723.554 151.12C722.114 153.76 721.394 156.96 721.394 160.72C721.394 164.4 722.114 167.6 723.554 170.32C725.074 172.96 727.074 175 729.554 176.44C732.034 177.88 734.834 178.6 737.954 178.6ZM785.867 193V128.44H803.747V146.68L801.227 141.4C803.147 136.84 806.227 133.4 810.467 131.08C814.707 128.68 819.867 127.48 825.947 127.48V144.76C825.147 144.68 824.427 144.64 823.787 144.64C823.147 144.56 822.467 144.52 821.747 144.52C816.627 144.52 812.467 146 809.267 148.96C806.147 151.84 804.587 156.36 804.587 162.52V193H785.867ZM872.459 193V180.4L871.259 177.64V155.08C871.259 151.08 870.019 147.96 867.539 145.72C865.139 143.48 861.419 142.36 856.379 142.36C852.939 142.36 849.539 142.92 846.179 144.04C842.899 145.08 840.099 146.52 837.779 148.36L831.059 135.28C834.579 132.8 838.819 130.88 843.779 129.52C848.739 128.16 853.779 127.48 858.899 127.48C868.739 127.48 876.379 129.8 881.819 134.44C887.259 139.08 889.979 146.32 889.979 156.16V193H872.459ZM852.779 193.96C847.739 193.96 843.419 193.12 839.819 191.44C836.219 189.68 833.459 187.32 831.539 184.36C829.619 181.4 828.659 178.08 828.659 174.4C828.659 170.56 829.579 167.2 831.419 164.32C833.339 161.44 836.339 159.2 840.419 157.6C844.499 155.92 849.819 155.08 856.379 155.08H873.539V166H858.419C854.019 166 850.979 166.72 849.299 168.16C847.699 169.6 846.899 171.4 846.899 173.56C846.899 175.96 847.819 177.88 849.659 179.32C851.579 180.68 854.179 181.36 857.459 181.36C860.579 181.36 863.379 180.64 865.859 179.2C868.339 177.68 870.139 175.48 871.259 172.6L874.139 181.24C872.779 185.4 870.299 188.56 866.699 190.72C863.099 192.88 858.459 193.96 852.779 193.96ZM933.321 193.96C925.721 193.96 919.801 192.04 915.561 188.2C911.321 184.28 909.201 178.48 909.201 170.8V114.16H927.921V170.56C927.921 173.28 928.641 175.4 930.081 176.92C931.521 178.36 933.481 179.08 935.961 179.08C938.921 179.08 941.441 178.28 943.521 176.68L948.561 189.88C946.641 191.24 944.321 192.28 941.601 193C938.961 193.64 936.201 193.96 933.321 193.96ZM899.241 144.28V129.88H944.001V144.28H899.241ZM989.118 193.96C981.758 193.96 975.278 192.52 969.678 189.64C964.158 186.76 959.878 182.84 956.838 177.88C953.798 172.84 952.278 167.12 952.278 160.72C952.278 154.24 953.758 148.52 956.718 143.56C959.758 138.52 963.878 134.6 969.078 131.8C974.278 128.92 980.158 127.48 986.718 127.48C993.038 127.48 998.718 128.84 1003.76 131.56C1008.88 134.2 1012.92 138.04 1015.88 143.08C1018.84 148.04 1020.32 154 1020.32 160.96C1020.32 161.68 1020.28 162.52 1020.2 163.48C1020.12 164.36 1020.04 165.2 1019.96 166H967.518V155.08H1010.12L1002.92 158.32C1002.92 154.96 1002.24 152.04 1000.88 149.56C999.518 147.08 997.638 145.16 995.238 143.8C992.838 142.36 990.038 141.64 986.838 141.64C983.638 141.64 980.798 142.36 978.318 143.8C975.918 145.16 974.038 147.12 972.678 149.68C971.318 152.16 970.638 155.12 970.638 158.56V161.44C970.638 164.96 971.398 168.08 972.918 170.8C974.518 173.44 976.718 175.48 979.518 176.92C982.398 178.28 985.758 178.96 989.598 178.96C993.038 178.96 996.038 178.44 998.598 177.4C1001.24 176.36 1003.64 174.8 1005.8 172.72L1015.76 183.52C1012.8 186.88 1009.08 189.48 1004.6 191.32C1000.12 193.08 994.958 193.96 989.118 193.96Z" fill="#444444"/>
<path d="M122.575 51.7035C130.033 51.6828 136.06 45.62 136.04 38.1629C136.034 36.3494 135.664 34.5555 134.951 32.8889C132.978 28.0034 128.222 24.8171 122.954 24.8509C115.695 24.7748 109.64 30.3841 109.164 37.6281C108.806 45.0352 114.52 51.33 121.927 51.688C122.143 51.6984 122.359 51.7035 122.575 51.7035ZM121.087 30.8415C125.194 30.0202 129.189 32.6829 130.011 36.7899C130.833 40.897 128.169 44.8916 124.063 45.7135C119.956 46.5348 115.96 43.8722 115.139 39.7651C114.943 38.7847 114.942 37.7749 115.138 36.7945C115.74 33.792 118.085 31.4451 121.087 30.8415Z" fill="#444444" stroke="#444444" stroke-width="4.5"/>
<path d="M157.401 72.7467C161.249 72.7889 164.684 70.3407 165.9 66.6897C167.483 61.9882 164.955 56.8929 160.253 55.3101C159.335 55.0015 158.373 54.8423 157.404 54.8403H157.401C152.457 54.841 148.448 58.8493 148.448 63.7932C148.448 68.7377 152.457 72.746 157.401 72.7467ZM157.401 60.688H157.403C158.646 60.6679 159.777 61.4047 160.263 62.5489C160.955 64.1239 160.241 65.962 158.666 66.6546C157.091 67.3473 155.253 66.6326 154.56 65.0576C153.867 63.4833 154.583 61.6445 156.157 60.9518C156.55 60.7797 156.973 60.69 157.401 60.688Z" fill="#444444" stroke="#444444" stroke-width="4.5"/>
<path d="M134.747 89.8188C130.364 89.8403 126.828 93.4107 126.849 97.7945C126.855 99.0966 127.182 100.377 127.8 101.523C129.077 104.027 131.667 105.586 134.477 105.543C138.453 105.602 141.875 102.747 142.528 98.8256C143.159 94.5276 140.185 90.5323 135.888 89.902C135.624 89.863 135.359 89.8384 135.092 89.8267C134.978 89.8215 134.747 89.8188 134.747 89.8188ZM136.758 97.8075C136.683 98.8152 135.882 99.6164 134.875 99.6917C133.765 99.7626 132.808 98.9205 132.736 97.8101C132.731 97.725 132.731 97.6398 132.736 97.5547C132.811 96.547 133.611 95.7458 134.619 95.6705C135.73 95.5996 136.687 96.4424 136.758 97.5534C136.763 97.6379 136.763 97.7224 136.758 97.8075Z" fill="#444444" stroke="#444444" stroke-width="4.5"/>
<path d="M294.588 156.134C302.038 149.008 305.416 138.621 303.585 128.477C302.416 123.09 297.516 119.344 292.011 119.627C286.721 119.302 282.009 122.945 280.993 128.147C279.431 137.017 282.1 147.04 265.093 153.952C253.298 158.747 267.048 169.668 263.826 174.857C260.604 180.048 251.929 177.72 248.362 182.243C242.055 190.234 251.424 196.427 248.716 202.552C245.38 210.093 238.278 208.748 232.69 216.216C228.106 222.356 228.08 224.543 232.462 240.019C233.657 245.283 234.412 250.637 234.718 256.027C231.147 255.735 227.392 255.492 223.475 255.297C226.624 251.975 227.366 247.04 225.331 242.938C221.007 232.752 209.463 231.947 215.407 221.533C218.548 216.03 223.679 218.734 224.472 204.574C225.088 193.382 206.078 188.631 206.198 176.798C206.3 166.702 223.267 167.278 225.159 157.755C226.407 151.48 213.6 142.234 216.001 136.591C218.402 130.948 229.67 130.306 236.585 124.896C243.602 119.423 231.889 113.081 231.866 107.353C231.843 101.625 252.739 98.9731 255.092 88.8773C257.446 78.7816 250.827 78.6237 249.128 70.3225C247.429 62.0207 263.82 51.797 266.344 40.9878C268.048 33.6782 256.964 32.0376 254.827 26.1223C252.362 19.3071 266.814 6.6585 266.814 6.6585C264.473 6.37976 262.116 6.23877 259.758 6.23682C246.312 6.23682 236.524 10.9312 233.301 14.8453C227.345 22.0997 233.126 32.8972 228.304 36.8294C221.819 42.1164 211.346 42.6011 207.451 51.9549C204.156 59.8493 219.614 74.6557 211.796 83.2577C204.405 91.4035 185.4 87.5089 180.722 99.0497C175.778 111.216 194.853 120.332 188.245 132.267C182.429 142.767 171.892 143.343 169.997 154.629C168.438 163.924 183.014 173.581 179.699 182.458C176.462 191.125 163.637 193.788 169.188 202.194C175.851 212.285 186.394 211.018 182.982 220.694C180.111 228.825 183.906 234.008 188.874 238.962C193.452 242.984 196.129 248.745 196.25 254.839C188.981 254.935 182.15 255.178 175.865 255.583C177.264 252.533 178.363 249.354 179.146 246.091C181.304 233.216 163.973 230.945 162.933 223.327C161.864 215.508 165.211 206.352 163.993 202.586C160.619 192.148 153.971 197.718 150.395 191.651C145.996 184.195 153.774 178.05 151.032 168.753C148.781 161.124 144.37 162.044 133.787 157.077C126.642 153.723 124.976 145.066 120.481 138.051C116.961 132.555 104.567 131.975 104.567 131.975C90.994 133.206 98.1451 149.72 102.306 154.684C107.047 160.347 114.813 158.603 115.995 168.851C117.359 180.722 113.971 184.639 118.253 194.529C119.119 197.57 121.928 199.643 125.089 199.572C127.141 199.572 129.233 198.981 131.028 198.981C133.1 198.826 134.954 200.262 135.322 202.307C137.829 210.228 129.888 223.478 134.812 233.048C139.88 242.896 149.847 246.147 157.243 257.355C134.06 260.315 120.071 265.349 114.409 269.928C113.128 270.939 112.857 272.773 113.792 274.111C114.783 275.387 116.622 275.619 117.899 274.628C117.925 274.608 117.951 274.586 117.977 274.565C126.304 267.627 155.625 260.625 202.358 260.625C249.091 260.625 278.413 267.627 286.739 274.565C287.981 275.601 289.825 275.432 290.86 274.191C290.865 274.185 290.87 274.179 290.875 274.172C291.867 272.831 291.61 270.944 290.295 269.919C284.601 265.321 270.515 260.268 247.163 257.317C250.324 252.406 254.522 248.246 259.461 245.13C269.391 239.794 263.759 232.107 264.113 222.75C264.535 212.026 277.27 216.742 283.276 210.178C290.106 202.737 278.645 197.059 281.072 188.696C283.961 178.74 296.194 184.533 299.694 178.171C305.655 167.311 284.297 166.243 294.588 156.134ZM193.002 234.821C187.949 229.783 186.938 227.05 188.497 222.638C192.034 212.61 185.316 208.168 181.302 205.515C178.45 203.876 175.983 201.646 174.067 198.972C173.926 198.767 173.805 198.549 173.705 198.321C174.669 197.112 175.76 196.01 176.96 195.033C180.535 192.265 183.359 188.645 185.176 184.504C187.939 177.107 183.539 170.332 180.003 164.888C177.844 161.562 175.396 157.792 175.764 155.597C176.423 151.673 178.449 149.94 182.604 146.698C186.974 143.643 190.642 139.688 193.36 135.1C198.432 125.939 193.426 117.986 189.772 112.178C186.438 106.879 184.991 104.074 186.141 101.247C187.515 97.8548 191.842 96.6457 198.807 95.0583C204.821 93.6874 211.639 92.1345 216.123 87.1906C223.118 79.495 218.805 69.7702 215.655 62.6692C214.466 59.987 212.475 55.4979 212.849 54.203C214.383 50.5189 217.589 48.9205 222.693 46.6191C226.015 45.2865 229.144 43.5186 232 41.3614C236.503 37.6897 236.356 32.0993 236.239 27.6076C235.725 24.5005 236.281 21.3122 237.815 18.5618C239.183 16.8998 244.695 13.6147 253.473 12.4802C249.968 17.3774 247.498 23.0496 249.327 28.1105C250.991 31.7783 253.77 34.8269 257.268 36.8236C258.511 37.6 259.652 38.5311 260.663 39.5935V39.5961C259.839 43.2626 255.972 47.7958 252.561 51.7937C247.33 57.9254 241.92 64.2669 243.399 71.494C244.152 74.9675 245.701 78.2189 247.925 80.9913C249.698 82.6774 250.28 85.266 249.398 87.5492C248.732 90.4036 242.435 93.3677 238.267 95.3267C232.232 98.1661 225.992 101.103 226.016 107.374C226.391 111.218 228.024 114.829 230.663 117.648C231.385 118.569 232.059 119.528 232.68 120.521C230.012 122.231 227.137 123.595 224.124 124.578C218.633 126.661 212.955 128.815 210.62 134.302C208.093 140.243 212.104 145.79 215.643 150.686C217.153 152.545 218.41 154.596 219.381 156.785C218.92 158.381 216.49 159.73 212.882 161.579C207.63 164.269 200.439 167.953 200.35 176.738C200.262 185.374 206.625 190.925 211.738 195.385C215.993 199.098 218.772 201.721 218.633 204.247C218.251 211.078 217.11 211.931 215.384 213.221C213.319 214.628 211.592 216.478 210.329 218.633C204.366 229.081 210.762 235.021 214.583 238.57C216.834 240.372 218.665 242.643 219.95 245.225C221.425 248.698 220.626 250.727 215.288 254.98C211.134 254.86 206.867 254.776 202.358 254.776C202.277 254.776 202.201 254.777 202.119 254.777C201.948 247.156 198.652 239.939 193.002 234.821ZM149.3 240.527C145.558 237.794 142.401 234.342 140.011 230.372C138.169 226.795 139.258 221.364 140.308 216.113C141.793 211.052 141.995 205.7 140.896 200.541C139.768 196.052 135.654 192.963 131.028 193.133C129.813 193.158 128.601 193.273 127.402 193.476C126.638 193.61 125.866 193.692 125.09 193.724C124.902 193.735 124.714 193.716 124.533 193.67C124.114 193.263 123.801 192.761 123.619 192.206C121.975 188.493 121.411 184.393 121.991 180.374C122.307 176.313 122.245 172.231 121.804 168.183C121.302 161.641 117.057 155.982 110.917 153.67C109.369 153.046 107.964 152.113 106.788 150.929C104.234 147.881 101.707 141.151 102.719 138.7C102.936 138.174 103.943 137.942 104.718 137.841C108.928 138.118 114.546 139.624 115.558 141.205C116.771 143.199 117.864 145.264 118.83 147.388C121.484 152.912 124.492 159.171 131.303 162.37C134.428 163.837 137.049 164.824 139.156 165.617C144.413 167.597 144.647 167.775 145.424 170.406C146.018 173.202 145.74 176.113 144.627 178.745C142.489 183.88 142.757 189.702 145.358 194.618C147.409 198.016 150.872 200.319 154.798 200.897C157.066 201.423 157.495 201.522 158.399 204.288C158.371 206.188 158.18 208.082 157.828 209.949C156.937 214.617 156.705 219.386 157.14 224.118C157.91 229.754 162.507 232.997 166.563 235.858C171.796 239.551 173.92 241.438 173.404 244.951C172.45 248.834 171.004 252.579 169.102 256.095C167.208 256.256 165.394 256.437 163.598 256.621C159.853 250.429 155.008 244.974 149.3 240.527ZM294.609 175.279C293.359 175.705 292.062 175.978 290.747 176.093C286.029 176.748 278.131 177.847 275.455 187.067C274.332 191.969 275.265 197.118 278.037 201.314C280.002 205.096 279.885 205.225 278.962 206.23C277.068 207.623 274.834 208.478 272.494 208.706C267.671 209.752 258.693 211.7 258.27 222.529C258.224 225.501 258.475 228.471 259.018 231.392C259.959 237.395 259.891 238.26 256.692 239.98C250.334 243.929 244.997 249.324 241.118 255.725C240.857 256.112 240.624 256.054 240.596 255.59C240.25 249.906 239.435 244.261 238.162 238.711L238.129 238.567L238.089 238.425C234.051 224.168 234.302 223.831 237.373 219.719C239.068 217.606 241.256 215.939 243.745 214.866C248.296 212.938 251.973 209.395 254.066 204.917C255.549 200.83 255.238 196.308 253.21 192.463C251.719 188.655 251.532 187.668 252.955 185.865C254.226 185.216 255.599 184.792 257.014 184.61C261.719 184.192 266.015 181.762 268.797 177.944C271.689 173.285 269.404 168.229 267.736 164.537C267.006 163.107 266.448 161.595 266.072 160.034L266.084 160.009C266.46 159.746 266.867 159.531 267.297 159.369C284.577 152.347 285.545 141.453 286.252 133.498C286.389 131.955 286.519 130.497 286.754 129.161C287.357 126.803 289.591 125.238 292.014 125.476C292.53 125.476 297.085 125.59 297.832 129.516C299.324 137.756 296.566 146.195 290.493 151.962C287.647 154.347 285.971 157.846 285.899 161.56C286.411 165.667 288.678 169.351 292.114 171.659C293.172 172.469 294.115 173.419 294.919 174.482C295.056 174.781 294.924 175.135 294.626 175.272C294.62 175.275 294.615 175.277 294.609 175.279Z" fill="#444444" stroke="#444444" stroke-width="4.5"/>
</svg>
