<svg width="1500" height="300" viewBox="0 0 1500 300" fill="none" xmlns="http://www.w3.org/2000/svg" xmlns:xlink="http://www.w3.org/1999/xlink">
<rect width="1500" height="300" fill="#FFC000" fill-opacity="0.15"/>
<path d="M145.633 281.868L163.959 145.386" stroke="#8D8D8D" stroke-width="14" stroke-miterlimit="10" stroke-linecap="round" stroke-linejoin="round"/>
<path fill-rule="evenodd" clip-rule="evenodd" d="M262.918 134.398C262.983 140.401 257.925 145.316 251.616 145.386H153.516C147.139 145.386 141.968 140.47 141.968 134.398C141.968 128.325 147.139 123.41 153.516 123.41H251.616C257.925 123.479 262.983 128.395 262.918 134.398Z" stroke="#8D8D8D" stroke-width="14" stroke-miterlimit="10" stroke-linecap="round" stroke-linejoin="round"/>
<path fill-rule="evenodd" clip-rule="evenodd" d="M249.48 67.0939C249.116 72.9233 243.878 77.3878 237.718 77.1333H167.169C161.01 77.3878 155.773 72.9233 155.407 67.0939C155.773 61.276 161.01 56.7998 167.169 57.0658H167.35C168.592 39.7974 184.181 26.6466 202.443 27.4446C220.659 26.6928 236.189 39.8205 237.443 57.0311H237.718C243.89 56.7767 249.133 61.2645 249.48 67.0939Z" stroke="#8D8D8D" stroke-width="14" stroke-miterlimit="10" stroke-linecap="round" stroke-linejoin="round"/>
<path d="M165.181 77.1445V123.41" stroke="#8D8D8D" stroke-width="14" stroke-miterlimit="10" stroke-linecap="round" stroke-linejoin="round"/>
<path d="M238.484 77.1445V123.41" stroke="#8D8D8D" stroke-width="14" stroke-miterlimit="10" stroke-linecap="round" stroke-linejoin="round"/>
<path d="M203.054 77.1445V123.41" stroke="#8D8D8D" stroke-width="14" stroke-miterlimit="10" stroke-linecap="round" stroke-linejoin="round"/>
<path d="M203.054 27.4096V17" stroke="#8D8D8D" stroke-width="14" stroke-miterlimit="10" stroke-linecap="round" stroke-linejoin="round"/>
<path d="M258.032 270.302L240.928 145.386" stroke="#8D8D8D" stroke-width="14" stroke-miterlimit="10" stroke-linecap="round" stroke-linejoin="round"/>
<path d="M167.625 56.3252H238.484" stroke="#8D8D8D" stroke-width="14" stroke-miterlimit="10" stroke-linecap="round" stroke-linejoin="round"/>
<path d="M78.439 276.929C86.374 286.853 93.2707 283.267 104.798 276.061C115.265 269.503 128.296 261.361 140.744 276.929C148.679 286.853 155.576 283.267 167.103 276.061C177.569 269.503 190.611 261.361 203.059 276.929C210.996 286.853 217.892 283.267 229.408 276.061C239.886 269.503 252.916 261.361 265.365 276.929C273.3 286.853 280.197 283.267 291.713 276.061C302.191 269.503 315.233 261.361 327.67 276.929" stroke="#8D8D8D" stroke-width="14" stroke-miterlimit="10" stroke-linecap="round" stroke-linejoin="round"/>
<path d="M156.629 202.06L243.371 162.735" stroke="#8D8D8D" stroke-width="14" stroke-miterlimit="10" stroke-linecap="round" stroke-linejoin="round"/>
<path d="M149.298 257.578L249.479 210.157" stroke="#8D8D8D" stroke-width="14" stroke-miterlimit="10" stroke-linecap="round" stroke-linejoin="round"/>
<path d="M101.651 69.0483L132.194 84.0845" stroke="#FFC000" stroke-width="14" stroke-miterlimit="10" stroke-linecap="round" stroke-linejoin="round"/>
<path d="M65 102.59H128.531" stroke="#FFC000" stroke-width="14" stroke-miterlimit="10" stroke-linecap="round" stroke-linejoin="round"/>
<path d="M132.194 119.94L101.651 136.133" stroke="#FFC000" stroke-width="14" stroke-miterlimit="10" stroke-linecap="round" stroke-linejoin="round"/>
<path d="M298.348 136.133L267.805 119.94" stroke="#FFC000" stroke-width="14" stroke-miterlimit="10" stroke-linecap="round" stroke-linejoin="round"/>
<path d="M335 102.59H271.471" stroke="#FFC000" stroke-width="14" stroke-miterlimit="10" stroke-linecap="round" stroke-linejoin="round"/>
<path d="M267.805 84.0845L298.348 69.0483" stroke="#FFC000" stroke-width="14" stroke-miterlimit="10" stroke-linecap="round" stroke-linejoin="round"/>
<path d="M450.187 194.44C443.707 194.44 437.667 193.4 432.067 191.32C426.547 189.16 421.747 186.12 417.667 182.2C413.587 178.28 410.387 173.68 408.067 168.4C405.827 163.12 404.707 157.32 404.707 151C404.707 144.68 405.827 138.88 408.067 133.6C410.387 128.32 413.587 123.72 417.667 119.8C421.827 115.88 426.667 112.88 432.187 110.8C437.707 108.64 443.747 107.56 450.307 107.56C457.587 107.56 464.147 108.84 469.987 111.4C475.907 113.88 480.867 117.56 484.867 122.44L472.387 133.96C469.507 130.68 466.307 128.24 462.787 126.64C459.267 124.96 455.427 124.12 451.267 124.12C447.347 124.12 443.747 124.76 440.467 126.04C437.187 127.32 434.347 129.16 431.947 131.56C429.547 133.96 427.667 136.8 426.307 140.08C425.027 143.36 424.387 147 424.387 151C424.387 155 425.027 158.64 426.307 161.92C427.667 165.2 429.547 168.04 431.947 170.44C434.347 172.84 437.187 174.68 440.467 175.96C443.747 177.24 447.347 177.88 451.267 177.88C455.427 177.88 459.267 177.08 462.787 175.48C466.307 173.8 469.507 171.28 472.387 167.92L484.867 179.44C480.867 184.32 475.907 188.04 469.987 190.6C464.147 193.16 457.547 194.44 450.187 194.44ZM496.675 193V128.44H514.555V146.68L512.035 141.4C513.955 136.84 517.035 133.4 521.275 131.08C525.515 128.68 530.675 127.48 536.755 127.48V144.76C535.955 144.68 535.235 144.64 534.595 144.64C533.955 144.56 533.275 144.52 532.555 144.52C527.435 144.52 523.275 146 520.075 148.96C516.955 151.84 515.395 156.36 515.395 162.52V193H496.675ZM578.137 193.96C571.257 193.96 565.137 192.52 559.777 189.64C554.497 186.76 550.297 182.84 547.177 177.88C544.137 172.84 542.617 167.12 542.617 160.72C542.617 154.24 544.137 148.52 547.177 143.56C550.297 138.52 554.497 134.6 559.777 131.8C565.137 128.92 571.257 127.48 578.137 127.48C584.937 127.48 591.017 128.92 596.377 131.8C601.737 134.6 605.937 138.48 608.977 143.44C612.017 148.4 613.537 154.16 613.537 160.72C613.537 167.12 612.017 172.84 608.977 177.88C605.937 182.84 601.737 186.76 596.377 189.64C591.017 192.52 584.937 193.96 578.137 193.96ZM578.137 178.6C581.257 178.6 584.057 177.88 586.537 176.44C589.017 175 590.977 172.96 592.417 170.32C593.857 167.6 594.577 164.4 594.577 160.72C594.577 156.96 593.857 153.76 592.417 151.12C590.977 148.48 589.017 146.44 586.537 145C584.057 143.56 581.257 142.84 578.137 142.84C575.017 142.84 572.217 143.56 569.737 145C567.257 146.44 565.257 148.48 563.737 151.12C562.297 153.76 561.577 156.96 561.577 160.72C561.577 164.4 562.297 167.6 563.737 170.32C565.257 172.96 567.257 175 569.737 176.44C572.217 177.88 575.017 178.6 578.137 178.6ZM647.77 193.96C642.25 193.96 636.93 193.32 631.81 192.04C626.77 190.68 622.77 189 619.81 187L626.05 173.56C629.01 175.4 632.49 176.92 636.49 178.12C640.57 179.24 644.57 179.8 648.49 179.8C652.81 179.8 655.85 179.28 657.61 178.24C659.45 177.2 660.37 175.76 660.37 173.92C660.37 172.4 659.65 171.28 658.21 170.56C656.85 169.76 655.01 169.16 652.69 168.76C650.37 168.36 647.81 167.96 645.01 167.56C642.29 167.16 639.53 166.64 636.73 166C633.93 165.28 631.37 164.24 629.05 162.88C626.73 161.52 624.85 159.68 623.41 157.36C622.05 155.04 621.37 152.04 621.37 148.36C621.37 144.28 622.53 140.68 624.85 137.56C627.25 134.44 630.69 132 635.17 130.24C639.65 128.4 645.01 127.48 651.25 127.48C655.65 127.48 660.13 127.96 664.69 128.92C669.25 129.88 673.05 131.28 676.09 133.12L669.85 146.44C666.73 144.6 663.57 143.36 660.37 142.72C657.25 142 654.21 141.64 651.25 141.64C647.09 141.64 644.05 142.2 642.13 143.32C640.21 144.44 639.25 145.88 639.25 147.64C639.25 149.24 639.93 150.44 641.29 151.24C642.73 152.04 644.61 152.68 646.93 153.16C649.25 153.64 651.77 154.08 654.49 154.48C657.29 154.8 660.09 155.32 662.89 156.04C665.69 156.76 668.21 157.8 670.45 159.16C672.77 160.44 674.65 162.24 676.09 164.56C677.53 166.8 678.25 169.76 678.25 173.44C678.25 177.44 677.05 181 674.65 184.12C672.25 187.16 668.77 189.56 664.21 191.32C659.73 193.08 654.25 193.96 647.77 193.96ZM711.52 193.96C706 193.96 700.68 193.32 695.56 192.04C690.52 190.68 686.52 189 683.56 187L689.8 173.56C692.76 175.4 696.24 176.92 700.24 178.12C704.32 179.24 708.32 179.8 712.24 179.8C716.56 179.8 719.6 179.28 721.36 178.24C723.2 177.2 724.12 175.76 724.12 173.92C724.12 172.4 723.4 171.28 721.96 170.56C720.6 169.76 718.76 169.16 716.44 168.76C714.12 168.36 711.56 167.96 708.76 167.56C706.04 167.16 703.28 166.64 700.48 166C697.68 165.28 695.12 164.24 692.8 162.88C690.48 161.52 688.6 159.68 687.16 157.36C685.8 155.04 685.12 152.04 685.12 148.36C685.12 144.28 686.28 140.68 688.6 137.56C691 134.44 694.44 132 698.92 130.24C703.4 128.4 708.76 127.48 715 127.48C719.4 127.48 723.88 127.96 728.44 128.92C733 129.88 736.8 131.28 739.84 133.12L733.6 146.44C730.48 144.6 727.32 143.36 724.12 142.72C721 142 717.96 141.64 715 141.64C710.84 141.64 707.8 142.2 705.88 143.32C703.96 144.44 703 145.88 703 147.64C703 149.24 703.68 150.44 705.04 151.24C706.48 152.04 708.36 152.68 710.68 153.16C713 153.64 715.52 154.08 718.24 154.48C721.04 154.8 723.84 155.32 726.64 156.04C729.44 156.76 731.96 157.8 734.2 159.16C736.52 160.44 738.4 162.24 739.84 164.56C741.28 166.8 742 169.76 742 173.44C742 177.44 740.8 181 738.4 184.12C736 187.16 732.52 189.56 727.96 191.32C723.48 193.08 718 193.96 711.52 193.96ZM751.15 166.72V151.72H785.11V166.72H751.15ZM819.159 146.8H859.479V162.4H819.159V146.8ZM820.599 193H801.159V109H864.639V124.6H820.599V193ZM902.196 193.96C896.836 193.96 892.036 192.92 887.796 190.84C883.636 188.76 880.396 185.6 878.076 181.36C875.756 177.04 874.596 171.56 874.596 164.92V128.44H893.316V162.16C893.316 167.52 894.436 171.48 896.676 174.04C898.996 176.52 902.236 177.76 906.396 177.76C909.276 177.76 911.836 177.16 914.076 175.96C916.316 174.68 918.076 172.76 919.356 170.2C920.636 167.56 921.276 164.28 921.276 160.36V128.44H939.996V193H922.236V175.24L925.476 180.4C923.316 184.88 920.116 188.28 915.876 190.6C911.716 192.84 907.156 193.96 902.196 193.96ZM996.579 127.48C1001.7 127.48 1006.26 128.52 1010.26 130.6C1014.34 132.6 1017.54 135.72 1019.86 139.96C1022.18 144.12 1023.34 149.48 1023.34 156.04V193H1004.62V158.92C1004.62 153.72 1003.46 149.88 1001.14 147.4C998.899 144.92 995.699 143.68 991.539 143.68C988.579 143.68 985.899 144.32 983.499 145.6C981.179 146.8 979.339 148.68 977.979 151.24C976.699 153.8 976.059 157.08 976.059 161.08V193H957.339V128.44H975.219V146.32L971.859 140.92C974.179 136.6 977.499 133.28 981.819 130.96C986.139 128.64 991.059 127.48 996.579 127.48ZM1071.98 193.96C1065.02 193.96 1058.82 192.56 1053.38 189.76C1047.94 186.88 1043.66 182.92 1040.54 177.88C1037.5 172.84 1035.98 167.12 1035.98 160.72C1035.98 154.24 1037.5 148.52 1040.54 143.56C1043.66 138.52 1047.94 134.6 1053.38 131.8C1058.82 128.92 1065.02 127.48 1071.98 127.48C1078.78 127.48 1084.7 128.92 1089.74 131.8C1094.78 134.6 1098.5 138.64 1100.9 143.92L1086.38 151.72C1084.7 148.68 1082.58 146.44 1080.02 145C1077.54 143.56 1074.82 142.84 1071.86 142.84C1068.66 142.84 1065.78 143.56 1063.22 145C1060.66 146.44 1058.62 148.48 1057.1 151.12C1055.66 153.76 1054.94 156.96 1054.94 160.72C1054.94 164.48 1055.66 167.68 1057.1 170.32C1058.62 172.96 1060.66 175 1063.22 176.44C1065.78 177.88 1068.66 178.6 1071.86 178.6C1074.82 178.6 1077.54 177.92 1080.02 176.56C1082.58 175.12 1084.7 172.84 1086.38 169.72L1100.9 177.64C1098.5 182.84 1094.78 186.88 1089.74 189.76C1084.7 192.56 1078.78 193.96 1071.98 193.96ZM1139.01 193.96C1131.41 193.96 1125.49 192.04 1121.25 188.2C1117.01 184.28 1114.89 178.48 1114.89 170.8V114.16H1133.61V170.56C1133.61 173.28 1134.33 175.4 1135.77 176.92C1137.21 178.36 1139.17 179.08 1141.65 179.08C1144.61 179.08 1147.13 178.28 1149.21 176.68L1154.25 189.88C1152.33 191.24 1150.01 192.28 1147.29 193C1144.65 193.64 1141.89 193.96 1139.01 193.96ZM1104.93 144.28V129.88H1149.69V144.28H1104.93ZM1164.76 193V128.44H1183.48V193H1164.76ZM1174.12 119.44C1170.68 119.44 1167.88 118.44 1165.72 116.44C1163.56 114.44 1162.48 111.96 1162.48 109C1162.48 106.04 1163.56 103.56 1165.72 101.56C1167.88 99.56 1170.68 98.56 1174.12 98.56C1177.56 98.56 1180.36 99.52 1182.52 101.44C1184.68 103.28 1185.76 105.68 1185.76 108.64C1185.76 111.76 1184.68 114.36 1182.52 116.44C1180.44 118.44 1177.64 119.44 1174.12 119.44ZM1231.57 193.96C1224.69 193.96 1218.57 192.52 1213.21 189.64C1207.93 186.76 1203.73 182.84 1200.61 177.88C1197.57 172.84 1196.05 167.12 1196.05 160.72C1196.05 154.24 1197.57 148.52 1200.61 143.56C1203.73 138.52 1207.93 134.6 1213.21 131.8C1218.57 128.92 1224.69 127.48 1231.57 127.48C1238.37 127.48 1244.45 128.92 1249.81 131.8C1255.17 134.6 1259.37 138.48 1262.41 143.44C1265.45 148.4 1266.97 154.16 1266.97 160.72C1266.97 167.12 1265.45 172.84 1262.41 177.88C1259.37 182.84 1255.17 186.76 1249.81 189.64C1244.45 192.52 1238.37 193.96 1231.57 193.96ZM1231.57 178.6C1234.69 178.6 1237.49 177.88 1239.97 176.44C1242.45 175 1244.41 172.96 1245.85 170.32C1247.29 167.6 1248.01 164.4 1248.01 160.72C1248.01 156.96 1247.29 153.76 1245.85 151.12C1244.41 148.48 1242.45 146.44 1239.97 145C1237.49 143.56 1234.69 142.84 1231.57 142.84C1228.45 142.84 1225.65 143.56 1223.17 145C1220.69 146.44 1218.69 148.48 1217.17 151.12C1215.73 153.76 1215.01 156.96 1215.01 160.72C1215.01 164.4 1215.73 167.6 1217.17 170.32C1218.69 172.96 1220.69 175 1223.17 176.44C1225.65 177.88 1228.45 178.6 1231.57 178.6ZM1318.73 127.48C1323.85 127.48 1328.41 128.52 1332.41 130.6C1336.49 132.6 1339.69 135.72 1342.01 139.96C1344.33 144.12 1345.49 149.48 1345.49 156.04V193H1326.77V158.92C1326.77 153.72 1325.61 149.88 1323.29 147.4C1321.05 144.92 1317.85 143.68 1313.69 143.68C1310.73 143.68 1308.05 144.32 1305.65 145.6C1303.33 146.8 1301.49 148.68 1300.13 151.24C1298.85 153.8 1298.21 157.08 1298.21 161.08V193H1279.49V128.44H1297.37V146.32L1294.01 140.92C1296.33 136.6 1299.65 133.28 1303.97 130.96C1308.29 128.64 1313.21 127.48 1318.73 127.48ZM1402.06 193V180.4L1400.86 177.64V155.08C1400.86 151.08 1399.62 147.96 1397.14 145.72C1394.74 143.48 1391.02 142.36 1385.98 142.36C1382.54 142.36 1379.14 142.92 1375.78 144.04C1372.5 145.08 1369.7 146.52 1367.38 148.36L1360.66 135.28C1364.18 132.8 1368.42 130.88 1373.38 129.52C1378.34 128.16 1383.38 127.48 1388.5 127.48C1398.34 127.48 1405.98 129.8 1411.42 134.44C1416.86 139.08 1419.58 146.32 1419.58 156.16V193H1402.06ZM1382.38 193.96C1377.34 193.96 1373.02 193.12 1369.42 191.44C1365.82 189.68 1363.06 187.32 1361.14 184.36C1359.22 181.4 1358.26 178.08 1358.26 174.4C1358.26 170.56 1359.18 167.2 1361.02 164.32C1362.94 161.44 1365.94 159.2 1370.02 157.6C1374.1 155.92 1379.42 155.08 1385.98 155.08H1403.14V166H1388.02C1383.62 166 1380.58 166.72 1378.9 168.16C1377.3 169.6 1376.5 171.4 1376.5 173.56C1376.5 175.96 1377.42 177.88 1379.26 179.32C1381.18 180.68 1383.78 181.36 1387.06 181.36C1390.18 181.36 1392.98 180.64 1395.46 179.2C1397.94 177.68 1399.74 175.48 1400.86 172.6L1403.74 181.24C1402.38 185.4 1399.9 188.56 1396.3 190.72C1392.7 192.88 1388.06 193.96 1382.38 193.96ZM1436.52 193V103.96H1455.24V193H1436.52Z" fill="#FFC000"/>
<defs>
<g id="stroke0_50_198" data-figma-scatter-ref="stroke0_50_198_ref" data-figma-scatter="f0.37_w0_aj180_sj0.11_r0_s16715597685702232959_sw3">
</g>
<path id="stroke0_50_198_ref" d="M450.187 194.44C443.707 194.44 437.667 193.4 432.067 191.32C426.547 189.16 421.747 186.12 417.667 182.2C413.587 178.28 410.387 173.68 408.067 168.4C405.827 163.12 404.707 157.32 404.707 151C404.707 144.68 405.827 138.88 408.067 133.6C410.387 128.32 413.587 123.72 417.667 119.8C421.827 115.88 426.667 112.88 432.187 110.8C437.707 108.64 443.747 107.56 450.307 107.56C457.587 107.56 464.147 108.84 469.987 111.4C475.907 113.88 480.867 117.56 484.867 122.44L472.387 133.96C469.507 130.68 466.307 128.24 462.787 126.64C459.267 124.96 455.427 124.12 451.267 124.12C447.347 124.12 443.747 124.76 440.467 126.04C437.187 127.32 434.347 129.16 431.947 131.56C429.547 133.96 427.667 136.8 426.307 140.08C425.027 143.36 424.387 147 424.387 151C424.387 155 425.027 158.64 426.307 161.92C427.667 165.2 429.547 168.04 431.947 170.44C434.347 172.84 437.187 174.68 440.467 175.96C443.747 177.24 447.347 177.88 451.267 177.88C455.427 177.88 459.267 177.08 462.787 175.48C466.307 173.8 469.507 171.28 472.387 167.92L484.867 179.44C480.867 184.32 475.907 188.04 469.987 190.6C464.147 193.16 457.547 194.44 450.187 194.44ZM496.675 193V128.44H514.555V146.68L512.035 141.4C513.955 136.84 517.035 133.4 521.275 131.08C525.515 128.68 530.675 127.48 536.755 127.48V144.76C535.955 144.68 535.235 144.64 534.595 144.64C533.955 144.56 533.275 144.52 532.555 144.52C527.435 144.52 523.275 146 520.075 148.96C516.955 151.84 515.395 156.36 515.395 162.52V193H496.675ZM578.137 193.96C571.257 193.96 565.137 192.52 559.777 189.64C554.497 186.76 550.297 182.84 547.177 177.88C544.137 172.84 542.617 167.12 542.617 160.72C542.617 154.24 544.137 148.52 547.177 143.56C550.297 138.52 554.497 134.6 559.777 131.8C565.137 128.92 571.257 127.48 578.137 127.48C584.937 127.48 591.017 128.92 596.377 131.8C601.737 134.6 605.937 138.48 608.977 143.44C612.017 148.4 613.537 154.16 613.537 160.72C613.537 167.12 612.017 172.84 608.977 177.88C605.937 182.84 601.737 186.76 596.377 189.64C591.017 192.52 584.937 193.96 578.137 193.96ZM578.137 178.6C581.257 178.6 584.057 177.88 586.537 176.44C589.017 175 590.977 172.96 592.417 170.32C593.857 167.6 594.577 164.4 594.577 160.72C594.577 156.96 593.857 153.76 592.417 151.12C590.977 148.48 589.017 146.44 586.537 145C584.057 143.56 581.257 142.84 578.137 142.84C575.017 142.84 572.217 143.56 569.737 145C567.257 146.44 565.257 148.48 563.737 151.12C562.297 153.76 561.577 156.96 561.577 160.72C561.577 164.4 562.297 167.6 563.737 170.32C565.257 172.96 567.257 175 569.737 176.44C572.217 177.88 575.017 178.6 578.137 178.6ZM647.77 193.96C642.25 193.96 636.93 193.32 631.81 192.04C626.77 190.68 622.77 189 619.81 187L626.05 173.56C629.01 175.4 632.49 176.92 636.49 178.12C640.57 179.24 644.57 179.8 648.49 179.8C652.81 179.8 655.85 179.28 657.61 178.24C659.45 177.2 660.37 175.76 660.37 173.92C660.37 172.4 659.65 171.28 658.21 170.56C656.85 169.76 655.01 169.16 652.69 168.76C650.37 168.36 647.81 167.96 645.01 167.56C642.29 167.16 639.53 166.64 636.73 166C633.93 165.28 631.37 164.24 629.05 162.88C626.73 161.52 624.85 159.68 623.41 157.36C622.05 155.04 621.37 152.04 621.37 148.36C621.37 144.28 622.53 140.68 624.85 137.56C627.25 134.44 630.69 132 635.17 130.24C639.65 128.4 645.01 127.48 651.25 127.48C655.65 127.48 660.13 127.96 664.69 128.92C669.25 129.88 673.05 131.28 676.09 133.12L669.85 146.44C666.73 144.6 663.57 143.36 660.37 142.72C657.25 142 654.21 141.64 651.25 141.64C647.09 141.64 644.05 142.2 642.13 143.32C640.21 144.44 639.25 145.88 639.25 147.64C639.25 149.24 639.93 150.44 641.29 151.24C642.73 152.04 644.61 152.68 646.93 153.16C649.25 153.64 651.77 154.08 654.49 154.48C657.29 154.8 660.09 155.32 662.89 156.04C665.69 156.76 668.21 157.8 670.45 159.16C672.77 160.44 674.65 162.24 676.09 164.56C677.53 166.8 678.25 169.76 678.25 173.44C678.25 177.44 677.05 181 674.65 184.12C672.25 187.16 668.77 189.56 664.21 191.32C659.73 193.08 654.25 193.96 647.77 193.96ZM711.52 193.96C706 193.96 700.68 193.32 695.56 192.04C690.52 190.68 686.52 189 683.56 187L689.8 173.56C692.76 175.4 696.24 176.92 700.24 178.12C704.32 179.24 708.32 179.8 712.24 179.8C716.56 179.8 719.6 179.28 721.36 178.24C723.2 177.2 724.12 175.76 724.12 173.92C724.12 172.4 723.4 171.28 721.96 170.56C720.6 169.76 718.76 169.16 716.44 168.76C714.12 168.36 711.56 167.96 708.76 167.56C706.04 167.16 703.28 166.64 700.48 166C697.68 165.28 695.12 164.24 692.8 162.88C690.48 161.52 688.6 159.68 687.16 157.36C685.8 155.04 685.12 152.04 685.12 148.36C685.12 144.28 686.28 140.68 688.6 137.56C691 134.44 694.44 132 698.92 130.24C703.4 128.4 708.76 127.48 715 127.48C719.4 127.48 723.88 127.96 728.44 128.92C733 129.88 736.8 131.28 739.84 133.12L733.6 146.44C730.48 144.6 727.32 143.36 724.12 142.72C721 142 717.96 141.64 715 141.64C710.84 141.64 707.8 142.2 705.88 143.32C703.96 144.44 703 145.88 703 147.64C703 149.24 703.68 150.44 705.04 151.24C706.48 152.04 708.36 152.68 710.68 153.16C713 153.64 715.52 154.08 718.24 154.48C721.04 154.8 723.84 155.32 726.64 156.04C729.44 156.76 731.96 157.8 734.2 159.16C736.52 160.44 738.4 162.24 739.84 164.56C741.28 166.8 742 169.76 742 173.44C742 177.44 740.8 181 738.4 184.12C736 187.16 732.52 189.56 727.96 191.32C723.48 193.08 718 193.96 711.52 193.96ZM751.15 166.72V151.72H785.11V166.72H751.15ZM819.159 146.8H859.479V162.4H819.159V146.8ZM820.599 193H801.159V109H864.639V124.6H820.599V193ZM902.196 193.96C896.836 193.96 892.036 192.92 887.796 190.84C883.636 188.76 880.396 185.6 878.076 181.36C875.756 177.04 874.596 171.56 874.596 164.92V128.44H893.316V162.16C893.316 167.52 894.436 171.48 896.676 174.04C898.996 176.52 902.236 177.76 906.396 177.76C909.276 177.76 911.836 177.16 914.076 175.96C916.316 174.68 918.076 172.76 919.356 170.2C920.636 167.56 921.276 164.28 921.276 160.36V128.44H939.996V193H922.236V175.24L925.476 180.4C923.316 184.88 920.116 188.28 915.876 190.6C911.716 192.84 907.156 193.96 902.196 193.96ZM996.579 127.48C1001.7 127.48 1006.26 128.52 1010.26 130.6C1014.34 132.6 1017.54 135.72 1019.86 139.96C1022.18 144.12 1023.34 149.48 1023.34 156.04V193H1004.62V158.92C1004.62 153.72 1003.46 149.88 1001.14 147.4C998.899 144.92 995.699 143.68 991.539 143.68C988.579 143.68 985.899 144.32 983.499 145.6C981.179 146.8 979.339 148.68 977.979 151.24C976.699 153.8 976.059 157.08 976.059 161.08V193H957.339V128.44H975.219V146.32L971.859 140.92C974.179 136.6 977.499 133.28 981.819 130.96C986.139 128.64 991.059 127.48 996.579 127.48ZM1071.98 193.96C1065.02 193.96 1058.82 192.56 1053.38 189.76C1047.94 186.88 1043.66 182.92 1040.54 177.88C1037.5 172.84 1035.98 167.12 1035.98 160.72C1035.98 154.24 1037.5 148.52 1040.54 143.56C1043.66 138.52 1047.94 134.6 1053.38 131.8C1058.82 128.92 1065.02 127.48 1071.98 127.48C1078.78 127.48 1084.7 128.92 1089.74 131.8C1094.78 134.6 1098.5 138.64 1100.9 143.92L1086.38 151.72C1084.7 148.68 1082.58 146.44 1080.02 145C1077.54 143.56 1074.82 142.84 1071.86 142.84C1068.66 142.84 1065.78 143.56 1063.22 145C1060.66 146.44 1058.62 148.48 1057.1 151.12C1055.66 153.76 1054.94 156.96 1054.94 160.72C1054.94 164.48 1055.66 167.68 1057.1 170.32C1058.62 172.96 1060.66 175 1063.22 176.44C1065.78 177.88 1068.66 178.6 1071.86 178.6C1074.82 178.6 1077.54 177.92 1080.02 176.56C1082.58 175.12 1084.7 172.84 1086.38 169.72L1100.9 177.64C1098.5 182.84 1094.78 186.88 1089.74 189.76C1084.7 192.56 1078.78 193.96 1071.98 193.96ZM1139.01 193.96C1131.41 193.96 1125.49 192.04 1121.25 188.2C1117.01 184.28 1114.89 178.48 1114.89 170.8V114.16H1133.61V170.56C1133.61 173.28 1134.33 175.4 1135.77 176.92C1137.21 178.36 1139.17 179.08 1141.65 179.08C1144.61 179.08 1147.13 178.28 1149.21 176.68L1154.25 189.88C1152.33 191.24 1150.01 192.28 1147.29 193C1144.65 193.64 1141.89 193.96 1139.01 193.96ZM1104.93 144.28V129.88H1149.69V144.28H1104.93ZM1164.76 193V128.44H1183.48V193H1164.76ZM1174.12 119.44C1170.68 119.44 1167.88 118.44 1165.72 116.44C1163.56 114.44 1162.48 111.96 1162.48 109C1162.48 106.04 1163.56 103.56 1165.72 101.56C1167.88 99.56 1170.68 98.56 1174.12 98.56C1177.56 98.56 1180.36 99.52 1182.52 101.44C1184.68 103.28 1185.76 105.68 1185.76 108.64C1185.76 111.76 1184.68 114.36 1182.52 116.44C1180.44 118.44 1177.64 119.44 1174.12 119.44ZM1231.57 193.96C1224.69 193.96 1218.57 192.52 1213.21 189.64C1207.93 186.76 1203.73 182.84 1200.61 177.88C1197.57 172.84 1196.05 167.12 1196.05 160.72C1196.05 154.24 1197.57 148.52 1200.61 143.56C1203.73 138.52 1207.93 134.6 1213.21 131.8C1218.57 128.92 1224.69 127.48 1231.57 127.48C1238.37 127.48 1244.45 128.92 1249.81 131.8C1255.17 134.6 1259.37 138.48 1262.41 143.44C1265.45 148.4 1266.97 154.16 1266.97 160.72C1266.97 167.12 1265.45 172.84 1262.41 177.88C1259.37 182.84 1255.17 186.76 1249.81 189.64C1244.45 192.52 1238.37 193.96 1231.57 193.96ZM1231.57 178.6C1234.69 178.6 1237.49 177.88 1239.97 176.44C1242.45 175 1244.41 172.96 1245.85 170.32C1247.29 167.6 1248.01 164.4 1248.01 160.72C1248.01 156.96 1247.29 153.76 1245.85 151.12C1244.41 148.48 1242.45 146.44 1239.97 145C1237.49 143.56 1234.69 142.84 1231.57 142.84C1228.45 142.84 1225.65 143.56 1223.17 145C1220.69 146.44 1218.69 148.48 1217.17 151.12C1215.73 153.76 1215.01 156.96 1215.01 160.72C1215.01 164.4 1215.73 167.6 1217.17 170.32C1218.69 172.96 1220.69 175 1223.17 176.44C1225.65 177.88 1228.45 178.6 1231.57 178.6ZM1318.73 127.48C1323.85 127.48 1328.41 128.52 1332.41 130.6C1336.49 132.6 1339.69 135.72 1342.01 139.96C1344.33 144.12 1345.49 149.48 1345.49 156.04V193H1326.77V158.92C1326.77 153.72 1325.61 149.88 1323.29 147.4C1321.05 144.92 1317.85 143.68 1313.69 143.68C1310.73 143.68 1308.05 144.32 1305.65 145.6C1303.33 146.8 1301.49 148.68 1300.13 151.24C1298.85 153.8 1298.21 157.08 1298.21 161.08V193H1279.49V128.44H1297.37V146.32L1294.01 140.92C1296.33 136.6 1299.65 133.28 1303.97 130.96C1308.29 128.64 1313.21 127.48 1318.73 127.48ZM1402.06 193V180.4L1400.86 177.64V155.08C1400.86 151.08 1399.62 147.96 1397.14 145.72C1394.74 143.48 1391.02 142.36 1385.98 142.36C1382.54 142.36 1379.14 142.92 1375.78 144.04C1372.5 145.08 1369.7 146.52 1367.38 148.36L1360.66 135.28C1364.18 132.8 1368.42 130.88 1373.38 129.52C1378.34 128.16 1383.38 127.48 1388.5 127.48C1398.34 127.48 1405.98 129.8 1411.42 134.44C1416.86 139.08 1419.58 146.32 1419.58 156.16V193H1402.06ZM1382.38 193.96C1377.34 193.96 1373.02 193.12 1369.42 191.44C1365.82 189.68 1363.06 187.32 1361.14 184.36C1359.22 181.4 1358.26 178.08 1358.26 174.4C1358.26 170.56 1359.18 167.2 1361.02 164.32C1362.94 161.44 1365.94 159.2 1370.02 157.6C1374.1 155.92 1379.42 155.08 1385.98 155.08H1403.14V166H1388.02C1383.62 166 1380.58 166.72 1378.9 168.16C1377.3 169.6 1376.5 171.4 1376.5 173.56C1376.5 175.96 1377.42 177.88 1379.26 179.32C1381.18 180.68 1383.78 181.36 1387.06 181.36C1390.18 181.36 1392.98 180.64 1395.46 179.2C1397.94 177.68 1399.74 175.48 1400.86 172.6L1403.74 181.24C1402.38 185.4 1399.9 188.56 1396.3 190.72C1392.7 192.88 1388.06 193.96 1382.38 193.96ZM1436.52 193V103.96H1455.24V193H1436.52Z"/>
</defs>
</svg>
