<svg width="67" height="67" xmlns="http://www.w3.org/2000/svg" xmlns:xlink="http://www.w3.org/1999/xlink" xml:space="preserve" overflow="hidden"><g transform="translate(-99 -515)"><path d="M120.913 540.948 127.482 540.948" stroke="#333333" stroke-width="2.32639" stroke-linecap="round" stroke-linejoin="round" fill="none"/><path d="M120.913 545.733 127.482 545.733" stroke="#333333" stroke-width="2.32639" stroke-linecap="round" stroke-linejoin="round" fill="none"/><path d="M131.754 555.373 144.465 555.373" stroke="#333333" stroke-width="2.32639" stroke-linecap="round" stroke-linejoin="round" fill="none"/><path d="M131.754 560.303 144.463 560.303" stroke="#333333" stroke-width="2.32639" stroke-linecap="round" stroke-linejoin="round" fill="none"/><path d="M131.754 565.12 144.463 565.12" stroke="#333333" stroke-width="2.32639" stroke-linecap="round" stroke-linejoin="round" fill="none"/><path d="M120.913 550.517 127.482 550.517" stroke="#333333" stroke-width="2.32639" stroke-linecap="round" stroke-linejoin="round" fill="none"/><path d="M120.913 555.304 127.482 555.304" stroke="#333333" stroke-width="2.32639" stroke-linecap="round" stroke-linejoin="round" fill="none"/><path d="M120.913 560.089 127.482 560.089" stroke="#333333" stroke-width="2.32639" stroke-linecap="round" stroke-linejoin="round" fill="none"/><path d="M120.913 533.447 127.482 533.447" stroke="#333333" stroke-width="2.32639" stroke-linecap="round" stroke-linejoin="round" fill="none"/><path d="M131.754 541.162 144.465 541.162 144.465 550.733 131.754 550.733Z" stroke="#333333" stroke-width="2.32639" stroke-linecap="round" stroke-linejoin="round" fill="none"/><path d="M137.229 526.167 117.2 526.167C116.84 526.167 116.548 526.458 116.548 526.818L116.548 570.182C116.548 570.542 116.84 570.833 117.2 570.833L147.8 570.833C148.16 570.833 148.452 570.542 148.452 570.182L148.452 536.589 138.588 526.725C138.226 526.367 137.738 526.167 137.229 526.167Z" stroke="#333333" stroke-width="2.32639" stroke-linecap="round" stroke-linejoin="round" fill="none"/><path d="M138.435 526.587C139.47 527.92 140.074 529.535 140.168 531.22L140.168 535.917C140.166 536.285 140.462 536.586 140.83 536.589L148.461 536.589" stroke="#333333" stroke-width="2.32639" stroke-linecap="round" stroke-linejoin="round" fill="none"/></g></svg>