<svg width="82" height="83" xmlns="http://www.w3.org/2000/svg" xmlns:xlink="http://www.w3.org/1999/xlink" xml:space="preserve" overflow="hidden"><g transform="translate(-924 -155)"><path d="M68.3356 41C68.3356 56.097 56.097 68.3356 41 68.3356 25.903 68.3356 13.6644 56.097 13.6644 41 13.6644 25.903 25.903 13.6644 41 13.6644 56.097 13.6644 68.3356 25.903 68.3356 41Z" stroke="#333333" stroke-width="2.84722" stroke-linecap="round" stroke-linejoin="round" fill="none" transform="matrix(1 0 0 1.0122 924 155)"/><path d="M31.9686 50.9402C34.4402 53.0982 37.5455 54.3956 40.8178 54.6371 44.8319 54.8974 48.3007 51.8625 48.5759 47.8493 48.5759 44.0909 44.8791 42.2118 40.7586 41 36.5743 39.6675 32.9982 37.9683 32.9982 34.2122 33.295 30.2086 36.7508 27.1846 40.7586 27.4222 43.4543 27.3759 45.9974 28.6706 47.5463 30.8776" stroke="#333333" stroke-width="2.84722" stroke-linecap="round" stroke-linejoin="round" fill="none" transform="matrix(1 0 0 1.0122 924 155)"/><path d="M40.7586 23.6638 40.7586 58.3362" stroke="#333333" stroke-width="2.84722" stroke-linecap="round" stroke-linejoin="round" fill="none" transform="matrix(1 0 0 1.0122 924 155)"/></g></svg>