<svg width="83" height="83" xmlns="http://www.w3.org/2000/svg" xmlns:xlink="http://www.w3.org/1999/xlink" xml:space="preserve" overflow="hidden"><defs><clipPath id="clip0"><path d="M180.694 336.534 175.277 413.143 98.6681 407.726 104.085 331.117Z" fill-rule="evenodd" clip-rule="evenodd"/></clipPath><clipPath id="clip1"><path d="M180.694 336.534 175.277 413.143 98.6681 407.726 104.085 331.117Z" fill-rule="evenodd" clip-rule="evenodd"/></clipPath><clipPath id="clip2"><path d="M180.694 336.534 175.277 413.143 98.6681 407.726 104.085 331.117Z" fill-rule="evenodd" clip-rule="evenodd"/></clipPath></defs><g transform="translate(-98 -331)"><g clip-path="url(#clip0)"><g clip-path="url(#clip1)"><g clip-path="url(#clip2)"><path d="M160.479 374.732C166.964 369.109 167.663 359.293 162.04 352.809 156.417 346.324 146.601 345.625 140.117 351.248 134.207 356.372 133.027 365.089 137.36 371.6L135.38 373.318C134.53 372.63 133.692 372.207 133.384 372.476L133.37 372.492 113.155 390.037C112.959 390.209 113.06 390.691 113.201 391.141L112.616 391.648C112.272 391.946 112.856 393.183 113.902 394.386 114.948 395.589 116.088 396.344 116.432 396.045L116.965 395.582C117.679 396.105 118.023 396.085 118.243 395.901L138.474 378.343C138.782 378.076 138.625 377.355 137.92 376.253L139.916 374.52C145.732 379.777 154.556 379.868 160.479 374.732Z" stroke="#333333" stroke-width="2.66667" stroke-miterlimit="10" fill="none"/><path d="M160.134 363.713C159.736 369.151 155.004 373.237 149.566 372.838 148.374 372.751 147.207 372.448 146.123 371.944 142.433 370.197 140.188 366.371 140.462 362.298 140.547 361.098 140.852 359.924 141.363 358.835 143.672 353.902 149.543 351.774 154.476 354.082 158.176 355.814 160.426 359.647 160.133 363.721M162.793 363.909C163.292 357.008 158.101 351.009 151.199 350.51 146.021 350.136 141.148 352.995 138.948 357.698 138.297 359.085 137.909 360.58 137.802 362.108 137.455 367.281 140.307 372.14 144.994 374.358 151.267 377.284 158.725 374.571 161.651 368.298 162.296 366.916 162.683 365.428 162.793 363.907Z" fill="#333333"/></g></g></g></g></svg>