<svg width="1524" height="312" viewBox="0 0 1524 312" fill="none" xmlns="http://www.w3.org/2000/svg">
<g clip-path="url(#clip0_70_27)">
<path fill-rule="evenodd" clip-rule="evenodd" d="M503.761 276.233C496.931 269.113 488.996 263.127 480.272 258.51C472.185 254.21 463.503 251.155 454.517 249.427C454.24 234.897 452.761 182.071 445.061 146.096C443.872 141.064 442.392 136.104 440.637 131.237C440.623 131.204 440.651 131.189 440.679 131.199C444.121 132.161 447.356 133.748 450.218 135.878C453.204 138.367 455.996 141.083 458.554 144.004C465.342 152.353 471.245 161.366 476.194 170.903C477.038 172.544 479.07 173.187 480.715 172.343C481.752 171.807 482.443 170.772 482.526 169.608C483.273 158.679 482.803 147.701 481.144 136.874C480.508 133.462 479.318 130.173 477.646 127.133C477.618 127.087 477.632 127.065 477.688 127.087C486.494 130.824 495.051 135.101 503.332 139.896C504.922 140.839 506.982 140.316 507.936 138.729C508.517 137.736 508.558 136.509 508.019 135.483C501.908 123.834 494.498 112.903 485.955 102.891C480.605 96.6975 473.139 92.6952 464.996 91.6528C464.941 91.6459 464.94 91.6182 464.982 91.5892C474.258 86.8031 483.356 83.3027 483.48 83.2543C485.208 82.5921 486.079 80.6594 485.415 78.9368C485.001 77.8778 484.088 77.0981 482.968 76.8644C471.604 74.5184 459.991 73.4871 448.392 73.794C436.143 74.1009 425.471 82.1939 421.918 93.8703C421.033 97.0196 420.757 100.311 421.13 103.562C421.13 103.604 421.116 103.617 421.075 103.591C417.563 100.592 413.457 98.3509 409.02 97.0071C395.596 93.0021 381.107 98.1768 373.31 109.772C366.232 120.728 360.55 132.512 356.375 144.859C355.794 146.609 356.748 148.502 358.504 149.084C359.541 149.427 360.674 149.247 361.559 148.601C370.905 141.817 380.817 135.853 391.199 130.777C391.255 130.753 391.269 130.773 391.241 130.823C388.255 136.203 386.941 142.344 387.453 148.47C388.656 160.333 391.199 172.022 395.057 183.312C395.527 184.663 396.798 185.571 398.222 185.571L398.388 185.567C399.882 185.495 401.14 184.453 401.499 183.008C404.278 171.487 408.273 160.287 413.402 149.592C415.061 146.392 416.927 143.295 418.96 140.316C420.591 138.155 422.499 136.209 424.614 134.522C424.642 134.506 424.656 134.507 424.669 134.53C426.245 138.805 427.503 143.189 428.444 147.647C434.443 176.377 434.582 210.065 428.955 247.754C420.812 248.307 412.711 249.399 404.72 251.058C394.904 253.394 385.283 256.463 375.923 260.238C372.287 259.242 368.541 258.731 364.767 258.731C359.375 238.574 357.135 217.708 358.131 196.872C359.25 197.458 360.287 198.217 361.172 199.121C362.499 200.635 363.73 202.225 364.863 203.882C368.361 209.396 371.278 215.255 373.559 221.367C373.974 222.481 375.038 223.219 376.227 223.22C376.296 223.22 376.365 223.216 376.435 223.212C377.706 223.121 378.757 222.208 379.02 220.972C380.416 214.356 381.052 207.603 380.928 200.842C380.776 198.175 380.098 195.564 378.909 193.17C378.895 193.128 378.909 193.109 378.951 193.124C384.08 195.101 389.071 197.429 393.868 200.09C395.236 200.864 396.978 200.386 397.752 199.022C398.222 198.218 398.25 197.241 397.863 196.406C394.669 189.738 390.66 183.489 385.932 177.801C380.541 171.568 371.707 169.56 364.145 172.843C362.278 173.634 360.564 174.727 359.071 176.077C359.043 176.099 359.016 176.09 359.016 176.057C358.85 174.821 358.518 173.616 358.02 172.47C355.103 165.841 348.26 161.82 341.03 162.501C334.463 163.112 327.993 164.475 321.744 166.564C320.251 167.067 319.463 168.679 319.961 170.165C320.279 171.079 321.025 171.773 321.965 172.008C322.034 172.025 325.656 172.941 329.984 174.407C330.025 174.422 330.039 174.451 329.984 174.469C326.514 175.994 323.527 178.453 321.37 181.575C317.237 187.779 313.822 194.425 311.168 201.386C310.615 202.854 311.361 204.492 312.841 205.044C313.753 205.389 314.79 205.234 315.578 204.636C315.647 204.581 320.818 200.645 326.624 197.168C326.665 197.145 326.693 197.162 326.679 197.204C326.403 198.33 326.223 199.479 326.14 200.636C325.933 206.849 326.43 213.066 327.592 219.174C327.827 220.424 328.877 221.361 330.149 221.466C331.435 221.589 332.638 220.831 333.066 219.625C335.14 214.071 337.781 208.742 340.933 203.719C342.135 201.969 343.462 200.316 344.928 198.771C345.481 198.224 346.117 197.755 346.794 197.376C345.937 218.184 346.504 239.03 348.495 259.754C345.813 260.141 343.006 260.597 339.91 261.247C321.882 265.049 312.523 272.224 307.477 279.012C305.763 281.279 304.546 283.878 303.91 286.643H311.016C311.472 285.412 312.066 284.223 312.771 283.118C315.868 278.486 324.066 271.422 341.306 267.786C348.218 266.251 355.269 265.45 362.347 265.367C365.361 265.339 368.361 265.56 371.347 266.03C372.19 266.182 373.393 266.417 374.485 266.68C375.384 266.887 376.2 267.136 376.642 267.274C381.951 269.127 386.734 272.21 390.577 276.288C391.766 277.712 393.868 277.919 395.306 276.744C396.73 275.569 396.937 273.468 395.762 272.044C395.72 272.002 395.693 271.961 395.651 271.919C392.665 268.671 389.154 265.933 385.255 263.846C392.057 261.302 399.024 259.215 406.102 257.597C416.195 255.482 426.466 254.321 436.78 254.169C439.019 254.169 441.01 254.251 442.683 254.417C454.71 255.399 466.42 258.8 477.106 264.413C485.18 268.671 492.535 274.201 498.839 280.781C500.194 282.219 502.033 284.362 503.955 286.643H512.664C509.636 282.966 506.042 278.666 503.761 276.233ZM340.863 194.78V194.783C339.191 196.547 337.656 198.439 336.274 200.444C334.656 202.826 333.205 205.324 331.96 207.922C331.919 207.983 331.891 207.977 331.891 207.909C331.712 205.626 331.684 203.332 331.822 201.044C331.85 197.519 333.62 194.233 336.564 192.268C337.891 191.423 338.278 189.668 337.435 188.346C336.702 187.21 335.265 186.741 334.006 187.222C333.301 187.496 332.582 187.778 331.85 188.078C327.937 189.799 324.191 191.846 320.624 194.198C320.569 194.234 320.541 194.215 320.569 194.157C322.117 190.931 323.928 187.837 325.988 184.905C328.96 180.08 334.725 177.741 340.241 179.135C340.947 179.331 341.624 179.617 342.26 179.983C343.642 180.744 345.384 180.246 346.145 178.875C346.877 177.548 346.435 175.879 345.149 175.083C344.32 174.585 343.476 174.086 342.605 173.595C339.536 171.95 336.329 170.562 333.025 169.443C332.97 169.421 332.97 169.394 333.039 169.38C335.762 168.762 338.527 168.358 341.306 168.174C346.186 167.595 350.845 170.27 352.794 174.751C353.748 177.904 353.679 181.279 352.587 184.389C352.144 185.892 353.002 187.475 354.509 187.923C355.767 188.299 357.121 187.765 357.785 186.632C359.748 183.032 362.693 180.069 366.301 178.099C371.651 175.75 377.928 177.183 381.716 181.62C384.204 184.481 386.43 187.566 388.338 190.837C388.366 190.888 388.352 190.909 388.296 190.883C384.08 188.855 379.684 187.218 375.163 185.996C373.034 185.475 370.753 185.006 368.402 184.605C366.937 184.356 365.527 185.303 365.209 186.753C364.891 188.224 365.748 189.699 367.186 190.146C372.011 191.671 375.273 196.152 375.232 201.192C375.37 204.128 375.259 207.072 374.941 209.993C374.928 210.058 374.9 210.062 374.873 210.004C373.338 206.704 371.527 203.537 369.467 200.533C368.223 198.712 366.868 196.966 365.402 195.305C362.278 192.141 358.145 190.152 353.707 189.675C353.555 189.675 353.403 189.679 353.25 189.688C348.674 190 344.32 191.787 340.863 194.78ZM352.103 205.15C352.297 205.15 352.241 215.089 353.057 225.3C354.122 236.597 356.085 247.782 358.919 258.772C357.426 258.827 355.836 258.938 354.163 259.09C353.444 250.906 352.006 232.477 351.965 214.866C351.965 211.576 351.91 205.15 352.103 205.15ZM413.485 136.452C411.273 139.686 409.254 143.048 407.443 146.521C403.614 154.034 400.503 161.89 398.153 169.984C398.139 170.046 398.112 170.045 398.098 169.984C396.093 162.823 394.78 155.49 394.158 148.084C392.928 138.486 398.098 129.205 406.918 125.161C407.001 125.131 407.195 125.058 407.264 125.023C408.964 124.27 409.711 122.293 408.964 120.609C408.273 119.077 406.545 118.292 404.941 118.773C400.905 119.969 397.006 121.27 393.356 122.638C383.969 126.518 375.011 131.334 366.605 137.016C366.55 137.049 366.522 137.033 366.55 136.977C369.785 128.79 373.891 120.968 378.771 113.641C384.951 104.35 396.536 100.205 407.236 103.45C415.766 105.789 423.065 114.722 425.098 117.406C426.218 118.879 428.319 119.172 429.798 118.062C431.043 117.129 431.471 115.47 430.849 114.052C429.743 111.509 426.259 102.681 428.347 95.8085C431.056 86.7588 439.379 80.5308 448.849 80.4603C455.996 80.1478 463.157 80.5101 470.236 81.5428C470.291 81.5511 470.305 81.5759 470.236 81.605C462.757 84.8842 455.609 88.8602 448.876 93.4777C447.438 94.5242 446.07 95.5777 444.729 96.627C443.277 97.7731 443.043 99.8744 444.19 101.322C445.31 102.729 447.342 103.004 448.793 101.945C449.968 101.069 451.24 100.347 452.595 99.7942C457.282 97.9417 469.462 94.9791 481.033 107.428C486.729 113.893 491.789 120.873 496.185 128.28C496.213 128.335 496.199 128.355 496.13 128.326C487.641 123.775 478.752 120.034 469.558 117.151C468.217 116.779 466.904 116.434 465.604 116.102C463.807 115.642 461.968 116.717 461.512 118.505C461.111 120.054 461.872 121.671 463.323 122.356C469.462 125.442 473.678 131.356 474.563 138.151C475.641 144.401 476.167 150.734 476.139 157.076C476.139 157.144 476.111 157.15 476.069 157.092C472.434 150.875 468.231 144.996 463.531 139.524C460.724 136.333 457.669 133.366 454.393 130.651C448.033 125.959 440.36 123.368 432.453 123.245C426.384 123.553 417.162 131.273 413.485 136.452ZM436.78 247.477C436.448 247.477 436.089 247.491 435.757 247.491C441.314 209.527 441.107 175.47 435.01 146.286C433.877 140.974 432.384 135.747 430.517 130.641C431.278 130.238 432.093 129.992 432.95 129.917L433.255 130.675C435.397 136.173 437.153 141.81 438.522 147.549C445.877 181.93 447.452 232.353 447.784 248.293C446.277 248.086 444.798 247.92 443.361 247.768C441.176 247.56 438.978 247.463 436.78 247.477Z" fill="#440099"/>
<path d="M77.8887 303.232L98.6258 149.777" stroke="#440099" stroke-width="10.1454" stroke-miterlimit="10" stroke-linecap="round" stroke-linejoin="round"/>
<path fill-rule="evenodd" clip-rule="evenodd" d="M202.312 137.335C202.381 144.133 197.058 149.702 190.422 149.778H87.262C80.557 149.778 75.1238 144.208 75.1238 137.335C75.1238 130.463 80.557 124.893 87.262 124.893H190.422C197.058 124.969 202.381 130.538 202.312 137.335Z" stroke="#440099" stroke-width="10.1454" stroke-miterlimit="10" stroke-linecap="round" stroke-linejoin="round"/>
<path fill-rule="evenodd" clip-rule="evenodd" d="M189.869 62.2915C189.482 68.9288 183.939 74.0219 177.427 73.7288H102.773C96.2619 74.0219 90.7181 68.9288 90.3311 62.2915C90.7181 55.6529 96.2619 50.5598 102.773 50.8529H102.967C104.28 31.183 120.773 16.1887 140.1 17.0984C159.372 16.2399 175.81 31.201 177.137 50.8184H177.427C183.952 50.5266 189.496 55.6391 189.869 62.2915Z" stroke="#440099" stroke-width="10.1454" stroke-miterlimit="10" stroke-linecap="round" stroke-linejoin="round"/>
<path d="M102.773 73.7412V124.893" stroke="#440099" stroke-width="10.1454" stroke-miterlimit="10" stroke-linecap="round" stroke-linejoin="round"/>
<path d="M177.427 73.7412V124.893" stroke="#440099" stroke-width="10.1454" stroke-miterlimit="10" stroke-linecap="round" stroke-linejoin="round"/>
<path d="M140.1 17.0598V6" stroke="#440099" stroke-width="10.1454" stroke-miterlimit="10" stroke-linecap="round" stroke-linejoin="round"/>
<path d="M198.164 290.79L178.81 149.777" stroke="#440099" stroke-width="10.1454" stroke-miterlimit="10" stroke-linecap="round" stroke-linejoin="round"/>
<path d="M101.391 50.2393H176.045" stroke="#440099" stroke-width="10.1454" stroke-miterlimit="10" stroke-linecap="round" stroke-linejoin="round"/>
<path d="M6 297.897C14.4469 308.846 21.8018 304.878 34.0782 296.929C45.2209 289.698 59.1009 280.712 72.3589 297.897C80.8058 308.846 88.1468 304.878 100.423 296.929C111.58 289.698 125.46 280.712 138.718 297.897C147.179 308.846 154.52 304.878 166.782 296.929C177.939 289.698 191.819 280.712 205.077 297.897C213.537 308.846 220.878 304.878 233.141 296.929C244.298 289.698 258.191 280.712 271.436 297.897" stroke="#440099" stroke-width="10.1454" stroke-miterlimit="10" stroke-linecap="round" stroke-linejoin="round"/>
<path d="M271.436 299.279C279.882 310.228 287.237 306.26 299.514 298.311C310.656 291.081 324.536 282.095 337.794 299.279C346.241 310.228 353.582 306.26 365.859 298.311C377.015 291.081 390.895 282.095 404.153 299.279C412.614 310.228 419.955 306.26 432.218 298.311C443.374 291.081 457.254 282.095 470.512 299.279C478.973 310.228 486.314 306.26 498.576 298.311C509.733 291.081 523.627 282.095 536.871 299.279" stroke="#440099" stroke-width="10.1454" stroke-miterlimit="10" stroke-linecap="round" stroke-linejoin="round"/>
<path d="M614.711 148.84H655.151V163.96H614.711V148.84ZM616.151 183.4H661.871V199H596.831V115H660.311V130.6H616.151V183.4ZM677.339 199V115H715.499C724.619 115 732.659 116.76 739.619 120.28C746.579 123.72 752.019 128.56 755.939 134.8C759.859 141.04 761.819 148.44 761.819 157C761.819 165.48 759.859 172.88 755.939 179.2C752.019 185.44 746.579 190.32 739.619 193.84C732.659 197.28 724.619 199 715.499 199H677.339ZM696.779 183.04H714.539C720.139 183.04 724.979 182 729.059 179.92C733.219 177.76 736.419 174.72 738.659 170.8C740.979 166.88 742.139 162.28 742.139 157C742.139 151.64 740.979 147.04 738.659 143.2C736.419 139.28 733.219 136.28 729.059 134.2C724.979 132.04 720.139 130.96 714.539 130.96H696.779V183.04ZM776.48 199V115H792.56L842.12 175.48H834.32V115H853.52V199H837.56L787.88 138.52H795.68V199H776.48ZM862.354 199L899.794 115H918.994L956.554 199H936.154L905.434 124.84H913.114L882.274 199H862.354ZM881.074 181L886.234 166.24H929.434L934.714 181H881.074ZM999.253 199V115H1040.29C1050.85 115 1058.77 117 1064.05 121C1069.41 125 1072.09 130.28 1072.09 136.84C1072.09 141.24 1071.01 145.08 1068.85 148.36C1066.69 151.56 1063.73 154.04 1059.97 155.8C1056.21 157.56 1051.89 158.44 1047.01 158.44L1049.29 153.52C1054.57 153.52 1059.25 154.4 1063.33 156.16C1067.41 157.84 1070.57 160.36 1072.81 163.72C1075.13 167.08 1076.29 171.2 1076.29 176.08C1076.29 183.28 1073.45 188.92 1067.77 193C1062.09 197 1053.73 199 1042.69 199H999.253ZM1018.57 184.36H1041.25C1046.29 184.36 1050.09 183.56 1052.65 181.96C1055.29 180.28 1056.61 177.64 1056.61 174.04C1056.61 170.52 1055.29 167.92 1052.65 166.24C1050.09 164.48 1046.29 163.6 1041.25 163.6H1017.13V149.44H1037.89C1042.61 149.44 1046.21 148.64 1048.69 147.04C1051.25 145.36 1052.53 142.84 1052.53 139.48C1052.53 136.2 1051.25 133.76 1048.69 132.16C1046.21 130.48 1042.61 129.64 1037.89 129.64H1018.57V184.36ZM1121.73 199.96C1114.37 199.96 1107.89 198.52 1102.29 195.64C1096.77 192.76 1092.49 188.84 1089.45 183.88C1086.41 178.84 1084.89 173.12 1084.89 166.72C1084.89 160.24 1086.37 154.52 1089.33 149.56C1092.37 144.52 1096.49 140.6 1101.69 137.8C1106.89 134.92 1112.77 133.48 1119.33 133.48C1125.65 133.48 1131.33 134.84 1136.37 137.56C1141.49 140.2 1145.53 144.04 1148.49 149.08C1151.45 154.04 1152.93 160 1152.93 166.96C1152.93 167.68 1152.89 168.52 1152.81 169.48C1152.73 170.36 1152.65 171.2 1152.57 172H1100.13V161.08H1142.73L1135.53 164.32C1135.53 160.96 1134.85 158.04 1133.49 155.56C1132.13 153.08 1130.25 151.16 1127.85 149.8C1125.45 148.36 1122.65 147.64 1119.45 147.64C1116.25 147.64 1113.41 148.36 1110.93 149.8C1108.53 151.16 1106.65 153.12 1105.29 155.68C1103.93 158.16 1103.25 161.12 1103.25 164.56V167.44C1103.25 170.96 1104.01 174.08 1105.53 176.8C1107.13 179.44 1109.33 181.48 1112.13 182.92C1115.01 184.28 1118.37 184.96 1122.21 184.96C1125.65 184.96 1128.65 184.44 1131.21 183.4C1133.85 182.36 1136.25 180.8 1138.41 178.72L1148.37 189.52C1145.41 192.88 1141.69 195.48 1137.21 197.32C1132.73 199.08 1127.57 199.96 1121.73 199.96ZM1203.24 199V186.4L1202.04 183.64V161.08C1202.04 157.08 1200.8 153.96 1198.32 151.72C1195.92 149.48 1192.2 148.36 1187.16 148.36C1183.72 148.36 1180.32 148.92 1176.96 150.04C1173.68 151.08 1170.88 152.52 1168.56 154.36L1161.84 141.28C1165.36 138.8 1169.6 136.88 1174.56 135.52C1179.52 134.16 1184.56 133.48 1189.68 133.48C1199.52 133.48 1207.16 135.8 1212.6 140.44C1218.04 145.08 1220.76 152.32 1220.76 162.16V199H1203.24ZM1183.56 199.96C1178.52 199.96 1174.2 199.12 1170.6 197.44C1167 195.68 1164.24 193.32 1162.32 190.36C1160.4 187.4 1159.44 184.08 1159.44 180.4C1159.44 176.56 1160.36 173.2 1162.2 170.32C1164.12 167.44 1167.12 165.2 1171.2 163.6C1175.28 161.92 1180.6 161.08 1187.16 161.08H1204.32V172H1189.2C1184.8 172 1181.76 172.72 1180.08 174.16C1178.48 175.6 1177.68 177.4 1177.68 179.56C1177.68 181.96 1178.6 183.88 1180.44 185.32C1182.36 186.68 1184.96 187.36 1188.24 187.36C1191.36 187.36 1194.16 186.64 1196.64 185.2C1199.12 183.68 1200.92 181.48 1202.04 178.6L1204.92 187.24C1203.56 191.4 1201.08 194.56 1197.48 196.72C1193.88 198.88 1189.24 199.96 1183.56 199.96ZM1269.37 199.96C1262.41 199.96 1256.21 198.56 1250.77 195.76C1245.33 192.88 1241.05 188.92 1237.93 183.88C1234.89 178.84 1233.37 173.12 1233.37 166.72C1233.37 160.24 1234.89 154.52 1237.93 149.56C1241.05 144.52 1245.33 140.6 1250.77 137.8C1256.21 134.92 1262.41 133.48 1269.37 133.48C1276.17 133.48 1282.09 134.92 1287.13 137.8C1292.17 140.6 1295.89 144.64 1298.29 149.92L1283.77 157.72C1282.09 154.68 1279.97 152.44 1277.41 151C1274.93 149.56 1272.21 148.84 1269.25 148.84C1266.05 148.84 1263.17 149.56 1260.61 151C1258.05 152.44 1256.01 154.48 1254.49 157.12C1253.05 159.76 1252.33 162.96 1252.33 166.72C1252.33 170.48 1253.05 173.68 1254.49 176.32C1256.01 178.96 1258.05 181 1260.61 182.44C1263.17 183.88 1266.05 184.6 1269.25 184.6C1272.21 184.6 1274.93 183.92 1277.41 182.56C1279.97 181.12 1282.09 178.84 1283.77 175.72L1298.29 183.64C1295.89 188.84 1292.17 192.88 1287.13 195.76C1282.09 198.56 1276.17 199.96 1269.37 199.96ZM1347.95 133.48C1353.07 133.48 1357.63 134.52 1361.63 136.6C1365.71 138.6 1368.91 141.72 1371.23 145.96C1373.55 150.12 1374.71 155.48 1374.71 162.04V199H1355.99V164.92C1355.99 159.72 1354.83 155.88 1352.51 153.4C1350.27 150.92 1347.07 149.68 1342.91 149.68C1339.95 149.68 1337.27 150.32 1334.87 151.6C1332.55 152.8 1330.71 154.68 1329.35 157.24C1328.07 159.8 1327.43 163.08 1327.43 167.08V199H1308.71V109.96H1327.43V152.32L1323.23 146.92C1325.55 142.6 1328.87 139.28 1333.19 136.96C1337.51 134.64 1342.43 133.48 1347.95 133.48ZM1424.19 199.96C1416.83 199.96 1410.35 198.52 1404.75 195.64C1399.23 192.76 1394.95 188.84 1391.91 183.88C1388.87 178.84 1387.35 173.12 1387.35 166.72C1387.35 160.24 1388.83 154.52 1391.79 149.56C1394.83 144.52 1398.95 140.6 1404.15 137.8C1409.35 134.92 1415.23 133.48 1421.79 133.48C1428.11 133.48 1433.79 134.84 1438.83 137.56C1443.95 140.2 1447.99 144.04 1450.95 149.08C1453.91 154.04 1455.39 160 1455.39 166.96C1455.39 167.68 1455.35 168.52 1455.27 169.48C1455.19 170.36 1455.11 171.2 1455.03 172H1402.59V161.08H1445.19L1437.99 164.32C1437.99 160.96 1437.31 158.04 1435.95 155.56C1434.59 153.08 1432.71 151.16 1430.31 149.8C1427.91 148.36 1425.11 147.64 1421.91 147.64C1418.71 147.64 1415.87 148.36 1413.39 149.8C1410.99 151.16 1409.11 153.12 1407.75 155.68C1406.39 158.16 1405.71 161.12 1405.71 164.56V167.44C1405.71 170.96 1406.47 174.08 1407.99 176.8C1409.59 179.44 1411.79 181.48 1414.59 182.92C1417.47 184.28 1420.83 184.96 1424.67 184.96C1428.11 184.96 1431.11 184.44 1433.67 183.4C1436.31 182.36 1438.71 180.8 1440.87 178.72L1450.83 189.52C1447.87 192.88 1444.15 195.48 1439.67 197.32C1435.19 199.08 1430.03 199.96 1424.19 199.96ZM1489.57 199.96C1484.05 199.96 1478.73 199.32 1473.61 198.04C1468.57 196.68 1464.57 195 1461.61 193L1467.85 179.56C1470.81 181.4 1474.29 182.92 1478.29 184.12C1482.37 185.24 1486.37 185.8 1490.29 185.8C1494.61 185.8 1497.65 185.28 1499.41 184.24C1501.25 183.2 1502.17 181.76 1502.17 179.92C1502.17 178.4 1501.45 177.28 1500.01 176.56C1498.65 175.76 1496.81 175.16 1494.49 174.76C1492.17 174.36 1489.61 173.96 1486.81 173.56C1484.09 173.16 1481.33 172.64 1478.53 172C1475.73 171.28 1473.17 170.24 1470.85 168.88C1468.53 167.52 1466.65 165.68 1465.21 163.36C1463.85 161.04 1463.17 158.04 1463.17 154.36C1463.17 150.28 1464.33 146.68 1466.65 143.56C1469.05 140.44 1472.49 138 1476.97 136.24C1481.45 134.4 1486.81 133.48 1493.05 133.48C1497.45 133.48 1501.93 133.96 1506.49 134.92C1511.05 135.88 1514.85 137.28 1517.89 139.12L1511.65 152.44C1508.53 150.6 1505.37 149.36 1502.17 148.72C1499.05 148 1496.01 147.64 1493.05 147.64C1488.89 147.64 1485.85 148.2 1483.93 149.32C1482.01 150.44 1481.05 151.88 1481.05 153.64C1481.05 155.24 1481.73 156.44 1483.09 157.24C1484.53 158.04 1486.41 158.68 1488.73 159.16C1491.05 159.64 1493.57 160.08 1496.29 160.48C1499.09 160.8 1501.89 161.32 1504.69 162.04C1507.49 162.76 1510.01 163.8 1512.25 165.16C1514.57 166.44 1516.45 168.24 1517.89 170.56C1519.33 172.8 1520.05 175.76 1520.05 179.44C1520.05 183.44 1518.85 187 1516.45 190.12C1514.05 193.16 1510.57 195.56 1506.01 197.32C1501.53 199.08 1496.05 199.96 1489.57 199.96Z" fill="#440099"/>
</g>
<defs>
<clipPath id="clip0_70_27">
<rect width="1523.87" height="312" fill="white"/>
</clipPath>
</defs>
</svg>
