<svg width="1500" height="300" viewBox="0 0 1500 300" fill="none" xmlns="http://www.w3.org/2000/svg" xmlns:xlink="http://www.w3.org/1999/xlink">
<rect width="1500" height="300" fill="#FFC000" fill-opacity="0.15"/>
<path d="M145.633 281.868L163.959 145.386" stroke="#8D8D8D" stroke-width="14" stroke-miterlimit="10" stroke-linecap="round" stroke-linejoin="round"/>
<path fill-rule="evenodd" clip-rule="evenodd" d="M262.918 134.398C262.983 140.401 257.925 145.316 251.616 145.386H153.516C147.139 145.386 141.968 140.47 141.968 134.398C141.968 128.325 147.139 123.41 153.516 123.41H251.616C257.925 123.479 262.983 128.395 262.918 134.398Z" stroke="#8D8D8D" stroke-width="14" stroke-miterlimit="10" stroke-linecap="round" stroke-linejoin="round"/>
<path fill-rule="evenodd" clip-rule="evenodd" d="M249.48 67.0939C249.116 72.9233 243.878 77.3878 237.718 77.1333H167.169C161.01 77.3878 155.773 72.9233 155.407 67.0939C155.773 61.276 161.01 56.7998 167.169 57.0658H167.35C168.592 39.7974 184.181 26.6466 202.443 27.4446C220.659 26.6928 236.189 39.8205 237.443 57.0311H237.718C243.89 56.7767 249.133 61.2645 249.48 67.0939Z" stroke="#8D8D8D" stroke-width="14" stroke-miterlimit="10" stroke-linecap="round" stroke-linejoin="round"/>
<path d="M165.181 77.1445V123.41" stroke="#8D8D8D" stroke-width="14" stroke-miterlimit="10" stroke-linecap="round" stroke-linejoin="round"/>
<path d="M238.484 77.1445V123.41" stroke="#8D8D8D" stroke-width="14" stroke-miterlimit="10" stroke-linecap="round" stroke-linejoin="round"/>
<path d="M203.054 77.1445V123.41" stroke="#8D8D8D" stroke-width="14" stroke-miterlimit="10" stroke-linecap="round" stroke-linejoin="round"/>
<path d="M203.054 27.4096V17" stroke="#8D8D8D" stroke-width="14" stroke-miterlimit="10" stroke-linecap="round" stroke-linejoin="round"/>
<path d="M258.032 270.302L240.928 145.386" stroke="#8D8D8D" stroke-width="14" stroke-miterlimit="10" stroke-linecap="round" stroke-linejoin="round"/>
<path d="M167.625 56.3252H238.484" stroke="#8D8D8D" stroke-width="14" stroke-miterlimit="10" stroke-linecap="round" stroke-linejoin="round"/>
<path d="M78.439 276.929C86.374 286.853 93.2707 283.267 104.798 276.061C115.265 269.503 128.296 261.361 140.744 276.929C148.679 286.853 155.576 283.267 167.103 276.061C177.569 269.503 190.611 261.361 203.059 276.929C210.996 286.853 217.892 283.267 229.408 276.061C239.886 269.503 252.916 261.361 265.365 276.929C273.3 286.853 280.197 283.267 291.713 276.061C302.191 269.503 315.233 261.361 327.67 276.929" stroke="#8D8D8D" stroke-width="14" stroke-miterlimit="10" stroke-linecap="round" stroke-linejoin="round"/>
<path d="M156.629 202.06L243.371 162.735" stroke="#8D8D8D" stroke-width="14" stroke-miterlimit="10" stroke-linecap="round" stroke-linejoin="round"/>
<path d="M149.298 257.578L249.479 210.157" stroke="#8D8D8D" stroke-width="14" stroke-miterlimit="10" stroke-linecap="round" stroke-linejoin="round"/>
<path d="M101.651 69.0483L132.194 84.0845" stroke="#FFC000" stroke-width="14" stroke-miterlimit="10" stroke-linecap="round" stroke-linejoin="round"/>
<path d="M65 102.59H128.531" stroke="#FFC000" stroke-width="14" stroke-miterlimit="10" stroke-linecap="round" stroke-linejoin="round"/>
<path d="M132.194 119.94L101.651 136.133" stroke="#FFC000" stroke-width="14" stroke-miterlimit="10" stroke-linecap="round" stroke-linejoin="round"/>
<path d="M298.348 136.133L267.805 119.94" stroke="#FFC000" stroke-width="14" stroke-miterlimit="10" stroke-linecap="round" stroke-linejoin="round"/>
<path d="M335 102.59H271.471" stroke="#FFC000" stroke-width="14" stroke-miterlimit="10" stroke-linecap="round" stroke-linejoin="round"/>
<path d="M267.805 84.0845L298.348 69.0483" stroke="#FFC000" stroke-width="14" stroke-miterlimit="10" stroke-linecap="round" stroke-linejoin="round"/>
<path d="M428.145 142.84H468.585V157.96H428.145V142.84ZM429.585 177.4H475.305V193H410.265V109H473.745V124.6H429.585V177.4ZM528.693 127.48C533.813 127.48 538.373 128.52 542.373 130.6C546.453 132.6 549.653 135.72 551.973 139.96C554.293 144.12 555.453 149.48 555.453 156.04V193H536.733V158.92C536.733 153.72 535.573 149.88 533.253 147.4C531.013 144.92 527.813 143.68 523.653 143.68C520.693 143.68 518.013 144.32 515.613 145.6C513.293 146.8 511.453 148.68 510.093 151.24C508.813 153.8 508.173 157.08 508.173 161.08V193H489.453V128.44H507.333V146.32L503.973 140.92C506.293 136.6 509.613 133.28 513.933 130.96C518.253 128.64 523.173 127.48 528.693 127.48ZM598.821 193.96C591.221 193.96 585.301 192.04 581.061 188.2C576.821 184.28 574.701 178.48 574.701 170.8V114.16H593.421V170.56C593.421 173.28 594.141 175.4 595.581 176.92C597.021 178.36 598.981 179.08 601.461 179.08C604.421 179.08 606.941 178.28 609.021 176.68L614.061 189.88C612.141 191.24 609.821 192.28 607.101 193C604.461 193.64 601.701 193.96 598.821 193.96ZM564.741 144.28V129.88H609.501V144.28H564.741ZM654.618 193.96C647.258 193.96 640.778 192.52 635.178 189.64C629.658 186.76 625.378 182.84 622.338 177.88C619.298 172.84 617.778 167.12 617.778 160.72C617.778 154.24 619.258 148.52 622.218 143.56C625.258 138.52 629.378 134.6 634.578 131.8C639.778 128.92 645.658 127.48 652.218 127.48C658.538 127.48 664.218 128.84 669.258 131.56C674.378 134.2 678.418 138.04 681.378 143.08C684.338 148.04 685.818 154 685.818 160.96C685.818 161.68 685.778 162.52 685.698 163.48C685.618 164.36 685.538 165.2 685.458 166H633.018V155.08H675.617L668.418 158.32C668.418 154.96 667.738 152.04 666.378 149.56C665.018 147.08 663.138 145.16 660.738 143.8C658.338 142.36 655.538 141.64 652.338 141.64C649.138 141.64 646.298 142.36 643.818 143.8C641.418 145.16 639.538 147.12 638.178 149.68C636.818 152.16 636.138 155.12 636.138 158.56V161.44C636.138 164.96 636.898 168.08 638.418 170.8C640.018 173.44 642.218 175.48 645.018 176.92C647.898 178.28 651.258 178.96 655.098 178.96C658.538 178.96 661.538 178.44 664.098 177.4C666.738 176.36 669.138 174.8 671.298 172.72L681.258 183.52C678.298 186.88 674.578 189.48 670.098 191.32C665.618 193.08 660.458 193.96 654.618 193.96ZM698.281 193V128.44H716.161V146.68L713.641 141.4C715.561 136.84 718.641 133.4 722.881 131.08C727.121 128.68 732.281 127.48 738.361 127.48V144.76C737.561 144.68 736.841 144.64 736.201 144.64C735.561 144.56 734.881 144.52 734.161 144.52C729.041 144.52 724.881 146 721.681 148.96C718.561 151.84 717.001 156.36 717.001 162.52V193H698.281ZM787.769 193.96C782.329 193.96 777.569 192.76 773.489 190.36C769.409 187.96 766.209 184.32 763.889 179.44C761.649 174.48 760.529 168.24 760.529 160.72C760.529 153.12 761.609 146.88 763.769 142C765.929 137.12 769.049 133.48 773.129 131.08C777.209 128.68 782.089 127.48 787.769 127.48C793.849 127.48 799.289 128.88 804.089 131.68C808.969 134.4 812.809 138.24 815.609 143.2C818.489 148.16 819.929 154 819.929 160.72C819.929 167.52 818.489 173.4 815.609 178.36C812.809 183.32 808.969 187.16 804.089 189.88C799.289 192.6 793.849 193.96 787.769 193.96ZM749.609 216.28V128.44H767.489V141.64L767.129 160.84L768.329 179.92V216.28H749.609ZM784.529 178.6C787.649 178.6 790.409 177.88 792.809 176.44C795.289 175 797.249 172.96 798.689 170.32C800.209 167.6 800.969 164.4 800.969 160.72C800.969 156.96 800.209 153.76 798.689 151.12C797.249 148.48 795.289 146.44 792.809 145C790.409 143.56 787.649 142.84 784.529 142.84C781.409 142.84 778.609 143.56 776.129 145C773.649 146.44 771.689 148.48 770.249 151.12C768.809 153.76 768.089 156.96 768.089 160.72C768.089 164.4 768.809 167.6 770.249 170.32C771.689 172.96 773.649 175 776.129 176.44C778.609 177.88 781.409 178.6 784.529 178.6ZM832.46 193V128.44H850.34V146.68L847.82 141.4C849.74 136.84 852.82 133.4 857.06 131.08C861.3 128.68 866.46 127.48 872.54 127.48V144.76C871.74 144.68 871.02 144.64 870.38 144.64C869.74 144.56 869.06 144.52 868.34 144.52C863.22 144.52 859.06 146 855.86 148.96C852.74 151.84 851.18 156.36 851.18 162.52V193H832.46ZM883.788 193V128.44H902.508V193H883.788ZM893.148 119.44C889.708 119.44 886.908 118.44 884.748 116.44C882.588 114.44 881.508 111.96 881.508 109C881.508 106.04 882.588 103.56 884.748 101.56C886.908 99.56 889.708 98.56 893.148 98.56C896.588 98.56 899.388 99.52 901.548 101.44C903.708 103.28 904.788 105.68 904.788 108.64C904.788 111.76 903.708 114.36 901.548 116.44C899.468 118.44 896.668 119.44 893.148 119.44ZM941.602 193.96C936.082 193.96 930.762 193.32 925.642 192.04C920.602 190.68 916.602 189 913.642 187L919.882 173.56C922.842 175.4 926.322 176.92 930.322 178.12C934.402 179.24 938.402 179.8 942.322 179.8C946.642 179.8 949.682 179.28 951.442 178.24C953.282 177.2 954.202 175.76 954.202 173.92C954.202 172.4 953.482 171.28 952.042 170.56C950.682 169.76 948.842 169.16 946.522 168.76C944.202 168.36 941.642 167.96 938.842 167.56C936.122 167.16 933.362 166.64 930.562 166C927.762 165.28 925.202 164.24 922.882 162.88C920.562 161.52 918.682 159.68 917.242 157.36C915.882 155.04 915.202 152.04 915.202 148.36C915.202 144.28 916.362 140.68 918.682 137.56C921.082 134.44 924.522 132 929.002 130.24C933.482 128.4 938.842 127.48 945.082 127.48C949.482 127.48 953.962 127.96 958.522 128.92C963.082 129.88 966.882 131.28 969.922 133.12L963.682 146.44C960.562 144.6 957.402 143.36 954.202 142.72C951.082 142 948.042 141.64 945.082 141.64C940.922 141.64 937.882 142.2 935.962 143.32C934.042 144.44 933.082 145.88 933.082 147.64C933.082 149.24 933.762 150.44 935.122 151.24C936.562 152.04 938.442 152.68 940.762 153.16C943.082 153.64 945.602 154.08 948.322 154.48C951.122 154.8 953.922 155.32 956.722 156.04C959.522 156.76 962.042 157.8 964.282 159.16C966.602 160.44 968.482 162.24 969.922 164.56C971.362 166.8 972.082 169.76 972.082 173.44C972.082 177.44 970.882 181 968.482 184.12C966.082 187.16 962.602 189.56 958.042 191.32C953.562 193.08 948.082 193.96 941.602 193.96ZM1015.67 193.96C1008.31 193.96 1001.83 192.52 996.232 189.64C990.712 186.76 986.432 182.84 983.392 177.88C980.352 172.84 978.832 167.12 978.832 160.72C978.832 154.24 980.312 148.52 983.272 143.56C986.312 138.52 990.432 134.6 995.632 131.8C1000.83 128.92 1006.71 127.48 1013.27 127.48C1019.59 127.48 1025.27 128.84 1030.31 131.56C1035.43 134.2 1039.47 138.04 1042.43 143.08C1045.39 148.04 1046.87 154 1046.87 160.96C1046.87 161.68 1046.83 162.52 1046.75 163.48C1046.67 164.36 1046.59 165.2 1046.51 166H994.072V155.08H1036.67L1029.47 158.32C1029.47 154.96 1028.79 152.04 1027.43 149.56C1026.07 147.08 1024.19 145.16 1021.79 143.8C1019.39 142.36 1016.59 141.64 1013.39 141.64C1010.19 141.64 1007.35 142.36 1004.87 143.8C1002.47 145.16 1000.59 147.12 999.232 149.68C997.872 152.16 997.192 155.12 997.192 158.56V161.44C997.192 164.96 997.952 168.08 999.472 170.8C1001.07 173.44 1003.27 175.48 1006.07 176.92C1008.95 178.28 1012.31 178.96 1016.15 178.96C1019.59 178.96 1022.59 178.44 1025.15 177.4C1027.79 176.36 1030.19 174.8 1032.35 172.72L1042.31 183.52C1039.35 186.88 1035.63 189.48 1031.15 191.32C1026.67 193.08 1021.51 193.96 1015.67 193.96Z" fill="#FFC000"/>
<defs>
<g id="stroke0_58_2" data-figma-scatter-ref="stroke0_58_2_ref" data-figma-scatter="f0.37_w0_aj180_sj0.11_r0_s16715597685702232959_sw3">
</g>
<path id="stroke0_58_2_ref" d="M428.145 142.84H468.585V157.96H428.145V142.84ZM429.585 177.4H475.305V193H410.265V109H473.745V124.6H429.585V177.4ZM528.693 127.48C533.813 127.48 538.373 128.52 542.373 130.6C546.453 132.6 549.653 135.72 551.973 139.96C554.293 144.12 555.453 149.48 555.453 156.04V193H536.733V158.92C536.733 153.72 535.573 149.88 533.253 147.4C531.013 144.92 527.813 143.68 523.653 143.68C520.693 143.68 518.013 144.32 515.613 145.6C513.293 146.8 511.453 148.68 510.093 151.24C508.813 153.8 508.173 157.08 508.173 161.08V193H489.453V128.44H507.333V146.32L503.973 140.92C506.293 136.6 509.613 133.28 513.933 130.96C518.253 128.64 523.173 127.48 528.693 127.48ZM598.821 193.96C591.221 193.96 585.301 192.04 581.061 188.2C576.821 184.28 574.701 178.48 574.701 170.8V114.16H593.421V170.56C593.421 173.28 594.141 175.4 595.581 176.92C597.021 178.36 598.981 179.08 601.461 179.08C604.421 179.08 606.941 178.28 609.021 176.68L614.061 189.88C612.141 191.24 609.821 192.28 607.101 193C604.461 193.64 601.701 193.96 598.821 193.96ZM564.741 144.28V129.88H609.501V144.28H564.741ZM654.618 193.96C647.258 193.96 640.778 192.52 635.178 189.64C629.658 186.76 625.378 182.84 622.338 177.88C619.298 172.84 617.778 167.12 617.778 160.72C617.778 154.24 619.258 148.52 622.218 143.56C625.258 138.52 629.378 134.6 634.578 131.8C639.778 128.92 645.658 127.48 652.218 127.48C658.538 127.48 664.218 128.84 669.258 131.56C674.378 134.2 678.418 138.04 681.378 143.08C684.338 148.04 685.818 154 685.818 160.96C685.818 161.68 685.778 162.52 685.698 163.48C685.618 164.36 685.538 165.2 685.458 166H633.018V155.08H675.617L668.418 158.32C668.418 154.96 667.738 152.04 666.378 149.56C665.018 147.08 663.138 145.16 660.738 143.8C658.338 142.36 655.538 141.64 652.338 141.64C649.138 141.64 646.298 142.36 643.818 143.8C641.418 145.16 639.538 147.12 638.178 149.68C636.818 152.16 636.138 155.12 636.138 158.56V161.44C636.138 164.96 636.898 168.08 638.418 170.8C640.018 173.44 642.218 175.48 645.018 176.92C647.898 178.28 651.258 178.96 655.098 178.96C658.538 178.96 661.538 178.44 664.098 177.4C666.738 176.36 669.138 174.8 671.298 172.72L681.258 183.52C678.298 186.88 674.578 189.48 670.098 191.32C665.618 193.08 660.458 193.96 654.618 193.96ZM698.281 193V128.44H716.161V146.68L713.641 141.4C715.561 136.84 718.641 133.4 722.881 131.08C727.121 128.68 732.281 127.48 738.361 127.48V144.76C737.561 144.68 736.841 144.64 736.201 144.64C735.561 144.56 734.881 144.52 734.161 144.52C729.041 144.52 724.881 146 721.681 148.96C718.561 151.84 717.001 156.36 717.001 162.52V193H698.281ZM787.769 193.96C782.329 193.96 777.569 192.76 773.489 190.36C769.409 187.96 766.209 184.32 763.889 179.44C761.649 174.48 760.529 168.24 760.529 160.72C760.529 153.12 761.609 146.88 763.769 142C765.929 137.12 769.049 133.48 773.129 131.08C777.209 128.68 782.089 127.48 787.769 127.48C793.849 127.48 799.289 128.88 804.089 131.68C808.969 134.4 812.809 138.24 815.609 143.2C818.489 148.16 819.929 154 819.929 160.72C819.929 167.52 818.489 173.4 815.609 178.36C812.809 183.32 808.969 187.16 804.089 189.88C799.289 192.6 793.849 193.96 787.769 193.96ZM749.609 216.28V128.44H767.489V141.64L767.129 160.84L768.329 179.92V216.28H749.609ZM784.529 178.6C787.649 178.6 790.409 177.88 792.809 176.44C795.289 175 797.249 172.96 798.689 170.32C800.209 167.6 800.969 164.4 800.969 160.72C800.969 156.96 800.209 153.76 798.689 151.12C797.249 148.48 795.289 146.44 792.809 145C790.409 143.56 787.649 142.84 784.529 142.84C781.409 142.84 778.609 143.56 776.129 145C773.649 146.44 771.689 148.48 770.249 151.12C768.809 153.76 768.089 156.96 768.089 160.72C768.089 164.4 768.809 167.6 770.249 170.32C771.689 172.96 773.649 175 776.129 176.44C778.609 177.88 781.409 178.6 784.529 178.6ZM832.46 193V128.44H850.34V146.68L847.82 141.4C849.74 136.84 852.82 133.4 857.06 131.08C861.3 128.68 866.46 127.48 872.54 127.48V144.76C871.74 144.68 871.02 144.64 870.38 144.64C869.74 144.56 869.06 144.52 868.34 144.52C863.22 144.52 859.06 146 855.86 148.96C852.74 151.84 851.18 156.36 851.18 162.52V193H832.46ZM883.788 193V128.44H902.508V193H883.788ZM893.148 119.44C889.708 119.44 886.908 118.44 884.748 116.44C882.588 114.44 881.508 111.96 881.508 109C881.508 106.04 882.588 103.56 884.748 101.56C886.908 99.56 889.708 98.56 893.148 98.56C896.588 98.56 899.388 99.52 901.548 101.44C903.708 103.28 904.788 105.68 904.788 108.64C904.788 111.76 903.708 114.36 901.548 116.44C899.468 118.44 896.668 119.44 893.148 119.44ZM941.602 193.96C936.082 193.96 930.762 193.32 925.642 192.04C920.602 190.68 916.602 189 913.642 187L919.882 173.56C922.842 175.4 926.322 176.92 930.322 178.12C934.402 179.24 938.402 179.8 942.322 179.8C946.642 179.8 949.682 179.28 951.442 178.24C953.282 177.2 954.202 175.76 954.202 173.92C954.202 172.4 953.482 171.28 952.042 170.56C950.682 169.76 948.842 169.16 946.522 168.76C944.202 168.36 941.642 167.96 938.842 167.56C936.122 167.16 933.362 166.64 930.562 166C927.762 165.28 925.202 164.24 922.882 162.88C920.562 161.52 918.682 159.68 917.242 157.36C915.882 155.04 915.202 152.04 915.202 148.36C915.202 144.28 916.362 140.68 918.682 137.56C921.082 134.44 924.522 132 929.002 130.24C933.482 128.4 938.842 127.48 945.082 127.48C949.482 127.48 953.962 127.96 958.522 128.92C963.082 129.88 966.882 131.28 969.922 133.12L963.682 146.44C960.562 144.6 957.402 143.36 954.202 142.72C951.082 142 948.042 141.64 945.082 141.64C940.922 141.64 937.882 142.2 935.962 143.32C934.042 144.44 933.082 145.88 933.082 147.64C933.082 149.24 933.762 150.44 935.122 151.24C936.562 152.04 938.442 152.68 940.762 153.16C943.082 153.64 945.602 154.08 948.322 154.48C951.122 154.8 953.922 155.32 956.722 156.04C959.522 156.76 962.042 157.8 964.282 159.16C966.602 160.44 968.482 162.24 969.922 164.56C971.362 166.8 972.082 169.76 972.082 173.44C972.082 177.44 970.882 181 968.482 184.12C966.082 187.16 962.602 189.56 958.042 191.32C953.562 193.08 948.082 193.96 941.602 193.96ZM1015.67 193.96C1008.31 193.96 1001.83 192.52 996.232 189.64C990.712 186.76 986.432 182.84 983.392 177.88C980.352 172.84 978.832 167.12 978.832 160.72C978.832 154.24 980.312 148.52 983.272 143.56C986.312 138.52 990.432 134.6 995.632 131.8C1000.83 128.92 1006.71 127.48 1013.27 127.48C1019.59 127.48 1025.27 128.84 1030.31 131.56C1035.43 134.2 1039.47 138.04 1042.43 143.08C1045.39 148.04 1046.87 154 1046.87 160.96C1046.87 161.68 1046.83 162.52 1046.75 163.48C1046.67 164.36 1046.59 165.2 1046.51 166H994.072V155.08H1036.67L1029.47 158.32C1029.47 154.96 1028.79 152.04 1027.43 149.56C1026.07 147.08 1024.19 145.16 1021.79 143.8C1019.39 142.36 1016.59 141.64 1013.39 141.64C1010.19 141.64 1007.35 142.36 1004.87 143.8C1002.47 145.16 1000.59 147.12 999.232 149.68C997.872 152.16 997.192 155.12 997.192 158.56V161.44C997.192 164.96 997.952 168.08 999.472 170.8C1001.07 173.44 1003.27 175.48 1006.07 176.92C1008.95 178.28 1012.31 178.96 1016.15 178.96C1019.59 178.96 1022.59 178.44 1025.15 177.4C1027.79 176.36 1030.19 174.8 1032.35 172.72L1042.31 183.52C1039.35 186.88 1035.63 189.48 1031.15 191.32C1026.67 193.08 1021.51 193.96 1015.67 193.96Z"/>
</defs>
</svg>
