<svg width="63" height="63" xmlns="http://www.w3.org/2000/svg" xmlns:xlink="http://www.w3.org/1999/xlink" xml:space="preserve" overflow="hidden"><g transform="translate(-931 -339)"><path d="M962.5 345.562C948.723 345.559 937.552 356.723 937.548 370.5 937.544 384.277 948.709 395.448 962.486 395.452 976.262 395.456 987.433 384.291 987.438 370.514 987.438 370.512 987.438 370.51 987.438 370.507 987.445 356.738 976.289 345.57 962.52 345.562 962.514 345.562 962.507 345.562 962.5 345.562ZM962.5 394.139C949.458 394.146 938.88 383.579 938.872 370.537 938.869 364.488 941.188 358.668 945.35 354.277L978.728 387.656C974.352 391.82 968.541 394.141 962.5 394.139ZM979.656 386.728 946.278 353.35C955.747 344.384 970.691 344.793 979.656 354.262 988.277 363.367 988.277 377.623 979.656 386.728Z"/></g></svg>