<svg width="217" height="230" xmlns="http://www.w3.org/2000/svg" xmlns:xlink="http://www.w3.org/1999/xlink" xml:space="preserve" overflow="hidden"><g transform="translate(-1112 -673)"><path d="M1176 893 1190 782 1190 782" stroke="#440099" stroke-width="10.1454" stroke-linecap="round" stroke-linejoin="round" stroke-miterlimit="10" fill="none" fill-rule="evenodd"/><path d="M1266 773.5C1266.05 778.144 1262.16 781.948 1257.31 782L1181.88 782C1176.97 782 1173 778.195 1173 773.5 1173 768.805 1176.97 765 1181.88 765L1257.31 765C1262.16 765.052 1266.05 768.856 1266 773.5Z" stroke="#440099" stroke-width="10.1454" stroke-linecap="round" stroke-linejoin="round" stroke-miterlimit="10" fill="none" fill-rule="evenodd"/><path d="M1257 718.718C1256.72 723.519 1252.65 727.203 1247.87 726.992L1193.13 726.992C1188.35 727.203 1184.28 723.519 1184 718.718 1184.28 713.916 1188.35 710.232 1193.13 710.444L1193.27 710.444C1194.23 696.216 1206.33 685.37 1220.5 686.029 1234.64 685.407 1246.69 696.229 1247.66 710.419L1247.87 710.419C1252.66 710.208 1256.73 713.906 1257 718.718Z" stroke="#440099" stroke-width="10.1454" stroke-linecap="round" stroke-linejoin="round" stroke-miterlimit="10" fill="none" fill-rule="evenodd"/><path d="M1193 727 1193 765" stroke="#440099" stroke-width="10.1454" stroke-linecap="round" stroke-linejoin="round" stroke-miterlimit="10" fill="none" fill-rule="evenodd"/><path d="M1248 727 1248 765" stroke="#440099" stroke-width="10.1454" stroke-linecap="round" stroke-linejoin="round" stroke-miterlimit="10" fill="none" fill-rule="evenodd"/><path d="M1220 727 1220 765" stroke="#440099" stroke-width="10.1454" stroke-linecap="round" stroke-linejoin="round" stroke-miterlimit="10" fill="none" fill-rule="evenodd"/><path d="M1220 686 1220 678" stroke="#440099" stroke-width="10.1454" stroke-linecap="round" stroke-linejoin="round" stroke-miterlimit="10" fill="none" fill-rule="evenodd"/><path d="M1262 884 1249 782 1249 782" stroke="#440099" stroke-width="10.1454" stroke-linecap="round" stroke-linejoin="round" stroke-miterlimit="10" fill="none" fill-rule="evenodd"/><path d="M1193 710 1247 710" stroke="#440099" stroke-width="10.1454" stroke-linecap="round" stroke-linejoin="round" stroke-miterlimit="10" fill="none" fill-rule="evenodd"/><path d="M1124 889.137C1130.11 897.056 1135.43 894.192 1144.31 888.44 1152.37 883.212 1162.41 876.713 1172 889.137 1178.11 897.056 1183.42 894.192 1192.3 888.44 1200.37 883.212 1210.41 876.713 1220 889.137 1226.12 897.056 1231.43 894.192 1240.3 888.44 1248.37 883.212 1258.41 876.713 1268 889.137 1274.12 897.056 1279.43 894.192 1288.3 888.44 1296.37 883.212 1306.42 876.713 1316 889.137" stroke="#440099" stroke-width="10.1454" stroke-linecap="round" stroke-linejoin="round" stroke-miterlimit="10" fill="none" fill-rule="evenodd"/><path d="M1184 828 1251 796" stroke="#440099" stroke-width="10.1454" stroke-linecap="round" stroke-linejoin="round" stroke-miterlimit="10" fill="none" fill-rule="evenodd"/><path d="M1178 873 1256 835" stroke="#440099" stroke-width="10.1454" stroke-linecap="round" stroke-linejoin="round" stroke-miterlimit="10" fill="none" fill-rule="evenodd"/><path d="M1145 711 1168 724" stroke="#FCB322" stroke-width="10.1454" stroke-linecap="round" stroke-linejoin="round" stroke-miterlimit="10" fill="none" fill-rule="evenodd"/><path d="M1117 739 1165 739" stroke="#FCB322" stroke-width="10.1454" stroke-linecap="round" stroke-linejoin="round" stroke-miterlimit="10" fill="none" fill-rule="evenodd"/><path d="M1168 753 1145 766" stroke="#FCB322" stroke-width="10.1454" stroke-linecap="round" stroke-linejoin="round" stroke-miterlimit="10" fill="none" fill-rule="evenodd"/><path d="M1296 766 1272 753" stroke="#FCB322" stroke-width="10.1454" stroke-linecap="round" stroke-linejoin="round" stroke-miterlimit="10" fill="none" fill-rule="evenodd"/><path d="M1324 739 1275 739" stroke="#FCB322" stroke-width="10.1454" stroke-linecap="round" stroke-linejoin="round" stroke-miterlimit="10" fill="none" fill-rule="evenodd"/><path d="M1272 724 1296 711" stroke="#FCB322" stroke-width="10.1454" stroke-linecap="round" stroke-linejoin="round" stroke-miterlimit="10" fill="none" fill-rule="evenodd"/></g></svg>