<svg width="217" height="230" xmlns="http://www.w3.org/2000/svg" xmlns:xlink="http://www.w3.org/1999/xlink" xml:space="preserve" overflow="hidden"><g transform="translate(-1523 -677)"><path d="M1587 897 1601 786 1601 786" stroke="#7F7F7F" stroke-width="10.1454" stroke-linecap="round" stroke-linejoin="round" stroke-miterlimit="10" fill="none" fill-rule="evenodd"/><path d="M1677 777C1677.05 781.917 1673.2 785.945 1668.4 786.001L1593.78 786.001C1588.93 786.001 1585 781.971 1585 777 1585 772.029 1588.93 768 1593.78 768L1668.4 768C1673.2 768.055 1677.05 772.083 1677 777Z" stroke="#7F7F7F" stroke-width="10.1454" stroke-linecap="round" stroke-linejoin="round" stroke-miterlimit="10" fill="none" fill-rule="evenodd"/><path d="M1668 721.92C1667.72 726.604 1663.65 730.198 1658.87 729.992L1604.13 729.992C1599.35 730.198 1595.28 726.604 1595 721.92 1595.28 717.235 1599.35 713.641 1604.13 713.848L1604.27 713.848C1605.23 699.967 1617.33 689.385 1631.5 690.028 1645.64 689.421 1657.69 699.979 1658.66 713.824L1658.87 713.824C1663.66 713.617 1667.73 717.226 1668 721.92Z" stroke="#7F7F7F" stroke-width="10.1454" stroke-linecap="round" stroke-linejoin="round" stroke-miterlimit="10" fill="none" fill-rule="evenodd"/><path d="M1604 730 1604 768" stroke="#7F7F7F" stroke-width="10.1454" stroke-linecap="round" stroke-linejoin="round" stroke-miterlimit="10" fill="none" fill-rule="evenodd"/><path d="M1659 730 1659 768" stroke="#7F7F7F" stroke-width="10.1454" stroke-linecap="round" stroke-linejoin="round" stroke-miterlimit="10" fill="none" fill-rule="evenodd"/><path d="M1631 730 1631 768" stroke="#7F7F7F" stroke-width="10.1454" stroke-linecap="round" stroke-linejoin="round" stroke-miterlimit="10" fill="none" fill-rule="evenodd"/><path d="M1631 690 1631 682" stroke="#7F7F7F" stroke-width="10.1454" stroke-linecap="round" stroke-linejoin="round" stroke-miterlimit="10" fill="none" fill-rule="evenodd"/><path d="M1673 888 1660 786 1660 786" stroke="#7F7F7F" stroke-width="10.1454" stroke-linecap="round" stroke-linejoin="round" stroke-miterlimit="10" fill="none" fill-rule="evenodd"/><path d="M1604 714 1658 714" stroke="#7F7F7F" stroke-width="10.1454" stroke-linecap="round" stroke-linejoin="round" stroke-miterlimit="10" fill="none" fill-rule="evenodd"/><path d="M1535 893.137C1541.11 901.056 1546.43 898.192 1555.31 892.439 1563.37 887.212 1573.41 880.712 1583 893.137 1589.11 901.056 1594.42 898.192 1603.3 892.439 1611.37 887.212 1621.41 880.712 1631 893.137 1637.12 901.056 1642.43 898.192 1651.3 892.439 1659.37 887.212 1669.41 880.712 1679 893.137 1685.12 901.056 1690.43 898.192 1699.3 892.439 1707.37 887.212 1717.42 880.712 1727 893.137" stroke="#7F7F7F" stroke-width="10.1454" stroke-linecap="round" stroke-linejoin="round" stroke-miterlimit="10" fill="none" fill-rule="evenodd"/><path d="M1595 832 1662 800" stroke="#7F7F7F" stroke-width="10.1454" stroke-linecap="round" stroke-linejoin="round" stroke-miterlimit="10" fill="none" fill-rule="evenodd"/><path d="M1589 877 1667 839" stroke="#7F7F7F" stroke-width="10.1454" stroke-linecap="round" stroke-linejoin="round" stroke-miterlimit="10" fill="none" fill-rule="evenodd"/><path d="M1556 715 1579 728" stroke="#FCB322" stroke-width="10.1454" stroke-linecap="round" stroke-linejoin="round" stroke-miterlimit="10" fill="none" fill-rule="evenodd"/><path d="M1528 742 1577 742" stroke="#FCB322" stroke-width="10.1454" stroke-linecap="round" stroke-linejoin="round" stroke-miterlimit="10" fill="none" fill-rule="evenodd"/><path d="M1579 757 1556 770" stroke="#FCB322" stroke-width="10.1454" stroke-linecap="round" stroke-linejoin="round" stroke-miterlimit="10" fill="none" fill-rule="evenodd"/><path d="M1707 770 1684 757" stroke="#FCB322" stroke-width="10.1454" stroke-linecap="round" stroke-linejoin="round" stroke-miterlimit="10" fill="none" fill-rule="evenodd"/><path d="M1735 742 1686 742" stroke="#FCB322" stroke-width="10.1454" stroke-linecap="round" stroke-linejoin="round" stroke-miterlimit="10" fill="none" fill-rule="evenodd"/><path d="M1684 728 1707 715" stroke="#FCB322" stroke-width="10.1454" stroke-linecap="round" stroke-linejoin="round" stroke-miterlimit="10" fill="none" fill-rule="evenodd"/></g></svg>