<svg width="1500" height="300" viewBox="0 0 1500 300" fill="none" xmlns="http://www.w3.org/2000/svg">
<rect width="1500" height="300" fill="#FFC000" fill-opacity="0.15"/>
<path d="M428.063 142.84H468.503V157.96H428.063V142.84ZM429.503 177.4H475.223V193H410.183V109H473.663V124.6H429.503V177.4ZM480.507 193L509.427 155.08L509.067 165.4L481.347 128.44H502.347L519.867 152.56L511.947 152.8L530.067 128.44H549.987L522.147 165.04V154.96L550.947 193H529.707L511.347 167.32L519.147 168.4L500.907 193H480.507ZM598.195 193.96C592.755 193.96 587.995 192.76 583.915 190.36C579.835 187.96 576.635 184.32 574.315 179.44C572.075 174.48 570.955 168.24 570.955 160.72C570.955 153.12 572.035 146.88 574.195 142C576.355 137.12 579.475 133.48 583.555 131.08C587.635 128.68 592.515 127.48 598.195 127.48C604.275 127.48 609.715 128.88 614.515 131.68C619.395 134.4 623.235 138.24 626.035 143.2C628.915 148.16 630.355 154 630.355 160.72C630.355 167.52 628.915 173.4 626.035 178.36C623.235 183.32 619.395 187.16 614.515 189.88C609.715 192.6 604.275 193.96 598.195 193.96ZM560.035 216.28V128.44H577.915V141.64L577.555 160.84L578.755 179.92V216.28H560.035ZM594.955 178.6C598.075 178.6 600.835 177.88 603.235 176.44C605.715 175 607.675 172.96 609.115 170.32C610.635 167.6 611.395 164.4 611.395 160.72C611.395 156.96 610.635 153.76 609.115 151.12C607.675 148.48 605.715 146.44 603.235 145C600.835 143.56 598.075 142.84 594.955 142.84C591.835 142.84 589.035 143.56 586.555 145C584.075 146.44 582.115 148.48 580.675 151.12C579.235 153.76 578.515 156.96 578.515 160.72C578.515 164.4 579.235 167.6 580.675 170.32C582.115 172.96 584.075 175 586.555 176.44C589.035 177.88 591.835 178.6 594.955 178.6ZM681.431 193V180.4L680.231 177.64V155.08C680.231 151.08 678.991 147.96 676.511 145.72C674.111 143.48 670.391 142.36 665.351 142.36C661.911 142.36 658.511 142.92 655.151 144.04C651.871 145.08 649.071 146.52 646.751 148.36L640.031 135.28C643.551 132.8 647.791 130.88 652.751 129.52C657.711 128.16 662.751 127.48 667.871 127.48C677.711 127.48 685.351 129.8 690.791 134.44C696.231 139.08 698.951 146.32 698.951 156.16V193H681.431ZM661.751 193.96C656.711 193.96 652.391 193.12 648.791 191.44C645.191 189.68 642.431 187.32 640.511 184.36C638.591 181.4 637.631 178.08 637.631 174.4C637.631 170.56 638.551 167.2 640.391 164.32C642.311 161.44 645.311 159.2 649.391 157.6C653.471 155.92 658.791 155.08 665.351 155.08H682.511V166H667.391C662.991 166 659.951 166.72 658.271 168.16C656.671 169.6 655.871 171.4 655.871 173.56C655.871 175.96 656.791 177.88 658.631 179.32C660.551 180.68 663.151 181.36 666.431 181.36C669.551 181.36 672.351 180.64 674.831 179.2C677.311 177.68 679.111 175.48 680.231 172.6L683.111 181.24C681.751 185.4 679.271 188.56 675.671 190.72C672.071 192.88 667.431 193.96 661.751 193.96ZM755.134 127.48C760.254 127.48 764.814 128.52 768.814 130.6C772.894 132.6 776.094 135.72 778.414 139.96C780.734 144.12 781.894 149.48 781.894 156.04V193H763.174V158.92C763.174 153.72 762.014 149.88 759.694 147.4C757.454 144.92 754.254 143.68 750.094 143.68C747.134 143.68 744.454 144.32 742.054 145.6C739.734 146.8 737.894 148.68 736.534 151.24C735.254 153.8 734.614 157.08 734.614 161.08V193H715.894V128.44H733.774V146.32L730.414 140.92C732.734 136.6 736.054 133.28 740.374 130.96C744.694 128.64 749.614 127.48 755.134 127.48ZM827.051 193.96C820.971 193.96 815.491 192.6 810.611 189.88C805.731 187.08 801.851 183.2 798.971 178.24C796.171 173.28 794.771 167.44 794.771 160.72C794.771 153.92 796.171 148.04 798.971 143.08C801.851 138.12 805.731 134.28 810.611 131.56C815.491 128.84 820.971 127.48 827.051 127.48C832.491 127.48 837.251 128.68 841.331 131.08C845.411 133.48 848.571 137.12 850.811 142C853.051 146.88 854.171 153.12 854.171 160.72C854.171 168.24 853.091 174.48 850.931 179.44C848.771 184.32 845.651 187.96 841.571 190.36C837.571 192.76 832.731 193.96 827.051 193.96ZM830.291 178.6C833.331 178.6 836.091 177.88 838.571 176.44C841.051 175 843.011 172.96 844.451 170.32C845.971 167.6 846.731 164.4 846.731 160.72C846.731 156.96 845.971 153.76 844.451 151.12C843.011 148.48 841.051 146.44 838.571 145C836.091 143.56 833.331 142.84 830.291 142.84C827.171 142.84 824.371 143.56 821.891 145C819.411 146.44 817.411 148.48 815.891 151.12C814.451 153.76 813.731 156.96 813.731 160.72C813.731 164.4 814.451 167.6 815.891 170.32C817.411 172.96 819.411 175 821.891 176.44C824.371 177.88 827.171 178.6 830.291 178.6ZM847.211 193V179.8L847.571 160.6L846.371 141.52V103.96H865.091V193H847.211Z" fill="#FFC000"/>
<path d="M145.633 281.868L163.959 145.386" stroke="#8D8D8D" stroke-width="14" stroke-miterlimit="10" stroke-linecap="round" stroke-linejoin="round"/>
<path fill-rule="evenodd" clip-rule="evenodd" d="M262.918 134.398C262.983 140.401 257.925 145.316 251.616 145.386H153.516C147.139 145.386 141.968 140.47 141.968 134.398C141.968 128.325 147.139 123.41 153.516 123.41H251.616C257.925 123.479 262.983 128.395 262.918 134.398Z" stroke="#8D8D8D" stroke-width="14" stroke-miterlimit="10" stroke-linecap="round" stroke-linejoin="round"/>
<path fill-rule="evenodd" clip-rule="evenodd" d="M249.48 67.0936C249.116 72.923 243.878 77.3875 237.718 77.1331H167.169C161.01 77.3875 155.773 72.923 155.407 67.0936C155.773 61.2758 161.01 56.7996 167.169 57.0656H167.35C168.592 39.7972 184.181 26.6463 202.443 27.4444C220.659 26.6926 236.189 39.8203 237.443 57.0309H237.718C243.89 56.7764 249.133 61.2642 249.48 67.0936Z" stroke="#8D8D8D" stroke-width="14" stroke-miterlimit="10" stroke-linecap="round" stroke-linejoin="round"/>
<path d="M165.181 77.1446V123.41" stroke="#8D8D8D" stroke-width="14" stroke-miterlimit="10" stroke-linecap="round" stroke-linejoin="round"/>
<path d="M238.484 77.1446V123.41" stroke="#8D8D8D" stroke-width="14" stroke-miterlimit="10" stroke-linecap="round" stroke-linejoin="round"/>
<path d="M203.054 77.1446V123.41" stroke="#8D8D8D" stroke-width="14" stroke-miterlimit="10" stroke-linecap="round" stroke-linejoin="round"/>
<path d="M203.054 27.4096V17" stroke="#8D8D8D" stroke-width="14" stroke-miterlimit="10" stroke-linecap="round" stroke-linejoin="round"/>
<path d="M258.032 270.301L240.928 145.386" stroke="#8D8D8D" stroke-width="14" stroke-miterlimit="10" stroke-linecap="round" stroke-linejoin="round"/>
<path d="M167.625 56.3253H238.484" stroke="#8D8D8D" stroke-width="14" stroke-miterlimit="10" stroke-linecap="round" stroke-linejoin="round"/>
<path d="M78.439 276.929C86.374 286.853 93.2707 283.267 104.798 276.061C115.265 269.503 128.296 261.361 140.744 276.929C148.679 286.853 155.576 283.267 167.103 276.061C177.569 269.503 190.611 261.361 203.059 276.929C210.996 286.853 217.892 283.267 229.408 276.061C239.886 269.503 252.916 261.361 265.365 276.929C273.3 286.853 280.197 283.267 291.713 276.061C302.191 269.503 315.233 261.361 327.67 276.929" stroke="#8D8D8D" stroke-width="14" stroke-miterlimit="10" stroke-linecap="round" stroke-linejoin="round"/>
<path d="M156.629 202.06L243.371 162.735" stroke="#8D8D8D" stroke-width="14" stroke-miterlimit="10" stroke-linecap="round" stroke-linejoin="round"/>
<path d="M149.298 257.579L249.479 210.157" stroke="#8D8D8D" stroke-width="14" stroke-miterlimit="10" stroke-linecap="round" stroke-linejoin="round"/>
<path d="M101.651 69.0482L132.194 84.0844" stroke="#FFC000" stroke-width="14" stroke-miterlimit="10" stroke-linecap="round" stroke-linejoin="round"/>
<path d="M65 102.59H128.531" stroke="#FFC000" stroke-width="14" stroke-miterlimit="10" stroke-linecap="round" stroke-linejoin="round"/>
<path d="M132.194 119.94L101.651 136.133" stroke="#FFC000" stroke-width="14" stroke-miterlimit="10" stroke-linecap="round" stroke-linejoin="round"/>
<path d="M298.348 136.133L267.805 119.94" stroke="#FFC000" stroke-width="14" stroke-miterlimit="10" stroke-linecap="round" stroke-linejoin="round"/>
<path d="M335 102.59H271.471" stroke="#FFC000" stroke-width="14" stroke-miterlimit="10" stroke-linecap="round" stroke-linejoin="round"/>
<path d="M267.805 84.0844L298.348 69.0482" stroke="#FFC000" stroke-width="14" stroke-miterlimit="10" stroke-linecap="round" stroke-linejoin="round"/>
</svg>
