<svg width="1500" height="300" viewBox="0 0 1500 300" fill="none" xmlns="http://www.w3.org/2000/svg">
<path d="M427.965 142.84H468.405V157.96H427.965V142.84ZM429.405 177.4H475.125V193H410.085V109H473.565V124.6H429.405V177.4ZM480.41 193L509.33 155.08L508.97 165.4L481.25 128.44H502.25L519.77 152.56L511.85 152.8L529.97 128.44H549.89L522.05 165.04V154.96L550.85 193H529.61L511.25 167.32L519.05 168.4L500.81 193H480.41ZM586.337 193.96C578.737 193.96 572.817 192.04 568.577 188.2C564.337 184.28 562.217 178.48 562.217 170.8V114.16H580.937V170.56C580.937 173.28 581.657 175.4 583.097 176.92C584.537 178.36 586.497 179.08 588.977 179.08C591.937 179.08 594.457 178.28 596.537 176.68L601.577 189.88C599.657 191.24 597.337 192.28 594.617 193C591.977 193.64 589.217 193.96 586.337 193.96ZM552.257 144.28V129.88H597.017V144.28H552.257ZM612.085 193V128.44H629.965V146.68L627.445 141.4C629.365 136.84 632.445 133.4 636.685 131.08C640.925 128.68 646.085 127.48 652.165 127.48V144.76C651.365 144.68 650.645 144.64 650.005 144.64C649.365 144.56 648.685 144.52 647.965 144.52C642.845 144.52 638.685 146 635.485 148.96C632.365 151.84 630.805 156.36 630.805 162.52V193H612.085ZM699.069 193V109H718.509V177.16H760.629V193H699.069ZM801.86 193.96C794.5 193.96 788.02 192.52 782.42 189.64C776.9 186.76 772.62 182.84 769.58 177.88C766.54 172.84 765.02 167.12 765.02 160.72C765.02 154.24 766.5 148.52 769.46 143.56C772.5 138.52 776.62 134.6 781.82 131.8C787.02 128.92 792.9 127.48 799.46 127.48C805.78 127.48 811.46 128.84 816.5 131.56C821.62 134.2 825.66 138.04 828.62 143.08C831.58 148.04 833.06 154 833.06 160.96C833.06 161.68 833.02 162.52 832.94 163.48C832.86 164.36 832.78 165.2 832.7 166H780.26V155.08H822.86L815.66 158.32C815.66 154.96 814.98 152.04 813.62 149.56C812.26 147.08 810.38 145.16 807.98 143.8C805.58 142.36 802.78 141.64 799.58 141.64C796.38 141.64 793.54 142.36 791.06 143.8C788.66 145.16 786.78 147.12 785.42 149.68C784.06 152.16 783.38 155.12 783.38 158.56V161.44C783.38 164.96 784.14 168.08 785.66 170.8C787.26 173.44 789.46 175.48 792.26 176.92C795.14 178.28 798.5 178.96 802.34 178.96C805.78 178.96 808.78 178.44 811.34 177.4C813.98 176.36 816.38 174.8 818.54 172.72L828.5 183.52C825.54 186.88 821.82 189.48 817.34 191.32C812.86 193.08 807.7 193.96 801.86 193.96ZM883.365 193V180.4L882.165 177.64V155.08C882.165 151.08 880.925 147.96 878.445 145.72C876.045 143.48 872.325 142.36 867.285 142.36C863.845 142.36 860.445 142.92 857.085 144.04C853.805 145.08 851.005 146.52 848.685 148.36L841.965 135.28C845.485 132.8 849.725 130.88 854.685 129.52C859.645 128.16 864.685 127.48 869.805 127.48C879.645 127.48 887.285 129.8 892.725 134.44C898.165 139.08 900.885 146.32 900.885 156.16V193H883.365ZM863.685 193.96C858.645 193.96 854.325 193.12 850.725 191.44C847.125 189.68 844.365 187.32 842.445 184.36C840.525 181.4 839.565 178.08 839.565 174.4C839.565 170.56 840.485 167.2 842.325 164.32C844.245 161.44 847.245 159.2 851.325 157.6C855.405 155.92 860.725 155.08 867.285 155.08H884.445V166H869.325C864.925 166 861.885 166.72 860.205 168.16C858.605 169.6 857.805 171.4 857.805 173.56C857.805 175.96 858.725 177.88 860.565 179.32C862.485 180.68 865.085 181.36 868.365 181.36C871.485 181.36 874.285 180.64 876.765 179.2C879.245 177.68 881.045 175.48 882.165 172.6L885.045 181.24C883.685 185.4 881.205 188.56 877.605 190.72C874.005 192.88 869.365 193.96 863.685 193.96ZM946.016 193.96C939.936 193.96 934.456 192.6 929.576 189.88C924.696 187.08 920.816 183.2 917.936 178.24C915.136 173.28 913.736 167.44 913.736 160.72C913.736 153.92 915.136 148.04 917.936 143.08C920.816 138.12 924.696 134.28 929.576 131.56C934.456 128.84 939.936 127.48 946.016 127.48C951.456 127.48 956.216 128.68 960.296 131.08C964.376 133.48 967.536 137.12 969.776 142C972.016 146.88 973.136 153.12 973.136 160.72C973.136 168.24 972.056 174.48 969.896 179.44C967.736 184.32 964.616 187.96 960.536 190.36C956.536 192.76 951.696 193.96 946.016 193.96ZM949.256 178.6C952.296 178.6 955.056 177.88 957.536 176.44C960.016 175 961.976 172.96 963.416 170.32C964.936 167.6 965.696 164.4 965.696 160.72C965.696 156.96 964.936 153.76 963.416 151.12C961.976 148.48 960.016 146.44 957.536 145C955.056 143.56 952.296 142.84 949.256 142.84C946.136 142.84 943.336 143.56 940.856 145C938.376 146.44 936.376 148.48 934.856 151.12C933.416 153.76 932.696 156.96 932.696 160.72C932.696 164.4 933.416 167.6 934.856 170.32C936.376 172.96 938.376 175 940.856 176.44C943.336 177.88 946.136 178.6 949.256 178.6ZM966.176 193V179.8L966.536 160.6L965.336 141.52V103.96H984.056V193H966.176ZM1033.42 193.96C1026.06 193.96 1019.58 192.52 1013.98 189.64C1008.46 186.76 1004.18 182.84 1001.14 177.88C998.102 172.84 996.582 167.12 996.582 160.72C996.582 154.24 998.062 148.52 1001.02 143.56C1004.06 138.52 1008.18 134.6 1013.38 131.8C1018.58 128.92 1024.46 127.48 1031.02 127.48C1037.34 127.48 1043.02 128.84 1048.06 131.56C1053.18 134.2 1057.22 138.04 1060.18 143.08C1063.14 148.04 1064.62 154 1064.62 160.96C1064.62 161.68 1064.58 162.52 1064.5 163.48C1064.42 164.36 1064.34 165.2 1064.26 166H1011.82V155.08H1054.42L1047.22 158.32C1047.22 154.96 1046.54 152.04 1045.18 149.56C1043.82 147.08 1041.94 145.16 1039.54 143.8C1037.14 142.36 1034.34 141.64 1031.14 141.64C1027.94 141.64 1025.1 142.36 1022.62 143.8C1020.22 145.16 1018.34 147.12 1016.98 149.68C1015.62 152.16 1014.94 155.12 1014.94 158.56V161.44C1014.94 164.96 1015.7 168.08 1017.22 170.8C1018.82 173.44 1021.02 175.48 1023.82 176.92C1026.7 178.28 1030.06 178.96 1033.9 178.96C1037.34 178.96 1040.34 178.44 1042.9 177.4C1045.54 176.36 1047.94 174.8 1050.1 172.72L1060.06 183.52C1057.1 186.88 1053.38 189.48 1048.9 191.32C1044.42 193.08 1039.26 193.96 1033.42 193.96ZM1077.09 193V128.44H1094.97V146.68L1092.45 141.4C1094.37 136.84 1097.45 133.4 1101.69 131.08C1105.93 128.68 1111.09 127.48 1117.17 127.48V144.76C1116.37 144.68 1115.65 144.64 1115.01 144.64C1114.37 144.56 1113.69 144.52 1112.97 144.52C1107.85 144.52 1103.69 146 1100.49 148.96C1097.37 151.84 1095.81 156.36 1095.81 162.52V193H1077.09ZM1150.49 193.96C1144.97 193.96 1139.65 193.32 1134.53 192.04C1129.49 190.68 1125.49 189 1122.53 187L1128.77 173.56C1131.73 175.4 1135.21 176.92 1139.21 178.12C1143.29 179.24 1147.29 179.8 1151.21 179.8C1155.53 179.8 1158.57 179.28 1160.33 178.24C1162.17 177.2 1163.09 175.76 1163.09 173.92C1163.09 172.4 1162.37 171.28 1160.93 170.56C1159.57 169.76 1157.73 169.16 1155.4 168.76C1153.09 168.36 1150.53 167.96 1147.73 167.56C1145.01 167.16 1142.25 166.64 1139.45 166C1136.65 165.28 1134.09 164.24 1131.77 162.88C1129.45 161.52 1127.57 159.68 1126.13 157.36C1124.77 155.04 1124.08 152.04 1124.08 148.36C1124.08 144.28 1125.25 140.68 1127.57 137.56C1129.97 134.44 1133.41 132 1137.89 130.24C1142.37 128.4 1147.73 127.48 1153.97 127.48C1158.37 127.48 1162.85 127.96 1167.41 128.92C1171.97 129.88 1175.77 131.28 1178.81 133.12L1172.57 146.44C1169.45 144.6 1166.29 143.36 1163.09 142.72C1159.97 142 1156.93 141.64 1153.97 141.64C1149.81 141.64 1146.77 142.2 1144.85 143.32C1142.93 144.44 1141.97 145.88 1141.97 147.64C1141.97 149.24 1142.65 150.44 1144.01 151.24C1145.45 152.04 1147.33 152.68 1149.65 153.16C1151.97 153.64 1154.49 154.08 1157.21 154.48C1160.01 154.8 1162.81 155.32 1165.61 156.04C1168.41 156.76 1170.93 157.8 1173.17 159.16C1175.49 160.44 1177.37 162.24 1178.81 164.56C1180.25 166.8 1180.97 169.76 1180.97 173.44C1180.97 177.44 1179.77 181 1177.37 184.12C1174.97 187.16 1171.49 189.56 1166.93 191.32C1162.45 193.08 1156.97 193.96 1150.49 193.96Z" fill="#8F7FA6"/>
<mask id="path-2-inside-1_39_407" fill="white">
<path d="M323.715 28.9043C312.58 12.3908 290.167 8.03117 273.653 19.1665C269.812 21.7566 266.507 25.0634 263.916 28.9043C257.188 38.8309 255.767 51.4293 260.114 62.6053L276.533 98.8993L290.704 128.625C291.586 130.343 293.691 131.023 295.41 130.142C296.061 129.808 296.593 129.277 296.926 128.625L311.099 98.8993L327.517 62.6053C331.865 51.4293 330.443 38.8309 323.715 28.9043ZM321.034 59.906L304.764 95.8788L293.849 118.774C293.832 118.809 293.803 118.809 293.786 118.774L282.927 96.0067L266.596 59.906C263.153 50.9068 264.327 40.7915 269.741 32.8202C278.713 19.5237 296.766 16.0189 310.061 24.9916C313.165 27.0856 315.833 29.7599 317.921 32.867C323.312 40.8313 324.474 50.9255 321.034 59.906Z"/>
</mask>
<path d="M323.715 28.9043C312.58 12.3908 290.167 8.03117 273.653 19.1665C269.812 21.7566 266.507 25.0634 263.916 28.9043C257.188 38.8309 255.767 51.4293 260.114 62.6053L276.533 98.8993L290.704 128.625C291.586 130.343 293.691 131.023 295.41 130.142C296.061 129.808 296.593 129.277 296.926 128.625L311.099 98.8993L327.517 62.6053C331.865 51.4293 330.443 38.8309 323.715 28.9043ZM321.034 59.906L304.764 95.8788L293.849 118.774C293.832 118.809 293.803 118.809 293.786 118.774L282.927 96.0067L266.596 59.906C263.153 50.9068 264.327 40.7915 269.741 32.8202C278.713 19.5237 296.766 16.0189 310.061 24.9916C313.165 27.0856 315.833 29.7599 317.921 32.867C323.312 40.8313 324.474 50.9255 321.034 59.906Z" fill="#8F7FA6"/>
<path d="M323.715 28.9043L308.791 38.9679L308.803 38.9857L308.815 39.0035L323.715 28.9043ZM273.653 19.1665L283.717 34.0906L283.717 34.0905L273.653 19.1665ZM263.916 28.9043L278.816 39.0043L278.828 38.9861L278.84 38.9678L263.916 28.9043ZM260.114 62.6053L243.338 69.1305L243.514 69.5826L243.714 70.0244L260.114 62.6053ZM276.533 98.8993L260.133 106.319L260.207 106.483L260.285 106.645L276.533 98.8993ZM290.704 128.625L274.456 136.371L274.569 136.607L274.688 136.84L290.704 128.625ZM295.41 130.142L287.207 114.12L287.2 114.123L295.41 130.142ZM296.926 128.625L312.949 136.828L313.065 136.601L313.174 136.372L296.926 128.625ZM311.099 98.8993L327.347 106.646L327.424 106.483L327.499 106.318L311.099 98.8993ZM327.517 62.6053L343.917 70.0242L344.117 69.5829L344.292 69.1316L327.517 62.6053ZM321.034 59.906L337.434 67.3239L337.653 66.8404L337.843 66.345L321.034 59.906ZM304.764 95.8788L321.012 103.625L321.09 103.461L321.164 103.297L304.764 95.8788ZM293.849 118.774L310.02 126.68L310.059 126.6L310.097 126.52L293.849 118.774ZM293.786 118.774L277.539 126.523L277.577 126.602L277.615 126.68L293.786 118.774ZM282.927 96.0067L266.527 103.426L266.602 103.591L266.68 103.755L282.927 96.0067ZM266.596 59.906L249.785 66.3384L249.976 66.8378L250.196 67.325L266.596 59.906ZM269.741 32.8202L284.631 42.9335L284.646 42.9109L284.662 42.8883L269.741 32.8202ZM310.061 24.9916L299.992 39.9119L299.993 39.9123L310.061 24.9916ZM317.921 32.867L302.981 42.9061L302.998 42.9313L303.015 42.9565L317.921 32.867ZM323.715 28.9043L338.639 18.8408C321.946 -5.91501 288.346 -12.4507 263.59 4.24255L273.653 19.1665L283.717 34.0905C291.988 28.5131 303.214 30.6966 308.791 38.9679L323.715 28.9043ZM273.653 19.1665L263.59 4.24253C257.83 8.12631 252.875 13.0837 248.992 18.8409L263.916 28.9043L278.84 38.9678C280.138 37.043 281.795 35.3869 283.717 34.0906L273.653 19.1665ZM263.916 28.9043L249.017 18.8044C238.968 33.6283 236.847 52.442 243.338 69.1305L260.114 62.6053L276.889 56.08C274.686 50.4167 275.407 44.0334 278.816 39.0043L263.916 28.9043ZM260.114 62.6053L243.714 70.0244L260.133 106.319L276.533 98.8993L292.933 91.4802L276.514 55.1861L260.114 62.6053ZM276.533 98.8993L260.285 106.645L274.456 136.371L290.704 128.625L306.952 120.879L292.781 91.1532L276.533 98.8993ZM290.704 128.625L274.688 136.84C280.101 147.393 293.047 151.579 303.619 146.161L295.41 130.142L287.2 114.123C294.336 110.466 303.07 113.294 306.72 120.41L290.704 128.625ZM295.41 130.142L303.612 146.164C307.627 144.109 310.893 140.842 312.949 136.828L296.926 128.625L280.904 120.422C282.292 117.712 284.496 115.507 287.207 114.12L295.41 130.142ZM296.926 128.625L313.174 136.372L327.347 106.646L311.099 98.8993L294.851 91.1529L280.679 120.879L296.926 128.625ZM311.099 98.8993L327.499 106.318L343.917 70.0242L327.517 62.6053L311.117 55.1864L294.699 91.4805L311.099 98.8993ZM327.517 62.6053L344.292 69.1316C350.785 52.4416 348.662 33.628 338.615 18.8052L323.715 28.9043L308.815 39.0035C312.225 44.0337 312.945 50.417 310.742 56.079L327.517 62.6053ZM321.034 59.906L304.633 52.4882L288.363 88.461L304.764 95.8788L321.164 103.297L337.434 67.3239L321.034 59.906ZM304.764 95.8788L288.515 88.133L277.601 111.028L293.849 118.774L310.097 126.52L321.012 103.625L304.764 95.8788ZM293.849 118.774L277.678 110.868C278.977 108.211 283.768 100.801 293.817 100.801C303.867 100.801 308.657 108.211 309.957 110.868L293.786 118.774L277.615 126.68C278.931 129.373 283.745 136.801 293.817 136.801C303.89 136.801 308.703 129.373 310.02 126.68L293.849 118.774ZM293.786 118.774L310.033 111.026L299.174 88.2581L282.927 96.0067L266.68 103.755L277.539 126.523L293.786 118.774ZM282.927 96.0067L299.327 88.5878L282.996 52.4871L266.596 59.906L250.196 67.325L266.527 103.426L282.927 96.0067ZM266.596 59.906L283.408 53.4737C282.068 49.9713 282.525 46.0348 284.631 42.9335L269.741 32.8202L254.85 22.7069C246.129 35.5483 244.238 51.8423 249.785 66.3384L266.596 59.906ZM269.741 32.8202L284.662 42.8883C288.073 37.8331 294.937 36.5002 299.992 39.9119L310.061 24.9916L320.13 10.0714C298.594 -4.46241 269.353 1.21437 254.82 22.7521L269.741 32.8202ZM310.061 24.9916L299.993 39.9123C301.172 40.7082 302.187 41.7247 302.981 42.9061L317.921 32.867L332.862 22.8279C329.48 17.7951 325.157 13.4631 320.13 10.0709L310.061 24.9916ZM317.921 32.867L303.015 42.9565C305.111 46.0528 305.562 49.9765 304.225 53.4671L321.034 59.906L337.843 66.345C343.386 51.8745 341.513 35.6098 332.828 22.7775L317.921 32.867Z" fill="#8F7FA6" mask="url(#path-2-inside-1_39_407)"/>
<mask id="path-4-inside-2_39_407" fill="white">
<path d="M77.7863 160.755C69.45 173.053 67.6897 188.662 73.0757 202.508L93.417 247.472L110.975 284.3C112.065 286.429 114.675 287.27 116.804 286.179C117.611 285.765 118.268 285.108 118.683 284.3L136.24 247.472L156.582 202.508C161.968 188.662 160.207 173.053 151.871 160.755C138.076 140.297 110.31 134.896 89.8521 148.69C85.0924 151.899 80.9956 155.996 77.7863 160.755ZM146.078 164.719C153.076 175.053 154.578 188.157 150.099 199.807L129.904 244.452L114.86 276.007C114.843 276.042 114.814 276.042 114.797 276.007L99.8114 244.579L79.5566 199.807C75.0754 188.138 76.5891 175.014 83.6106 164.672C95.2412 147.431 118.647 142.883 135.888 154.515C139.91 157.228 143.37 160.693 146.077 164.719H146.078Z"/>
</mask>
<path d="M77.7863 160.755C69.45 173.053 67.6897 188.662 73.0757 202.508L93.417 247.472L110.975 284.3C112.065 286.429 114.675 287.27 116.804 286.179C117.611 285.765 118.268 285.108 118.683 284.3L136.24 247.472L156.582 202.508C161.968 188.662 160.207 173.053 151.871 160.755C138.076 140.297 110.31 134.896 89.8521 148.69C85.0924 151.899 80.9956 155.996 77.7863 160.755ZM146.078 164.719C153.076 175.053 154.578 188.157 150.099 199.807L129.904 244.452L114.86 276.007C114.843 276.042 114.814 276.042 114.797 276.007L99.8114 244.579L79.5566 199.807C75.0754 188.138 76.5891 175.014 83.6106 164.672C95.2412 147.431 118.647 142.883 135.888 154.515C139.91 157.228 143.37 160.693 146.077 164.719H146.078Z" fill="#8F7FA6"/>
<path d="M77.7863 160.755L92.6856 170.855L92.6981 170.837L92.7107 170.818L77.7863 160.755ZM73.0757 202.508L56.3002 209.033L56.4759 209.485L56.6758 209.927L73.0757 202.508ZM93.417 247.472L77.0171 254.891L77.0914 255.056L77.1691 255.218L93.417 247.472ZM110.975 284.3L94.7269 292.046L94.8369 292.277L94.9533 292.504L110.975 284.3ZM116.804 286.179L125.008 302.201L125.02 302.194L116.804 286.179ZM118.683 284.3L134.701 292.51L134.819 292.28L134.93 292.046L118.683 284.3ZM136.24 247.472L152.488 255.218L152.566 255.056L152.64 254.891L136.24 247.472ZM156.582 202.508L172.982 209.927L173.181 209.485L173.357 209.033L156.582 202.508ZM151.871 160.755L136.947 170.819L136.959 170.837L136.971 170.855L151.871 160.755ZM89.8521 148.69L99.915 163.614L99.9152 163.614L89.8521 148.69ZM146.078 164.719L160.982 154.626L155.628 146.719H146.078V164.719ZM150.099 199.807L166.499 207.226L166.714 206.752L166.9 206.266L150.099 199.807ZM129.904 244.452L146.152 252.198L146.23 252.035L146.305 251.87L129.904 244.452ZM114.86 276.007L131.031 283.913L131.07 283.833L131.108 283.753L114.86 276.007ZM114.797 276.007L98.5496 283.754L98.5875 283.834L98.6262 283.913L114.797 276.007ZM99.8114 244.579L83.4116 251.998L83.4861 252.163L83.5639 252.326L99.8114 244.579ZM79.5566 199.807L62.753 206.26L62.9409 206.749L63.1568 207.226L79.5566 199.807ZM83.6106 164.672L98.5028 174.782L98.5178 174.76L98.5327 174.738L83.6106 164.672ZM135.888 154.515L125.821 169.436L125.821 169.437L135.888 154.515ZM146.077 164.719L131.14 174.763L136.49 182.719H146.077V164.719ZM77.7863 160.755L62.887 150.655C51.2305 167.851 48.77 189.675 56.3002 209.033L73.0757 202.508L89.8513 195.983C86.6095 187.649 87.6694 178.255 92.6856 170.855L77.7863 160.755ZM73.0757 202.508L56.6758 209.927L77.0171 254.891L93.417 247.472L109.817 240.053L89.4756 195.089L73.0757 202.508ZM93.417 247.472L77.1691 255.218L94.7269 292.046L110.975 284.3L127.223 276.553L109.665 239.726L93.417 247.472ZM110.975 284.3L94.9533 292.504C100.579 303.49 114.039 307.818 125.008 302.201L116.804 286.179L108.599 270.158C115.31 266.721 123.551 269.367 126.996 276.095L110.975 284.3ZM116.804 286.179L125.02 302.194C129.18 300.06 132.567 296.673 134.701 292.51L118.683 284.3L102.664 276.089C103.97 273.542 106.042 271.47 108.587 270.164L116.804 286.179ZM118.683 284.3L134.93 292.046L152.488 255.218L136.24 247.472L119.992 239.726L102.435 276.553L118.683 284.3ZM136.24 247.472L152.64 254.891L172.982 209.927L156.582 202.508L140.182 195.089L119.84 240.053L136.24 247.472ZM156.582 202.508L173.357 209.033C180.888 189.674 178.426 167.85 166.771 150.656L151.871 160.755L136.971 170.855C141.988 178.255 143.048 187.649 139.806 195.983L156.582 202.508ZM151.871 160.755L166.795 150.692C147.443 121.992 108.489 114.413 79.789 133.765L89.8521 148.69L99.9152 163.614C112.13 155.378 128.71 158.603 136.947 170.819L151.871 160.755ZM89.8521 148.69L79.7892 133.765C73.1117 138.268 67.3643 144.015 62.8619 150.692L77.7863 160.755L92.7107 170.818C94.6269 167.976 97.0731 165.53 99.915 163.614L89.8521 148.69ZM146.078 164.719L131.174 174.811C134.871 180.271 135.664 187.194 133.298 193.348L150.099 199.807L166.9 206.266C173.492 189.121 171.281 169.835 160.982 154.626L146.078 164.719ZM150.099 199.807L133.699 192.389L113.504 237.033L129.904 244.452L146.305 251.87L166.499 207.226L150.099 199.807ZM129.904 244.452L113.657 236.705L98.6123 268.261L114.86 276.007L131.108 283.753L146.152 252.198L129.904 244.452ZM114.86 276.007L98.6893 268.101C99.9886 265.444 104.779 258.033 114.829 258.033C124.878 258.033 129.669 265.444 130.968 268.101L114.797 276.007L98.6262 283.913C99.9426 286.605 104.756 294.033 114.829 294.033C124.901 294.033 129.715 286.605 131.031 283.913L114.86 276.007ZM114.797 276.007L131.045 268.26L116.059 236.832L99.8114 244.579L83.5639 252.326L98.5496 283.754L114.797 276.007ZM99.8114 244.579L116.211 237.159L95.9565 192.388L79.5566 199.807L63.1568 207.226L83.4116 251.998L99.8114 244.579ZM79.5566 199.807L96.3603 193.354C93.9912 187.185 94.7917 180.249 98.5028 174.782L83.6106 164.672L68.7183 154.562C58.3866 169.78 56.1595 189.09 62.753 206.26L79.5566 199.807ZM83.6106 164.672L98.5327 174.738C104.604 165.739 116.821 163.365 125.821 169.436L135.888 154.515L145.955 139.593C120.472 122.402 85.8788 129.123 68.6884 154.606L83.6106 164.672ZM135.888 154.515L125.821 169.437C127.921 170.853 129.728 172.662 131.14 174.763L146.077 164.719L161.014 154.675C157.013 148.724 151.898 143.602 145.954 139.593L135.888 154.515ZM146.077 164.719V182.719H146.078V164.719V146.719H146.077V164.719Z" fill="#8F7FA6" mask="url(#path-4-inside-2_39_407)"/>
<mask id="path-6-inside-3_39_407" fill="white">
<path d="M185.344 279.667C188.819 279.627 192.355 279.567 195.926 279.482L195.758 272.465C192.217 272.55 188.71 272.608 185.262 272.648L185.344 279.667Z"/>
</mask>
<path d="M185.344 279.667C188.819 279.627 192.355 279.567 195.926 279.482L195.758 272.465C192.217 272.55 188.71 272.608 185.262 272.648L185.344 279.667Z" fill="#8F7FA6"/>
<path d="M185.344 279.667L167.346 279.879L167.558 297.872L185.55 297.666L185.344 279.667ZM195.926 279.482L196.354 297.477L214.353 297.049L213.921 279.05L195.926 279.482ZM195.758 272.465L213.752 272.033L213.32 254.038L195.326 254.47L195.758 272.465ZM185.262 272.648L185.054 254.649L167.051 254.857L167.263 272.86L185.262 272.648ZM185.344 279.667L185.55 297.666C189.092 297.625 192.703 297.564 196.354 297.477L195.926 279.482L195.498 261.487C192.007 261.57 188.546 261.629 185.138 261.668L185.344 279.667ZM195.926 279.482L213.921 279.05L213.752 272.033L195.758 272.465L177.763 272.897L177.931 279.914L195.926 279.482ZM195.758 272.465L195.326 254.47C191.871 254.553 188.44 254.61 185.054 254.649L185.262 272.648L185.469 290.647C188.979 290.606 192.562 290.547 196.19 290.46L195.758 272.465ZM185.262 272.648L167.263 272.86L167.346 279.879L185.344 279.667L203.343 279.455L203.26 272.436L185.262 272.648Z" fill="#8F7FA6" mask="url(#path-6-inside-3_39_407)"/>
<mask id="path-8-inside-4_39_407" fill="white">
<path d="M213.273 144.285L210.126 138.01C206.769 139.664 203.578 141.637 200.601 143.905L204.902 149.452C207.52 147.464 210.323 145.734 213.273 144.285Z"/>
</mask>
<path d="M213.273 144.285L210.126 138.01C206.769 139.664 203.578 141.637 200.601 143.905L204.902 149.452C207.52 147.464 210.323 145.734 213.273 144.285Z" fill="#8F7FA6"/>
<path d="M213.273 144.285L221.208 160.441L237.5 152.44L229.363 136.215L213.273 144.285ZM210.126 138.01L226.216 129.941L218.205 113.968L202.174 121.862L210.126 138.01ZM200.601 143.905L189.694 129.585L175.251 140.586L186.375 154.934L200.601 143.905ZM204.902 149.452L190.677 160.482L201.595 174.564L215.787 163.788L204.902 149.452ZM213.273 144.285L229.363 136.215L226.216 129.941L210.126 138.01L194.037 146.08L197.183 152.355L213.273 144.285ZM210.126 138.01L202.174 121.862C197.779 124.026 193.599 126.611 189.694 129.585L200.601 143.905L211.507 158.224C213.558 156.663 215.758 155.301 218.078 154.159L210.126 138.01ZM200.601 143.905L186.375 154.934L190.677 160.482L204.902 149.452L219.127 138.423L214.826 132.876L200.601 143.905ZM204.902 149.452L215.787 163.788C217.484 162.499 219.299 161.379 221.208 160.441L213.273 144.285L205.338 128.128C201.346 130.089 197.556 132.429 194.016 135.117L204.902 149.452Z" fill="#8F7FA6" mask="url(#path-8-inside-4_39_407)"/>
<mask id="path-10-inside-5_39_407" fill="white">
<path d="M198.547 156.177L192.622 152.417C190.398 155.862 189.097 159.82 188.842 163.912L195.847 164.333C196.024 161.426 196.955 158.615 198.547 156.177Z"/>
</mask>
<path d="M198.547 156.177L192.622 152.417C190.398 155.862 189.097 159.82 188.842 163.912L195.847 164.333C196.024 161.426 196.955 158.615 198.547 156.177Z" fill="#8F7FA6"/>
<path d="M198.547 156.177L213.619 166.018L223.591 150.747L208.19 140.977L198.547 156.177ZM192.622 152.417L202.264 137.218L187.183 127.651L177.498 142.656L192.622 152.417ZM188.842 163.912L170.876 162.793L169.754 180.797L187.761 181.88L188.842 163.912ZM195.847 164.333L194.767 182.301L212.726 183.381L213.814 165.423L195.847 164.333ZM198.547 156.177L208.19 140.977L202.264 137.218L192.622 152.417L182.979 167.617L188.905 171.376L198.547 156.177ZM192.622 152.417L177.498 142.656C173.603 148.69 171.323 155.624 170.876 162.793L188.842 163.912L206.807 165.032C206.87 164.016 207.193 163.034 207.745 162.179L192.622 152.417ZM188.842 163.912L187.761 181.88L194.767 182.301L195.847 164.333L196.927 146.366L189.922 145.945L188.842 163.912ZM195.847 164.333L213.814 165.423C213.801 165.64 213.732 165.845 213.619 166.018L198.547 156.177L183.476 146.335C180.178 151.386 178.246 157.212 177.88 163.244L195.847 164.333Z" fill="#8F7FA6" mask="url(#path-10-inside-5_39_407)"/>
<mask id="path-12-inside-6_39_407" fill="white">
<path d="M174.756 272.721L171.198 272.724L164.246 272.71L164.217 279.73L171.198 279.744L174.77 279.74L174.756 272.721Z"/>
</mask>
<path d="M174.756 272.721L171.198 272.724L164.246 272.71L164.217 279.73L171.198 279.744L174.77 279.74L174.756 272.721Z" fill="#8F7FA6"/>
<path d="M174.756 272.721L192.756 272.685L192.72 254.701L174.737 254.721L174.756 272.721ZM171.198 272.724L171.161 290.724L171.189 290.725L171.217 290.724L171.198 272.724ZM164.246 272.71L164.282 254.71L146.32 254.674L146.246 272.636L164.246 272.71ZM164.217 279.73L146.217 279.656L146.143 297.693L164.181 297.729L164.217 279.73ZM171.198 279.744L171.161 297.744L171.189 297.744L171.217 297.744L171.198 279.744ZM174.77 279.74L174.79 297.74L192.806 297.72L192.77 279.704L174.77 279.74ZM174.756 272.721L174.737 254.721L171.178 254.725L171.198 272.724L171.217 290.724L174.776 290.721L174.756 272.721ZM171.198 272.724L171.234 254.725L164.282 254.71L164.246 272.71L164.209 290.71L171.161 290.724L171.198 272.724ZM164.246 272.71L146.246 272.636L146.217 279.656L164.217 279.73L182.217 279.803L182.245 272.784L164.246 272.71ZM164.217 279.73L164.181 297.729L171.161 297.744L171.198 279.744L171.234 261.744L164.253 261.73L164.217 279.73ZM171.198 279.744L171.217 297.744L174.79 297.74L174.77 279.74L174.751 261.74L171.178 261.744L171.198 279.744ZM174.77 279.74L192.77 279.704L192.756 272.685L174.756 272.721L156.756 272.757L156.77 279.776L174.77 279.74Z" fill="#8F7FA6" mask="url(#path-12-inside-6_39_407)"/>
<mask id="path-14-inside-7_39_407" fill="white">
<path d="M240.75 193.757C237.31 192.893 233.906 192.032 230.596 191.136L228.763 197.912C232.115 198.818 235.56 199.691 239.039 200.564L240.75 193.757Z"/>
</mask>
<path d="M240.75 193.757C237.31 192.893 233.906 192.032 230.596 191.136L228.763 197.912C232.115 198.818 235.56 199.691 239.039 200.564L240.75 193.757Z" fill="#8F7FA6"/>
<path d="M240.75 193.757L258.207 198.143L262.593 180.685L245.136 176.299L240.75 193.757ZM230.596 191.136L235.3 173.762L217.924 169.057L213.221 186.434L230.596 191.136ZM228.763 197.912L211.388 193.21L206.685 210.589L224.065 215.288L228.763 197.912ZM239.039 200.564L234.657 218.023L252.112 222.404L256.497 204.95L239.039 200.564ZM240.75 193.757L245.136 176.299C241.69 175.434 238.432 174.61 235.3 173.762L230.596 191.136L225.892 208.511C229.38 209.455 232.931 210.352 236.364 211.214L240.75 193.757ZM230.596 191.136L213.221 186.434L211.388 193.21L228.763 197.912L246.138 202.614L247.971 195.838L230.596 191.136ZM228.763 197.912L224.065 215.288C227.588 216.241 231.17 217.147 234.657 218.023L239.039 200.564L243.422 183.106C239.949 182.234 236.642 181.396 233.46 180.536L228.763 197.912ZM239.039 200.564L256.497 204.95L258.207 198.143L240.75 193.757L223.292 189.371L221.582 196.179L239.039 200.564Z" fill="#8F7FA6" mask="url(#path-14-inside-7_39_407)"/>
<mask id="path-16-inside-8_39_407" fill="white">
<path d="M143.173 272.619V279.638C146.389 279.638 149.911 279.656 153.681 279.677L153.722 272.658C149.937 272.636 146.403 272.619 143.173 272.619Z"/>
</mask>
<path d="M143.173 272.619V279.638C146.389 279.638 149.911 279.656 153.681 279.677L153.722 272.658C149.937 272.636 146.403 272.619 143.173 272.619Z" fill="#8F7FA6"/>
<path d="M143.173 272.619V254.619H125.173V272.619H143.173ZM143.173 279.638H125.173V297.638H143.173V279.638ZM153.681 279.677L153.581 297.677L171.577 297.777L171.681 279.781L153.681 279.677ZM153.722 272.658L171.721 272.762L171.825 254.766L153.829 254.658L153.722 272.658ZM143.173 272.619H125.173V279.638H143.173H161.173V272.619H143.173ZM143.173 279.638V297.638C146.332 297.638 149.807 297.656 153.581 297.677L153.681 279.677L153.782 261.678C150.015 261.656 146.446 261.638 143.173 261.638V279.638ZM153.681 279.677L171.681 279.781L171.721 272.762L153.722 272.658L135.722 272.554L135.681 279.573L153.681 279.677ZM153.722 272.658L153.829 254.658C150.035 254.636 146.458 254.619 143.173 254.619V272.619V290.619C146.348 290.619 149.839 290.635 153.614 290.658L153.722 272.658Z" fill="#8F7FA6" mask="url(#path-16-inside-8_39_407)"/>
<mask id="path-18-inside-9_39_407" fill="white">
<path d="M198.558 185.042L202.955 179.572C200.598 177.771 198.691 175.449 197.38 172.788L191.028 175.777C192.798 179.399 195.374 182.568 198.558 185.042Z"/>
</mask>
<path d="M198.558 185.042L202.955 179.572C200.598 177.771 198.691 175.449 197.38 172.788L191.028 175.777C192.798 179.399 195.374 182.568 198.558 185.042Z" fill="#8F7FA6"/>
<path d="M198.558 185.042L187.513 199.255L201.494 210.12L212.587 196.319L198.558 185.042ZM202.955 179.572L216.984 190.849L228.543 176.47L213.883 165.269L202.955 179.572ZM197.38 172.788L213.529 164.837L205.718 148.973L189.718 156.501L197.38 172.788ZM191.028 175.777L183.365 159.489L166.833 167.267L174.857 183.682L191.028 175.777ZM198.558 185.042L212.587 196.319L216.984 190.849L202.955 179.572L188.926 168.295L184.529 173.765L198.558 185.042ZM202.955 179.572L213.883 165.269C213.735 165.156 213.613 165.008 213.529 164.837L197.38 172.788L181.232 180.74C183.768 185.89 187.461 190.387 192.027 193.875L202.955 179.572ZM197.38 172.788L189.718 156.501L183.365 159.489L191.028 175.777L198.691 192.064L205.043 189.076L197.38 172.788ZM191.028 175.777L174.857 183.682C177.833 189.77 182.163 195.098 187.513 199.255L198.558 185.042L209.603 170.829C208.586 170.039 207.764 169.027 207.2 167.872L191.028 175.777Z" fill="#8F7FA6" mask="url(#path-18-inside-9_39_407)"/>
<mask id="path-20-inside-10_39_407" fill="white">
<path d="M241.013 128.005L242.442 134.878C245.712 134.198 249.15 133.574 252.657 133.02L251.564 126.087C247.944 126.657 244.394 127.303 241.013 128.005Z"/>
</mask>
<path d="M241.013 128.005L242.442 134.878C245.712 134.198 249.15 133.574 252.657 133.02L251.564 126.087C247.944 126.657 244.394 127.303 241.013 128.005Z" fill="#8F7FA6"/>
<path d="M241.013 128.005L237.354 110.381L219.725 114.041L223.39 131.669L241.013 128.005ZM242.442 134.878L224.819 138.541L228.482 156.162L246.103 152.501L242.442 134.878ZM252.657 133.02L255.464 150.8L273.241 147.993L270.437 130.216L252.657 133.02ZM251.564 126.087L269.344 123.282L266.54 105.502L248.759 108.306L251.564 126.087ZM241.013 128.005L223.39 131.669L224.819 138.541L242.442 134.878L260.065 131.214L258.636 124.341L241.013 128.005ZM242.442 134.878L246.103 152.501C249.07 151.885 252.222 151.311 255.464 150.8L252.657 133.02L249.85 115.24C246.077 115.836 242.354 116.512 238.781 117.254L242.442 134.878ZM252.657 133.02L270.437 130.216L269.344 123.282L251.564 126.087L233.783 128.891L234.877 135.824L252.657 133.02ZM251.564 126.087L248.759 108.306C244.87 108.92 241.034 109.617 237.354 110.381L241.013 128.005L244.672 145.629C247.754 144.989 251.018 144.395 254.368 143.867L251.564 126.087Z" fill="#8F7FA6" mask="url(#path-20-inside-10_39_407)"/>
<mask id="path-22-inside-11_39_407" fill="white">
<path d="M262.182 124.648L262.974 131.622C269.054 130.93 273.046 130.71 273.213 130.702L272.834 123.693C272.393 123.717 268.36 123.945 262.182 124.648Z"/>
</mask>
<path d="M262.182 124.648L262.974 131.622C269.054 130.93 273.046 130.71 273.213 130.702L272.834 123.693C272.393 123.717 268.36 123.945 262.182 124.648Z" fill="#8F7FA6"/>
<path d="M262.182 124.648L260.148 106.763L242.268 108.797L244.297 126.678L262.182 124.648ZM262.974 131.622L245.089 133.652L247.119 151.542L265.009 149.507L262.974 131.622ZM273.213 130.702L274.053 148.682L292.166 147.836L291.187 129.73L273.213 130.702ZM272.834 123.693L290.808 122.721L289.835 104.733L271.848 105.72L272.834 123.693ZM262.182 124.648L244.297 126.678L245.089 133.652L262.974 131.622L280.859 129.592L280.067 122.618L262.182 124.648ZM262.974 131.622L265.009 149.507C270.692 148.86 274.286 148.671 274.053 148.682L273.213 130.702L272.373 112.722C271.806 112.748 267.416 113.001 260.939 113.738L262.974 131.622ZM273.213 130.702L291.187 129.73L290.808 122.721L272.834 123.693L254.86 124.665L255.239 131.674L273.213 130.702ZM272.834 123.693L271.848 105.72C271.151 105.758 266.757 106.011 260.148 106.763L262.182 124.648L264.216 142.532C269.963 141.879 273.635 141.676 273.82 141.666L272.834 123.693Z" fill="#8F7FA6" mask="url(#path-22-inside-11_39_407)"/>
<mask id="path-24-inside-12_39_407" fill="white">
<path d="M304.075 241.776C304.089 238.711 303.751 235.655 303.066 232.667L296.232 234.268C296.792 236.728 297.069 239.244 297.056 241.767C297.056 242.335 297.026 242.901 296.964 243.465L303.939 244.241C304.029 243.423 304.074 242.599 304.075 241.776Z"/>
</mask>
<path d="M304.075 241.776C304.089 238.711 303.751 235.655 303.066 232.667L296.232 234.268C296.792 236.728 297.069 239.244 297.056 241.767C297.056 242.335 297.026 242.901 296.964 243.465L303.939 244.241C304.029 243.423 304.074 242.599 304.075 241.776Z" fill="#8F7FA6"/>
<path d="M304.075 241.776L286.075 241.693L286.075 241.726L286.075 241.759L304.075 241.776ZM303.066 232.667L320.611 228.646L316.571 211.018L298.962 215.141L303.066 232.667ZM296.232 234.268L292.128 216.742L274.705 220.822L278.682 238.268L296.232 234.268ZM297.056 241.767L279.056 241.673L279.056 241.72V241.767H297.056ZM296.964 243.465L279.071 241.51L277.119 259.368L294.974 261.355L296.964 243.465ZM303.939 244.241L301.948 262.131L319.85 264.122L321.83 246.219L303.939 244.241ZM304.075 241.776L322.075 241.858C322.095 237.413 321.604 232.98 320.611 228.646L303.066 232.667L285.521 236.688C285.897 238.33 286.083 240.009 286.075 241.693L304.075 241.776ZM303.066 232.667L298.962 215.141L292.128 216.742L296.232 234.268L300.336 251.794L307.17 250.193L303.066 232.667ZM296.232 234.268L278.682 238.268C278.937 239.386 279.062 240.529 279.056 241.673L297.056 241.767L315.056 241.862C315.076 237.959 314.648 234.069 313.781 230.267L296.232 234.268ZM297.056 241.767H279.056C279.056 241.691 279.06 241.605 279.071 241.51L296.964 243.465L314.858 245.42C314.991 244.197 315.056 242.978 315.056 241.767H297.056ZM296.964 243.465L294.974 261.355L301.948 262.131L303.939 244.241L305.929 226.351L298.954 225.575L296.964 243.465ZM303.939 244.241L321.83 246.219C321.993 244.742 322.074 243.263 322.075 241.793L304.075 241.776L286.075 241.759C286.075 241.935 286.065 242.104 286.048 242.263L303.939 244.241Z" fill="#8F7FA6" mask="url(#path-24-inside-12_39_407)"/>
<mask id="path-26-inside-13_39_407" fill="white">
<path d="M268.104 264.575L269.938 271.35C273.452 270.413 276.914 269.291 280.311 267.989L277.767 261.446C274.603 262.658 271.378 263.703 268.104 264.575Z"/>
</mask>
<path d="M268.104 264.575L269.938 271.35C273.452 270.413 276.914 269.291 280.311 267.989L277.767 261.446C274.603 262.658 271.378 263.703 268.104 264.575Z" fill="#8F7FA6"/>
<path d="M268.104 264.575L263.472 247.181L246.006 251.832L250.729 269.278L268.104 264.575ZM269.938 271.35L252.563 276.054L257.25 293.364L274.577 288.742L269.938 271.35ZM280.311 267.989L286.752 284.797L303.641 278.325L297.088 261.467L280.311 267.989ZM277.767 261.446L294.544 254.925L288.055 238.23L271.329 244.637L277.767 261.446ZM268.104 264.575L250.729 269.278L252.563 276.054L269.938 271.35L287.313 266.647L285.478 259.871L268.104 264.575ZM269.938 271.35L274.577 288.742C278.704 287.641 282.767 286.324 286.752 284.797L280.311 267.989L273.869 251.181C271.061 252.257 268.201 253.184 265.299 253.958L269.938 271.35ZM280.311 267.989L297.088 261.467L294.544 254.925L277.767 261.446L260.99 267.968L263.534 274.511L280.311 267.989ZM277.767 261.446L271.329 244.637C268.756 245.623 266.133 246.472 263.472 247.181L268.104 264.575L272.736 281.968C276.623 280.933 280.451 279.694 284.206 278.255L277.767 261.446Z" fill="#8F7FA6" mask="url(#path-26-inside-13_39_407)"/>
<mask id="path-28-inside-14_39_407" fill="white">
<path d="M286.658 257.138L290.339 263.115C293.707 261.118 296.703 258.552 299.195 255.532L293.701 251.163C291.715 253.545 289.332 255.567 286.658 257.138Z"/>
</mask>
<path d="M286.658 257.138L290.339 263.115C293.707 261.118 296.703 258.552 299.195 255.532L293.701 251.163C291.715 253.545 289.332 255.567 286.658 257.138Z" fill="#8F7FA6"/>
<path d="M286.658 257.138L277.539 241.619L261.695 250.93L271.332 266.577L286.658 257.138ZM290.339 263.115L275.013 272.554L284.296 287.627L299.522 278.597L290.339 263.115ZM299.195 255.532L313.08 266.986L324.743 252.849L310.398 241.443L299.195 255.532ZM293.701 251.163L304.904 237.074L291.14 226.13L279.878 239.635L293.701 251.163ZM286.658 257.138L271.332 266.577L275.013 272.554L290.339 263.115L305.666 253.676L301.985 247.699L286.658 257.138ZM290.339 263.115L299.522 278.597C304.677 275.539 309.265 271.611 313.08 266.986L299.195 255.532L285.31 244.077C284.142 245.494 282.736 246.697 281.157 247.633L290.339 263.115ZM299.195 255.532L310.398 241.443L304.904 237.074L293.701 251.163L282.499 265.252L287.992 269.621L299.195 255.532ZM293.701 251.163L279.878 239.635C279.217 240.427 278.426 241.098 277.539 241.619L286.658 257.138L295.778 272.657C300.239 270.035 304.213 266.664 307.525 262.692L293.701 251.163Z" fill="#8F7FA6" mask="url(#path-28-inside-14_39_407)"/>
<mask id="path-30-inside-15_39_407" fill="white">
<path d="M271.518 202.717L268.999 209.268C272.149 210.459 275.221 211.846 278.197 213.419L281.511 207.232C278.277 205.52 274.94 204.012 271.518 202.717Z"/>
</mask>
<path d="M271.518 202.717L268.999 209.268C272.149 210.459 275.221 211.846 278.197 213.419L281.511 207.232C278.277 205.52 274.94 204.012 271.518 202.717Z" fill="#8F7FA6"/>
<path d="M271.518 202.717L277.89 185.883L261.143 179.544L254.717 196.257L271.518 202.717ZM268.999 209.268L252.198 202.808L245.701 219.704L262.633 226.105L268.999 209.268ZM278.197 213.419L269.782 229.332L285.609 237.701L294.064 221.919L278.197 213.419ZM281.511 207.232L297.378 215.731L305.92 199.785L289.932 191.323L281.511 207.232ZM271.518 202.717L254.717 196.257L252.198 202.808L268.999 209.268L285.799 215.728L288.318 209.177L271.518 202.717ZM268.999 209.268L262.633 226.105C265.081 227.03 267.469 228.108 269.782 229.332L278.197 213.419L286.611 197.507C282.973 195.583 279.216 193.888 275.364 192.431L268.999 209.268ZM278.197 213.419L294.064 221.919L297.378 215.731L281.511 207.232L265.644 198.732L262.33 204.92L278.197 213.419ZM281.511 207.232L289.932 191.323C286.034 189.26 282.013 187.443 277.89 185.883L271.518 202.717L265.145 219.551C267.867 220.581 270.52 221.78 273.091 223.141L281.511 207.232Z" fill="#8F7FA6" mask="url(#path-30-inside-15_39_407)"/>
<mask id="path-32-inside-16_39_407" fill="white">
<path d="M290.853 213.428L286.361 218.821C288.795 220.815 290.914 223.166 292.647 225.793L298.543 221.984C296.426 218.76 293.834 215.875 290.853 213.428Z"/>
</mask>
<path d="M290.853 213.428L286.361 218.821C288.795 220.815 290.914 223.166 292.647 225.793L298.543 221.984C296.426 218.76 293.834 215.875 290.853 213.428Z" fill="#8F7FA6"/>
<path d="M290.853 213.428L302.275 199.516L288.461 188.175L277.022 201.908L290.853 213.428ZM286.361 218.821L272.53 207.301L260.914 221.246L274.955 232.747L286.361 218.821ZM292.647 225.793L277.62 235.702L287.436 250.588L302.414 240.912L292.647 225.793ZM298.543 221.984L308.31 237.103L323.543 227.262L313.589 212.103L298.543 221.984ZM290.853 213.428L277.022 201.908L272.53 207.301L286.361 218.821L300.191 230.341L304.683 224.948L290.853 213.428ZM286.361 218.821L274.955 232.747C275.986 233.591 276.885 234.587 277.62 235.702L292.647 225.793L307.673 215.883C304.944 211.744 301.605 208.04 297.766 204.896L286.361 218.821ZM292.647 225.793L302.414 240.912L308.31 237.103L298.543 221.984L288.775 206.864L282.879 210.673L292.647 225.793ZM298.543 221.984L313.589 212.103C310.475 207.362 306.662 203.118 302.275 199.516L290.853 213.428L279.431 227.34C281.006 228.633 282.377 230.158 283.497 231.864L298.543 221.984Z" fill="#8F7FA6" mask="url(#path-32-inside-16_39_407)"/>
<mask id="path-34-inside-17_39_407" fill="white">
<path d="M247.861 268.635L248.879 275.58C252.572 275.038 256.125 274.433 259.437 273.78L258.08 266.893C254.878 267.524 251.441 268.111 247.861 268.635Z"/>
</mask>
<path d="M247.861 268.635L248.879 275.58C252.572 275.038 256.125 274.433 259.437 273.78L258.08 266.893C254.878 267.524 251.441 268.111 247.861 268.635Z" fill="#8F7FA6"/>
<path d="M247.861 268.635L245.253 250.825L227.441 253.432L230.051 271.244L247.861 268.635ZM248.879 275.58L231.069 278.19L233.679 296.004L251.492 293.39L248.879 275.58ZM259.437 273.78L262.917 291.441L280.577 287.96L277.097 270.301L259.437 273.78ZM258.08 266.893L275.74 263.413L272.26 245.752L254.599 249.233L258.08 266.893ZM247.861 268.635L230.051 271.244L231.069 278.19L248.879 275.58L266.688 272.971L265.671 266.025L247.861 268.635ZM248.879 275.58L251.492 293.39C255.444 292.81 259.287 292.156 262.917 291.441L259.437 273.78L255.956 256.12C252.962 256.71 249.701 257.267 246.265 257.771L248.879 275.58ZM259.437 273.78L277.097 270.301L275.74 263.413L258.08 266.893L240.419 270.373L241.776 277.26L259.437 273.78ZM258.08 266.893L254.599 249.233C251.714 249.802 248.569 250.339 245.253 250.825L247.861 268.635L250.468 286.445C254.313 285.882 258.043 285.247 261.56 284.553L258.08 266.893Z" fill="#8F7FA6" mask="url(#path-34-inside-17_39_407)"/>
<mask id="path-36-inside-18_39_407" fill="white">
<path d="M208.264 190.899C211.584 192.419 214.991 193.743 218.465 194.865L220.665 188.201C217.45 187.163 214.298 185.941 211.224 184.538L208.264 190.899Z"/>
</mask>
<path d="M208.264 190.899C211.584 192.419 214.991 193.743 218.465 194.865L220.665 188.201C217.45 187.163 214.298 185.941 211.224 184.538L208.264 190.899Z" fill="#8F7FA6"/>
<path d="M208.264 190.899L191.944 183.305L184.303 199.726L200.771 207.265L208.264 190.899ZM218.465 194.865L212.932 211.994L229.951 217.491L235.558 200.508L218.465 194.865ZM220.665 188.201L237.758 193.844L243.439 176.634L226.191 171.07L220.665 188.201ZM211.224 184.538L218.699 168.163L202.444 160.743L194.905 176.943L211.224 184.538ZM208.264 190.899L200.771 207.265C204.733 209.079 208.794 210.657 212.932 211.994L218.465 194.865L223.998 177.736C221.187 176.829 218.435 175.759 215.757 174.533L208.264 190.899ZM218.465 194.865L235.558 200.508L237.758 193.844L220.665 188.201L203.572 182.558L201.372 189.222L218.465 194.865ZM220.665 188.201L226.191 171.07C223.639 170.247 221.138 169.276 218.699 168.163L211.224 184.538L203.75 200.912C207.458 202.605 211.26 204.08 215.139 205.331L220.665 188.201ZM211.224 184.538L194.905 176.943L191.944 183.305L208.264 190.899L224.583 198.494L227.544 192.132L211.224 184.538Z" fill="#8F7FA6" mask="url(#path-36-inside-18_39_407)"/>
<mask id="path-38-inside-19_39_407" fill="white">
<path d="M217.108 278.645L216.703 271.636C213.222 271.837 209.727 272.001 206.242 272.137L206.516 279.151C210.041 279.015 213.581 278.849 217.108 278.645Z"/>
</mask>
<path d="M217.108 278.645L216.703 271.636C213.222 271.837 209.727 272.001 206.242 272.137L206.516 279.151C210.041 279.015 213.581 278.849 217.108 278.645Z" fill="#8F7FA6"/>
<path d="M217.108 278.645L218.149 296.614L236.116 295.574L235.078 277.607L217.108 278.645ZM216.703 271.636L234.673 270.599L233.636 252.632L215.669 253.666L216.703 271.636ZM206.242 272.137L205.541 254.151L187.551 254.851L188.255 272.841L206.242 272.137ZM206.516 279.151L188.53 279.855L189.234 297.829L207.209 297.137L206.516 279.151ZM217.108 278.645L235.078 277.607L234.673 270.599L216.703 271.636L198.733 272.674L199.138 279.682L217.108 278.645ZM216.703 271.636L215.669 253.666C212.312 253.859 208.93 254.019 205.541 254.151L206.242 272.137L206.942 290.124C210.524 289.984 214.131 289.814 217.738 289.607L216.703 271.636ZM206.242 272.137L188.255 272.841L188.53 279.855L206.516 279.151L224.502 278.447L224.228 271.433L206.242 272.137ZM206.516 279.151L207.209 297.137C210.834 296.998 214.491 296.826 218.149 296.614L217.108 278.645L216.067 260.675C212.671 260.872 209.249 261.032 205.824 261.164L206.516 279.151Z" fill="#8F7FA6" mask="url(#path-38-inside-19_39_407)"/>
<mask id="path-40-inside-20_39_407" fill="white">
<path d="M220.212 133.73L222.59 140.335C225.608 139.247 228.905 138.216 232.387 137.27L230.546 130.497C226.884 131.491 223.407 132.579 220.212 133.73Z"/>
</mask>
<path d="M220.212 133.73L222.59 140.335C225.608 139.247 228.905 138.216 232.387 137.27L230.546 130.497C226.884 131.491 223.407 132.579 220.212 133.73Z" fill="#8F7FA6"/>
<path d="M220.212 133.73L214.115 116.794L197.179 122.891L203.276 139.827L220.212 133.73ZM222.59 140.335L205.654 146.432L211.754 163.374L228.694 157.268L222.59 140.335ZM232.387 137.27L237.102 154.642L254.478 149.925L249.757 132.55L232.387 137.27ZM230.546 130.497L247.916 125.777L243.197 108.41L225.83 113.126L230.546 130.497ZM220.212 133.73L203.276 139.827L205.654 146.432L222.59 140.335L239.526 134.237L237.148 127.632L220.212 133.73ZM222.59 140.335L228.694 157.268C231.203 156.364 234.032 155.475 237.102 154.642L232.387 137.27L227.672 119.899C223.778 120.956 220.013 122.13 216.486 123.401L222.59 140.335ZM232.387 137.27L249.757 132.55L247.916 125.777L230.546 130.497L213.176 135.217L215.017 141.99L232.387 137.27ZM230.546 130.497L225.83 113.126C221.753 114.233 217.812 115.463 214.115 116.794L220.212 133.73L226.309 150.665C229.003 149.696 232.015 148.75 235.263 147.868L230.546 130.497Z" fill="#8F7FA6" mask="url(#path-40-inside-20_39_407)"/>
<mask id="path-42-inside-21_39_407" fill="white">
<path d="M227.703 277.922C231.278 277.635 234.817 277.304 238.295 276.925L237.535 269.946C234.12 270.319 230.648 270.644 227.141 270.925L227.703 277.922Z"/>
</mask>
<path d="M227.703 277.922C231.278 277.635 234.817 277.304 238.295 276.925L237.535 269.946C234.12 270.319 230.648 270.644 227.141 270.925L227.703 277.922Z" fill="#8F7FA6"/>
<path d="M227.703 277.922L209.761 279.364L211.203 297.305L229.144 295.864L227.703 277.922ZM238.295 276.925L240.245 294.819L258.139 292.869L256.189 274.975L238.295 276.925ZM237.535 269.946L255.429 267.997L253.479 250.099L235.581 252.053L237.535 269.946ZM227.141 270.925L225.7 252.983L207.757 254.424L209.199 272.367L227.141 270.925ZM227.703 277.922L229.144 295.864C232.872 295.565 236.582 295.218 240.245 294.819L238.295 276.925L236.345 259.031C233.052 259.39 229.683 259.705 226.263 259.979L227.703 277.922ZM238.295 276.925L256.189 274.975L255.429 267.997L237.535 269.946L219.641 271.896L220.401 278.875L238.295 276.925ZM237.535 269.946L235.581 252.053C232.354 252.405 229.054 252.714 225.7 252.983L227.141 270.925L228.582 288.867C232.242 288.574 235.886 288.233 239.488 287.84L237.535 269.946ZM227.141 270.925L209.199 272.367L209.761 279.364L227.703 277.922L245.646 276.48L245.083 269.483L227.141 270.925Z" fill="#8F7FA6" mask="url(#path-42-inside-21_39_407)"/>
<mask id="path-44-inside-22_39_407" fill="white">
<path d="M251.008 196.365L249.229 203.154C252.61 204.04 255.97 204.964 259.258 205.961L261.294 199.244C257.924 198.221 254.474 197.272 251.008 196.365Z"/>
</mask>
<path d="M251.008 196.365L249.229 203.154C252.61 204.04 255.97 204.964 259.258 205.961L261.294 199.244C257.924 198.221 254.474 197.272 251.008 196.365Z" fill="#8F7FA6"/>
<path d="M251.008 196.365L255.569 178.952L238.158 174.392L233.596 191.802L251.008 196.365ZM249.229 203.154L231.817 198.591L227.254 216.003L244.666 220.566L249.229 203.154ZM259.258 205.961L254.033 223.186L271.263 228.413L276.485 211.181L259.258 205.961ZM261.294 199.244L278.52 204.464L283.738 187.247L266.523 182.02L261.294 199.244ZM251.008 196.365L233.596 191.802L231.817 198.591L249.229 203.154L266.641 207.716L268.42 200.927L251.008 196.365ZM249.229 203.154L244.666 220.566C247.917 221.418 251.04 222.278 254.033 223.186L259.258 205.961L264.484 188.736C260.901 187.649 257.303 186.662 253.792 185.742L249.229 203.154ZM259.258 205.961L276.485 211.181L278.52 204.464L261.294 199.244L244.067 194.024L242.032 200.741L259.258 205.961ZM261.294 199.244L266.523 182.02C262.855 180.907 259.164 179.894 255.569 178.952L251.008 196.365L246.447 213.777C249.783 214.651 252.993 215.535 256.064 216.468L261.294 199.244Z" fill="#8F7FA6" mask="url(#path-44-inside-22_39_407)"/>
<mask id="path-46-inside-23_39_407" fill="white">
<path d="M293.814 33.7436C285.223 33.7436 278.26 40.7081 278.26 49.2979C278.26 57.8885 285.224 64.8522 293.815 64.8522C302.404 64.8514 309.368 57.8885 309.368 49.2979C309.404 40.744 302.499 33.7795 293.944 33.7436C293.9 33.7428 293.857 33.7428 293.814 33.7436ZM293.814 57.8331C289.1 57.8323 285.279 54.0116 285.279 49.2971C285.279 44.5834 289.101 40.7619 293.815 40.7627C298.528 40.7627 302.349 44.5842 302.349 49.2979C302.4 53.9617 298.66 57.7832 293.996 57.8331C293.935 57.8339 293.875 57.8339 293.814 57.8331Z"/>
</mask>
<path d="M293.814 33.7436C285.223 33.7436 278.26 40.7081 278.26 49.2979C278.26 57.8885 285.224 64.8522 293.815 64.8522C302.404 64.8514 309.368 57.8885 309.368 49.2979C309.404 40.744 302.499 33.7795 293.944 33.7436C293.9 33.7428 293.857 33.7428 293.814 33.7436ZM293.814 57.8331C289.1 57.8323 285.279 54.0116 285.279 49.2971C285.279 44.5834 289.101 40.7619 293.815 40.7627C298.528 40.7627 302.349 44.5842 302.349 49.2979C302.4 53.9617 298.66 57.7832 293.996 57.8331C293.935 57.8339 293.875 57.8339 293.814 57.8331Z" fill="#8F7FA6"/>
<path d="M293.814 33.7436V51.7436H293.975L294.135 51.7408L293.814 33.7436ZM278.26 49.2979L260.26 49.2979L260.26 49.2995L278.26 49.2979ZM293.815 64.8522L293.815 82.8522L293.816 82.8522L293.815 64.8522ZM309.368 49.2979L291.368 49.2224L291.368 49.2602V49.2979H309.368ZM293.944 33.7436L293.623 51.7408L293.746 51.743L293.869 51.7435L293.944 33.7436ZM293.814 57.8331L294.045 39.8346L293.931 39.8331L293.817 39.8331L293.814 57.8331ZM285.279 49.2971L267.279 49.2941V49.2971H285.279ZM293.815 40.7627L293.812 58.7627H293.815V40.7627ZM302.349 49.2979H284.349V49.3957L284.35 49.4935L302.349 49.2979ZM293.996 57.8331L293.804 39.8341L293.785 39.8343L293.766 39.8346L293.996 57.8331ZM293.814 33.7436V15.7436C275.282 15.7436 260.26 30.7675 260.26 49.2979H278.26H296.26C296.26 50.6487 295.165 51.7436 293.814 51.7436V33.7436ZM278.26 49.2979L260.26 49.2995C260.261 67.8296 275.283 82.8522 293.815 82.8522V64.8522V46.8522C295.165 46.8522 296.259 47.9473 296.26 49.2963L278.26 49.2979ZM293.815 64.8522L293.816 82.8522C312.345 82.8505 327.368 67.8305 327.368 49.2979H309.368H291.368C291.368 47.9465 292.464 46.8523 293.813 46.8522L293.815 64.8522ZM309.368 49.2979L327.368 49.3734C327.445 30.8795 312.516 15.8214 294.02 15.7438L293.944 33.7436L293.869 51.7435C292.481 51.7377 291.362 50.6084 291.368 49.2224L309.368 49.2979ZM293.944 33.7436L294.265 15.7465C294.008 15.7419 293.75 15.7419 293.492 15.7465L293.814 33.7436L294.135 51.7408C293.965 51.7438 293.793 51.7438 293.623 51.7408L293.944 33.7436ZM293.814 57.8331L293.817 39.8331C299.04 39.834 303.279 44.0688 303.279 49.2971H285.279H267.279C267.279 63.9544 279.16 75.8307 293.811 75.8331L293.814 57.8331ZM285.279 49.2971L303.279 49.3001C303.278 54.5241 299.042 58.7636 293.812 58.7627L293.815 40.7627L293.818 22.7627C279.159 22.7603 267.281 34.6428 267.279 49.2941L285.279 49.2971ZM293.815 40.7627V58.7627C288.585 58.7627 284.349 54.5232 284.349 49.2979H302.349H320.349C320.349 34.6452 308.472 22.7627 293.815 22.7627V40.7627ZM302.349 49.2979L284.35 49.4935C284.293 44.2165 288.525 39.8906 293.804 39.8341L293.996 57.8331L294.189 75.8321C308.795 75.6757 320.507 63.7069 320.348 49.1023L302.349 49.2979ZM293.996 57.8331L293.766 39.8346C293.859 39.8334 293.952 39.8334 294.045 39.8346L293.814 57.8331L293.583 75.8316C293.798 75.8344 294.012 75.8344 294.227 75.8316L293.996 57.8331Z" fill="#8F7FA6" mask="url(#path-46-inside-23_39_407)"/>
<mask id="path-48-inside-24_39_407" fill="white">
<path d="M114.83 166.751C125.472 166.751 134.1 175.379 134.1 186.022C134.099 196.665 125.471 205.293 114.828 205.293C104.185 205.292 95.5576 196.663 95.5576 186.02V185.861C95.6021 175.263 104.228 166.707 114.827 166.751H114.83ZM114.827 173.769C108.061 173.769 102.576 179.256 102.577 186.022C102.577 192.788 108.063 198.273 114.829 198.273C121.595 198.272 127.08 192.786 127.08 186.02C127.081 185.934 127.081 185.847 127.08 185.759C127.008 179.065 121.523 173.697 114.828 173.769H114.827Z"/>
</mask>
<path d="M114.83 166.751C125.472 166.751 134.1 175.379 134.1 186.022C134.099 196.665 125.471 205.293 114.828 205.293C104.185 205.292 95.5576 196.663 95.5576 186.02V185.861C95.6021 175.263 104.228 166.707 114.827 166.751H114.83ZM114.827 173.769C108.061 173.769 102.576 179.256 102.577 186.022C102.577 192.788 108.063 198.273 114.829 198.273C121.595 198.272 127.08 192.786 127.08 186.02C127.081 185.934 127.081 185.847 127.08 185.759C127.008 179.065 121.523 173.697 114.828 173.769H114.827Z" fill="#8F7FA6"/>
<path d="M114.83 166.751L114.83 148.751H114.83V166.751ZM134.1 186.022L116.1 186.021L116.1 186.022L134.1 186.022ZM114.828 205.293L114.827 223.293H114.828V205.293ZM95.5576 185.861L77.5578 185.785L77.5576 185.823V185.861H95.5576ZM114.827 166.751L114.753 184.75L114.79 184.751H114.827V166.751ZM114.827 173.769L114.827 155.769L114.827 155.769L114.827 173.769ZM102.577 186.022L120.577 186.022L120.577 186.02L102.577 186.022ZM114.829 198.273L114.829 216.273L114.831 216.273L114.829 198.273ZM127.08 186.02L109.081 185.858L109.08 185.939V186.02H127.08ZM127.08 185.759L145.079 185.599L145.079 185.582L145.079 185.564L127.08 185.759ZM114.828 173.769V191.769H114.926L115.023 191.768L114.828 173.769ZM114.83 166.751L114.83 184.751C115.531 184.751 116.1 185.319 116.1 186.021L134.1 186.022L152.1 186.023C152.101 165.438 135.414 148.751 114.83 148.751L114.83 166.751ZM134.1 186.022L116.1 186.022C116.1 186.723 115.531 187.293 114.828 187.293V205.293V223.293C135.412 223.293 152.099 206.607 152.1 186.022L134.1 186.022ZM114.828 205.293L114.829 187.293C114.127 187.292 113.558 186.723 113.558 186.02H95.5576H77.5576C77.5576 206.603 94.2423 223.291 114.827 223.293L114.828 205.293ZM95.5576 186.02H113.558V185.861H95.5576H77.5576V186.02H95.5576ZM95.5576 185.861L113.557 185.937C113.56 185.278 114.096 184.748 114.753 184.75L114.827 166.751L114.901 148.751C94.3612 148.666 77.6441 165.248 77.5578 185.785L95.5576 185.861ZM114.827 166.751V184.751H114.83V166.751V148.751H114.827V166.751ZM114.827 173.769L114.827 155.769C98.1163 155.769 84.5752 169.318 84.5771 186.024L102.577 186.022L120.577 186.02C120.578 189.193 118.005 191.769 114.827 191.769L114.827 173.769ZM102.577 186.022L84.5771 186.023C84.5776 202.731 98.1231 216.273 114.829 216.273V198.273V180.273C118.003 180.273 120.577 182.846 120.577 186.022L102.577 186.022ZM114.829 198.273L114.831 216.273C131.539 216.271 145.08 202.726 145.08 186.02H127.08H109.08C109.08 182.847 111.652 180.273 114.827 180.273L114.829 198.273ZM127.08 186.02L145.079 186.182C145.081 185.987 145.081 185.792 145.079 185.599L127.08 185.759L109.081 185.919C109.081 185.901 109.081 185.88 109.081 185.858L127.08 186.02ZM127.08 185.759L145.079 185.564C144.899 168.932 131.271 155.59 114.633 155.77L114.828 173.769L115.023 191.768C111.775 191.803 109.116 189.198 109.081 185.954L127.08 185.759ZM114.828 173.769V155.769H114.827V173.769V191.769H114.828V173.769Z" fill="#8F7FA6" mask="url(#path-48-inside-24_39_407)"/>
</svg>
