<svg width="1500" height="300" viewBox="0 0 1500 300" fill="none" xmlns="http://www.w3.org/2000/svg">
<path d="M427.96 73.8H468.28V89.4H427.96V73.8ZM429.4 120H409.96V36H473.44V51.6H429.4V120ZM485.281 120V55.44H504.001V120H485.281ZM494.641 46.44C491.201 46.44 488.401 45.44 486.241 43.44C484.081 41.44 483.001 38.96 483.001 36C483.001 33.04 484.081 30.56 486.241 28.56C488.401 26.56 491.201 25.56 494.641 25.56C498.081 25.56 500.881 26.52 503.041 28.44C505.201 30.28 506.281 32.68 506.281 35.64C506.281 38.76 505.201 41.36 503.041 43.44C500.961 45.44 498.161 46.44 494.641 46.44ZM560.614 54.48C565.734 54.48 570.294 55.52 574.294 57.6C578.374 59.6 581.574 62.72 583.894 66.96C586.214 71.12 587.374 76.48 587.374 83.04V120H568.654V85.92C568.654 80.72 567.494 76.88 565.174 74.4C562.934 71.92 559.734 70.68 555.574 70.68C552.614 70.68 549.934 71.32 547.534 72.6C545.214 73.8 543.374 75.68 542.014 78.24C540.734 80.8 540.094 84.08 540.094 88.08V120H521.374V55.44H539.254V73.32L535.894 67.92C538.214 63.6 541.534 60.28 545.854 57.96C550.174 55.64 555.094 54.48 560.614 54.48ZM643.943 120V107.4L642.743 104.64V82.08C642.743 78.08 641.503 74.96 639.023 72.72C636.623 70.48 632.903 69.36 627.863 69.36C624.423 69.36 621.023 69.92 617.663 71.04C614.383 72.08 611.583 73.52 609.263 75.36L602.543 62.28C606.063 59.8 610.303 57.88 615.263 56.52C620.223 55.16 625.263 54.48 630.383 54.48C640.223 54.48 647.863 56.8 653.303 61.44C658.743 66.08 661.463 73.32 661.463 83.16V120H643.943ZM624.263 120.96C619.223 120.96 614.903 120.12 611.303 118.44C607.703 116.68 604.943 114.32 603.023 111.36C601.103 108.4 600.143 105.08 600.143 101.4C600.143 97.56 601.063 94.2 602.903 91.32C604.823 88.44 607.823 86.2 611.903 84.6C615.983 82.92 621.303 82.08 627.863 82.08H645.023V93H629.903C625.503 93 622.463 93.72 620.783 95.16C619.183 96.6 618.383 98.4 618.383 100.56C618.383 102.96 619.303 104.88 621.143 106.32C623.063 107.68 625.663 108.36 628.943 108.36C632.063 108.36 634.863 107.64 637.343 106.2C639.823 104.68 641.623 102.48 642.743 99.6L645.623 108.24C644.263 112.4 641.783 115.56 638.183 117.72C634.583 119.88 629.943 120.96 624.263 120.96ZM717.646 54.48C722.766 54.48 727.326 55.52 731.326 57.6C735.406 59.6 738.606 62.72 740.926 66.96C743.246 71.12 744.406 76.48 744.406 83.04V120H725.686V85.92C725.686 80.72 724.526 76.88 722.206 74.4C719.966 71.92 716.766 70.68 712.606 70.68C709.646 70.68 706.966 71.32 704.566 72.6C702.246 73.8 700.406 75.68 699.046 78.24C697.766 80.8 697.126 84.08 697.126 88.08V120H678.406V55.44H696.286V73.32L692.926 67.92C695.246 63.6 698.566 60.28 702.886 57.96C707.206 55.64 712.126 54.48 717.646 54.48ZM793.043 120.96C786.083 120.96 779.883 119.56 774.443 116.76C769.003 113.88 764.723 109.92 761.603 104.88C758.563 99.84 757.043 94.12 757.043 87.72C757.043 81.24 758.563 75.52 761.603 70.56C764.723 65.52 769.003 61.6 774.443 58.8C779.883 55.92 786.083 54.48 793.043 54.48C799.843 54.48 805.763 55.92 810.803 58.8C815.843 61.6 819.563 65.64 821.963 70.92L807.443 78.72C805.763 75.68 803.643 73.44 801.083 72C798.603 70.56 795.883 69.84 792.923 69.84C789.723 69.84 786.843 70.56 784.283 72C781.723 73.44 779.683 75.48 778.163 78.12C776.723 80.76 776.003 83.96 776.003 87.72C776.003 91.48 776.723 94.68 778.163 97.32C779.683 99.96 781.723 102 784.283 103.44C786.843 104.88 789.723 105.6 792.923 105.6C795.883 105.6 798.603 104.92 801.083 103.56C803.643 102.12 805.763 99.84 807.443 96.72L821.963 104.64C819.563 109.84 815.843 113.88 810.803 116.76C805.763 119.56 799.843 120.96 793.043 120.96ZM863.961 120.96C856.601 120.96 850.121 119.52 844.521 116.64C839.001 113.76 834.721 109.84 831.681 104.88C828.641 99.84 827.121 94.12 827.121 87.72C827.121 81.24 828.601 75.52 831.561 70.56C834.601 65.52 838.721 61.6 843.921 58.8C849.121 55.92 855.001 54.48 861.561 54.48C867.881 54.48 873.561 55.84 878.601 58.56C883.721 61.2 887.761 65.04 890.721 70.08C893.681 75.04 895.161 81 895.161 87.96C895.161 88.68 895.121 89.52 895.041 90.48C894.961 91.36 894.881 92.2 894.801 93H842.361V82.08H884.961L877.761 85.32C877.761 81.96 877.081 79.04 875.721 76.56C874.361 74.08 872.481 72.16 870.081 70.8C867.681 69.36 864.881 68.64 861.681 68.64C858.481 68.64 855.641 69.36 853.161 70.8C850.761 72.16 848.881 74.12 847.521 76.68C846.161 79.16 845.481 82.12 845.481 85.56V88.44C845.481 91.96 846.241 95.08 847.761 97.8C849.361 100.44 851.561 102.48 854.361 103.92C857.241 105.28 860.601 105.96 864.441 105.96C867.881 105.96 870.881 105.44 873.441 104.4C876.081 103.36 878.481 101.8 880.641 99.72L890.601 110.52C887.641 113.88 883.921 116.48 879.441 118.32C874.961 120.08 869.801 120.96 863.961 120.96ZM969.329 121.44C963.169 121.44 957.689 120.44 952.889 118.44C948.089 116.44 944.289 113.72 941.489 110.28C938.689 106.84 937.289 102.88 937.289 98.4C937.289 94.24 938.209 90.52 940.049 87.24C941.889 83.88 944.809 80.76 948.809 77.88C952.809 74.92 957.889 72.04 964.049 69.24C968.529 67.16 972.049 65.32 974.609 63.72C977.169 62.12 978.969 60.6 980.009 59.16C981.049 57.64 981.569 56.12 981.569 54.6C981.569 52.52 980.849 50.84 979.409 49.56C978.049 48.28 976.009 47.64 973.289 47.64C970.409 47.64 968.169 48.36 966.569 49.8C964.969 51.24 964.169 53.08 964.169 55.32C964.169 56.52 964.409 57.72 964.889 58.92C965.369 60.04 966.289 61.36 967.649 62.88C969.009 64.32 970.929 66.2 973.409 68.52L1017.69 109.56L1007.49 121.44L958.649 76.08C955.849 73.52 953.609 71.12 951.929 68.88C950.249 66.64 949.009 64.44 948.209 62.28C947.489 60.12 947.129 57.88 947.129 55.56C947.129 51.48 948.209 47.88 950.369 44.76C952.529 41.64 955.569 39.24 959.489 37.56C963.409 35.8 968.009 34.92 973.289 34.92C978.169 34.92 982.369 35.72 985.889 37.32C989.489 38.84 992.289 41.04 994.289 43.92C996.369 46.8 997.409 50.24 997.409 54.24C997.409 57.76 996.529 61 994.769 63.96C993.009 66.84 990.249 69.56 986.489 72.12C982.809 74.68 977.969 77.28 971.969 79.92C967.889 81.76 964.649 83.56 962.249 85.32C959.929 87 958.249 88.72 957.209 90.48C956.169 92.24 955.649 94.2 955.649 96.36C955.649 98.36 956.249 100.16 957.449 101.76C958.729 103.36 960.489 104.6 962.729 105.48C964.969 106.36 967.609 106.8 970.649 106.8C975.529 106.8 980.009 105.68 984.089 103.44C988.169 101.12 991.609 97.72 994.409 93.24C997.289 88.68 999.329 83.16 1000.53 76.68L1015.53 81.36C1013.85 89.52 1010.85 96.6 1006.53 102.6C1002.21 108.6 996.889 113.24 990.569 116.52C984.249 119.8 977.169 121.44 969.329 121.44ZM398.92 266L436.36 182H455.56L493.12 266H472.72L442 191.84H449.68L418.84 266H398.92ZM417.64 248L422.8 233.24H466L471.28 248H417.64ZM531.129 266.96C524.169 266.96 517.969 265.56 512.529 262.76C507.089 259.88 502.809 255.92 499.689 250.88C496.649 245.84 495.129 240.12 495.129 233.72C495.129 227.24 496.649 221.52 499.689 216.56C502.809 211.52 507.089 207.6 512.529 204.8C517.969 201.92 524.169 200.48 531.129 200.48C537.929 200.48 543.849 201.92 548.889 204.8C553.929 207.6 557.649 211.64 560.049 216.92L545.529 224.72C543.849 221.68 541.729 219.44 539.169 218C536.689 216.56 533.969 215.84 531.009 215.84C527.809 215.84 524.929 216.56 522.369 218C519.809 219.44 517.769 221.48 516.249 224.12C514.809 226.76 514.089 229.96 514.089 233.72C514.089 237.48 514.809 240.68 516.249 243.32C517.769 245.96 519.809 248 522.369 249.44C524.929 250.88 527.809 251.6 531.009 251.6C533.969 251.6 536.689 250.92 539.169 249.56C541.729 248.12 543.849 245.84 545.529 242.72L560.049 250.64C557.649 255.84 553.929 259.88 548.889 262.76C543.849 265.56 537.929 266.96 531.129 266.96ZM601.207 266.96C594.247 266.96 588.047 265.56 582.607 262.76C577.167 259.88 572.887 255.92 569.767 250.88C566.727 245.84 565.207 240.12 565.207 233.72C565.207 227.24 566.727 221.52 569.767 216.56C572.887 211.52 577.167 207.6 582.607 204.8C588.047 201.92 594.247 200.48 601.207 200.48C608.007 200.48 613.927 201.92 618.967 204.8C624.007 207.6 627.727 211.64 630.127 216.92L615.607 224.72C613.927 221.68 611.807 219.44 609.247 218C606.767 216.56 604.047 215.84 601.087 215.84C597.887 215.84 595.007 216.56 592.447 218C589.887 219.44 587.847 221.48 586.327 224.12C584.887 226.76 584.167 229.96 584.167 233.72C584.167 237.48 584.887 240.68 586.327 243.32C587.847 245.96 589.887 248 592.447 249.44C595.007 250.88 597.887 251.6 601.087 251.6C604.047 251.6 606.767 250.92 609.247 249.56C611.807 248.12 613.927 245.84 615.607 242.72L630.127 250.64C627.727 255.84 624.007 259.88 618.967 262.76C613.927 265.56 608.007 266.96 601.207 266.96ZM670.805 266.96C663.925 266.96 657.805 265.52 652.445 262.64C647.165 259.76 642.965 255.84 639.845 250.88C636.805 245.84 635.285 240.12 635.285 233.72C635.285 227.24 636.805 221.52 639.845 216.56C642.965 211.52 647.165 207.6 652.445 204.8C657.805 201.92 663.925 200.48 670.805 200.48C677.605 200.48 683.685 201.92 689.045 204.8C694.405 207.6 698.605 211.48 701.645 216.44C704.685 221.4 706.205 227.16 706.205 233.72C706.205 240.12 704.685 245.84 701.645 250.88C698.605 255.84 694.405 259.76 689.045 262.64C683.685 265.52 677.605 266.96 670.805 266.96ZM670.805 251.6C673.925 251.6 676.725 250.88 679.205 249.44C681.685 248 683.645 245.96 685.085 243.32C686.525 240.6 687.245 237.4 687.245 233.72C687.245 229.96 686.525 226.76 685.085 224.12C683.645 221.48 681.685 219.44 679.205 218C676.725 216.56 673.925 215.84 670.805 215.84C667.685 215.84 664.885 216.56 662.405 218C659.925 219.44 657.925 221.48 656.405 224.12C654.965 226.76 654.245 229.96 654.245 233.72C654.245 237.4 654.965 240.6 656.405 243.32C657.925 245.96 659.925 248 662.405 249.44C664.885 250.88 667.685 251.6 670.805 251.6ZM745.958 266.96C740.598 266.96 735.798 265.92 731.558 263.84C727.398 261.76 724.158 258.6 721.838 254.36C719.518 250.04 718.358 244.56 718.358 237.92V201.44H737.078V235.16C737.078 240.52 738.198 244.48 740.438 247.04C742.758 249.52 745.998 250.76 750.158 250.76C753.038 250.76 755.598 250.16 757.838 248.96C760.078 247.68 761.838 245.76 763.118 243.2C764.398 240.56 765.038 237.28 765.038 233.36V201.44H783.758V266H765.998V248.24L769.238 253.4C767.078 257.88 763.878 261.28 759.638 263.6C755.478 265.84 750.918 266.96 745.958 266.96ZM840.341 200.48C845.461 200.48 850.021 201.52 854.021 203.6C858.101 205.6 861.301 208.72 863.621 212.96C865.941 217.12 867.101 222.48 867.101 229.04V266H848.381V231.92C848.381 226.72 847.221 222.88 844.901 220.4C842.661 217.92 839.461 216.68 835.301 216.68C832.341 216.68 829.661 217.32 827.261 218.6C824.941 219.8 823.101 221.68 821.741 224.24C820.461 226.8 819.821 230.08 819.821 234.08V266H801.101V201.44H818.981V219.32L815.621 213.92C817.941 209.6 821.261 206.28 825.581 203.96C829.901 201.64 834.821 200.48 840.341 200.48ZM910.47 266.96C902.87 266.96 896.95 265.04 892.71 261.2C888.47 257.28 886.35 251.48 886.35 243.8V187.16H905.07V243.56C905.07 246.28 905.79 248.4 907.23 249.92C908.67 251.36 910.63 252.08 913.11 252.08C916.07 252.08 918.59 251.28 920.67 249.68L925.71 262.88C923.79 264.24 921.47 265.28 918.75 266C916.11 266.64 913.35 266.96 910.47 266.96ZM876.39 217.28V202.88H921.15V217.28H876.39ZM936.218 266V201.44H954.938V266H936.218ZM945.578 192.44C942.138 192.44 939.338 191.44 937.178 189.44C935.018 187.44 933.938 184.96 933.938 182C933.938 179.04 935.018 176.56 937.178 174.56C939.338 172.56 942.138 171.56 945.578 171.56C949.018 171.56 951.818 172.52 953.978 174.44C956.138 176.28 957.218 178.68 957.218 181.64C957.218 184.76 956.138 187.36 953.978 189.44C951.898 191.44 949.098 192.44 945.578 192.44ZM1011.55 200.48C1016.67 200.48 1021.23 201.52 1025.23 203.6C1029.31 205.6 1032.51 208.72 1034.83 212.96C1037.15 217.12 1038.31 222.48 1038.31 229.04V266H1019.59V231.92C1019.59 226.72 1018.43 222.88 1016.11 220.4C1013.87 217.92 1010.67 216.68 1006.51 216.68C1003.55 216.68 1000.87 217.32 998.472 218.6C996.152 219.8 994.312 221.68 992.952 224.24C991.672 226.8 991.032 230.08 991.032 234.08V266H972.312V201.44H990.192V219.32L986.832 213.92C989.152 209.6 992.472 206.28 996.792 203.96C1001.11 201.64 1006.03 200.48 1011.55 200.48ZM1086.11 290.24C1080.03 290.24 1074.15 289.48 1068.47 287.96C1062.87 286.52 1058.19 284.32 1054.43 281.36L1061.87 267.92C1064.59 270.16 1068.03 271.92 1072.19 273.2C1076.43 274.56 1080.59 275.24 1084.67 275.24C1091.31 275.24 1096.11 273.76 1099.07 270.8C1102.11 267.84 1103.63 263.44 1103.63 257.6V247.88L1104.83 231.68L1104.59 215.36V201.44H1122.35V255.2C1122.35 267.2 1119.23 276.04 1112.99 281.72C1106.75 287.4 1097.79 290.24 1086.11 290.24ZM1083.23 262.88C1077.23 262.88 1071.79 261.6 1066.91 259.04C1062.11 256.4 1058.23 252.76 1055.27 248.12C1052.39 243.4 1050.95 237.92 1050.95 231.68C1050.95 225.36 1052.39 219.88 1055.27 215.24C1058.23 210.52 1062.11 206.88 1066.91 204.32C1071.79 201.76 1077.23 200.48 1083.23 200.48C1088.67 200.48 1093.47 201.6 1097.63 203.84C1101.79 206 1105.03 209.4 1107.35 214.04C1109.67 218.6 1110.83 224.48 1110.83 231.68C1110.83 238.8 1109.67 244.68 1107.35 249.32C1105.03 253.88 1101.79 257.28 1097.63 259.52C1093.47 261.76 1088.67 262.88 1083.23 262.88ZM1086.95 247.52C1090.23 247.52 1093.15 246.88 1095.71 245.6C1098.27 244.24 1100.27 242.36 1101.71 239.96C1103.15 237.56 1103.87 234.8 1103.87 231.68C1103.87 228.48 1103.15 225.72 1101.71 223.4C1100.27 221 1098.27 219.16 1095.71 217.88C1093.15 216.52 1090.23 215.84 1086.95 215.84C1083.67 215.84 1080.75 216.52 1078.19 217.88C1075.63 219.16 1073.59 221 1072.07 223.4C1070.63 225.72 1069.91 228.48 1069.91 231.68C1069.91 234.8 1070.63 237.56 1072.07 239.96C1073.59 242.36 1075.63 244.24 1078.19 245.6C1080.75 246.88 1083.67 247.52 1086.95 247.52Z" fill="#440099"/>
<path d="M111.448 230.794C66.73 181.909 70.1081 106.027 118.994 61.3093C150.876 32.1451 195.978 22.3797 237.069 35.7448" stroke="#440099" stroke-width="15" stroke-linecap="round" stroke-linejoin="round"/>
<path d="M288.553 68.8445C333.27 117.73 329.891 193.612 281.006 238.33C249.124 267.494 204.022 277.259 162.932 263.894" stroke="#440099" stroke-width="15" stroke-linecap="round" stroke-linejoin="round"/>
<path d="M116.616 203.323L111.308 230.754L83.8762 225.446" stroke="#440099" stroke-width="15" stroke-linecap="round" stroke-linejoin="round"/>
<path d="M283.394 96.316L288.703 68.8845L316.124 74.1929" stroke="#440099" stroke-width="15" stroke-linecap="round" stroke-linejoin="round"/>
<path d="M170.129 185.558C179.132 193.13 190.273 197.701 201.999 198.634C216.435 199.577 228.917 188.673 229.921 174.242C229.921 160.806 216.485 154.088 201.999 149.849C186.794 145.251 174.068 138.853 174.068 125.457C175.198 111.085 187.605 100.248 201.999 101.064C211.676 100.909 220.804 105.54 226.392 113.441" stroke="#440099" stroke-width="15" stroke-linecap="round" stroke-linejoin="round"/>
<path d="M201.77 88.0486V211.59" stroke="#440099" stroke-width="15" stroke-linecap="round" stroke-linejoin="round"/>
</svg>
