<svg width="1500" height="300" viewBox="0 0 1500 300" fill="none" xmlns="http://www.w3.org/2000/svg">
<rect width="1500" height="300" fill="#7FDDE2" fill-opacity="0.4"/>
<path d="M200.271 29.9001C210.038 30.1503 217.88 38.1476 217.877 47.9753V47.9763C217.864 57.9515 209.78 66.0362 199.805 66.0486H199.797C189.813 66.046 181.721 57.9512 181.724 47.9675C181.725 37.9838 189.82 29.8925 199.804 29.8943L200.271 29.9001ZM199.804 38.4841C194.564 38.4841 190.317 42.7318 190.316 47.9714C190.316 53.21 194.563 57.4573 199.803 57.4578C205.039 57.4523 209.283 53.2105 209.291 47.9744V47.9714C209.291 42.7318 205.043 38.4842 199.804 38.4841Z" fill="#00BBC5" stroke="#00BBC5" stroke-width="1.5"/>
<path d="M193.492 9.77539C214.322 6.33356 234.017 20.1553 237.963 40.7725L238.14 41.7588L238.141 41.7705C240.813 59.5559 231.006 76.8417 214.428 83.7012V90.7578H278.538V120.017H214.553L218.127 241.824C247.276 235.803 267.271 219.323 275.195 194.954L269.225 192.452L269.21 192.446L269.195 192.439C265.974 190.923 263.698 187.927 263.104 184.417L263.103 184.409L263.102 184.402C262.553 180.703 264.188 177.022 267.298 174.949L300.286 149.54L300.313 149.521C303.038 147.612 306.46 147.005 309.665 147.851L309.974 147.938L309.991 147.942L310.009 147.948L310.427 148.094L310.45 148.102L310.473 148.111C313.795 149.519 316.116 152.589 316.563 156.169L321.856 197.938H321.855C322.378 201.618 320.738 205.271 317.641 207.327L317.642 207.328C314.861 209.192 311.394 209.717 308.187 208.761L308.176 208.758L308.165 208.754L307.811 208.637L307.768 208.621L302.302 206.432C291.055 239.057 265.019 264.449 232.086 274.856L204.935 289.477L204.925 289.481L204.916 289.486C203.368 290.266 201.669 290.695 199.94 290.745L199.595 290.75C197.802 290.752 196.033 290.337 194.429 289.537L194.418 289.532L194.408 289.526L167.109 274.855C134.182 264.445 108.149 239.056 96.9033 206.436L91.0908 208.753L91.0596 208.766L91.0283 208.775C87.823 209.735 84.355 209.21 81.5781 207.342V207.341C78.4499 205.272 76.8029 201.578 77.3555 197.868L82.6348 156.227C83.0706 152.627 85.3964 149.534 88.7334 148.115L88.7559 148.105L88.7803 148.097L89.1982 147.951L89.2295 147.941C92.4348 146.982 95.9014 147.508 98.6787 149.374L98.6992 149.388L98.7178 149.402L132.111 175.096C135.105 177.181 136.652 180.791 136.094 184.399L136.093 184.406C135.533 187.838 133.352 190.789 130.237 192.334L130.194 192.354L124.008 194.945C131.895 218.927 152.469 235.754 181.477 241.783L185.044 120.017H121.069V90.7578H185.169V84.0527C172.681 78.9643 163.711 67.7525 161.508 54.4229C158.011 33.262 172.331 13.2728 193.492 9.77539ZM193.759 99.3477H129.658V111.431H193.883L193.86 112.203L189.798 251.09L189.773 251.945L188.929 251.809L184.938 251.163C148.585 245.284 122.887 224.329 114.643 193.597L113.839 190.601L113.669 189.968L114.273 189.715L126.603 184.551C127.111 184.243 127.469 183.742 127.594 183.16C127.652 182.734 127.464 182.313 127.106 182.074L127.085 182.06L127.064 182.044L93.7178 156.379C93.1648 156.064 92.5151 155.972 91.8975 156.117C91.4708 156.374 91.1921 156.821 91.1562 157.32L91.1553 157.341L91.1523 157.361L85.8672 199.02L85.8652 199.037L85.8623 199.054C85.7943 199.443 85.9318 199.835 86.2178 200.097L86.3486 200.2L86.3496 200.201C86.9691 200.622 87.7408 200.753 88.4658 200.564L101.582 195.291L102.346 194.983L102.581 195.772L103.689 199.502H103.69C113.078 231.087 137.344 256.026 168.581 266.304L170.074 266.782L170.109 266.793L170.143 266.808L170.763 267.069L170.795 267.083L170.826 267.1L198.367 281.899C199.192 282.291 200.154 282.276 200.967 281.857L228.998 266.837L229.061 266.804L229.129 266.782C261.082 256.817 285.972 231.587 295.502 199.502L295.503 199.5L296.623 195.771L296.859 194.984L297.621 195.291L310.734 200.563C311.463 200.756 312.24 200.623 312.861 200.196L312.865 200.193C313.224 199.951 313.408 199.524 313.339 199.098L313.335 199.072L308.043 157.305L308.039 157.271C307.999 156.791 307.727 156.364 307.313 156.122C306.619 155.971 305.892 156.107 305.301 156.506L272.329 181.901L272.286 181.935L272.239 181.961C271.809 182.203 271.564 182.676 271.611 183.165C271.763 183.807 272.193 184.347 272.784 184.638L284.933 189.696L285.539 189.949L285.368 190.583L284.563 193.579C276.285 224.399 250.754 245.354 214.67 251.195H214.669L210.678 251.837L209.834 251.973L209.809 251.119L205.735 112.199L205.713 111.428H269.949V99.3477H205.824V77.5713L206.347 77.4043L208.821 76.6162L209.721 76.3057C218.946 72.9569 226.037 65.3894 228.762 55.9219C233.456 39.6136 224.04 22.5887 207.731 17.8945C191.423 13.2012 174.397 22.6164 169.704 38.9248C165.01 55.233 174.426 72.2577 190.734 76.9512L190.754 76.957L193.235 77.7451L193.759 77.9111V99.3477Z" fill="#00BBC5" stroke="#00BBC5" stroke-width="1.5"/>
<path d="M427.96 146.8H468.28V162.4H427.96V146.8ZM429.4 193H409.96V109H473.44V124.6H429.4V193ZM510.997 193.96C505.637 193.96 500.837 192.92 496.597 190.84C492.437 188.76 489.197 185.6 486.877 181.36C484.557 177.04 483.397 171.56 483.397 164.92V128.44H502.117V162.16C502.117 167.52 503.237 171.48 505.477 174.04C507.797 176.52 511.037 177.76 515.197 177.76C518.077 177.76 520.637 177.16 522.877 175.96C525.117 174.68 526.877 172.76 528.157 170.2C529.437 167.56 530.077 164.28 530.077 160.36V128.44H548.797V193H531.037V175.24L534.277 180.4C532.117 184.88 528.917 188.28 524.677 190.6C520.517 192.84 515.957 193.96 510.997 193.96ZM566.14 193V103.96H584.86V193H566.14ZM609.318 193V127C609.318 119.72 611.478 113.92 615.798 109.6C620.118 105.2 626.278 103 634.278 103C636.998 103 639.598 103.28 642.078 103.84C644.638 104.4 646.798 105.28 648.558 106.48L643.638 120.04C642.598 119.32 641.438 118.76 640.158 118.36C638.878 117.96 637.518 117.76 636.078 117.76C633.358 117.76 631.238 118.56 629.718 120.16C628.278 121.68 627.558 124 627.558 127.12V133.12L628.038 141.16V193H609.318ZM599.358 144.28V129.88H644.118V144.28H599.358ZM654.678 193V128.44H673.398V193H654.678ZM664.038 119.44C660.598 119.44 657.798 118.44 655.638 116.44C653.478 114.44 652.398 111.96 652.398 109C652.398 106.04 653.478 103.56 655.638 101.56C657.798 99.56 660.598 98.56 664.038 98.56C667.478 98.56 670.278 99.52 672.438 101.44C674.598 103.28 675.678 105.68 675.678 108.64C675.678 111.76 674.598 114.36 672.438 116.44C670.358 118.44 667.558 119.44 664.038 119.44ZM690.71 193V103.96H709.43V193H690.71ZM726.804 193V103.96H745.524V193H726.804Z" fill="#00BBC5"/>
</svg>
