<svg width="1500" height="300" viewBox="0 0 1500 300" fill="none" xmlns="http://www.w3.org/2000/svg">
<path d="M427.96 146.8H468.28V162.4H427.96V146.8ZM429.4 193H409.96V109H473.44V124.6H429.4V193ZM510.997 193.96C505.637 193.96 500.837 192.92 496.597 190.84C492.437 188.76 489.197 185.6 486.877 181.36C484.557 177.04 483.397 171.56 483.397 164.92V128.44H502.117V162.16C502.117 167.52 503.237 171.48 505.477 174.04C507.797 176.52 511.037 177.76 515.197 177.76C518.077 177.76 520.637 177.16 522.877 175.96C525.117 174.68 526.877 172.76 528.157 170.2C529.437 167.56 530.077 164.28 530.077 160.36V128.44H548.797V193H531.037V175.24L534.277 180.4C532.117 184.88 528.917 188.28 524.677 190.6C520.517 192.84 515.957 193.96 510.997 193.96ZM605.38 127.48C610.5 127.48 615.06 128.52 619.06 130.6C623.14 132.6 626.34 135.72 628.66 139.96C630.98 144.12 632.14 149.48 632.14 156.04V193H613.42V158.92C613.42 153.72 612.26 149.88 609.94 147.4C607.7 144.92 604.5 143.68 600.34 143.68C597.38 143.68 594.7 144.32 592.3 145.6C589.98 146.8 588.14 148.68 586.78 151.24C585.5 153.8 584.86 157.08 584.86 161.08V193H566.14V128.44H584.02V146.32L580.66 140.92C582.98 136.6 586.3 133.28 590.62 130.96C594.94 128.64 599.86 127.48 605.38 127.48ZM688.349 127.48C693.469 127.48 698.029 128.52 702.029 130.6C706.109 132.6 709.309 135.72 711.629 139.96C713.949 144.12 715.109 149.48 715.109 156.04V193H696.389V158.92C696.389 153.72 695.229 149.88 692.909 147.4C690.669 144.92 687.469 143.68 683.309 143.68C680.349 143.68 677.669 144.32 675.269 145.6C672.949 146.8 671.109 148.68 669.749 151.24C668.469 153.8 667.829 157.08 667.829 161.08V193H649.109V128.44H666.989V146.32L663.629 140.92C665.949 136.6 669.269 133.28 673.589 130.96C677.909 128.64 682.829 127.48 688.349 127.48ZM764.586 193.96C757.226 193.96 750.746 192.52 745.146 189.64C739.626 186.76 735.346 182.84 732.306 177.88C729.266 172.84 727.746 167.12 727.746 160.72C727.746 154.24 729.226 148.52 732.186 143.56C735.226 138.52 739.346 134.6 744.546 131.8C749.746 128.92 755.626 127.48 762.186 127.48C768.506 127.48 774.186 128.84 779.226 131.56C784.346 134.2 788.386 138.04 791.346 143.08C794.306 148.04 795.786 154 795.786 160.96C795.786 161.68 795.746 162.52 795.666 163.48C795.586 164.36 795.506 165.2 795.426 166H742.986V155.08H785.586L778.386 158.32C778.386 154.96 777.706 152.04 776.346 149.56C774.986 147.08 773.106 145.16 770.706 143.8C768.306 142.36 765.506 141.64 762.306 141.64C759.106 141.64 756.266 142.36 753.786 143.8C751.386 145.16 749.506 147.12 748.146 149.68C746.786 152.16 746.106 155.12 746.106 158.56V161.44C746.106 164.96 746.866 168.08 748.386 170.8C749.986 173.44 752.186 175.48 754.986 176.92C757.866 178.28 761.226 178.96 765.066 178.96C768.506 178.96 771.506 178.44 774.066 177.4C776.706 176.36 779.106 174.8 781.266 172.72L791.226 183.52C788.266 186.88 784.546 189.48 780.066 191.32C775.586 193.08 770.426 193.96 764.586 193.96ZM808.249 193V103.96H826.969V193H808.249Z" fill="#00AA60"/>
<path d="M270.475 73.2445L277.879 51.0419" stroke="#00AA60" stroke-width="14.965" stroke-linecap="round" stroke-linejoin="round"/>
<path d="M127.086 135.409L96.2384 219.766C85.9786 246.765 100.906 276.481 129.586 286.149C157.537 296.92 189.474 284.322 200.917 258.01C201.036 257.735 201.153 257.459 201.268 257.181L236.802 163.9" stroke="#00AA60" stroke-width="14.965" stroke-linecap="round" stroke-linejoin="round"/>
<path d="M146.954 204.646L127.086 135.409" stroke="#00AA60" stroke-width="14.965" stroke-linecap="round" stroke-linejoin="round"/>
<path d="M146.954 204.646L122.797 215.821" stroke="#00AA60" stroke-width="14.965" stroke-linecap="round" stroke-linejoin="round"/>
<path d="M307 31.0204C307 42.6302 297.001 52.0417 284.667 52.0417C272.334 52.0417 262.335 42.6302 262.335 31.0204C262.335 19.4115 272.334 10 284.667 10C297.001 10 307 19.4115 307 31.0204Z" stroke="#00AA60" stroke-width="14.965" stroke-linecap="round" stroke-linejoin="round"/>
<path d="M262.299 138.342L235.884 129.725C227.048 127.143 222.109 118.308 224.853 109.99C224.854 109.985 224.856 109.982 224.857 109.978L224.954 109.67C227.602 101.32 236.941 96.5714 245.813 99.0631L272.227 107.681C281.067 110.269 286.006 119.113 283.256 127.435L283.254 127.44L283.158 127.747C280.504 136.093 271.167 140.836 262.299 138.342Z" stroke="#00AA60" stroke-width="14.965" stroke-linecap="round" stroke-linejoin="round"/>
<path d="M251.018 168.527L224.603 159.91C215.762 157.32 210.824 148.477 213.574 140.155C213.574 140.153 213.576 140.151 213.576 140.151L213.673 139.844C216.319 131.499 225.65 126.753 234.517 129.243C234.522 129.245 234.527 129.246 234.532 129.247L260.946 137.865C269.783 140.447 274.721 149.283 271.977 157.6C271.976 157.605 271.975 157.608 271.973 157.613L271.877 157.919C269.228 166.27 259.889 171.019 251.018 168.527Z" stroke="#00AA60" stroke-width="14.965" stroke-linecap="round" stroke-linejoin="round"/>
<path d="M274.642 108.511L248.288 99.8703C239.452 97.2884 234.514 88.4533 237.258 80.1357C237.259 80.131 237.26 80.1272 237.261 80.1224L237.358 79.8157C240.007 71.4658 249.345 66.7169 258.216 69.2086L284.523 77.8491C293.364 80.432 298.309 89.2728 295.565 97.597C295.564 97.5998 295.562 97.6046 295.561 97.6084L295.452 97.9151C292.804 106.243 283.496 110.982 274.642 108.511Z" stroke="#00AA60" stroke-width="14.965" stroke-linecap="round" stroke-linejoin="round"/>
</svg>
