<svg width="1500" height="300" viewBox="0 0 1500 300" fill="none" xmlns="http://www.w3.org/2000/svg">
<rect width="1500" height="300" fill="#CCEEDF" fill-opacity="0.6"/>
<path d="M409.96 193V109H426.04L461.8 168.28H453.28L488.44 109H504.4L504.64 193H486.4L486.28 136.96H489.64L461.56 184.12H452.8L424.12 136.96H428.2V193H409.96ZM562.849 193V180.4L561.649 177.64V155.08C561.649 151.08 560.409 147.96 557.929 145.72C555.529 143.48 551.809 142.36 546.769 142.36C543.329 142.36 539.929 142.92 536.569 144.04C533.289 145.08 530.489 146.52 528.169 148.36L521.449 135.28C524.969 132.8 529.209 130.88 534.169 129.52C539.129 128.16 544.169 127.48 549.289 127.48C559.129 127.48 566.769 129.8 572.209 134.44C577.649 139.08 580.369 146.32 580.369 156.16V193H562.849ZM543.169 193.96C538.129 193.96 533.809 193.12 530.209 191.44C526.609 189.68 523.849 187.32 521.929 184.36C520.009 181.4 519.049 178.08 519.049 174.4C519.049 170.56 519.969 167.2 521.809 164.32C523.729 161.44 526.729 159.2 530.809 157.6C534.889 155.92 540.209 155.08 546.769 155.08H563.929V166H548.809C544.409 166 541.369 166.72 539.689 168.16C538.089 169.6 537.289 171.4 537.289 173.56C537.289 175.96 538.209 177.88 540.049 179.32C541.969 180.68 544.569 181.36 547.849 181.36C550.969 181.36 553.769 180.64 556.249 179.2C558.729 177.68 560.529 175.48 561.649 172.6L564.529 181.24C563.169 185.4 560.689 188.56 557.089 190.72C553.489 192.88 548.849 193.96 543.169 193.96ZM597.312 193V128.44H615.192V146.68L612.672 141.4C614.592 136.84 617.672 133.4 621.912 131.08C626.152 128.68 631.312 127.48 637.392 127.48V144.76C636.592 144.68 635.872 144.64 635.232 144.64C634.592 144.56 633.912 144.52 633.192 144.52C628.072 144.52 623.912 146 620.712 148.96C617.592 151.84 616.032 156.36 616.032 162.52V193H597.312ZM664.12 179.8L664.6 157L694.72 128.44H717.04L688.12 157.84L678.4 165.76L664.12 179.8ZM648.64 193V103.96H667.36V193H648.64ZM696.76 193L674.92 165.88L686.68 151.36L719.44 193H696.76ZM757.203 193.96C749.843 193.96 743.363 192.52 737.763 189.64C732.243 186.76 727.963 182.84 724.923 177.88C721.883 172.84 720.363 167.12 720.363 160.72C720.363 154.24 721.843 148.52 724.803 143.56C727.843 138.52 731.963 134.6 737.163 131.8C742.363 128.92 748.243 127.48 754.803 127.48C761.123 127.48 766.803 128.84 771.843 131.56C776.963 134.2 781.003 138.04 783.963 143.08C786.923 148.04 788.403 154 788.403 160.96C788.403 161.68 788.363 162.52 788.283 163.48C788.203 164.36 788.123 165.2 788.043 166H735.603V155.08H778.203L771.003 158.32C771.003 154.96 770.323 152.04 768.963 149.56C767.603 147.08 765.723 145.16 763.323 143.8C760.923 142.36 758.123 141.64 754.923 141.64C751.723 141.64 748.883 142.36 746.403 143.8C744.003 145.16 742.123 147.12 740.763 149.68C739.403 152.16 738.723 155.12 738.723 158.56V161.44C738.723 164.96 739.483 168.08 741.003 170.8C742.603 173.44 744.803 175.48 747.603 176.92C750.483 178.28 753.843 178.96 757.683 178.96C761.123 178.96 764.123 178.44 766.683 177.4C769.323 176.36 771.723 174.8 773.883 172.72L783.843 183.52C780.883 186.88 777.163 189.48 772.683 191.32C768.203 193.08 763.043 193.96 757.203 193.96ZM827.267 193.96C819.667 193.96 813.747 192.04 809.507 188.2C805.267 184.28 803.147 178.48 803.147 170.8V114.16H821.867V170.56C821.867 173.28 822.587 175.4 824.027 176.92C825.467 178.36 827.427 179.08 829.907 179.08C832.867 179.08 835.387 178.28 837.467 176.68L842.507 189.88C840.587 191.24 838.267 192.28 835.547 193C832.907 193.64 830.147 193.96 827.267 193.96ZM793.187 144.28V129.88H837.947V144.28H793.187ZM853.015 193V128.44H871.735V193H853.015ZM862.375 119.44C858.935 119.44 856.135 118.44 853.975 116.44C851.815 114.44 850.735 111.96 850.735 109C850.735 106.04 851.815 103.56 853.975 101.56C856.135 99.56 858.935 98.56 862.375 98.56C865.815 98.56 868.615 99.52 870.775 101.44C872.935 103.28 874.015 105.68 874.015 108.64C874.015 111.76 872.935 114.36 870.775 116.44C868.695 118.44 865.895 119.44 862.375 119.44ZM928.349 127.48C933.469 127.48 938.029 128.52 942.029 130.6C946.109 132.6 949.309 135.72 951.629 139.96C953.949 144.12 955.109 149.48 955.109 156.04V193H936.389V158.92C936.389 153.72 935.229 149.88 932.909 147.4C930.669 144.92 927.469 143.68 923.309 143.68C920.349 143.68 917.669 144.32 915.269 145.6C912.949 146.8 911.109 148.68 909.749 151.24C908.469 153.8 907.829 157.08 907.829 161.08V193H889.109V128.44H906.989V146.32L903.629 140.92C905.949 136.6 909.269 133.28 913.589 130.96C917.909 128.64 922.829 127.48 928.349 127.48ZM1002.91 217.24C996.826 217.24 990.946 216.48 985.266 214.96C979.666 213.52 974.986 211.32 971.226 208.36L978.666 194.92C981.386 197.16 984.826 198.92 988.986 200.2C993.226 201.56 997.386 202.24 1001.47 202.24C1008.11 202.24 1012.91 200.76 1015.87 197.8C1018.91 194.84 1020.43 190.44 1020.43 184.6V174.88L1021.63 158.68L1021.39 142.36V128.44H1039.15V182.2C1039.15 194.2 1036.03 203.04 1029.79 208.72C1023.55 214.4 1014.59 217.24 1002.91 217.24ZM1000.03 189.88C994.026 189.88 988.586 188.6 983.706 186.04C978.906 183.4 975.026 179.76 972.066 175.12C969.186 170.4 967.746 164.92 967.746 158.68C967.746 152.36 969.186 146.88 972.066 142.24C975.026 137.52 978.906 133.88 983.706 131.32C988.586 128.76 994.026 127.48 1000.03 127.48C1005.47 127.48 1010.27 128.6 1014.43 130.84C1018.59 133 1021.83 136.4 1024.15 141.04C1026.47 145.6 1027.63 151.48 1027.63 158.68C1027.63 165.8 1026.47 171.68 1024.15 176.32C1021.83 180.88 1018.59 184.28 1014.43 186.52C1010.27 188.76 1005.47 189.88 1000.03 189.88ZM1003.75 174.52C1007.03 174.52 1009.95 173.88 1012.51 172.6C1015.07 171.24 1017.07 169.36 1018.51 166.96C1019.95 164.56 1020.67 161.8 1020.67 158.68C1020.67 155.48 1019.95 152.72 1018.51 150.4C1017.07 148 1015.07 146.16 1012.51 144.88C1009.95 143.52 1007.03 142.84 1003.75 142.84C1000.47 142.84 997.546 143.52 994.986 144.88C992.426 146.16 990.386 148 988.866 150.4C987.426 152.72 986.706 155.48 986.706 158.68C986.706 161.8 987.426 164.56 988.866 166.96C990.386 169.36 992.426 171.24 994.986 172.6C997.546 173.88 1000.47 174.52 1003.75 174.52Z" fill="#66CC9F"/>
<path d="M249.143 157.5L151.107 198V54L249.143 93.2143V157.5Z" stroke="#66CC9F" stroke-width="15" stroke-linecap="round" stroke-linejoin="round"/>
<path d="M76.2769 78.6606L109.679 96.5267" stroke="#66CC9F" stroke-width="15" stroke-linecap="round" stroke-linejoin="round"/>
<path d="M75 126.312H110.348" stroke="#66CC9F" stroke-width="15" stroke-linecap="round" stroke-linejoin="round"/>
<path d="M75.8125 172.411L109.902 155.589" stroke="#66CC9F" stroke-width="15" stroke-linecap="round" stroke-linejoin="round"/>
<path d="M249.143 93.2144H297.035V157.822H249.143V93.2144Z" stroke="#66CC9F" stroke-width="15" stroke-linecap="round" stroke-linejoin="round"/>
<path d="M297.036 93.2144C312.481 93.2144 325 105.734 325 121.179V129.857C325 145.302 312.481 157.822 297.036 157.822V93.2144Z" stroke="#66CC9F" stroke-width="15" stroke-linecap="round" stroke-linejoin="round"/>
<path d="M151.107 148.339C138.504 148.339 128.286 138.121 128.286 125.518C128.286 112.915 138.504 102.697 151.107 102.697" stroke="#66CC9F" stroke-width="15" stroke-linecap="round" stroke-linejoin="round"/>
<path d="M282.526 157.822L299.437 213.304L269.884 246.813L244.705 207L261.571 198.322L249.232 157.822" stroke="#66CC9F" stroke-width="15" stroke-linecap="round" stroke-linejoin="round"/>
</svg>
