<svg width="1500" height="300" viewBox="0 0 1500 300" fill="none" xmlns="http://www.w3.org/2000/svg">
<rect width="1500" height="300" fill="#CCEEDF" fill-opacity="0.6"/>
<path d="M409.96 193V109H426.04L461.8 168.28H453.28L488.44 109H504.4L504.64 193H486.4L486.28 136.96H489.64L461.56 184.12H452.8L424.12 136.96H428.2V193H409.96ZM562.849 193V180.4L561.649 177.64V155.08C561.649 151.08 560.409 147.96 557.929 145.72C555.529 143.48 551.809 142.36 546.769 142.36C543.329 142.36 539.929 142.92 536.569 144.04C533.289 145.08 530.489 146.52 528.169 148.36L521.449 135.28C524.969 132.8 529.209 130.88 534.169 129.52C539.129 128.16 544.169 127.48 549.289 127.48C559.129 127.48 566.769 129.8 572.209 134.44C577.649 139.08 580.369 146.32 580.369 156.16V193H562.849ZM543.169 193.96C538.129 193.96 533.809 193.12 530.209 191.44C526.609 189.68 523.849 187.32 521.929 184.36C520.009 181.4 519.049 178.08 519.049 174.4C519.049 170.56 519.969 167.2 521.809 164.32C523.729 161.44 526.729 159.2 530.809 157.6C534.889 155.92 540.209 155.08 546.769 155.08H563.929V166H548.809C544.409 166 541.369 166.72 539.689 168.16C538.089 169.6 537.289 171.4 537.289 173.56C537.289 175.96 538.209 177.88 540.049 179.32C541.969 180.68 544.569 181.36 547.849 181.36C550.969 181.36 553.769 180.64 556.249 179.2C558.729 177.68 560.529 175.48 561.649 172.6L564.529 181.24C563.169 185.4 560.689 188.56 557.089 190.72C553.489 192.88 548.849 193.96 543.169 193.96ZM597.312 193V128.44H615.192V146.68L612.672 141.4C614.592 136.84 617.672 133.4 621.912 131.08C626.152 128.68 631.312 127.48 637.392 127.48V144.76C636.592 144.68 635.872 144.64 635.232 144.64C634.592 144.56 633.912 144.52 633.192 144.52C628.072 144.52 623.912 146 620.712 148.96C617.592 151.84 616.032 156.36 616.032 162.52V193H597.312ZM664.12 179.8L664.6 157L694.72 128.44H717.04L688.12 157.84L678.4 165.76L664.12 179.8ZM648.64 193V103.96H667.36V193H648.64ZM696.76 193L674.92 165.88L686.68 151.36L719.44 193H696.76ZM757.203 193.96C749.843 193.96 743.363 192.52 737.763 189.64C732.243 186.76 727.963 182.84 724.923 177.88C721.883 172.84 720.363 167.12 720.363 160.72C720.363 154.24 721.843 148.52 724.803 143.56C727.843 138.52 731.963 134.6 737.163 131.8C742.363 128.92 748.243 127.48 754.803 127.48C761.123 127.48 766.803 128.84 771.843 131.56C776.963 134.2 781.003 138.04 783.963 143.08C786.923 148.04 788.403 154 788.403 160.96C788.403 161.68 788.363 162.52 788.283 163.48C788.203 164.36 788.123 165.2 788.043 166H735.603V155.08H778.203L771.003 158.32C771.003 154.96 770.323 152.04 768.963 149.56C767.603 147.08 765.723 145.16 763.323 143.8C760.923 142.36 758.123 141.64 754.923 141.64C751.723 141.64 748.883 142.36 746.403 143.8C744.003 145.16 742.123 147.12 740.763 149.68C739.403 152.16 738.723 155.12 738.723 158.56V161.44C738.723 164.96 739.483 168.08 741.003 170.8C742.603 173.44 744.803 175.48 747.603 176.92C750.483 178.28 753.843 178.96 757.683 178.96C761.123 178.96 764.123 178.44 766.683 177.4C769.323 176.36 771.723 174.8 773.883 172.72L783.843 183.52C780.883 186.88 777.163 189.48 772.683 191.32C768.203 193.08 763.043 193.96 757.203 193.96ZM827.267 193.96C819.667 193.96 813.747 192.04 809.507 188.2C805.267 184.28 803.147 178.48 803.147 170.8V114.16H821.867V170.56C821.867 173.28 822.587 175.4 824.027 176.92C825.467 178.36 827.427 179.08 829.907 179.08C832.867 179.08 835.387 178.28 837.467 176.68L842.507 189.88C840.587 191.24 838.267 192.28 835.547 193C832.907 193.64 830.147 193.96 827.267 193.96ZM793.187 144.28V129.88H837.947V144.28H793.187Z" fill="#66CC9F"/>
<path d="M200.116 19.25L201.806 19.2617C273.206 20.1978 330.782 78.3852 330.75 150C330.75 222.211 272.211 280.75 200 280.75C127.789 280.75 69.25 222.211 69.25 150C69.25 77.7885 127.789 19.25 200 19.25H200.116ZM200 27.5918C132.428 27.6693 77.6689 82.4286 77.5918 150.001C77.5923 217.604 132.396 272.408 200 272.408C267.604 272.408 322.408 217.604 322.408 150C322.408 82.3961 267.604 27.5918 200 27.5918Z" fill="#66CC9F" stroke="#66CC9F" stroke-width="1.5"/>
<path d="M200 48.1182C143.758 48.182 98.1816 93.7592 98.1182 150.001C98.1187 206.268 143.733 251.882 200 251.882C256.267 251.882 301.882 206.267 301.882 150C301.882 93.7327 256.267 48.1182 200 48.1182ZM310.224 150C310.224 210.875 260.875 260.224 200 260.224C139.125 260.224 89.7764 210.875 89.7764 150C89.7764 89.1252 139.125 39.7764 200 39.7764H200.001L201.425 39.7871C261.614 40.6158 310.156 89.6284 310.224 149.999V150Z" fill="#66CC9F" stroke="#66CC9F" stroke-width="1.5"/>
<path d="M253.378 97.5999L222.588 172.863L222.469 173.154L222.178 173.273L146.916 204.063L145.252 204.742L145.938 203.082L176.728 128.503L176.846 128.217L177.131 128.098L252.395 96.6233L254.063 95.926L253.378 97.5999ZM183.243 134.586L160.589 189.455L216.071 166.759L238.725 111.379L183.243 134.586Z" fill="#66CC9F" stroke="#66CC9F" stroke-width="1.5"/>
<path d="M200 142.408C204.193 142.408 207.592 145.807 207.592 150C207.592 154.193 204.193 157.593 200 157.593C195.806 157.592 192.408 154.193 192.408 150C192.408 145.807 195.806 142.408 200 142.408Z" fill="#66CC9F" stroke="#66CC9F" stroke-width="1.5"/>
</svg>
