<svg width="1500" height="300" viewBox="0 0 1500 300" fill="none" xmlns="http://www.w3.org/2000/svg">
<path d="M450.76 194.44C444.12 194.44 437.96 193.36 432.28 191.2C426.68 189.04 421.8 186 417.64 182.08C413.56 178.16 410.36 173.56 408.04 168.28C405.8 163 404.68 157.24 404.68 151C404.68 144.76 405.8 139 408.04 133.72C410.36 128.44 413.6 123.84 417.76 119.92C421.92 116 426.8 112.96 432.4 110.8C438 108.64 444.08 107.56 450.64 107.56C457.28 107.56 463.36 108.64 468.88 110.8C474.48 112.96 479.32 116 483.4 119.92C487.56 123.84 490.8 128.44 493.12 133.72C495.44 138.92 496.6 144.68 496.6 151C496.6 157.24 495.44 163.04 493.12 168.4C490.8 173.68 487.56 178.28 483.4 182.2C479.32 186.04 474.48 189.04 468.88 191.2C463.36 193.36 457.32 194.44 450.76 194.44ZM450.64 177.88C454.4 177.88 457.84 177.24 460.96 175.96C464.16 174.68 466.96 172.84 469.36 170.44C471.76 168.04 473.6 165.2 474.88 161.92C476.24 158.64 476.92 155 476.92 151C476.92 147 476.24 143.36 474.88 140.08C473.6 136.8 471.76 133.96 469.36 131.56C467.04 129.16 464.28 127.32 461.08 126.04C457.88 124.76 454.4 124.12 450.64 124.12C446.88 124.12 443.4 124.76 440.2 126.04C437.08 127.32 434.32 129.16 431.92 131.56C429.52 133.96 427.64 136.8 426.28 140.08C425 143.36 424.36 147 424.36 151C424.36 154.92 425 158.56 426.28 161.92C427.64 165.2 429.48 168.04 431.8 170.44C434.2 172.84 437 174.68 440.2 175.96C443.4 177.24 446.88 177.88 450.64 177.88ZM548.05 193.96C542.61 193.96 537.85 192.76 533.77 190.36C529.69 187.96 526.49 184.32 524.17 179.44C521.93 174.48 520.81 168.24 520.81 160.72C520.81 153.12 521.89 146.88 524.05 142C526.21 137.12 529.33 133.48 533.41 131.08C537.49 128.68 542.37 127.48 548.05 127.48C554.13 127.48 559.57 128.88 564.37 131.68C569.25 134.4 573.09 138.24 575.89 143.2C578.77 148.16 580.21 154 580.21 160.72C580.21 167.52 578.77 173.4 575.89 178.36C573.09 183.32 569.25 187.16 564.37 189.88C559.57 192.6 554.13 193.96 548.05 193.96ZM509.89 216.28V128.44H527.77V141.64L527.41 160.84L528.61 179.92V216.28H509.89ZM544.81 178.6C547.93 178.6 550.69 177.88 553.09 176.44C555.57 175 557.53 172.96 558.97 170.32C560.49 167.6 561.25 164.4 561.25 160.72C561.25 156.96 560.49 153.76 558.97 151.12C557.53 148.48 555.57 146.44 553.09 145C550.69 143.56 547.93 142.84 544.81 142.84C541.69 142.84 538.89 143.56 536.41 145C533.93 146.44 531.97 148.48 530.53 151.12C529.09 153.76 528.37 156.96 528.37 160.72C528.37 164.4 529.09 167.6 530.53 170.32C531.97 172.96 533.93 175 536.41 176.44C538.89 177.88 541.69 178.6 544.81 178.6ZM619.142 193.96C611.542 193.96 605.622 192.04 601.382 188.2C597.142 184.28 595.022 178.48 595.022 170.8V114.16H613.742V170.56C613.742 173.28 614.462 175.4 615.902 176.92C617.342 178.36 619.302 179.08 621.782 179.08C624.742 179.08 627.262 178.28 629.342 176.68L634.382 189.88C632.462 191.24 630.142 192.28 627.422 193C624.782 193.64 622.022 193.96 619.142 193.96ZM585.062 144.28V129.88H629.822V144.28H585.062ZM644.89 193V128.44H663.61V193H644.89ZM654.25 119.44C650.81 119.44 648.01 118.44 645.85 116.44C643.69 114.44 642.61 111.96 642.61 109C642.61 106.04 643.69 103.56 645.85 101.56C648.01 99.56 650.81 98.56 654.25 98.56C657.69 98.56 660.49 99.52 662.65 101.44C664.81 103.28 665.89 105.68 665.89 108.64C665.89 111.76 664.81 114.36 662.65 116.44C660.57 118.44 657.77 119.44 654.25 119.44ZM763.664 127.48C768.784 127.48 773.304 128.52 777.224 130.6C781.224 132.6 784.344 135.72 786.584 139.96C788.904 144.12 790.064 149.48 790.064 156.04V193H771.344V158.92C771.344 153.72 770.264 149.88 768.104 147.4C765.944 144.92 762.904 143.68 758.984 143.68C756.264 143.68 753.824 144.32 751.664 145.6C749.504 146.8 747.824 148.64 746.624 151.12C745.424 153.6 744.824 156.76 744.824 160.6V193H726.104V158.92C726.104 153.72 725.024 149.88 722.864 147.4C720.784 144.92 717.784 143.68 713.864 143.68C711.144 143.68 708.704 144.32 706.544 145.6C704.384 146.8 702.704 148.64 701.504 151.12C700.304 153.6 699.704 156.76 699.704 160.6V193H680.984V128.44H698.864V146.08L695.504 140.92C697.744 136.52 700.904 133.2 704.984 130.96C709.144 128.64 713.864 127.48 719.144 127.48C725.064 127.48 730.224 129 734.624 132.04C739.104 135 742.064 139.56 743.504 145.72L736.904 143.92C739.064 138.88 742.504 134.88 747.224 131.92C752.024 128.96 757.504 127.48 763.664 127.48ZM806.843 193V128.44H825.563V193H806.843ZM816.203 119.44C812.763 119.44 809.963 118.44 807.803 116.44C805.643 114.44 804.563 111.96 804.563 109C804.563 106.04 805.643 103.56 807.803 101.56C809.963 99.56 812.763 98.56 816.203 98.56C819.643 98.56 822.443 99.52 824.603 101.44C826.763 103.28 827.843 105.68 827.843 108.64C827.843 111.76 826.763 114.36 824.603 116.44C822.523 118.44 819.723 119.44 816.203 119.44ZM838.497 193V181.72L876.657 136.6L879.897 142.84H839.337V128.44H895.017V139.72L856.857 184.84L853.497 178.6H896.097V193H838.497ZM939.313 193.96C931.953 193.96 925.473 192.52 919.873 189.64C914.353 186.76 910.073 182.84 907.033 177.88C903.993 172.84 902.473 167.12 902.473 160.72C902.473 154.24 903.953 148.52 906.913 143.56C909.953 138.52 914.073 134.6 919.273 131.8C924.473 128.92 930.353 127.48 936.913 127.48C943.233 127.48 948.913 128.84 953.953 131.56C959.073 134.2 963.113 138.04 966.073 143.08C969.033 148.04 970.513 154 970.513 160.96C970.513 161.68 970.473 162.52 970.393 163.48C970.313 164.36 970.233 165.2 970.153 166H917.713V155.08H960.313L953.113 158.32C953.113 154.96 952.433 152.04 951.073 149.56C949.713 147.08 947.833 145.16 945.433 143.8C943.033 142.36 940.233 141.64 937.033 141.64C933.833 141.64 930.993 142.36 928.513 143.8C926.113 145.16 924.233 147.12 922.873 149.68C921.513 152.16 920.833 155.12 920.833 158.56V161.44C920.833 164.96 921.593 168.08 923.113 170.8C924.713 173.44 926.913 175.48 929.713 176.92C932.593 178.28 935.953 178.96 939.793 178.96C943.233 178.96 946.233 178.44 948.793 177.4C951.433 176.36 953.833 174.8 955.993 172.72L965.953 183.52C962.993 186.88 959.273 189.48 954.793 191.32C950.313 193.08 945.153 193.96 939.313 193.96Z" fill="#8888FF"/>
<mask id="path-2-outside-1_44_96" maskUnits="userSpaceOnUse" x="59" y="42" width="282" height="216" fill="black">
<rect fill="white" x="59" y="42" width="282" height="216"/>
<path d="M339.647 97.1949C334.305 86.9751 327.838 77.3841 320.366 68.6C315.793 63.3085 309.483 59.8211 302.568 58.7647C310.447 54.725 318.012 51.8015 318.126 51.7591C319.749 51.1348 320.559 49.3139 319.934 47.6911C319.551 46.6939 318.688 45.9596 317.643 45.7397C307.705 43.681 297.562 42.7776 287.416 43.047C276.642 43.3209 267.258 50.4719 264.137 60.7869C263.393 63.4011 263.142 66.1305 263.397 68.836C263.4 68.8739 263.378 68.8862 263.347 68.8617C260.35 66.3729 256.884 64.5089 253.154 63.3818C241.351 59.8436 228.62 64.4112 221.761 74.6464C215.581 84.2599 210.613 94.5999 206.969 105.432C206.419 107.081 207.31 108.864 208.959 109.414C209.932 109.739 211.003 109.569 211.829 108.958C219.808 103.144 228.263 98.0121 237.104 93.6181C234.69 98.2519 233.637 103.474 234.066 108.681C235.116 119.091 237.343 129.348 240.706 139.255C241.143 140.528 242.34 141.382 243.685 141.382L243.835 141.38C245.234 141.313 246.421 140.33 246.747 138.968C249.184 128.875 252.669 119.064 257.143 109.695C258.582 106.922 260.186 104.237 261.945 101.654C263.471 99.633 265.265 97.8276 267.278 96.2883C268.284 99.363 269.12 102.49 269.783 105.657C273.485 123.46 274.508 155.219 274.068 185.404C259.821 194.767 232.57 200.288 200 200.288C167.43 200.288 140.179 194.767 125.932 185.404C125.492 155.219 126.514 123.46 130.217 105.656C130.881 102.49 131.719 99.3636 132.725 96.2896C134.737 97.8295 136.531 99.6343 138.058 101.656C139.85 104.294 141.483 107.035 142.949 109.867C147.382 119.185 150.835 128.938 153.253 138.969C153.579 140.331 154.765 141.314 156.164 141.381L156.315 141.383C157.66 141.383 158.857 140.529 159.294 139.256C162.657 129.349 164.884 119.092 165.933 108.682C166.364 103.473 165.309 98.2493 162.89 93.6162C171.732 98.0127 180.188 103.145 188.171 108.958C189.568 109.993 191.539 109.699 192.574 108.303C193.186 107.477 193.356 106.406 193.031 105.432C189.387 94.5999 184.418 84.2599 178.239 74.6464C171.379 64.4125 158.649 59.8449 146.847 63.3818C143.117 64.5089 139.651 66.3729 136.653 68.8617C136.639 68.872 136.619 68.8682 136.61 68.854C136.606 68.8489 136.604 68.8418 136.604 68.8354C136.858 66.1298 136.606 63.3998 135.863 60.7856C132.741 50.4719 123.358 43.3216 112.585 43.047C102.44 42.7757 92.2963 43.6791 82.3582 45.7397C80.6569 46.0966 79.5671 47.7657 79.9246 49.467C80.1438 50.5124 80.8781 51.3752 81.8753 51.7591C81.9897 51.8015 89.5561 54.725 97.4336 58.7647C90.5192 59.8211 84.2086 63.3085 79.6346 68.6C72.1634 77.3841 65.6966 86.9751 60.3543 97.1949C59.5538 98.738 60.1556 100.638 61.6987 101.438C62.6638 101.939 63.8185 101.906 64.7534 101.352C71.8053 97.2515 79.0971 93.5789 86.5894 90.3538C85.254 92.9051 84.3037 95.6402 83.7707 98.4692C82.3222 107.972 81.9197 117.606 82.5716 127.197C82.6964 128.931 84.2022 130.236 85.9368 130.111C87.0305 130.033 88.0046 129.391 88.508 128.417C92.8165 120.08 97.9601 112.201 103.859 104.903C106.087 102.355 108.51 99.9853 111.106 97.8147C112.996 96.3809 115.096 95.248 117.333 94.4585C116.446 97.2238 115.464 100.582 114.61 104.255C111.588 118.449 109.562 144.745 108.21 172.048C107.507 172.146 106.859 172.481 106.375 172.999C105.211 174.291 105.314 176.28 106.605 177.444L107.899 178.609C106.639 206.285 106.041 234.083 105.775 250.57C105.722 254.039 108.491 256.894 111.961 256.948C111.997 256.948 112.034 256.948 112.071 256.948H123.306C126.774 256.957 129.592 254.152 129.601 250.684C129.602 250.411 129.585 250.139 129.55 249.869C128.043 238.22 126.767 218.649 126.181 197.17C128.526 199.982 130.809 202.854 132.951 205.844C147.4 226.018 172.463 238.062 200 238.062C227.537 238.062 252.596 226.018 267.051 205.845C269.191 202.855 271.474 199.982 273.82 197.168C273.234 218.648 271.958 238.22 270.451 249.871C270.009 253.31 272.44 256.456 275.88 256.898C276.15 256.932 276.422 256.949 276.694 256.949H287.929C291.399 256.957 294.218 254.15 294.226 250.681C294.226 250.644 294.226 250.606 294.225 250.569C293.959 234.084 293.361 206.288 292.101 178.61L293.391 177.445C294.684 176.282 294.789 174.292 293.626 173L293.625 172.999C293.14 172.48 292.492 172.144 291.788 172.047C290.435 144.734 288.406 118.421 285.374 104.199C284.527 100.549 283.549 97.2039 282.664 94.4463C284.902 95.2409 287.003 96.3771 288.894 97.8147C291.49 99.986 293.913 102.357 296.14 104.907C302.039 112.204 307.183 120.082 311.491 128.418C312.29 129.963 314.188 130.568 315.733 129.769C316.707 129.266 317.349 128.291 317.428 127.198C318.08 117.607 317.677 107.973 316.228 98.4705C315.696 95.6409 314.746 92.9057 313.41 90.3551C320.903 93.5795 328.196 97.2521 335.247 101.353C336.743 102.24 338.674 101.745 339.56 100.25C340.114 99.3147 340.147 98.16 339.646 97.1955L339.647 97.1949ZM206.647 231.483L202.208 227.044L209.444 219.81L215.104 225.47L209.309 231.265C208.428 231.361 207.536 231.415 206.647 231.483ZM162.395 203.904C165.75 204.427 169.244 204.867 172.838 205.24L174.183 206.584L166.948 213.819L159.714 206.584L162.395 203.904ZM227.573 205.194C230.64 204.87 233.621 204.491 236.517 204.058L231.478 209.098L227.573 205.194ZM227.695 212.881L218.887 221.687L213.227 216.027L222.035 207.22L227.695 212.881ZM209.444 212.245L203.782 206.584L203.826 206.54C207.827 206.488 211.731 206.359 215.54 206.15L209.444 212.245ZM205.662 216.027L198.426 223.262L192.765 217.602L200 210.367L205.662 216.027ZM196.218 206.584L188.983 213.819L181.748 206.584L182.31 206.022C186.789 206.307 191.411 206.479 196.174 206.54L196.218 206.584ZM185.201 217.601L177.965 224.837L170.731 217.601L177.965 210.367L185.201 217.601ZM163.166 217.601L159.481 221.287C156.463 219.557 153.576 217.607 150.843 215.455L155.93 210.367L163.166 217.601ZM166.948 221.384L172.829 227.266C172.883 227.319 172.867 227.343 172.796 227.318C169.94 226.346 167.145 225.208 164.423 223.909L166.948 221.384ZM181.748 228.62L188.983 221.384L194.643 227.044L190.448 231.24C188.002 230.97 185.598 230.57 183.224 230.097L181.748 228.62ZM198.426 230.827L199.347 231.748C198.746 231.744 198.151 231.717 197.553 231.7L198.426 230.827ZM222.67 225.47L231.478 216.663L237.655 222.839C233.647 224.907 229.465 226.619 225.159 227.959L222.67 225.47ZM235.262 212.879L244.069 204.071L252.574 212.577C249.449 215.388 246.076 217.911 242.497 220.116L235.262 212.879ZM107.183 92.8897C104.318 95.275 101.644 97.8816 99.1875 100.685C95.2507 105.275 91.7254 110.201 88.6508 115.407C88.6411 115.422 88.6218 115.427 88.607 115.417C88.598 115.411 88.5929 115.401 88.5929 115.391C88.6 110.122 89.0539 104.864 89.9502 99.6722C90.7147 93.7924 94.3403 88.6725 99.6331 85.9991C101.202 85.2507 101.868 83.372 101.12 81.8025C100.473 80.4452 98.9567 79.7354 97.4998 80.1077C96.3624 80.3964 95.2096 80.6992 94.0413 81.0265C86.2596 83.4652 78.7229 86.6247 71.5276 90.4638C71.4729 90.4921 71.4549 90.4721 71.487 90.4194C75.195 84.1911 79.47 78.3183 84.2568 72.8757C94.2535 62.0663 104.766 64.642 108.822 66.2449C109.983 66.7233 111.079 67.3476 112.083 68.1024C113.468 69.153 115.443 68.8823 116.493 67.4974C117.545 66.1124 117.274 64.1379 115.888 63.0867C114.724 62.1692 113.528 61.2472 112.276 60.3278C106.61 56.4141 100.594 53.0341 94.3024 50.2321C94.2483 50.207 94.2522 50.1806 94.312 50.1729C100.218 49.3409 106.189 49.058 112.148 49.3274C120.322 49.3847 127.501 54.7739 129.838 62.6077C131.632 68.5512 128.624 76.2242 127.659 78.4341C126.965 80.028 127.693 81.8829 129.287 82.5773C130.619 83.1579 132.176 82.7509 133.053 81.5923C134.818 79.2577 141.151 71.4818 148.519 69.45C157.769 66.6378 167.766 70.2338 173.106 78.2926C177.234 84.4888 180.705 91.0984 183.462 98.0147C183.483 98.0668 183.462 98.0835 183.415 98.0526C176.253 93.2298 168.624 89.1367 160.645 85.8364C157.47 84.6373 154.066 83.4967 150.531 82.4455C148.959 81.9922 147.306 82.8499 146.771 84.3975C146.228 85.9817 146.985 87.7184 148.515 88.3999C156.195 91.8764 160.71 99.9538 159.649 108.317C159.136 114.529 158.054 120.681 156.418 126.697C156.403 126.756 156.376 126.757 156.358 126.699C154.322 119.794 151.651 113.093 148.379 106.681C146.826 103.692 145.094 100.798 143.193 98.0166C139.88 93.3352 131.915 86.635 126.471 86.3553C126.262 86.345 126.041 86.3386 125.81 86.3386C119.088 86.6228 112.603 88.9033 107.183 92.8897ZM120.754 105.621C121.788 101.253 123.059 96.9441 124.563 92.7148C125.09 92.6556 125.619 92.6312 126.149 92.6415C126.516 92.6743 126.876 92.7591 127.22 92.8935C125.923 96.6503 124.863 100.485 124.049 104.375C120.465 121.621 119.338 151.64 119.61 180.878C118.391 179.702 117.186 178.505 115.931 177.374L114.348 175.947C115.675 147.88 117.698 119.975 120.754 105.621ZM123.305 250.652L112.07 250.669C112.272 238.156 112.803 211.739 113.976 184.202C115.946 186.055 117.865 187.966 119.737 189.935C120.205 214.538 121.61 237.559 123.305 250.653V250.652ZM138.067 202.177C136.682 200.246 135.239 198.365 133.771 196.503C133.731 196.452 133.746 196.431 133.806 196.455C137.811 198.058 141.909 199.414 146.08 200.515L152.149 206.584L146.748 211.985C143.53 209.019 140.622 205.732 138.067 202.179V202.177ZM256.419 208.856L249.237 201.672C255.016 200.381 260.685 198.637 266.191 196.457C266.25 196.433 266.266 196.455 266.226 196.505C264.759 198.367 263.314 200.248 261.933 202.179C260.247 204.527 258.405 206.757 256.419 208.856ZM276.697 250.678C278.392 237.572 279.796 214.541 280.264 189.932C282.135 187.964 284.054 186.054 286.022 184.2C287.198 211.739 287.727 238.15 287.929 250.653L276.697 250.678ZM279.23 105.567C282.294 119.947 284.322 147.873 285.652 175.946L284.068 177.373C282.813 178.504 281.61 179.698 280.392 180.874C280.663 151.636 279.535 121.619 275.952 104.374C275.136 100.484 274.076 96.6484 272.777 92.8916C273.12 92.7585 273.481 92.6743 273.847 92.6421C274.377 92.628 274.908 92.6492 275.434 92.7071C276.935 96.9204 278.201 101.214 279.23 105.567ZM305.955 81.0265C304.79 80.6992 303.637 80.397 302.5 80.1077C300.815 79.6775 299.101 80.6941 298.671 82.3786C298.299 83.8356 299.009 85.3516 300.367 85.9991C305.659 88.6725 309.285 93.7917 310.05 99.6716C310.947 104.863 311.4 110.122 311.408 115.39C311.408 115.453 311.382 115.461 311.35 115.407C308.275 110.201 304.75 105.275 300.813 100.686C298.356 97.8816 295.683 95.2744 292.818 92.889C287.226 88.7509 280.479 86.4672 273.525 86.3566C268.083 86.6363 260.119 93.3359 256.808 98.0147C254.871 100.853 253.106 103.805 251.524 106.855C248.289 113.211 245.649 119.852 243.637 126.694C243.619 126.752 243.593 126.751 243.578 126.694C241.944 120.68 240.863 114.529 240.35 108.319C239.285 100.019 243.722 91.9876 251.315 88.4713C251.419 88.434 251.61 88.3575 251.708 88.3112C253.28 87.5692 253.954 85.6931 253.211 84.121C252.547 82.7149 250.957 82.0044 249.467 82.4474C245.932 83.4986 242.529 84.6392 239.354 85.8384C231.373 89.1393 223.743 93.233 216.579 98.0571C216.564 98.0655 216.544 98.0603 216.536 98.0449C216.531 98.0372 216.53 98.0275 216.534 98.0192C219.292 91.1016 222.764 84.4907 226.895 78.2945C232.233 70.2351 242.231 66.639 251.481 69.452C258.849 71.4837 265.182 79.2596 266.946 81.5942C267.996 82.9798 269.97 83.2524 271.356 82.2024C272.514 81.3248 272.921 79.7682 272.341 78.436C271.376 76.2255 268.367 68.5518 270.162 62.6109C272.498 54.7765 279.677 49.3866 287.852 49.3294C293.81 49.0613 299.78 49.3448 305.685 50.1761C305.744 50.1838 305.748 50.2102 305.694 50.2359C299.405 53.0373 293.389 56.4173 287.724 60.331C286.472 61.2491 285.277 62.1711 284.111 63.0886C282.726 64.1399 282.455 66.1144 283.506 67.4993C284.557 68.8842 286.532 69.1549 287.917 68.1043C288.921 67.3495 290.017 66.7252 291.178 66.2468C295.233 64.6439 305.743 62.0708 315.743 72.8776C320.529 78.3203 324.804 84.193 328.51 90.4214C328.541 90.4741 328.524 90.494 328.469 90.4657C321.274 86.6247 313.737 83.4646 305.955 81.0265Z"/>
</mask>
<path d="M339.647 97.1949C334.305 86.9751 327.838 77.3841 320.366 68.6C315.793 63.3085 309.483 59.8211 302.568 58.7647C310.447 54.725 318.012 51.8015 318.126 51.7591C319.749 51.1348 320.559 49.3139 319.934 47.6911C319.551 46.6939 318.688 45.9596 317.643 45.7397C307.705 43.681 297.562 42.7776 287.416 43.047C276.642 43.3209 267.258 50.4719 264.137 60.7869C263.393 63.4011 263.142 66.1305 263.397 68.836C263.4 68.8739 263.378 68.8862 263.347 68.8617C260.35 66.3729 256.884 64.5089 253.154 63.3818C241.351 59.8436 228.62 64.4112 221.761 74.6464C215.581 84.2599 210.613 94.5999 206.969 105.432C206.419 107.081 207.31 108.864 208.959 109.414C209.932 109.739 211.003 109.569 211.829 108.958C219.808 103.144 228.263 98.0121 237.104 93.6181C234.69 98.2519 233.637 103.474 234.066 108.681C235.116 119.091 237.343 129.348 240.706 139.255C241.143 140.528 242.34 141.382 243.685 141.382L243.835 141.38C245.234 141.313 246.421 140.33 246.747 138.968C249.184 128.875 252.669 119.064 257.143 109.695C258.582 106.922 260.186 104.237 261.945 101.654C263.471 99.633 265.265 97.8276 267.278 96.2883C268.284 99.363 269.12 102.49 269.783 105.657C273.485 123.46 274.508 155.219 274.068 185.404C259.821 194.767 232.57 200.288 200 200.288C167.43 200.288 140.179 194.767 125.932 185.404C125.492 155.219 126.514 123.46 130.217 105.656C130.881 102.49 131.719 99.3636 132.725 96.2896C134.737 97.8295 136.531 99.6343 138.058 101.656C139.85 104.294 141.483 107.035 142.949 109.867C147.382 119.185 150.835 128.938 153.253 138.969C153.579 140.331 154.765 141.314 156.164 141.381L156.315 141.383C157.66 141.383 158.857 140.529 159.294 139.256C162.657 129.349 164.884 119.092 165.933 108.682C166.364 103.473 165.309 98.2493 162.89 93.6162C171.732 98.0127 180.188 103.145 188.171 108.958C189.568 109.993 191.539 109.699 192.574 108.303C193.186 107.477 193.356 106.406 193.031 105.432C189.387 94.5999 184.418 84.2599 178.239 74.6464C171.379 64.4125 158.649 59.8449 146.847 63.3818C143.117 64.5089 139.651 66.3729 136.653 68.8617C136.639 68.872 136.619 68.8682 136.61 68.854C136.606 68.8489 136.604 68.8418 136.604 68.8354C136.858 66.1298 136.606 63.3998 135.863 60.7856C132.741 50.4719 123.358 43.3216 112.585 43.047C102.44 42.7757 92.2963 43.6791 82.3582 45.7397C80.6569 46.0966 79.5671 47.7657 79.9246 49.467C80.1438 50.5124 80.8781 51.3752 81.8753 51.7591C81.9897 51.8015 89.5561 54.725 97.4336 58.7647C90.5192 59.8211 84.2086 63.3085 79.6346 68.6C72.1634 77.3841 65.6966 86.9751 60.3543 97.1949C59.5538 98.738 60.1556 100.638 61.6987 101.438C62.6638 101.939 63.8185 101.906 64.7534 101.352C71.8053 97.2515 79.0971 93.5789 86.5894 90.3538C85.254 92.9051 84.3037 95.6402 83.7707 98.4692C82.3222 107.972 81.9197 117.606 82.5716 127.197C82.6964 128.931 84.2022 130.236 85.9368 130.111C87.0305 130.033 88.0046 129.391 88.508 128.417C92.8165 120.08 97.9601 112.201 103.859 104.903C106.087 102.355 108.51 99.9853 111.106 97.8147C112.996 96.3809 115.096 95.248 117.333 94.4585C116.446 97.2238 115.464 100.582 114.61 104.255C111.588 118.449 109.562 144.745 108.21 172.048C107.507 172.146 106.859 172.481 106.375 172.999C105.211 174.291 105.314 176.28 106.605 177.444L107.899 178.609C106.639 206.285 106.041 234.083 105.775 250.57C105.722 254.039 108.491 256.894 111.961 256.948C111.997 256.948 112.034 256.948 112.071 256.948H123.306C126.774 256.957 129.592 254.152 129.601 250.684C129.602 250.411 129.585 250.139 129.55 249.869C128.043 238.22 126.767 218.649 126.181 197.17C128.526 199.982 130.809 202.854 132.951 205.844C147.4 226.018 172.463 238.062 200 238.062C227.537 238.062 252.596 226.018 267.051 205.845C269.191 202.855 271.474 199.982 273.82 197.168C273.234 218.648 271.958 238.22 270.451 249.871C270.009 253.31 272.44 256.456 275.88 256.898C276.15 256.932 276.422 256.949 276.694 256.949H287.929C291.399 256.957 294.218 254.15 294.226 250.681C294.226 250.644 294.226 250.606 294.225 250.569C293.959 234.084 293.361 206.288 292.101 178.61L293.391 177.445C294.684 176.282 294.789 174.292 293.626 173L293.625 172.999C293.14 172.48 292.492 172.144 291.788 172.047C290.435 144.734 288.406 118.421 285.374 104.199C284.527 100.549 283.549 97.2039 282.664 94.4463C284.902 95.2409 287.003 96.3771 288.894 97.8147C291.49 99.986 293.913 102.357 296.14 104.907C302.039 112.204 307.183 120.082 311.491 128.418C312.29 129.963 314.188 130.568 315.733 129.769C316.707 129.266 317.349 128.291 317.428 127.198C318.08 117.607 317.677 107.973 316.228 98.4705C315.696 95.6409 314.746 92.9057 313.41 90.3551C320.903 93.5795 328.196 97.2521 335.247 101.353C336.743 102.24 338.674 101.745 339.56 100.25C340.114 99.3147 340.147 98.16 339.646 97.1955L339.647 97.1949ZM206.647 231.483L202.208 227.044L209.444 219.81L215.104 225.47L209.309 231.265C208.428 231.361 207.536 231.415 206.647 231.483ZM162.395 203.904C165.75 204.427 169.244 204.867 172.838 205.24L174.183 206.584L166.948 213.819L159.714 206.584L162.395 203.904ZM227.573 205.194C230.64 204.87 233.621 204.491 236.517 204.058L231.478 209.098L227.573 205.194ZM227.695 212.881L218.887 221.687L213.227 216.027L222.035 207.22L227.695 212.881ZM209.444 212.245L203.782 206.584L203.826 206.54C207.827 206.488 211.731 206.359 215.54 206.15L209.444 212.245ZM205.662 216.027L198.426 223.262L192.765 217.602L200 210.367L205.662 216.027ZM196.218 206.584L188.983 213.819L181.748 206.584L182.31 206.022C186.789 206.307 191.411 206.479 196.174 206.54L196.218 206.584ZM185.201 217.601L177.965 224.837L170.731 217.601L177.965 210.367L185.201 217.601ZM163.166 217.601L159.481 221.287C156.463 219.557 153.576 217.607 150.843 215.455L155.93 210.367L163.166 217.601ZM166.948 221.384L172.829 227.266C172.883 227.319 172.867 227.343 172.796 227.318C169.94 226.346 167.145 225.208 164.423 223.909L166.948 221.384ZM181.748 228.62L188.983 221.384L194.643 227.044L190.448 231.24C188.002 230.97 185.598 230.57 183.224 230.097L181.748 228.62ZM198.426 230.827L199.347 231.748C198.746 231.744 198.151 231.717 197.553 231.7L198.426 230.827ZM222.67 225.47L231.478 216.663L237.655 222.839C233.647 224.907 229.465 226.619 225.159 227.959L222.67 225.47ZM235.262 212.879L244.069 204.071L252.574 212.577C249.449 215.388 246.076 217.911 242.497 220.116L235.262 212.879ZM107.183 92.8897C104.318 95.275 101.644 97.8816 99.1875 100.685C95.2507 105.275 91.7254 110.201 88.6508 115.407C88.6411 115.422 88.6218 115.427 88.607 115.417C88.598 115.411 88.5929 115.401 88.5929 115.391C88.6 110.122 89.0539 104.864 89.9502 99.6722C90.7147 93.7924 94.3403 88.6725 99.6331 85.9991C101.202 85.2507 101.868 83.372 101.12 81.8025C100.473 80.4452 98.9567 79.7354 97.4998 80.1077C96.3624 80.3964 95.2096 80.6992 94.0413 81.0265C86.2596 83.4652 78.7229 86.6247 71.5276 90.4638C71.4729 90.4921 71.4549 90.4721 71.487 90.4194C75.195 84.1911 79.47 78.3183 84.2568 72.8757C94.2535 62.0663 104.766 64.642 108.822 66.2449C109.983 66.7233 111.079 67.3476 112.083 68.1024C113.468 69.153 115.443 68.8823 116.493 67.4974C117.545 66.1124 117.274 64.1379 115.888 63.0867C114.724 62.1692 113.528 61.2472 112.276 60.3278C106.61 56.4141 100.594 53.0341 94.3024 50.2321C94.2483 50.207 94.2522 50.1806 94.312 50.1729C100.218 49.3409 106.189 49.058 112.148 49.3274C120.322 49.3847 127.501 54.7739 129.838 62.6077C131.632 68.5512 128.624 76.2242 127.659 78.4341C126.965 80.028 127.693 81.8829 129.287 82.5773C130.619 83.1579 132.176 82.7509 133.053 81.5923C134.818 79.2577 141.151 71.4818 148.519 69.45C157.769 66.6378 167.766 70.2338 173.106 78.2926C177.234 84.4888 180.705 91.0984 183.462 98.0147C183.483 98.0668 183.462 98.0835 183.415 98.0526C176.253 93.2298 168.624 89.1367 160.645 85.8364C157.47 84.6373 154.066 83.4967 150.531 82.4455C148.959 81.9922 147.306 82.8499 146.771 84.3975C146.228 85.9817 146.985 87.7184 148.515 88.3999C156.195 91.8764 160.71 99.9538 159.649 108.317C159.136 114.529 158.054 120.681 156.418 126.697C156.403 126.756 156.376 126.757 156.358 126.699C154.322 119.794 151.651 113.093 148.379 106.681C146.826 103.692 145.094 100.798 143.193 98.0166C139.88 93.3352 131.915 86.635 126.471 86.3553C126.262 86.345 126.041 86.3386 125.81 86.3386C119.088 86.6228 112.603 88.9033 107.183 92.8897ZM120.754 105.621C121.788 101.253 123.059 96.9441 124.563 92.7148C125.09 92.6556 125.619 92.6312 126.149 92.6415C126.516 92.6743 126.876 92.7591 127.22 92.8935C125.923 96.6503 124.863 100.485 124.049 104.375C120.465 121.621 119.338 151.64 119.61 180.878C118.391 179.702 117.186 178.505 115.931 177.374L114.348 175.947C115.675 147.88 117.698 119.975 120.754 105.621ZM123.305 250.652L112.07 250.669C112.272 238.156 112.803 211.739 113.976 184.202C115.946 186.055 117.865 187.966 119.737 189.935C120.205 214.538 121.61 237.559 123.305 250.653V250.652ZM138.067 202.177C136.682 200.246 135.239 198.365 133.771 196.503C133.731 196.452 133.746 196.431 133.806 196.455C137.811 198.058 141.909 199.414 146.08 200.515L152.149 206.584L146.748 211.985C143.53 209.019 140.622 205.732 138.067 202.179V202.177ZM256.419 208.856L249.237 201.672C255.016 200.381 260.685 198.637 266.191 196.457C266.25 196.433 266.266 196.455 266.226 196.505C264.759 198.367 263.314 200.248 261.933 202.179C260.247 204.527 258.405 206.757 256.419 208.856ZM276.697 250.678C278.392 237.572 279.796 214.541 280.264 189.932C282.135 187.964 284.054 186.054 286.022 184.2C287.198 211.739 287.727 238.15 287.929 250.653L276.697 250.678ZM279.23 105.567C282.294 119.947 284.322 147.873 285.652 175.946L284.068 177.373C282.813 178.504 281.61 179.698 280.392 180.874C280.663 151.636 279.535 121.619 275.952 104.374C275.136 100.484 274.076 96.6484 272.777 92.8916C273.12 92.7585 273.481 92.6743 273.847 92.6421C274.377 92.628 274.908 92.6492 275.434 92.7071C276.935 96.9204 278.201 101.214 279.23 105.567ZM305.955 81.0265C304.79 80.6992 303.637 80.397 302.5 80.1077C300.815 79.6775 299.101 80.6941 298.671 82.3786C298.299 83.8356 299.009 85.3516 300.367 85.9991C305.659 88.6725 309.285 93.7917 310.05 99.6716C310.947 104.863 311.4 110.122 311.408 115.39C311.408 115.453 311.382 115.461 311.35 115.407C308.275 110.201 304.75 105.275 300.813 100.686C298.356 97.8816 295.683 95.2744 292.818 92.889C287.226 88.7509 280.479 86.4672 273.525 86.3566C268.083 86.6363 260.119 93.3359 256.808 98.0147C254.871 100.853 253.106 103.805 251.524 106.855C248.289 113.211 245.649 119.852 243.637 126.694C243.619 126.752 243.593 126.751 243.578 126.694C241.944 120.68 240.863 114.529 240.35 108.319C239.285 100.019 243.722 91.9876 251.315 88.4713C251.419 88.434 251.61 88.3575 251.708 88.3112C253.28 87.5692 253.954 85.6931 253.211 84.121C252.547 82.7149 250.957 82.0044 249.467 82.4474C245.932 83.4986 242.529 84.6392 239.354 85.8384C231.373 89.1393 223.743 93.233 216.579 98.0571C216.564 98.0655 216.544 98.0603 216.536 98.0449C216.531 98.0372 216.53 98.0275 216.534 98.0192C219.292 91.1016 222.764 84.4907 226.895 78.2945C232.233 70.2351 242.231 66.639 251.481 69.452C258.849 71.4837 265.182 79.2596 266.946 81.5942C267.996 82.9798 269.97 83.2524 271.356 82.2024C272.514 81.3248 272.921 79.7682 272.341 78.436C271.376 76.2255 268.367 68.5518 270.162 62.6109C272.498 54.7765 279.677 49.3866 287.852 49.3294C293.81 49.0613 299.78 49.3448 305.685 50.1761C305.744 50.1838 305.748 50.2102 305.694 50.2359C299.405 53.0373 293.389 56.4173 287.724 60.331C286.472 61.2491 285.277 62.1711 284.111 63.0886C282.726 64.1399 282.455 66.1144 283.506 67.4993C284.557 68.8842 286.532 69.1549 287.917 68.1043C288.921 67.3495 290.017 66.7252 291.178 66.2468C295.233 64.6439 305.743 62.0708 315.743 72.8776C320.529 78.3203 324.804 84.193 328.51 90.4214C328.541 90.4741 328.524 90.494 328.469 90.4657C321.274 86.6247 313.737 83.4646 305.955 81.0265Z" fill="#8888FF"/>
<path d="M339.647 97.1949C334.305 86.9751 327.838 77.3841 320.366 68.6C315.793 63.3085 309.483 59.8211 302.568 58.7647C310.447 54.725 318.012 51.8015 318.126 51.7591C319.749 51.1348 320.559 49.3139 319.934 47.6911C319.551 46.6939 318.688 45.9596 317.643 45.7397C307.705 43.681 297.562 42.7776 287.416 43.047C276.642 43.3209 267.258 50.4719 264.137 60.7869C263.393 63.4011 263.142 66.1305 263.397 68.836C263.4 68.8739 263.378 68.8862 263.347 68.8617C260.35 66.3729 256.884 64.5089 253.154 63.3818C241.351 59.8436 228.62 64.4112 221.761 74.6464C215.581 84.2599 210.613 94.5999 206.969 105.432C206.419 107.081 207.31 108.864 208.959 109.414C209.932 109.739 211.003 109.569 211.829 108.958C219.808 103.144 228.263 98.0121 237.104 93.6181C234.69 98.2519 233.637 103.474 234.066 108.681C235.116 119.091 237.343 129.348 240.706 139.255C241.143 140.528 242.34 141.382 243.685 141.382L243.835 141.38C245.234 141.313 246.421 140.33 246.747 138.968C249.184 128.875 252.669 119.064 257.143 109.695C258.582 106.922 260.186 104.237 261.945 101.654C263.471 99.633 265.265 97.8276 267.278 96.2883C268.284 99.363 269.12 102.49 269.783 105.657C273.485 123.46 274.508 155.219 274.068 185.404C259.821 194.767 232.57 200.288 200 200.288C167.43 200.288 140.179 194.767 125.932 185.404C125.492 155.219 126.514 123.46 130.217 105.656C130.881 102.49 131.719 99.3636 132.725 96.2896C134.737 97.8295 136.531 99.6343 138.058 101.656C139.85 104.294 141.483 107.035 142.949 109.867C147.382 119.185 150.835 128.938 153.253 138.969C153.579 140.331 154.765 141.314 156.164 141.381L156.315 141.383C157.66 141.383 158.857 140.529 159.294 139.256C162.657 129.349 164.884 119.092 165.933 108.682C166.364 103.473 165.309 98.2493 162.89 93.6162C171.732 98.0127 180.188 103.145 188.171 108.958C189.568 109.993 191.539 109.699 192.574 108.303C193.186 107.477 193.356 106.406 193.031 105.432C189.387 94.5999 184.418 84.2599 178.239 74.6464C171.379 64.4125 158.649 59.8449 146.847 63.3818C143.117 64.5089 139.651 66.3729 136.653 68.8617C136.639 68.872 136.619 68.8682 136.61 68.854C136.606 68.8489 136.604 68.8418 136.604 68.8354C136.858 66.1298 136.606 63.3998 135.863 60.7856C132.741 50.4719 123.358 43.3216 112.585 43.047C102.44 42.7757 92.2963 43.6791 82.3582 45.7397C80.6569 46.0966 79.5671 47.7657 79.9246 49.467C80.1438 50.5124 80.8781 51.3752 81.8753 51.7591C81.9897 51.8015 89.5561 54.725 97.4336 58.7647C90.5192 59.8211 84.2086 63.3085 79.6346 68.6C72.1634 77.3841 65.6966 86.9751 60.3543 97.1949C59.5538 98.738 60.1556 100.638 61.6987 101.438C62.6638 101.939 63.8185 101.906 64.7534 101.352C71.8053 97.2515 79.0971 93.5789 86.5894 90.3538C85.254 92.9051 84.3037 95.6402 83.7707 98.4692C82.3222 107.972 81.9197 117.606 82.5716 127.197C82.6964 128.931 84.2022 130.236 85.9368 130.111C87.0305 130.033 88.0046 129.391 88.508 128.417C92.8165 120.08 97.9601 112.201 103.859 104.903C106.087 102.355 108.51 99.9853 111.106 97.8147C112.996 96.3809 115.096 95.248 117.333 94.4585C116.446 97.2238 115.464 100.582 114.61 104.255C111.588 118.449 109.562 144.745 108.21 172.048C107.507 172.146 106.859 172.481 106.375 172.999C105.211 174.291 105.314 176.28 106.605 177.444L107.899 178.609C106.639 206.285 106.041 234.083 105.775 250.57C105.722 254.039 108.491 256.894 111.961 256.948C111.997 256.948 112.034 256.948 112.071 256.948H123.306C126.774 256.957 129.592 254.152 129.601 250.684C129.602 250.411 129.585 250.139 129.55 249.869C128.043 238.22 126.767 218.649 126.181 197.17C128.526 199.982 130.809 202.854 132.951 205.844C147.4 226.018 172.463 238.062 200 238.062C227.537 238.062 252.596 226.018 267.051 205.845C269.191 202.855 271.474 199.982 273.82 197.168C273.234 218.648 271.958 238.22 270.451 249.871C270.009 253.31 272.44 256.456 275.88 256.898C276.15 256.932 276.422 256.949 276.694 256.949H287.929C291.399 256.957 294.218 254.15 294.226 250.681C294.226 250.644 294.226 250.606 294.225 250.569C293.959 234.084 293.361 206.288 292.101 178.61L293.391 177.445C294.684 176.282 294.789 174.292 293.626 173L293.625 172.999C293.14 172.48 292.492 172.144 291.788 172.047C290.435 144.734 288.406 118.421 285.374 104.199C284.527 100.549 283.549 97.2039 282.664 94.4463C284.902 95.2409 287.003 96.3771 288.894 97.8147C291.49 99.986 293.913 102.357 296.14 104.907C302.039 112.204 307.183 120.082 311.491 128.418C312.29 129.963 314.188 130.568 315.733 129.769C316.707 129.266 317.349 128.291 317.428 127.198C318.08 117.607 317.677 107.973 316.228 98.4705C315.696 95.6409 314.746 92.9057 313.41 90.3551C320.903 93.5795 328.196 97.2521 335.247 101.353C336.743 102.24 338.674 101.745 339.56 100.25C340.114 99.3147 340.147 98.16 339.646 97.1955L339.647 97.1949ZM206.647 231.483L202.208 227.044L209.444 219.81L215.104 225.47L209.309 231.265C208.428 231.361 207.536 231.415 206.647 231.483ZM162.395 203.904C165.75 204.427 169.244 204.867 172.838 205.24L174.183 206.584L166.948 213.819L159.714 206.584L162.395 203.904ZM227.573 205.194C230.64 204.87 233.621 204.491 236.517 204.058L231.478 209.098L227.573 205.194ZM227.695 212.881L218.887 221.687L213.227 216.027L222.035 207.22L227.695 212.881ZM209.444 212.245L203.782 206.584L203.826 206.54C207.827 206.488 211.731 206.359 215.54 206.15L209.444 212.245ZM205.662 216.027L198.426 223.262L192.765 217.602L200 210.367L205.662 216.027ZM196.218 206.584L188.983 213.819L181.748 206.584L182.31 206.022C186.789 206.307 191.411 206.479 196.174 206.54L196.218 206.584ZM185.201 217.601L177.965 224.837L170.731 217.601L177.965 210.367L185.201 217.601ZM163.166 217.601L159.481 221.287C156.463 219.557 153.576 217.607 150.843 215.455L155.93 210.367L163.166 217.601ZM166.948 221.384L172.829 227.266C172.883 227.319 172.867 227.343 172.796 227.318C169.94 226.346 167.145 225.208 164.423 223.909L166.948 221.384ZM181.748 228.62L188.983 221.384L194.643 227.044L190.448 231.24C188.002 230.97 185.598 230.57 183.224 230.097L181.748 228.62ZM198.426 230.827L199.347 231.748C198.746 231.744 198.151 231.717 197.553 231.7L198.426 230.827ZM222.67 225.47L231.478 216.663L237.655 222.839C233.647 224.907 229.465 226.619 225.159 227.959L222.67 225.47ZM235.262 212.879L244.069 204.071L252.574 212.577C249.449 215.388 246.076 217.911 242.497 220.116L235.262 212.879ZM107.183 92.8897C104.318 95.275 101.644 97.8816 99.1875 100.685C95.2507 105.275 91.7254 110.201 88.6508 115.407C88.6411 115.422 88.6218 115.427 88.607 115.417C88.598 115.411 88.5929 115.401 88.5929 115.391C88.6 110.122 89.0539 104.864 89.9502 99.6722C90.7147 93.7924 94.3403 88.6725 99.6331 85.9991C101.202 85.2507 101.868 83.372 101.12 81.8025C100.473 80.4452 98.9567 79.7354 97.4998 80.1077C96.3624 80.3964 95.2096 80.6992 94.0413 81.0265C86.2596 83.4652 78.7229 86.6247 71.5276 90.4638C71.4729 90.4921 71.4549 90.4721 71.487 90.4194C75.195 84.1911 79.47 78.3183 84.2568 72.8757C94.2535 62.0663 104.766 64.642 108.822 66.2449C109.983 66.7233 111.079 67.3476 112.083 68.1024C113.468 69.153 115.443 68.8823 116.493 67.4974C117.545 66.1124 117.274 64.1379 115.888 63.0867C114.724 62.1692 113.528 61.2472 112.276 60.3278C106.61 56.4141 100.594 53.0341 94.3024 50.2321C94.2483 50.207 94.2522 50.1806 94.312 50.1729C100.218 49.3409 106.189 49.058 112.148 49.3274C120.322 49.3847 127.501 54.7739 129.838 62.6077C131.632 68.5512 128.624 76.2242 127.659 78.4341C126.965 80.028 127.693 81.8829 129.287 82.5773C130.619 83.1579 132.176 82.7509 133.053 81.5923C134.818 79.2577 141.151 71.4818 148.519 69.45C157.769 66.6378 167.766 70.2338 173.106 78.2926C177.234 84.4888 180.705 91.0984 183.462 98.0147C183.483 98.0668 183.462 98.0835 183.415 98.0526C176.253 93.2298 168.624 89.1367 160.645 85.8364C157.47 84.6373 154.066 83.4967 150.531 82.4455C148.959 81.9922 147.306 82.8499 146.771 84.3975C146.228 85.9817 146.985 87.7184 148.515 88.3999C156.195 91.8764 160.71 99.9538 159.649 108.317C159.136 114.529 158.054 120.681 156.418 126.697C156.403 126.756 156.376 126.757 156.358 126.699C154.322 119.794 151.651 113.093 148.379 106.681C146.826 103.692 145.094 100.798 143.193 98.0166C139.88 93.3352 131.915 86.635 126.471 86.3553C126.262 86.345 126.041 86.3386 125.81 86.3386C119.088 86.6228 112.603 88.9033 107.183 92.8897ZM120.754 105.621C121.788 101.253 123.059 96.9441 124.563 92.7148C125.09 92.6556 125.619 92.6312 126.149 92.6415C126.516 92.6743 126.876 92.7591 127.22 92.8935C125.923 96.6503 124.863 100.485 124.049 104.375C120.465 121.621 119.338 151.64 119.61 180.878C118.391 179.702 117.186 178.505 115.931 177.374L114.348 175.947C115.675 147.88 117.698 119.975 120.754 105.621ZM123.305 250.652L112.07 250.669C112.272 238.156 112.803 211.739 113.976 184.202C115.946 186.055 117.865 187.966 119.737 189.935C120.205 214.538 121.61 237.559 123.305 250.653V250.652ZM138.067 202.177C136.682 200.246 135.239 198.365 133.771 196.503C133.731 196.452 133.746 196.431 133.806 196.455C137.811 198.058 141.909 199.414 146.08 200.515L152.149 206.584L146.748 211.985C143.53 209.019 140.622 205.732 138.067 202.179V202.177ZM256.419 208.856L249.237 201.672C255.016 200.381 260.685 198.637 266.191 196.457C266.25 196.433 266.266 196.455 266.226 196.505C264.759 198.367 263.314 200.248 261.933 202.179C260.247 204.527 258.405 206.757 256.419 208.856ZM276.697 250.678C278.392 237.572 279.796 214.541 280.264 189.932C282.135 187.964 284.054 186.054 286.022 184.2C287.198 211.739 287.727 238.15 287.929 250.653L276.697 250.678ZM279.23 105.567C282.294 119.947 284.322 147.873 285.652 175.946L284.068 177.373C282.813 178.504 281.61 179.698 280.392 180.874C280.663 151.636 279.535 121.619 275.952 104.374C275.136 100.484 274.076 96.6484 272.777 92.8916C273.12 92.7585 273.481 92.6743 273.847 92.6421C274.377 92.628 274.908 92.6492 275.434 92.7071C276.935 96.9204 278.201 101.214 279.23 105.567ZM305.955 81.0265C304.79 80.6992 303.637 80.397 302.5 80.1077C300.815 79.6775 299.101 80.6941 298.671 82.3786C298.299 83.8356 299.009 85.3516 300.367 85.9991C305.659 88.6725 309.285 93.7917 310.05 99.6716C310.947 104.863 311.4 110.122 311.408 115.39C311.408 115.453 311.382 115.461 311.35 115.407C308.275 110.201 304.75 105.275 300.813 100.686C298.356 97.8816 295.683 95.2744 292.818 92.889C287.226 88.7509 280.479 86.4672 273.525 86.3566C268.083 86.6363 260.119 93.3359 256.808 98.0147C254.871 100.853 253.106 103.805 251.524 106.855C248.289 113.211 245.649 119.852 243.637 126.694C243.619 126.752 243.593 126.751 243.578 126.694C241.944 120.68 240.863 114.529 240.35 108.319C239.285 100.019 243.722 91.9876 251.315 88.4713C251.419 88.434 251.61 88.3575 251.708 88.3112C253.28 87.5692 253.954 85.6931 253.211 84.121C252.547 82.7149 250.957 82.0044 249.467 82.4474C245.932 83.4986 242.529 84.6392 239.354 85.8384C231.373 89.1393 223.743 93.233 216.579 98.0571C216.564 98.0655 216.544 98.0603 216.536 98.0449C216.531 98.0372 216.53 98.0275 216.534 98.0192C219.292 91.1016 222.764 84.4907 226.895 78.2945C232.233 70.2351 242.231 66.639 251.481 69.452C258.849 71.4837 265.182 79.2596 266.946 81.5942C267.996 82.9798 269.97 83.2524 271.356 82.2024C272.514 81.3248 272.921 79.7682 272.341 78.436C271.376 76.2255 268.367 68.5518 270.162 62.6109C272.498 54.7765 279.677 49.3866 287.852 49.3294C293.81 49.0613 299.78 49.3448 305.685 50.1761C305.744 50.1838 305.748 50.2102 305.694 50.2359C299.405 53.0373 293.389 56.4173 287.724 60.331C286.472 61.2491 285.277 62.1711 284.111 63.0886C282.726 64.1399 282.455 66.1144 283.506 67.4993C284.557 68.8842 286.532 69.1549 287.917 68.1043C288.921 67.3495 290.017 66.7252 291.178 66.2468C295.233 64.6439 305.743 62.0708 315.743 72.8776C320.529 78.3203 324.804 84.193 328.51 90.4214C328.541 90.4741 328.524 90.494 328.469 90.4657C321.274 86.6247 313.737 83.4646 305.955 81.0265Z" stroke="#8888FF" mask="url(#path-2-outside-1_44_96)"/>
</svg>
