<svg width="1500" height="300" viewBox="0 0 1500 300" fill="none" xmlns="http://www.w3.org/2000/svg">
<path d="M409.96 193V109H446.32C453.84 109 460.32 110.24 465.76 112.72C471.2 115.12 475.4 118.6 478.36 123.16C481.32 127.72 482.8 133.16 482.8 139.48C482.8 145.72 481.32 151.12 478.36 155.68C475.4 160.24 471.2 163.76 465.76 166.24C460.32 168.64 453.84 169.84 446.32 169.84H420.76L429.4 161.08V193H409.96ZM429.4 163.24L420.76 154H445.24C451.24 154 455.72 152.72 458.68 150.16C461.64 147.6 463.12 144.04 463.12 139.48C463.12 134.84 461.64 131.24 458.68 128.68C455.72 126.12 451.24 124.84 445.24 124.84H420.76L429.4 115.6V163.24ZM495.242 193V128.44H513.122V146.68L510.602 141.4C512.522 136.84 515.602 133.4 519.842 131.08C524.082 128.68 529.242 127.48 535.322 127.48V144.76C534.522 144.68 533.802 144.64 533.162 144.64C532.522 144.56 531.842 144.52 531.122 144.52C526.002 144.52 521.842 146 518.642 148.96C515.522 151.84 513.962 156.36 513.962 162.52V193H495.242ZM576.704 193.96C569.824 193.96 563.704 192.52 558.344 189.64C553.064 186.76 548.864 182.84 545.744 177.88C542.704 172.84 541.184 167.12 541.184 160.72C541.184 154.24 542.704 148.52 545.744 143.56C548.864 138.52 553.064 134.6 558.344 131.8C563.704 128.92 569.824 127.48 576.704 127.48C583.504 127.48 589.584 128.92 594.944 131.8C600.304 134.6 604.504 138.48 607.544 143.44C610.584 148.4 612.104 154.16 612.104 160.72C612.104 167.12 610.584 172.84 607.544 177.88C604.504 182.84 600.304 186.76 594.944 189.64C589.584 192.52 583.504 193.96 576.704 193.96ZM576.704 178.6C579.824 178.6 582.624 177.88 585.104 176.44C587.584 175 589.544 172.96 590.984 170.32C592.424 167.6 593.144 164.4 593.144 160.72C593.144 156.96 592.424 153.76 590.984 151.12C589.544 148.48 587.584 146.44 585.104 145C582.624 143.56 579.824 142.84 576.704 142.84C573.584 142.84 570.784 143.56 568.304 145C565.824 146.44 563.824 148.48 562.304 151.12C560.864 153.76 560.144 156.96 560.144 160.72C560.144 164.4 560.864 167.6 562.304 170.32C563.824 172.96 565.824 175 568.304 176.44C570.784 177.88 573.584 178.6 576.704 178.6ZM652.337 193.96C646.257 193.96 640.777 192.6 635.897 189.88C631.017 187.08 627.137 183.2 624.257 178.24C621.457 173.28 620.057 167.44 620.057 160.72C620.057 153.92 621.457 148.04 624.257 143.08C627.137 138.12 631.017 134.28 635.897 131.56C640.777 128.84 646.257 127.48 652.337 127.48C657.777 127.48 662.537 128.68 666.617 131.08C670.697 133.48 673.857 137.12 676.097 142C678.337 146.88 679.457 153.12 679.457 160.72C679.457 168.24 678.377 174.48 676.217 179.44C674.057 184.32 670.937 187.96 666.857 190.36C662.857 192.76 658.017 193.96 652.337 193.96ZM655.577 178.6C658.617 178.6 661.377 177.88 663.857 176.44C666.337 175 668.297 172.96 669.737 170.32C671.257 167.6 672.017 164.4 672.017 160.72C672.017 156.96 671.257 153.76 669.737 151.12C668.297 148.48 666.337 146.44 663.857 145C661.377 143.56 658.617 142.84 655.577 142.84C652.457 142.84 649.657 143.56 647.177 145C644.697 146.44 642.697 148.48 641.177 151.12C639.737 153.76 639.017 156.96 639.017 160.72C639.017 164.4 639.737 167.6 641.177 170.32C642.697 172.96 644.697 175 647.177 176.44C649.657 177.88 652.457 178.6 655.577 178.6ZM672.497 193V179.8L672.857 160.6L671.657 141.52V103.96H690.377V193H672.497ZM734.943 193.96C729.583 193.96 724.783 192.92 720.543 190.84C716.383 188.76 713.143 185.6 710.823 181.36C708.503 177.04 707.343 171.56 707.343 164.92V128.44H726.063V162.16C726.063 167.52 727.183 171.48 729.423 174.04C731.743 176.52 734.983 177.76 739.143 177.76C742.023 177.76 744.583 177.16 746.823 175.96C749.063 174.68 750.823 172.76 752.103 170.2C753.383 167.56 754.023 164.28 754.023 160.36V128.44H772.743V193H754.983V175.24L758.223 180.4C756.063 184.88 752.863 188.28 748.623 190.6C744.463 192.84 739.903 193.96 734.943 193.96ZM821.285 193.96C814.325 193.96 808.125 192.56 802.685 189.76C797.245 186.88 792.965 182.92 789.845 177.88C786.805 172.84 785.285 167.12 785.285 160.72C785.285 154.24 786.805 148.52 789.845 143.56C792.965 138.52 797.245 134.6 802.685 131.8C808.125 128.92 814.325 127.48 821.285 127.48C828.085 127.48 834.005 128.92 839.045 131.8C844.085 134.6 847.805 138.64 850.205 143.92L835.685 151.72C834.005 148.68 831.885 146.44 829.325 145C826.845 143.56 824.125 142.84 821.165 142.84C817.965 142.84 815.085 143.56 812.525 145C809.965 146.44 807.925 148.48 806.405 151.12C804.965 153.76 804.245 156.96 804.245 160.72C804.245 164.48 804.965 167.68 806.405 170.32C807.925 172.96 809.965 175 812.525 176.44C815.085 177.88 817.965 178.6 821.165 178.6C824.125 178.6 826.845 177.92 829.325 176.56C831.885 175.12 834.005 172.84 835.685 169.72L850.205 177.64C847.805 182.84 844.085 186.88 839.045 189.76C834.005 192.56 828.085 193.96 821.285 193.96ZM888.321 193.96C880.721 193.96 874.801 192.04 870.561 188.2C866.321 184.28 864.201 178.48 864.201 170.8V114.16H882.921V170.56C882.921 173.28 883.641 175.4 885.081 176.92C886.521 178.36 888.481 179.08 890.961 179.08C893.921 179.08 896.441 178.28 898.521 176.68L903.561 189.88C901.641 191.24 899.321 192.28 896.601 193C893.961 193.64 891.201 193.96 888.321 193.96ZM854.241 144.28V129.88H899.001V144.28H854.241ZM975.774 194.44C969.614 194.44 964.134 193.44 959.334 191.44C954.534 189.44 950.734 186.72 947.934 183.28C945.134 179.84 943.734 175.88 943.734 171.4C943.734 167.24 944.654 163.52 946.494 160.24C948.334 156.88 951.254 153.76 955.254 150.88C959.254 147.92 964.334 145.04 970.494 142.24C974.974 140.16 978.494 138.32 981.054 136.72C983.614 135.12 985.414 133.6 986.454 132.16C987.494 130.64 988.014 129.12 988.014 127.6C988.014 125.52 987.294 123.84 985.854 122.56C984.494 121.28 982.454 120.64 979.734 120.64C976.854 120.64 974.614 121.36 973.014 122.8C971.414 124.24 970.614 126.08 970.614 128.32C970.614 129.52 970.854 130.72 971.334 131.92C971.814 133.04 972.734 134.36 974.094 135.88C975.454 137.32 977.374 139.2 979.854 141.52L1024.13 182.56L1013.93 194.44L965.094 149.08C962.294 146.52 960.054 144.12 958.374 141.88C956.694 139.64 955.454 137.44 954.654 135.28C953.934 133.12 953.574 130.88 953.574 128.56C953.574 124.48 954.654 120.88 956.814 117.76C958.974 114.64 962.014 112.24 965.934 110.56C969.854 108.8 974.454 107.92 979.734 107.92C984.614 107.92 988.814 108.72 992.334 110.32C995.934 111.84 998.734 114.04 1000.73 116.92C1002.81 119.8 1003.85 123.24 1003.85 127.24C1003.85 130.76 1002.97 134 1001.21 136.96C999.454 139.84 996.694 142.56 992.934 145.12C989.254 147.68 984.414 150.28 978.414 152.92C974.334 154.76 971.094 156.56 968.694 158.32C966.374 160 964.694 161.72 963.654 163.48C962.614 165.24 962.094 167.2 962.094 169.36C962.094 171.36 962.694 173.16 963.894 174.76C965.174 176.36 966.934 177.6 969.174 178.48C971.414 179.36 974.054 179.8 977.094 179.8C981.974 179.8 986.454 178.68 990.534 176.44C994.614 174.12 998.054 170.72 1000.85 166.24C1003.73 161.68 1005.77 156.16 1006.97 149.68L1021.97 154.36C1020.29 162.52 1017.29 169.6 1012.97 175.6C1008.65 181.6 1003.33 186.24 997.014 189.52C990.694 192.8 983.614 194.44 975.774 194.44ZM1088.54 142.84H1128.98V157.96H1088.54V142.84ZM1089.98 177.4H1135.7V193H1070.66V109H1134.14V124.6H1089.98V177.4ZM1189.09 127.48C1194.21 127.48 1198.77 128.52 1202.77 130.6C1206.85 132.6 1210.05 135.72 1212.37 139.96C1214.69 144.12 1215.85 149.48 1215.85 156.04V193H1197.13V158.92C1197.13 153.72 1195.97 149.88 1193.65 147.4C1191.41 144.92 1188.21 143.68 1184.05 143.68C1181.09 143.68 1178.41 144.32 1176.01 145.6C1173.69 146.8 1171.85 148.68 1170.49 151.24C1169.21 153.8 1168.57 157.08 1168.57 161.08V193H1149.85V128.44H1167.73V146.32L1164.37 140.92C1166.69 136.6 1170.01 133.28 1174.33 130.96C1178.65 128.64 1183.57 127.48 1189.09 127.48ZM1263.65 217.24C1257.57 217.24 1251.69 216.48 1246.01 214.96C1240.41 213.52 1235.73 211.32 1231.97 208.36L1239.41 194.92C1242.13 197.16 1245.57 198.92 1249.73 200.2C1253.97 201.56 1258.13 202.24 1262.21 202.24C1268.85 202.24 1273.65 200.76 1276.61 197.8C1279.65 194.84 1281.17 190.44 1281.17 184.6V174.88L1282.37 158.68L1282.13 142.36V128.44H1299.89V182.2C1299.89 194.2 1296.77 203.04 1290.53 208.72C1284.29 214.4 1275.33 217.24 1263.65 217.24ZM1260.77 189.88C1254.77 189.88 1249.33 188.6 1244.45 186.04C1239.65 183.4 1235.77 179.76 1232.81 175.12C1229.93 170.4 1228.49 164.92 1228.49 158.68C1228.49 152.36 1229.93 146.88 1232.81 142.24C1235.77 137.52 1239.65 133.88 1244.45 131.32C1249.33 128.76 1254.77 127.48 1260.77 127.48C1266.21 127.48 1271.01 128.6 1275.17 130.84C1279.33 133 1282.57 136.4 1284.89 141.04C1287.21 145.6 1288.37 151.48 1288.37 158.68C1288.37 165.8 1287.21 171.68 1284.89 176.32C1282.57 180.88 1279.33 184.28 1275.17 186.52C1271.01 188.76 1266.21 189.88 1260.77 189.88ZM1264.49 174.52C1267.77 174.52 1270.69 173.88 1273.25 172.6C1275.81 171.24 1277.81 169.36 1279.25 166.96C1280.69 164.56 1281.41 161.8 1281.41 158.68C1281.41 155.48 1280.69 152.72 1279.25 150.4C1277.81 148 1275.81 146.16 1273.25 144.88C1270.69 143.52 1267.77 142.84 1264.49 142.84C1261.21 142.84 1258.29 143.52 1255.73 144.88C1253.17 146.16 1251.13 148 1249.61 150.4C1248.17 152.72 1247.45 155.48 1247.45 158.68C1247.45 161.8 1248.17 164.56 1249.61 166.96C1251.13 169.36 1253.17 171.24 1255.73 172.6C1258.29 173.88 1261.21 174.52 1264.49 174.52Z" fill="#81ABFF"/>
<path d="M153.998 43.5588L268.998 109.956V163.074L246.002 176.353V123.236L131.002 56.8383" stroke="#81ABFF" stroke-width="15" stroke-linecap="round" stroke-linejoin="round"/>
<path d="M85 83.3971L200 149.794L246.002 123.235L268.998 109.956L315 83.3971" stroke="#81ABFF" stroke-width="15" stroke-linecap="round" stroke-linejoin="round"/>
<path d="M200 149.794V282.589" stroke="#81ABFF" stroke-width="15" stroke-linecap="round" stroke-linejoin="round"/>
<path d="M108.582 125.073C108.206 125.073 107.94 125.371 107.94 125.892V188.305L119.715 181.499C121.133 180.492 121.906 178.805 121.74 177.073V149.795C121.74 149.274 121.995 148.976 122.371 148.976C122.554 148.98 122.735 149.033 122.891 149.131L171.228 177.017C171.384 177.115 171.565 177.168 171.748 177.172C172.124 177.172 172.379 176.874 172.379 176.353V163.074C172.348 162.272 171.937 161.532 171.272 161.082L109.091 125.228C108.939 125.129 108.763 125.076 108.582 125.073ZM136.159 172.857C135.783 172.857 135.517 173.166 135.517 173.686V186.966C135.554 187.767 135.964 188.504 136.624 188.958L162.076 203.676C162.232 203.774 162.413 203.826 162.596 203.831C162.973 203.831 163.227 203.532 163.227 203.012V189.732C163.199 188.93 162.786 188.19 162.121 187.741L136.668 173.022C136.517 172.921 136.341 172.864 136.159 172.857ZM107.94 188.349L119.715 208.755C120.879 210.857 122.558 212.628 124.595 213.901L171.228 240.759C171.384 240.857 171.565 240.909 171.748 240.914C172.124 240.914 172.379 240.615 172.379 240.095V226.815C172.348 226.013 171.937 225.273 171.272 224.823L108.029 188.305L107.94 188.349Z" fill="#81ABFF"/>
<path d="M315 216.192V83.3972L200 17L141.305 50.8847L85 83.3972V216.192L200 282.589L315 216.192Z" stroke="#81ABFF" stroke-width="15" stroke-linecap="round" stroke-linejoin="round"/>
</svg>
