<svg width="1500" height="300" viewBox="0 0 1500 300" fill="none" xmlns="http://www.w3.org/2000/svg">
<path d="M409.96 193V109H446.32C453.84 109 460.32 110.24 465.76 112.72C471.2 115.12 475.4 118.6 478.36 123.16C481.32 127.72 482.8 133.16 482.8 139.48C482.8 145.72 481.32 151.12 478.36 155.68C475.4 160.16 471.2 163.6 465.76 166C460.32 168.4 453.84 169.6 446.32 169.6H420.76L429.4 161.08V193H409.96ZM463.36 193L442.36 162.52H463.12L484.36 193H463.36ZM429.4 163.24L420.76 154.12H445.24C451.24 154.12 455.72 152.84 458.68 150.28C461.64 147.64 463.12 144.04 463.12 139.48C463.12 134.84 461.64 131.24 458.68 128.68C455.72 126.12 451.24 124.84 445.24 124.84H420.76L429.4 115.6V163.24ZM528.922 193.96C521.562 193.96 515.082 192.52 509.482 189.64C503.962 186.76 499.682 182.84 496.642 177.88C493.602 172.84 492.082 167.12 492.082 160.72C492.082 154.24 493.562 148.52 496.522 143.56C499.562 138.52 503.682 134.6 508.882 131.8C514.082 128.92 519.962 127.48 526.522 127.48C532.842 127.48 538.522 128.84 543.562 131.56C548.682 134.2 552.722 138.04 555.682 143.08C558.642 148.04 560.122 154 560.122 160.96C560.122 161.68 560.082 162.52 560.002 163.48C559.922 164.36 559.842 165.2 559.762 166H507.322V155.08H549.922L542.722 158.32C542.722 154.96 542.042 152.04 540.682 149.56C539.322 147.08 537.442 145.16 535.042 143.8C532.642 142.36 529.842 141.64 526.642 141.64C523.442 141.64 520.602 142.36 518.122 143.8C515.722 145.16 513.842 147.12 512.482 149.68C511.122 152.16 510.442 155.12 510.442 158.56V161.44C510.442 164.96 511.202 168.08 512.722 170.8C514.322 173.44 516.522 175.48 519.322 176.92C522.202 178.28 525.562 178.96 529.402 178.96C532.842 178.96 535.842 178.44 538.402 177.4C541.042 176.36 543.442 174.8 545.602 172.72L555.562 183.52C552.602 186.88 548.882 189.48 544.402 191.32C539.922 193.08 534.762 193.96 528.922 193.96ZM598.985 193.96C591.385 193.96 585.465 192.04 581.225 188.2C576.985 184.28 574.865 178.48 574.865 170.8V114.16H593.585V170.56C593.585 173.28 594.305 175.4 595.745 176.92C597.185 178.36 599.145 179.08 601.625 179.08C604.585 179.08 607.105 178.28 609.185 176.68L614.225 189.88C612.305 191.24 609.985 192.28 607.265 193C604.625 193.64 601.865 193.96 598.985 193.96ZM564.905 144.28V129.88H609.665V144.28H564.905ZM664.334 193V180.4L663.134 177.64V155.08C663.134 151.08 661.894 147.96 659.414 145.72C657.014 143.48 653.294 142.36 648.254 142.36C644.814 142.36 641.414 142.92 638.054 144.04C634.774 145.08 631.974 146.52 629.654 148.36L622.934 135.28C626.454 132.8 630.694 130.88 635.654 129.52C640.614 128.16 645.654 127.48 650.774 127.48C660.614 127.48 668.254 129.8 673.694 134.44C679.134 139.08 681.854 146.32 681.854 156.16V193H664.334ZM644.654 193.96C639.614 193.96 635.294 193.12 631.694 191.44C628.094 189.68 625.334 187.32 623.414 184.36C621.494 181.4 620.534 178.08 620.534 174.4C620.534 170.56 621.454 167.2 623.294 164.32C625.214 161.44 628.214 159.2 632.294 157.6C636.374 155.92 641.694 155.08 648.254 155.08H665.414V166H650.294C645.894 166 642.854 166.72 641.174 168.16C639.574 169.6 638.774 171.4 638.774 173.56C638.774 175.96 639.694 177.88 641.534 179.32C643.454 180.68 646.054 181.36 649.334 181.36C652.454 181.36 655.254 180.64 657.734 179.2C660.214 177.68 662.014 175.48 663.134 172.6L666.014 181.24C664.654 185.4 662.174 188.56 658.574 190.72C654.974 192.88 650.334 193.96 644.654 193.96ZM698.796 193V128.44H717.516V193H698.796ZM708.156 119.44C704.716 119.44 701.916 118.44 699.756 116.44C697.596 114.44 696.516 111.96 696.516 109C696.516 106.04 697.596 103.56 699.756 101.56C701.916 99.56 704.716 98.56 708.156 98.56C711.596 98.56 714.396 99.52 716.556 101.44C718.716 103.28 719.796 105.68 719.796 108.64C719.796 111.76 718.716 114.36 716.556 116.44C714.476 118.44 711.676 119.44 708.156 119.44ZM774.13 127.48C779.25 127.48 783.81 128.52 787.81 130.6C791.89 132.6 795.09 135.72 797.41 139.96C799.73 144.12 800.89 149.48 800.89 156.04V193H782.17V158.92C782.17 153.72 781.01 149.88 778.69 147.4C776.45 144.92 773.25 143.68 769.09 143.68C766.13 143.68 763.45 144.32 761.05 145.6C758.73 146.8 756.89 148.68 755.53 151.24C754.25 153.8 753.61 157.08 753.61 161.08V193H734.89V128.44H752.77V146.32L749.41 140.92C751.73 136.6 755.05 133.28 759.37 130.96C763.69 128.64 768.61 127.48 774.13 127.48Z" fill="#440099"/>
<path d="M286.574 190.303C286.577 184.995 283.566 180.144 278.807 177.791C283.103 173.087 284.846 166.59 283.483 160.367C280.562 148.263 267.81 145.191 259.285 143.785C263.766 133.073 263.908 121.037 259.677 110.223C254.705 98.2904 244.369 92.1595 231.097 87.9581C228.558 87.154 226.834 84.7972 226.836 82.1338C226.83 75.2808 222.66 69.1192 216.3 66.5663L214.746 65.9473C213.411 65.4109 212.764 63.8941 213.3 62.5595C213.35 62.4329 213.411 62.3107 213.481 62.1937L214.268 60.8766C217.959 54.7194 216.164 46.7498 210.192 42.7672C205.475 39.6238 201.793 35.1561 199.609 29.9259L195.497 20.0546C193.754 15.8701 188.948 13.8901 184.763 15.633C182.79 16.4554 181.216 18.0139 180.374 19.9785L175.699 30.8874C172.107 39.2704 165.513 46.0078 157.21 49.7805L151.136 52.5433C145.834 54.9418 143.48 61.1839 145.879 66.4858C146.405 67.6477 147.137 68.705 148.041 69.6057C150.035 71.6003 150.033 74.8337 148.039 76.8276C147.869 76.9973 147.687 77.1554 147.493 77.3002L138.42 84.1057C132.827 88.3049 131.652 96.2219 135.785 101.863C136.915 103.44 136.664 105.616 135.206 106.894C115.232 125.004 110.435 151.444 116.382 169.906C123.741 192.773 158.613 206.105 170.114 231.988C176.891 247.236 179.824 266.33 181.088 279.994C181.337 282.863 183.764 285.05 186.643 284.999C188.632 285.015 190.467 283.929 191.411 282.177C196.522 273.238 200.939 263.919 204.621 254.302C207.228 254.924 209.549 256.409 211.206 258.517C214.195 262.641 218.941 265.13 224.034 265.243C231 265.214 237.114 260.602 239.055 253.914C241.285 254.392 243.599 254.314 245.792 253.686C250.454 252.347 254.136 248.762 255.601 244.138C255.999 242.881 256.221 241.574 256.259 240.255C263.761 241.46 270.892 236.574 272.475 229.143C272.943 227.186 272.998 225.153 272.637 223.174C278.922 221.553 283.444 216.064 283.832 209.585C283.836 206.655 282.932 203.796 281.244 201.403C284.628 198.715 286.592 194.625 286.574 190.303ZM181.75 33.482L186.442 22.5768C186.808 21.7587 187.769 21.3922 188.587 21.758C188.951 21.9212 189.242 22.2124 189.406 22.5768L193.528 32.4547C194.504 34.731 195.718 36.8975 197.15 38.9184C190.282 41.6125 183.026 43.1901 175.659 43.5903C178.143 40.5157 180.193 37.1148 181.75 33.482ZM151.6 61.4298C151.827 60.1479 152.674 59.062 153.862 58.5293L159.937 55.7664C163.08 54.3243 166.038 52.509 168.748 50.36C180.02 50.6358 191.225 48.5424 201.637 44.2159C203.143 45.7071 204.78 47.0608 206.527 48.2593C209.58 50.2912 210.496 54.3645 208.608 57.5086L207.821 58.8257C207.01 60.2078 206.576 61.7795 206.563 63.3819C189.772 68.776 168.337 72.9115 155.936 71.3406C155.548 68.9296 154.412 66.7009 152.689 64.9697C151.758 64.0456 151.349 62.7176 151.6 61.4298ZM142.38 89.3644L151.455 82.5589C153.077 81.3187 154.343 79.6731 155.126 77.7875C157.385 78.0839 159.66 78.2361 161.939 78.2419C177.302 78.2419 197.275 73.2335 208.826 69.5494C209.771 70.6477 210.964 71.5052 212.306 72.0518L213.86 72.6708C217.734 74.2066 220.273 77.9566 220.261 82.1236C220.269 83.8657 220.637 85.5874 221.341 87.1818C192.873 99.7559 170.365 101.152 142.677 101.224C142.35 100.052 141.816 98.9482 141.099 97.9648C139.118 95.2319 139.683 91.4161 142.37 89.3739L142.38 89.3644ZM202.388 237.138C200.923 248.866 193.745 264.166 187.358 275.898C187.358 275.914 187.344 275.928 187.328 275.928C187.312 275.928 187.298 275.914 187.298 275.898C185.892 259.909 182.13 244.214 176.133 229.324C169.817 215.113 157.823 204.906 146.222 195.035C135.71 186.089 125.783 177.64 122.644 167.9C117.755 152.715 120.998 128.678 139.621 111.787C140.812 110.696 141.733 109.344 142.312 107.836C171.51 107.773 195.092 106.335 225.615 92.5122C226.684 93.2695 227.864 93.8563 229.112 94.2536C242.658 98.534 249.98 104.076 253.599 112.771C262.44 133.993 248.083 161.684 219.467 178.625C209.197 184.734 202.99 195.879 203.198 207.827C203.538 217.604 203.268 227.394 202.388 237.138ZM250.247 163.781C252.781 163.794 254.919 165.672 255.258 168.183L255.989 173.698C256.419 176.874 255.843 180.106 254.343 182.937C250.967 189.288 250.119 196.681 251.969 203.632L252.397 205.248C253.364 208.86 252.424 212.716 249.904 215.479L243.016 223.052C240.975 225.302 239.296 227.857 238.041 230.625C235.39 236.497 228.9 239.611 222.661 238.007L209.277 234.56C209.935 226.822 209.935 216.397 209.79 207.682C209.609 198.099 214.588 189.157 222.829 184.265C232.084 178.862 240.361 171.937 247.313 163.781H250.247ZM276.864 196.464C275.571 197.412 274.716 198.843 274.494 200.431C274.26 202.042 274.685 203.68 275.675 204.972C276.688 206.295 277.235 207.916 277.233 209.581C276.778 213.243 274.039 216.208 270.424 216.951C267.266 217.77 265.347 220.969 266.111 224.141C267.15 228.339 264.59 232.584 260.393 233.624C259.249 233.907 258.057 233.928 256.905 233.687C255.102 233.29 253.218 233.755 251.808 234.945C250.405 236.096 249.62 237.836 249.684 239.649C249.707 240.506 249.585 241.359 249.325 242.175C248.535 244.676 246.547 246.617 244.027 247.345C242.77 247.711 241.436 247.732 240.168 247.408C238.605 247.01 236.948 247.247 235.558 248.065C234.213 248.854 233.239 250.147 232.852 251.658C231.869 255.739 228.232 258.627 224.034 258.658C220.978 258.51 218.161 256.956 216.405 254.45C213.95 251.315 210.542 249.063 206.696 248.033C207.393 245.665 207.934 243.364 208.358 241.118L221.015 244.378C230.347 246.793 240.063 242.144 244.037 233.361C245.01 231.214 246.312 229.232 247.896 227.486L254.781 219.914C258.807 215.501 260.309 209.343 258.765 203.572L258.34 201.955C256.916 196.606 257.567 190.916 260.164 186.026C262.311 181.991 263.139 177.385 262.531 172.855L261.8 167.34C261.111 162.254 257.178 158.214 252.11 157.39C253.732 155.019 255.206 152.552 256.526 150.001C263.77 151.114 274.964 153.136 277.085 161.901C277.893 166.246 276.542 170.713 273.463 173.882C272.225 175.246 271.708 177.118 272.07 178.924C272.466 180.865 273.748 182.508 275.534 183.366C278.215 184.633 279.943 187.315 279.986 190.281C280.001 192.724 278.839 195.025 276.864 196.464Z" fill="#440099" stroke="#440099" stroke-width="4.5"/>
</svg>
