<svg width="1500" height="300" viewBox="0 0 1500 300" fill="none" xmlns="http://www.w3.org/2000/svg">
<rect width="1500" height="300" fill="#00AA60" fill-opacity="0.2"/>
<path d="M427.56 117.44C420.84 117.44 414.4 116.56 408.24 114.8C402.08 112.96 397.12 110.6 393.36 107.72L399.96 93.08C403.56 95.64 407.8 97.76 412.68 99.44C417.64 101.04 422.64 101.84 427.68 101.84C431.52 101.84 434.6 101.48 436.92 100.76C439.32 99.96 441.08 98.88 442.2 97.52C443.32 96.16 443.88 94.6 443.88 92.84C443.88 90.6 443 88.84 441.24 87.56C439.48 86.2 437.16 85.12 434.28 84.32C431.4 83.44 428.2 82.64 424.68 81.92C421.24 81.12 417.76 80.16 414.24 79.04C410.8 77.92 407.64 76.48 404.76 74.72C401.88 72.96 399.52 70.64 397.68 67.76C395.92 64.88 395.04 61.2 395.04 56.72C395.04 51.92 396.32 47.56 398.88 43.64C401.52 39.64 405.44 36.48 410.64 34.16C415.92 31.76 422.52 30.56 430.44 30.56C435.72 30.56 440.92 31.2 446.04 32.48C451.16 33.68 455.68 35.52 459.6 38L453.6 52.76C449.68 50.52 445.76 48.88 441.84 47.84C437.92 46.72 434.08 46.16 430.32 46.16C426.56 46.16 423.48 46.6 421.08 47.48C418.68 48.36 416.96 49.52 415.92 50.96C414.88 52.32 414.36 53.92 414.36 55.76C414.36 57.92 415.24 59.68 417 61.04C418.76 62.32 421.08 63.36 423.96 64.16C426.84 64.96 430 65.76 433.44 66.56C436.96 67.36 440.44 68.28 443.88 69.32C447.4 70.36 450.6 71.76 453.48 73.52C456.36 75.28 458.68 77.6 460.44 80.48C462.28 83.36 463.2 87 463.2 91.4C463.2 96.12 461.88 100.44 459.24 104.36C456.6 108.28 452.64 111.44 447.36 113.84C442.16 116.24 435.56 117.44 427.56 117.44ZM514.763 116V103.4L513.563 100.64V78.08C513.563 74.08 512.323 70.96 509.843 68.72C507.443 66.48 503.723 65.36 498.683 65.36C495.243 65.36 491.843 65.92 488.483 67.04C485.203 68.08 482.403 69.52 480.083 71.36L473.363 58.28C476.883 55.8 481.123 53.88 486.083 52.52C491.043 51.16 496.083 50.48 501.203 50.48C511.043 50.48 518.683 52.8 524.123 57.44C529.563 62.08 532.283 69.32 532.283 79.16V116H514.763ZM495.083 116.96C490.043 116.96 485.723 116.12 482.123 114.44C478.523 112.68 475.763 110.32 473.843 107.36C471.923 104.4 470.963 101.08 470.963 97.4C470.963 93.56 471.883 90.2 473.723 87.32C475.643 84.44 478.643 82.2 482.723 80.6C486.803 78.92 492.123 78.08 498.683 78.08H515.843V89H500.723C496.323 89 493.283 89.72 491.603 91.16C490.003 92.6 489.203 94.4 489.203 96.56C489.203 98.96 490.123 100.88 491.963 102.32C493.883 103.68 496.483 104.36 499.763 104.36C502.883 104.36 505.683 103.64 508.163 102.2C510.643 100.68 512.443 98.48 513.563 95.6L516.443 104.24C515.083 108.4 512.603 111.56 509.003 113.72C505.403 115.88 500.763 116.96 495.083 116.96ZM549.226 116V26.96H567.946V116H549.226ZM617.36 116.96C610 116.96 603.52 115.52 597.92 112.64C592.4 109.76 588.12 105.84 585.08 100.88C582.04 95.84 580.52 90.12 580.52 83.72C580.52 77.24 582 71.52 584.96 66.56C588 61.52 592.12 57.6 597.32 54.8C602.52 51.92 608.4 50.48 614.96 50.48C621.28 50.48 626.96 51.84 632 54.56C637.12 57.2 641.16 61.04 644.12 66.08C647.08 71.04 648.56 77 648.56 83.96C648.56 84.68 648.52 85.52 648.44 86.48C648.36 87.36 648.28 88.2 648.2 89H595.76V78.08H638.36L631.16 81.32C631.16 77.96 630.48 75.04 629.12 72.56C627.76 70.08 625.88 68.16 623.48 66.8C621.08 65.36 618.28 64.64 615.08 64.64C611.88 64.64 609.04 65.36 606.56 66.8C604.16 68.16 602.28 70.12 600.92 72.68C599.56 75.16 598.88 78.12 598.88 81.56V84.44C598.88 87.96 599.64 91.08 601.16 93.8C602.76 96.44 604.96 98.48 607.76 99.92C610.64 101.28 614 101.96 617.84 101.96C621.28 101.96 624.28 101.44 626.84 100.4C629.48 99.36 631.88 97.8 634.04 95.72L644 106.52C641.04 109.88 637.32 112.48 632.84 114.32C628.36 116.08 623.2 116.96 617.36 116.96ZM682.743 116.96C677.223 116.96 671.903 116.32 666.783 115.04C661.743 113.68 657.743 112 654.783 110L661.023 96.56C663.983 98.4 667.463 99.92 671.463 101.12C675.543 102.24 679.543 102.8 683.463 102.8C687.783 102.8 690.823 102.28 692.583 101.24C694.423 100.2 695.343 98.76 695.343 96.92C695.343 95.4 694.623 94.28 693.183 93.56C691.823 92.76 689.983 92.16 687.663 91.76C685.343 91.36 682.783 90.96 679.983 90.56C677.263 90.16 674.503 89.64 671.703 89C668.903 88.28 666.343 87.24 664.023 85.88C661.703 84.52 659.823 82.68 658.383 80.36C657.023 78.04 656.343 75.04 656.343 71.36C656.343 67.28 657.503 63.68 659.823 60.56C662.223 57.44 665.663 55 670.143 53.24C674.623 51.4 679.983 50.48 686.223 50.48C690.623 50.48 695.103 50.96 699.663 51.92C704.223 52.88 708.023 54.28 711.063 56.12L704.823 69.44C701.703 67.6 698.543 66.36 695.343 65.72C692.223 65 689.183 64.64 686.223 64.64C682.063 64.64 679.023 65.2 677.103 66.32C675.183 67.44 674.223 68.88 674.223 70.64C674.223 72.24 674.903 73.44 676.263 74.24C677.703 75.04 679.583 75.68 681.903 76.16C684.223 76.64 686.743 77.08 689.463 77.48C692.263 77.8 695.063 78.32 697.863 79.04C700.663 79.76 703.183 80.8 705.423 82.16C707.743 83.44 709.623 85.24 711.063 87.56C712.503 89.8 713.223 92.76 713.223 96.44C713.223 100.44 712.023 104 709.623 107.12C707.223 110.16 703.743 112.56 699.183 114.32C694.703 116.08 689.223 116.96 682.743 116.96ZM786.477 117.44C780.317 117.44 774.837 116.44 770.037 114.44C765.237 112.44 761.437 109.72 758.637 106.28C755.837 102.84 754.437 98.88 754.437 94.4C754.437 90.24 755.357 86.52 757.197 83.24C759.037 79.88 761.957 76.76 765.957 73.88C769.957 70.92 775.037 68.04 781.197 65.24C785.677 63.16 789.197 61.32 791.757 59.72C794.317 58.12 796.117 56.6 797.157 55.16C798.197 53.64 798.717 52.12 798.717 50.6C798.717 48.52 797.997 46.84 796.557 45.56C795.197 44.28 793.157 43.64 790.437 43.64C787.557 43.64 785.317 44.36 783.717 45.8C782.117 47.24 781.317 49.08 781.317 51.32C781.317 52.52 781.557 53.72 782.037 54.92C782.517 56.04 783.437 57.36 784.797 58.88C786.157 60.32 788.077 62.2 790.557 64.52L834.837 105.56L824.637 117.44L775.797 72.08C772.997 69.52 770.757 67.12 769.077 64.88C767.397 62.64 766.157 60.44 765.357 58.28C764.637 56.12 764.277 53.88 764.277 51.56C764.277 47.48 765.357 43.88 767.517 40.76C769.677 37.64 772.717 35.24 776.637 33.56C780.557 31.8 785.157 30.92 790.437 30.92C795.317 30.92 799.517 31.72 803.037 33.32C806.637 34.84 809.437 37.04 811.437 39.92C813.517 42.8 814.557 46.24 814.557 50.24C814.557 53.76 813.677 57 811.917 59.96C810.157 62.84 807.397 65.56 803.637 68.12C799.957 70.68 795.117 73.28 789.117 75.92C785.037 77.76 781.797 79.56 779.397 81.32C777.077 83 775.397 84.72 774.357 86.48C773.317 88.24 772.797 90.2 772.797 92.36C772.797 94.36 773.397 96.16 774.597 97.76C775.877 99.36 777.637 100.6 779.877 101.48C782.117 102.36 784.757 102.8 787.797 102.8C792.677 102.8 797.157 101.68 801.237 99.44C805.317 97.12 808.757 93.72 811.557 89.24C814.437 84.68 816.477 79.16 817.677 72.68L832.677 77.36C830.997 85.52 827.997 92.6 823.677 98.6C819.357 104.6 814.037 109.24 807.717 112.52C801.397 115.8 794.317 117.44 786.477 117.44ZM427.56 263.44C420.84 263.44 414.4 262.56 408.24 260.8C402.08 258.96 397.12 256.6 393.36 253.72L399.96 239.08C403.56 241.64 407.8 243.76 412.68 245.44C417.64 247.04 422.64 247.84 427.68 247.84C431.52 247.84 434.6 247.48 436.92 246.76C439.32 245.96 441.08 244.88 442.2 243.52C443.32 242.16 443.88 240.6 443.88 238.84C443.88 236.6 443 234.84 441.24 233.56C439.48 232.2 437.16 231.12 434.28 230.32C431.4 229.44 428.2 228.64 424.68 227.92C421.24 227.12 417.76 226.16 414.24 225.04C410.8 223.92 407.64 222.48 404.76 220.72C401.88 218.96 399.52 216.64 397.68 213.76C395.92 210.88 395.04 207.2 395.04 202.72C395.04 197.92 396.32 193.56 398.88 189.64C401.52 185.64 405.44 182.48 410.64 180.16C415.92 177.76 422.52 176.56 430.44 176.56C435.72 176.56 440.92 177.2 446.04 178.48C451.16 179.68 455.68 181.52 459.6 184L453.6 198.76C449.68 196.52 445.76 194.88 441.84 193.84C437.92 192.72 434.08 192.16 430.32 192.16C426.56 192.16 423.48 192.6 421.08 193.48C418.68 194.36 416.96 195.52 415.92 196.96C414.88 198.32 414.36 199.92 414.36 201.76C414.36 203.92 415.24 205.68 417 207.04C418.76 208.32 421.08 209.36 423.96 210.16C426.84 210.96 430 211.76 433.44 212.56C436.96 213.36 440.44 214.28 443.88 215.32C447.4 216.36 450.6 217.76 453.48 219.52C456.36 221.28 458.68 223.6 460.44 226.48C462.28 229.36 463.2 233 463.2 237.4C463.2 242.12 461.88 246.44 459.24 250.36C456.6 254.28 452.64 257.44 447.36 259.84C442.16 262.24 435.56 263.44 427.56 263.44ZM514.763 262V249.4L513.563 246.64V224.08C513.563 220.08 512.323 216.96 509.843 214.72C507.443 212.48 503.723 211.36 498.683 211.36C495.243 211.36 491.843 211.92 488.483 213.04C485.203 214.08 482.403 215.52 480.083 217.36L473.363 204.28C476.883 201.8 481.123 199.88 486.083 198.52C491.043 197.16 496.083 196.48 501.203 196.48C511.043 196.48 518.683 198.8 524.123 203.44C529.563 208.08 532.283 215.32 532.283 225.16V262H514.763ZM495.083 262.96C490.043 262.96 485.723 262.12 482.123 260.44C478.523 258.68 475.763 256.32 473.843 253.36C471.923 250.4 470.963 247.08 470.963 243.4C470.963 239.56 471.883 236.2 473.723 233.32C475.643 230.44 478.643 228.2 482.723 226.6C486.803 224.92 492.123 224.08 498.683 224.08H515.843V235H500.723C496.323 235 493.283 235.72 491.603 237.16C490.003 238.6 489.203 240.4 489.203 242.56C489.203 244.96 490.123 246.88 491.963 248.32C493.883 249.68 496.483 250.36 499.763 250.36C502.883 250.36 505.683 249.64 508.163 248.2C510.643 246.68 512.443 244.48 513.563 241.6L516.443 250.24C515.083 254.4 512.603 257.56 509.003 259.72C505.403 261.88 500.763 262.96 495.083 262.96ZM549.226 262V172.96H567.946V262H549.226ZM617.36 262.96C610 262.96 603.52 261.52 597.92 258.64C592.4 255.76 588.12 251.84 585.08 246.88C582.04 241.84 580.52 236.12 580.52 229.72C580.52 223.24 582 217.52 584.96 212.56C588 207.52 592.12 203.6 597.32 200.8C602.52 197.92 608.4 196.48 614.96 196.48C621.28 196.48 626.96 197.84 632 200.56C637.12 203.2 641.16 207.04 644.12 212.08C647.08 217.04 648.56 223 648.56 229.96C648.56 230.68 648.52 231.52 648.44 232.48C648.36 233.36 648.28 234.2 648.2 235H595.76V224.08H638.36L631.16 227.32C631.16 223.96 630.48 221.04 629.12 218.56C627.76 216.08 625.88 214.16 623.48 212.8C621.08 211.36 618.28 210.64 615.08 210.64C611.88 210.64 609.04 211.36 606.56 212.8C604.16 214.16 602.28 216.12 600.92 218.68C599.56 221.16 598.88 224.12 598.88 227.56V230.44C598.88 233.96 599.64 237.08 601.16 239.8C602.76 242.44 604.96 244.48 607.76 245.92C610.64 247.28 614 247.96 617.84 247.96C621.28 247.96 624.28 247.44 626.84 246.4C629.48 245.36 631.88 243.8 634.04 241.72L644 252.52C641.04 255.88 637.32 258.48 632.84 260.32C628.36 262.08 623.2 262.96 617.36 262.96ZM682.743 262.96C677.223 262.96 671.903 262.32 666.783 261.04C661.743 259.68 657.743 258 654.783 256L661.023 242.56C663.983 244.4 667.463 245.92 671.463 247.12C675.543 248.24 679.543 248.8 683.463 248.8C687.783 248.8 690.823 248.28 692.583 247.24C694.423 246.2 695.343 244.76 695.343 242.92C695.343 241.4 694.623 240.28 693.183 239.56C691.823 238.76 689.983 238.16 687.663 237.76C685.343 237.36 682.783 236.96 679.983 236.56C677.263 236.16 674.503 235.64 671.703 235C668.903 234.28 666.343 233.24 664.023 231.88C661.703 230.52 659.823 228.68 658.383 226.36C657.023 224.04 656.343 221.04 656.343 217.36C656.343 213.28 657.503 209.68 659.823 206.56C662.223 203.44 665.663 201 670.143 199.24C674.623 197.4 679.983 196.48 686.223 196.48C690.623 196.48 695.103 196.96 699.663 197.92C704.223 198.88 708.023 200.28 711.063 202.12L704.823 215.44C701.703 213.6 698.543 212.36 695.343 211.72C692.223 211 689.183 210.64 686.223 210.64C682.063 210.64 679.023 211.2 677.103 212.32C675.183 213.44 674.223 214.88 674.223 216.64C674.223 218.24 674.903 219.44 676.263 220.24C677.703 221.04 679.583 221.68 681.903 222.16C684.223 222.64 686.743 223.08 689.463 223.48C692.263 223.8 695.063 224.32 697.863 225.04C700.663 225.76 703.183 226.8 705.423 228.16C707.743 229.44 709.623 231.24 711.063 233.56C712.503 235.8 713.223 238.76 713.223 242.44C713.223 246.44 712.023 250 709.623 253.12C707.223 256.16 703.743 258.56 699.183 260.32C694.703 262.08 689.223 262.96 682.743 262.96ZM800.877 263.44C794.237 263.44 788.077 262.36 782.397 260.2C776.797 258.04 771.917 255 767.757 251.08C763.677 247.16 760.477 242.56 758.157 237.28C755.917 232 754.797 226.24 754.797 220C754.797 213.76 755.917 208 758.157 202.72C760.477 197.44 763.717 192.84 767.877 188.92C772.037 185 776.917 181.96 782.517 179.8C788.117 177.64 794.197 176.56 800.757 176.56C807.397 176.56 813.477 177.64 818.997 179.8C824.597 181.96 829.437 185 833.517 188.92C837.677 192.84 840.917 197.44 843.237 202.72C845.557 207.92 846.717 213.68 846.717 220C846.717 226.24 845.557 232.04 843.237 237.4C840.917 242.68 837.677 247.28 833.517 251.2C829.437 255.04 824.597 258.04 818.997 260.2C813.477 262.36 807.437 263.44 800.877 263.44ZM800.757 246.88C804.517 246.88 807.957 246.24 811.077 244.96C814.277 243.68 817.077 241.84 819.477 239.44C821.877 237.04 823.717 234.2 824.997 230.92C826.357 227.64 827.037 224 827.037 220C827.037 216 826.357 212.36 824.997 209.08C823.717 205.8 821.877 202.96 819.477 200.56C817.157 198.16 814.397 196.32 811.197 195.04C807.997 193.76 804.517 193.12 800.757 193.12C796.997 193.12 793.517 193.76 790.317 195.04C787.197 196.32 784.437 198.16 782.037 200.56C779.637 202.96 777.757 205.8 776.397 209.08C775.117 212.36 774.477 216 774.477 220C774.477 223.92 775.117 227.56 776.397 230.92C777.757 234.2 779.597 237.04 781.917 239.44C784.317 241.84 787.117 243.68 790.317 244.96C793.517 246.24 796.997 246.88 800.757 246.88ZM898.167 262.96C892.727 262.96 887.967 261.76 883.887 259.36C879.807 256.96 876.607 253.32 874.287 248.44C872.047 243.48 870.927 237.24 870.927 229.72C870.927 222.12 872.007 215.88 874.167 211C876.327 206.12 879.447 202.48 883.527 200.08C887.607 197.68 892.487 196.48 898.167 196.48C904.247 196.48 909.687 197.88 914.487 200.68C919.367 203.4 923.207 207.24 926.007 212.2C928.887 217.16 930.327 223 930.327 229.72C930.327 236.52 928.887 242.4 926.007 247.36C923.207 252.32 919.367 256.16 914.487 258.88C909.687 261.6 904.247 262.96 898.167 262.96ZM860.007 285.28V197.44H877.887V210.64L877.527 229.84L878.727 248.92V285.28H860.007ZM894.927 247.6C898.047 247.6 900.807 246.88 903.207 245.44C905.687 244 907.647 241.96 909.087 239.32C910.607 236.6 911.367 233.4 911.367 229.72C911.367 225.96 910.607 222.76 909.087 220.12C907.647 217.48 905.687 215.44 903.207 214C900.807 212.56 898.047 211.84 894.927 211.84C891.807 211.84 889.007 212.56 886.527 214C884.047 215.44 882.087 217.48 880.647 220.12C879.207 222.76 878.487 225.96 878.487 229.72C878.487 233.4 879.207 236.6 880.647 239.32C882.087 241.96 884.047 244 886.527 245.44C889.007 246.88 891.807 247.6 894.927 247.6ZM964.579 262.96C959.059 262.96 953.739 262.32 948.619 261.04C943.579 259.68 939.579 258 936.619 256L942.859 242.56C945.819 244.4 949.299 245.92 953.299 247.12C957.379 248.24 961.379 248.8 965.299 248.8C969.619 248.8 972.659 248.28 974.419 247.24C976.259 246.2 977.179 244.76 977.179 242.92C977.179 241.4 976.459 240.28 975.019 239.56C973.659 238.76 971.819 238.16 969.499 237.76C967.179 237.36 964.619 236.96 961.819 236.56C959.099 236.16 956.339 235.64 953.539 235C950.739 234.28 948.179 233.24 945.859 231.88C943.539 230.52 941.659 228.68 940.219 226.36C938.859 224.04 938.179 221.04 938.179 217.36C938.179 213.28 939.339 209.68 941.659 206.56C944.059 203.44 947.499 201 951.979 199.24C956.459 197.4 961.819 196.48 968.059 196.48C972.459 196.48 976.939 196.96 981.499 197.92C986.059 198.88 989.859 200.28 992.899 202.12L986.659 215.44C983.539 213.6 980.379 212.36 977.179 211.72C974.059 211 971.019 210.64 968.059 210.64C963.899 210.64 960.859 211.2 958.939 212.32C957.019 213.44 956.059 214.88 956.059 216.64C956.059 218.24 956.739 219.44 958.099 220.24C959.539 221.04 961.419 221.68 963.739 222.16C966.059 222.64 968.579 223.08 971.299 223.48C974.099 223.8 976.899 224.32 979.699 225.04C982.499 225.76 985.019 226.8 987.259 228.16C989.579 229.44 991.459 231.24 992.899 233.56C994.339 235.8 995.059 238.76 995.059 242.44C995.059 246.44 993.859 250 991.459 253.12C989.059 256.16 985.579 258.56 981.019 260.32C976.539 262.08 971.059 262.96 964.579 262.96Z" fill="#00AA60"/>
<path d="M294.054 153.416L296.327 157.505L321.896 144.346C323.824 143.361 324.594 140.999 323.608 139.069C323.582 139.018 323.556 138.969 323.522 138.919L292.497 83.9198C291.433 82.0268 289.035 81.3558 287.142 82.4203C287.138 82.422 287.136 82.4238 287.132 82.4255L262.424 96.4866L265.402 101.852M294.054 153.426L296.327 157.515L321.896 144.357C323.824 143.372 324.594 141.009 323.608 139.08C323.582 139.029 323.556 138.98 323.522 138.929L292.497 83.9302C291.433 82.0372 289.035 81.3661 287.142 82.4307C287.138 82.4324 287.136 82.4341 287.132 82.4359L262.424 96.497L265.402 101.862M124.874 101.862L127.853 96.497L103.144 82.4151M103.144 82.4151C101.254 81.3454 98.8544 82.0104 97.7847 83.8999C97.7829 83.9034 97.7812 83.906 97.7795 83.9094L66.7516 138.909C65.6837 140.793 66.346 143.187 68.2304 144.255C68.2805 144.283 68.3298 144.31 68.3808 144.336L93.9503 157.494L96.2229 153.406M103.144 82.4151L127.853 96.4658L124.874 101.831M132.969 105.12C130.052 104.296 127.235 103.148 124.573 101.696C122.654 105.048 99.0144 147.356 96.3682 152.057C95.8597 152.959 95.8701 153.385 96.9078 153.893C99.8861 155.367 102.771 157.006 105.76 158.522C107.167 159.258 108.211 160.536 108.655 162.06" stroke="#00AA60" stroke-width="15" stroke-linecap="round" stroke-linejoin="round"/>
<path d="M121.222 155.855C125.769 156.66 128.952 160.8 128.558 165.402C129.202 164.281 130.053 164.094 132.709 163.97C137.82 162.974 142.964 165.525 145.266 170.196C146.76 172.178 146.428 176.495 146.801 176.37C152.678 174.471 159.079 176.981 162.097 182.369C163.4 184.572 163.509 187.28 162.388 189.581C162.118 190.224 163.239 190.11 163.799 190.203C168.104 190.375 172.035 192.694 174.27 196.378C174.421 197.16 174.533 197.95 174.602 198.744C174.604 199.247 174.528 199.749 174.374 200.228C169.968 211.428 157.317 216.935 146.117 212.529C144.41 211.859 142.797 210.974 141.312 209.899C130.935 202.137 118.97 193.296 113.48 189.633C104.831 183.958 102.419 172.346 108.094 163.696C109.364 161.759 110.983 160.075 112.868 158.729C113.507 158.228 114.18 157.769 114.881 157.359C116.779 156.19 119.001 155.663 121.222 155.855Z" stroke="#00AA60" stroke-width="15" stroke-linecap="round" stroke-linejoin="round"/>
<path d="M185.062 220.152C187.241 221.781 188.57 222.756 188.705 222.829C190.074 223.566 191.351 224.479 192.741 225.164C195.804 226.965 199.378 227.695 202.901 227.239C206.898 225.464 210.134 222.327 212.033 218.388C215.013 219.194 218.156 219.169 221.123 218.315C224.641 217.142 230.732 210.013 228.678 207.004C231.652 207.633 234.686 207.942 237.727 207.927C243.245 206.585 246.631 201.025 245.29 195.505C245.127 194.837 244.898 194.188 244.607 193.565C246.308 196.18 249.982 194.53 252.659 194.821C253.085 194.821 253.531 194.821 253.967 194.821C257.997 195.604 262.041 193.541 263.773 189.819C265.16 187.504 265.376 184.67 264.354 182.171C264.354 182.171 251.767 166.263 247.948 161.842C244.844 158.564 241.036 156.031 236.813 154.433C233.752 153.016 230.913 151.159 228.387 148.923C223.053 144.274 217.75 139.583 212.904 134.395C207.861 129.03 203.347 123.166 198.656 117.48C197.909 116.587 197.359 116.255 196.238 116.919C192.675 118.973 188.646 120.08 184.533 120.136C183.164 120.141 181.803 119.934 180.496 119.524C179.491 119.121 178.34 119.386 177.611 120.188C173.804 123.863 169.263 126.691 164.287 128.49C160.444 130.022 156.221 130.328 152.198 129.362C148.149 128.512 144.562 126.18 142.142 122.824C141.322 121.589 141.312 120.749 142.692 119.711C148.171 115.695 153.723 111.741 158.87 107.32C162.918 103.927 167.729 101.566 172.89 100.44C175.733 99.7555 178.763 99.8696 181.669 99.3404C186.11 98.531 190.531 97.5866 194.91 96.4763C197.183 95.8951 199.269 94.5772 201.541 94.0272C203.435 93.6139 205.385 93.5153 207.311 93.7367C213.193 94.4977 218.812 96.6302 223.717 99.963C226.515 101.571 229.458 102.912 232.507 103.969C234.644 104.767 236.85 105.364 239.096 105.753C245.131 106.971 251.367 106.765 257.308 105.152C260.225 104.327 263.042 103.179 265.703 101.727C267.623 105.079 291.263 147.387 293.909 152.088C294.417 152.991 294.407 153.416 293.369 153.924C290.391 155.398 287.506 157.038 284.517 158.553C283.111 159.289 282.065 160.567 281.622 162.091C281.025 163.698 280.226 165.221 279.246 166.626" stroke="#00AA60" stroke-width="15" stroke-linecap="round" stroke-linejoin="round"/>
</svg>
