<svg width="1500" height="300" viewBox="0 0 1500 300" fill="none" xmlns="http://www.w3.org/2000/svg">
<path d="M437.56 194.44C430.84 194.44 424.4 193.56 418.24 191.8C412.08 189.96 407.12 187.6 403.36 184.72L409.96 170.08C413.56 172.64 417.8 174.76 422.68 176.44C427.64 178.04 432.64 178.84 437.68 178.84C441.52 178.84 444.6 178.48 446.92 177.76C449.32 176.96 451.08 175.88 452.2 174.52C453.32 173.16 453.88 171.6 453.88 169.84C453.88 167.6 453 165.84 451.24 164.56C449.48 163.2 447.16 162.12 444.28 161.32C441.4 160.44 438.2 159.64 434.68 158.92C431.24 158.12 427.76 157.16 424.24 156.04C420.8 154.92 417.64 153.48 414.76 151.72C411.88 149.96 409.52 147.64 407.68 144.76C405.92 141.88 405.04 138.2 405.04 133.72C405.04 128.92 406.32 124.56 408.88 120.64C411.52 116.64 415.44 113.48 420.64 111.16C425.92 108.76 432.52 107.56 440.44 107.56C445.72 107.56 450.92 108.2 456.04 109.48C461.16 110.68 465.68 112.52 469.6 115L463.6 129.76C459.68 127.52 455.76 125.88 451.84 124.84C447.92 123.72 444.08 123.16 440.32 123.16C436.56 123.16 433.48 123.6 431.08 124.48C428.68 125.36 426.96 126.52 425.92 127.96C424.88 129.32 424.36 130.92 424.36 132.76C424.36 134.92 425.24 136.68 427 138.04C428.76 139.32 431.08 140.36 433.96 141.16C436.84 141.96 440 142.76 443.44 143.56C446.96 144.36 450.44 145.28 453.88 146.32C457.4 147.36 460.6 148.76 463.48 150.52C466.36 152.28 468.68 154.6 470.44 157.48C472.28 160.36 473.2 164 473.2 168.4C473.2 173.12 471.88 177.44 469.24 181.36C466.6 185.28 462.64 188.44 457.36 190.84C452.16 193.24 445.56 194.44 437.56 194.44ZM524.763 193V180.4L523.563 177.64V155.08C523.563 151.08 522.323 147.96 519.843 145.72C517.443 143.48 513.723 142.36 508.683 142.36C505.243 142.36 501.843 142.92 498.483 144.04C495.203 145.08 492.403 146.52 490.083 148.36L483.363 135.28C486.883 132.8 491.123 130.88 496.083 129.52C501.043 128.16 506.083 127.48 511.203 127.48C521.043 127.48 528.683 129.8 534.123 134.44C539.563 139.08 542.283 146.32 542.283 156.16V193H524.763ZM505.083 193.96C500.043 193.96 495.723 193.12 492.123 191.44C488.523 189.68 485.763 187.32 483.843 184.36C481.923 181.4 480.963 178.08 480.963 174.4C480.963 170.56 481.883 167.2 483.723 164.32C485.643 161.44 488.643 159.2 492.723 157.6C496.803 155.92 502.123 155.08 508.683 155.08H525.843V166H510.723C506.323 166 503.283 166.72 501.603 168.16C500.003 169.6 499.203 171.4 499.203 173.56C499.203 175.96 500.123 177.88 501.963 179.32C503.883 180.68 506.483 181.36 509.763 181.36C512.883 181.36 515.683 180.64 518.163 179.2C520.643 177.68 522.443 175.48 523.563 172.6L526.443 181.24C525.083 185.4 522.603 188.56 519.003 190.72C515.403 192.88 510.763 193.96 505.083 193.96ZM559.226 193V103.96H577.946V193H559.226ZM627.36 193.96C620 193.96 613.52 192.52 607.92 189.64C602.4 186.76 598.12 182.84 595.08 177.88C592.04 172.84 590.52 167.12 590.52 160.72C590.52 154.24 592 148.52 594.96 143.56C598 138.52 602.12 134.6 607.32 131.8C612.52 128.92 618.4 127.48 624.96 127.48C631.28 127.48 636.96 128.84 642 131.56C647.12 134.2 651.16 138.04 654.12 143.08C657.08 148.04 658.56 154 658.56 160.96C658.56 161.68 658.52 162.52 658.44 163.48C658.36 164.36 658.28 165.2 658.2 166H605.76V155.08H648.36L641.16 158.32C641.16 154.96 640.48 152.04 639.12 149.56C637.76 147.08 635.88 145.16 633.48 143.8C631.08 142.36 628.28 141.64 625.08 141.64C621.88 141.64 619.04 142.36 616.56 143.8C614.16 145.16 612.28 147.12 610.92 149.68C609.56 152.16 608.88 155.12 608.88 158.56V161.44C608.88 164.96 609.64 168.08 611.16 170.8C612.76 173.44 614.96 175.48 617.76 176.92C620.64 178.28 624 178.96 627.84 178.96C631.28 178.96 634.28 178.44 636.84 177.4C639.48 176.36 641.88 174.8 644.04 172.72L654 183.52C651.04 186.88 647.32 189.48 642.84 191.32C638.36 193.08 633.2 193.96 627.36 193.96ZM692.743 193.96C687.223 193.96 681.903 193.32 676.783 192.04C671.743 190.68 667.743 189 664.783 187L671.023 173.56C673.983 175.4 677.463 176.92 681.463 178.12C685.543 179.24 689.543 179.8 693.463 179.8C697.783 179.8 700.823 179.28 702.583 178.24C704.423 177.2 705.343 175.76 705.343 173.92C705.343 172.4 704.623 171.28 703.183 170.56C701.823 169.76 699.983 169.16 697.663 168.76C695.343 168.36 692.783 167.96 689.983 167.56C687.263 167.16 684.503 166.64 681.703 166C678.903 165.28 676.343 164.24 674.023 162.88C671.703 161.52 669.823 159.68 668.383 157.36C667.023 155.04 666.343 152.04 666.343 148.36C666.343 144.28 667.503 140.68 669.823 137.56C672.223 134.44 675.663 132 680.143 130.24C684.623 128.4 689.983 127.48 696.223 127.48C700.623 127.48 705.103 127.96 709.663 128.92C714.223 129.88 718.023 131.28 721.063 133.12L714.823 146.44C711.703 144.6 708.543 143.36 705.343 142.72C702.223 142 699.183 141.64 696.223 141.64C692.063 141.64 689.023 142.2 687.103 143.32C685.183 144.44 684.223 145.88 684.223 147.64C684.223 149.24 684.903 150.44 686.263 151.24C687.703 152.04 689.583 152.68 691.903 153.16C694.223 153.64 696.743 154.08 699.463 154.48C702.263 154.8 705.063 155.32 707.863 156.04C710.663 156.76 713.183 157.8 715.423 159.16C717.743 160.44 719.623 162.24 721.063 164.56C722.503 166.8 723.223 169.76 723.223 173.44C723.223 177.44 722.023 181 719.623 184.12C717.223 187.16 713.743 189.56 709.183 191.32C704.703 193.08 699.223 193.96 692.743 193.96ZM770.077 193V109H789.517V193H770.077ZM847.372 127.48C852.492 127.48 857.052 128.52 861.052 130.6C865.132 132.6 868.332 135.72 870.652 139.96C872.972 144.12 874.132 149.48 874.132 156.04V193H855.412V158.92C855.412 153.72 854.252 149.88 851.932 147.4C849.692 144.92 846.492 143.68 842.332 143.68C839.372 143.68 836.692 144.32 834.292 145.6C831.972 146.8 830.132 148.68 828.772 151.24C827.492 153.8 826.852 157.08 826.852 161.08V193H808.132V128.44H826.012V146.32L822.652 140.92C824.972 136.6 828.292 133.28 832.612 130.96C836.932 128.64 841.852 127.48 847.372 127.48Z" fill="#81ABFF"/>
<path d="M271 147.494L263.005 79.2384C261.621 69.124 252.499 61.9043 242.338 62.8826H157.673C147.509 61.899 138.384 69.1205 137.006 79.2384L129.001 147.494" stroke="#81ABFF" stroke-width="14.9998" stroke-linecap="round" stroke-linejoin="round"/>
<path d="M270.999 239.984L313.342 176.848C314.563 174.878 313.956 172.292 311.987 171.071C311.78 170.943 311.564 170.832 311.338 170.742L231.668 125.001C222.236 118.545 211.364 114.508 200.005 113.24C188.552 114.542 177.579 118.576 168.007 125.001L88.6725 170.742C86.5183 171.596 85.4639 174.036 86.3189 176.191C86.4142 176.43 86.5314 176.661 86.6686 176.88L129.001 239.984" stroke="#81ABFF" stroke-width="14.9998" stroke-linecap="round" stroke-linejoin="round"/>
<path d="M227.67 84.6094L243.67 87.1692" stroke="#81ABFF" stroke-width="14.9998" stroke-linecap="round" stroke-linejoin="round"/>
<path d="M192.336 84.3579H208.335" stroke="#81ABFF" stroke-width="14.9998" stroke-linecap="round" stroke-linejoin="round"/>
<path d="M156.666 87.4212L172.665 84.8613" stroke="#81ABFF" stroke-width="14.9998" stroke-linecap="round" stroke-linejoin="round"/>
<path d="M193.007 62.8823V34" stroke="#81ABFF" stroke-width="14.9998" stroke-linecap="round" stroke-linejoin="round"/>
<path d="M220.001 62.8822V46.5264" stroke="#81ABFF" stroke-width="14.9998" stroke-linecap="round" stroke-linejoin="round"/>
<path d="M183.67 143.917L176.326 147.494" stroke="#81ABFF" stroke-width="14.9998" stroke-linecap="round" stroke-linejoin="round"/>
<path d="M216.613 143.917L223.957 147.494" stroke="#81ABFF" stroke-width="14.9998" stroke-linecap="round" stroke-linejoin="round"/>
<path d="M60 234.917C72.0002 226.481 88.0028 226.481 100.003 234.917C112.003 243.353 128.006 243.353 140.006 234.917C152.003 226.483 168.002 226.483 179.999 234.917C191.999 243.353 208.001 243.353 220.002 234.917C232.002 226.481 248.004 226.481 260.004 234.917C272.005 243.353 288.007 243.353 300.008 234.917C312.004 226.483 328.003 226.483 340 234.917" stroke="#81ABFF" stroke-width="14.9998" stroke-linecap="round" stroke-linejoin="round"/>
<path d="M60 259.194C72.0002 250.758 88.0028 250.758 100.003 259.194C112.003 267.63 128.006 267.63 140.006 259.194C152.003 250.76 168.002 250.76 179.999 259.194C191.999 267.63 208.001 267.63 220.002 259.194C232.002 250.758 248.004 250.758 260.004 259.194C272.005 267.63 288.007 267.63 300.008 259.194C312.004 250.76 328.003 250.76 340 259.194" stroke="#81ABFF" stroke-width="14.9998" stroke-linecap="round" stroke-linejoin="round"/>
</svg>
