<svg width="1500" height="300" viewBox="0 0 1500 300" fill="none" xmlns="http://www.w3.org/2000/svg">
<path d="M437.56 194.44C430.84 194.44 424.4 193.56 418.24 191.8C412.08 189.96 407.12 187.6 403.36 184.72L409.96 170.08C413.56 172.64 417.8 174.76 422.68 176.44C427.64 178.04 432.64 178.84 437.68 178.84C441.52 178.84 444.6 178.48 446.92 177.76C449.32 176.96 451.08 175.88 452.2 174.52C453.32 173.16 453.88 171.6 453.88 169.84C453.88 167.6 453 165.84 451.24 164.56C449.48 163.2 447.16 162.12 444.28 161.32C441.4 160.44 438.2 159.64 434.68 158.92C431.24 158.12 427.76 157.16 424.24 156.04C420.8 154.92 417.64 153.48 414.76 151.72C411.88 149.96 409.52 147.64 407.68 144.76C405.92 141.88 405.04 138.2 405.04 133.72C405.04 128.92 406.32 124.56 408.88 120.64C411.52 116.64 415.44 113.48 420.64 111.16C425.92 108.76 432.52 107.56 440.44 107.56C445.72 107.56 450.92 108.2 456.04 109.48C461.16 110.68 465.68 112.52 469.6 115L463.6 129.76C459.68 127.52 455.76 125.88 451.84 124.84C447.92 123.72 444.08 123.16 440.32 123.16C436.56 123.16 433.48 123.6 431.08 124.48C428.68 125.36 426.96 126.52 425.92 127.96C424.88 129.32 424.36 130.92 424.36 132.76C424.36 134.92 425.24 136.68 427 138.04C428.76 139.32 431.08 140.36 433.96 141.16C436.84 141.96 440 142.76 443.44 143.56C446.96 144.36 450.44 145.28 453.88 146.32C457.4 147.36 460.6 148.76 463.48 150.52C466.36 152.28 468.68 154.6 470.44 157.48C472.28 160.36 473.2 164 473.2 168.4C473.2 173.12 471.88 177.44 469.24 181.36C466.6 185.28 462.64 188.44 457.36 190.84C452.16 193.24 445.56 194.44 437.56 194.44ZM511.563 193.96C503.963 193.96 498.043 192.04 493.803 188.2C489.563 184.28 487.443 178.48 487.443 170.8V114.16H506.163V170.56C506.163 173.28 506.883 175.4 508.323 176.92C509.763 178.36 511.723 179.08 514.203 179.08C517.163 179.08 519.683 178.28 521.763 176.68L526.803 189.88C524.883 191.24 522.563 192.28 519.843 193C517.203 193.64 514.443 193.96 511.563 193.96ZM477.483 144.28V129.88H522.243V144.28H477.483ZM537.312 193V128.44H555.192V146.68L552.672 141.4C554.592 136.84 557.672 133.4 561.912 131.08C566.152 128.68 571.312 127.48 577.392 127.48V144.76C576.592 144.68 575.872 144.64 575.232 144.64C574.592 144.56 573.912 144.52 573.192 144.52C568.072 144.52 563.912 146 560.712 148.96C557.592 151.84 556.032 156.36 556.032 162.52V193H537.312ZM623.904 193V180.4L622.704 177.64V155.08C622.704 151.08 621.464 147.96 618.984 145.72C616.584 143.48 612.864 142.36 607.824 142.36C604.384 142.36 600.984 142.92 597.624 144.04C594.344 145.08 591.544 146.52 589.224 148.36L582.504 135.28C586.024 132.8 590.264 130.88 595.224 129.52C600.184 128.16 605.224 127.48 610.344 127.48C620.184 127.48 627.824 129.8 633.264 134.44C638.704 139.08 641.424 146.32 641.424 156.16V193H623.904ZM604.224 193.96C599.184 193.96 594.864 193.12 591.264 191.44C587.664 189.68 584.904 187.32 582.984 184.36C581.064 181.4 580.104 178.08 580.104 174.4C580.104 170.56 581.024 167.2 582.864 164.32C584.784 161.44 587.784 159.2 591.864 157.6C595.944 155.92 601.264 155.08 607.824 155.08H624.984V166H609.864C605.464 166 602.424 166.72 600.744 168.16C599.144 169.6 598.344 171.4 598.344 173.56C598.344 175.96 599.264 177.88 601.104 179.32C603.024 180.68 605.624 181.36 608.904 181.36C612.024 181.36 614.824 180.64 617.304 179.2C619.784 177.68 621.584 175.48 622.704 172.6L625.584 181.24C624.224 185.4 621.744 188.56 618.144 190.72C614.544 192.88 609.904 193.96 604.224 193.96ZM684.767 193.96C677.167 193.96 671.247 192.04 667.007 188.2C662.767 184.28 660.647 178.48 660.647 170.8V114.16H679.367V170.56C679.367 173.28 680.087 175.4 681.527 176.92C682.967 178.36 684.927 179.08 687.407 179.08C690.367 179.08 692.887 178.28 694.967 176.68L700.007 189.88C698.087 191.24 695.767 192.28 693.047 193C690.407 193.64 687.647 193.96 684.767 193.96ZM650.687 144.28V129.88H695.447V144.28H650.687ZM740.563 193.96C733.203 193.96 726.723 192.52 721.123 189.64C715.603 186.76 711.323 182.84 708.283 177.88C705.243 172.84 703.723 167.12 703.723 160.72C703.723 154.24 705.203 148.52 708.163 143.56C711.203 138.52 715.323 134.6 720.523 131.8C725.723 128.92 731.603 127.48 738.163 127.48C744.483 127.48 750.163 128.84 755.203 131.56C760.323 134.2 764.363 138.04 767.323 143.08C770.283 148.04 771.763 154 771.763 160.96C771.763 161.68 771.723 162.52 771.643 163.48C771.563 164.36 771.483 165.2 771.403 166H718.963V155.08H761.563L754.363 158.32C754.363 154.96 753.683 152.04 752.323 149.56C750.963 147.08 749.083 145.16 746.683 143.8C744.283 142.36 741.483 141.64 738.283 141.64C735.083 141.64 732.243 142.36 729.763 143.8C727.363 145.16 725.483 147.12 724.123 149.68C722.763 152.16 722.083 155.12 722.083 158.56V161.44C722.083 164.96 722.843 168.08 724.363 170.8C725.963 173.44 728.163 175.48 730.963 176.92C733.843 178.28 737.203 178.96 741.043 178.96C744.483 178.96 747.483 178.44 750.043 177.4C752.683 176.36 755.083 174.8 757.243 172.72L767.203 183.52C764.243 186.88 760.523 189.48 756.043 191.32C751.563 193.08 746.403 193.96 740.563 193.96ZM814.586 217.24C808.506 217.24 802.626 216.48 796.946 214.96C791.346 213.52 786.666 211.32 782.906 208.36L790.346 194.92C793.066 197.16 796.506 198.92 800.666 200.2C804.906 201.56 809.066 202.24 813.146 202.24C819.786 202.24 824.586 200.76 827.546 197.8C830.586 194.84 832.106 190.44 832.106 184.6V174.88L833.306 158.68L833.066 142.36V128.44H850.826V182.2C850.826 194.2 847.706 203.04 841.466 208.72C835.226 214.4 826.266 217.24 814.586 217.24ZM811.706 189.88C805.706 189.88 800.266 188.6 795.386 186.04C790.586 183.4 786.706 179.76 783.746 175.12C780.866 170.4 779.426 164.92 779.426 158.68C779.426 152.36 780.866 146.88 783.746 142.24C786.706 137.52 790.586 133.88 795.386 131.32C800.266 128.76 805.706 127.48 811.706 127.48C817.146 127.48 821.946 128.6 826.106 130.84C830.266 133 833.506 136.4 835.826 141.04C838.146 145.6 839.306 151.48 839.306 158.68C839.306 165.8 838.146 171.68 835.826 176.32C833.506 180.88 830.266 184.28 826.106 186.52C821.946 188.76 817.146 189.88 811.706 189.88ZM815.426 174.52C818.706 174.52 821.626 173.88 824.186 172.6C826.746 171.24 828.746 169.36 830.186 166.96C831.626 164.56 832.346 161.8 832.346 158.68C832.346 155.48 831.626 152.72 830.186 150.4C828.746 148 826.746 146.16 824.186 144.88C821.626 143.52 818.706 142.84 815.426 142.84C812.146 142.84 809.226 143.52 806.666 144.88C804.106 146.16 802.066 148 800.546 150.4C799.106 152.72 798.386 155.48 798.386 158.68C798.386 161.8 799.106 164.56 800.546 166.96C802.066 169.36 804.106 171.24 806.666 172.6C809.226 173.88 812.146 174.52 815.426 174.52ZM868.249 193V128.44H886.969V193H868.249ZM877.609 119.44C874.169 119.44 871.369 118.44 869.209 116.44C867.049 114.44 865.969 111.96 865.969 109C865.969 106.04 867.049 103.56 869.209 101.56C871.369 99.56 874.169 98.56 877.609 98.56C881.049 98.56 883.849 99.52 886.009 101.44C888.169 103.28 889.249 105.68 889.249 108.64C889.249 111.76 888.169 114.36 886.009 116.44C883.929 118.44 881.129 119.44 877.609 119.44ZM935.543 193.96C928.583 193.96 922.383 192.56 916.943 189.76C911.503 186.88 907.223 182.92 904.103 177.88C901.063 172.84 899.543 167.12 899.543 160.72C899.543 154.24 901.063 148.52 904.103 143.56C907.223 138.52 911.503 134.6 916.943 131.8C922.383 128.92 928.583 127.48 935.543 127.48C942.343 127.48 948.263 128.92 953.303 131.8C958.343 134.6 962.063 138.64 964.463 143.92L949.943 151.72C948.263 148.68 946.143 146.44 943.583 145C941.103 143.56 938.383 142.84 935.423 142.84C932.223 142.84 929.343 143.56 926.783 145C924.223 146.44 922.183 148.48 920.663 151.12C919.223 153.76 918.503 156.96 918.503 160.72C918.503 164.48 919.223 167.68 920.663 170.32C922.183 172.96 924.223 175 926.783 176.44C929.343 177.88 932.223 178.6 935.423 178.6C938.383 178.6 941.103 177.92 943.583 176.56C946.143 175.12 948.263 172.84 949.943 169.72L964.463 177.64C962.063 182.84 958.343 186.88 953.303 189.76C948.263 192.56 942.343 193.96 935.543 193.96Z" fill="#8F7FA6"/>
<path d="M329.477 219.824C326.233 201.076 304.171 189.828 263.9 186.396C261.849 186.22 258.512 186.13 253.99 186.13C251.68 186.13 249.014 186.16 246.18 186.205C251.504 185.387 255.7 184.686 258.077 184.255C272.72 181.593 293.113 170.513 301.895 156.575C305.923 150.757 307.264 143.49 305.577 136.616C299.578 114.651 266.514 111.37 247.331 111.37H242.689C253.383 107.654 263.893 100.808 265.756 86.5066C267.058 76.5143 263.458 61.2492 238.932 45.2609C220.596 33.3072 187.937 30.0525 173.223 30H173.066C152.747 30 132.488 45.1109 126.908 55.9431C118.573 72.1306 126.293 91.9844 138.229 101.097C143.641 105.047 149.735 107.97 156.204 109.721C123.721 109.945 108.708 119.934 101.834 128.341C96.3405 134.796 94.1024 143.411 95.7606 151.723C102 182.062 128.141 187.634 149.463 191.901C144.115 192.429 138.824 192.996 133.668 193.603C103.436 197.162 83.6718 204.983 74.9236 216.851C70.7832 222.29 69.1475 229.232 70.4241 235.947C74.4778 257.778 97.118 268.843 137.725 268.843C141.397 268.843 144.648 268.763 147.239 268.697C148.847 268.655 150.186 268.622 151.191 268.622C151.546 268.622 151.836 268.622 152.049 268.622C156.549 268.997 181.855 269.953 208.26 269.953C238.384 269.953 259.888 268.783 272.171 266.476C287.841 263.571 335.499 254.627 329.477 219.824ZM133.575 59.3861C137.598 51.5678 154.772 37.5067 173.069 37.5067H173.198C189.216 37.5625 219.228 41.3763 234.837 51.5494C250.446 61.7217 259.888 73.4805 258.32 85.5392C257.072 95.1124 250.649 102.558 231.237 106.751C222.283 108.468 213.186 109.333 204.068 109.334C194.135 109.335 184.231 108.309 174.51 106.27C159.886 103.59 150.186 100.83 142.75 95.1532C132.889 87.6048 127.421 71.2982 133.575 59.3861ZM103.102 150.224C100.008 135.165 114.437 117.228 157.269 117.228C159.019 117.228 160.82 117.257 162.675 117.318C209.707 118.884 234.69 118.884 247.331 118.884C263.007 118.884 293.642 121.366 298.345 138.608C303.046 155.849 273.972 173.757 256.724 176.891C242.82 179.418 198.346 186.021 169.313 186.021C163.411 186.138 157.511 185.705 151.689 184.728C128.186 180.01 108.156 174.795 103.102 150.224ZM270.811 259.139C256.979 261.733 231.852 262.483 208.278 262.483C181.409 262.483 156.534 261.508 152.702 261.178C152.327 261.148 151.836 261.137 151.202 261.137C148.578 261.137 143.725 261.358 137.737 261.358C116.938 261.358 82.277 258.67 77.8075 234.597C74.7619 218.178 94.7474 205.744 134.546 201.061C178.488 195.89 231.417 193.629 253.994 193.629C258.257 193.629 261.433 193.708 263.267 193.865C274.812 194.851 318.191 198.552 322.09 221.103C325.99 243.653 300.391 253.586 270.811 259.139Z" fill="#8F7FA6" stroke="#8F7FA6" stroke-width="4.5"/>
</svg>
