<svg width="1500" height="300" viewBox="0 0 1500 300" fill="none" xmlns="http://www.w3.org/2000/svg">
<path d="M437.646 194.44C430.926 194.44 424.486 193.56 418.326 191.8C412.166 189.96 407.206 187.6 403.446 184.72L410.046 170.08C413.646 172.64 417.886 174.76 422.766 176.44C427.726 178.04 432.726 178.84 437.766 178.84C441.606 178.84 444.686 178.48 447.006 177.76C449.406 176.96 451.166 175.88 452.286 174.52C453.406 173.16 453.966 171.6 453.966 169.84C453.966 167.6 453.086 165.84 451.326 164.56C449.566 163.2 447.246 162.12 444.366 161.32C441.486 160.44 438.286 159.64 434.766 158.92C431.326 158.12 427.846 157.16 424.326 156.04C420.886 154.92 417.726 153.48 414.846 151.72C411.966 149.96 409.606 147.64 407.766 144.76C406.006 141.88 405.126 138.2 405.126 133.72C405.126 128.92 406.406 124.56 408.966 120.64C411.606 116.64 415.526 113.48 420.726 111.16C426.006 108.76 432.606 107.56 440.526 107.56C445.806 107.56 451.006 108.2 456.126 109.48C461.246 110.68 465.766 112.52 469.686 115L463.686 129.76C459.766 127.52 455.846 125.88 451.926 124.84C448.006 123.72 444.166 123.16 440.406 123.16C436.646 123.16 433.566 123.6 431.166 124.48C428.766 125.36 427.046 126.52 426.006 127.96C424.966 129.32 424.446 130.92 424.446 132.76C424.446 134.92 425.326 136.68 427.086 138.04C428.846 139.32 431.166 140.36 434.046 141.16C436.926 141.96 440.086 142.76 443.526 143.56C447.046 144.36 450.526 145.28 453.966 146.32C457.486 147.36 460.686 148.76 463.566 150.52C466.446 152.28 468.766 154.6 470.526 157.48C472.366 160.36 473.286 164 473.286 168.4C473.286 173.12 471.966 177.44 469.326 181.36C466.686 185.28 462.726 188.44 457.446 190.84C452.246 193.24 445.646 194.44 437.646 194.44ZM512.489 193.96C507.129 193.96 502.329 192.92 498.089 190.84C493.929 188.76 490.689 185.6 488.369 181.36C486.049 177.04 484.889 171.56 484.889 164.92V128.44H503.609V162.16C503.609 167.52 504.729 171.48 506.969 174.04C509.289 176.52 512.529 177.76 516.689 177.76C519.569 177.76 522.129 177.16 524.369 175.96C526.609 174.68 528.369 172.76 529.649 170.2C530.929 167.56 531.569 164.28 531.569 160.36V128.44H550.289V193H532.529V175.24L535.769 180.4C533.609 184.88 530.409 188.28 526.169 190.6C522.009 192.84 517.449 193.96 512.489 193.96ZM605.792 193.96C600.352 193.96 595.592 192.76 591.512 190.36C587.432 187.96 584.232 184.32 581.912 179.44C579.672 174.48 578.552 168.24 578.552 160.72C578.552 153.12 579.632 146.88 581.792 142C583.952 137.12 587.072 133.48 591.152 131.08C595.232 128.68 600.112 127.48 605.792 127.48C611.872 127.48 617.312 128.88 622.112 131.68C626.992 134.4 630.832 138.24 633.632 143.2C636.512 148.16 637.952 154 637.952 160.72C637.952 167.52 636.512 173.4 633.632 178.36C630.832 183.32 626.992 187.16 622.112 189.88C617.312 192.6 611.872 193.96 605.792 193.96ZM567.632 216.28V128.44H585.512V141.64L585.152 160.84L586.352 179.92V216.28H567.632ZM602.552 178.6C605.672 178.6 608.432 177.88 610.832 176.44C613.312 175 615.272 172.96 616.712 170.32C618.232 167.6 618.992 164.4 618.992 160.72C618.992 156.96 618.232 153.76 616.712 151.12C615.272 148.48 613.312 146.44 610.832 145C608.432 143.56 605.672 142.84 602.552 142.84C599.432 142.84 596.632 143.56 594.152 145C591.672 146.44 589.712 148.48 588.272 151.12C586.832 153.76 586.112 156.96 586.112 160.72C586.112 164.4 586.832 167.6 588.272 170.32C589.712 172.96 591.672 175 594.152 176.44C596.632 177.88 599.432 178.6 602.552 178.6ZM688.644 193.96C683.204 193.96 678.444 192.76 674.364 190.36C670.284 187.96 667.084 184.32 664.764 179.44C662.524 174.48 661.404 168.24 661.404 160.72C661.404 153.12 662.484 146.88 664.644 142C666.804 137.12 669.924 133.48 674.004 131.08C678.084 128.68 682.964 127.48 688.644 127.48C694.724 127.48 700.164 128.88 704.964 131.68C709.844 134.4 713.684 138.24 716.484 143.2C719.364 148.16 720.804 154 720.804 160.72C720.804 167.52 719.364 173.4 716.484 178.36C713.684 183.32 709.844 187.16 704.964 189.88C700.164 192.6 694.724 193.96 688.644 193.96ZM650.484 216.28V128.44H668.364V141.64L668.004 160.84L669.204 179.92V216.28H650.484ZM685.404 178.6C688.524 178.6 691.284 177.88 693.684 176.44C696.164 175 698.124 172.96 699.564 170.32C701.084 167.6 701.844 164.4 701.844 160.72C701.844 156.96 701.084 153.76 699.564 151.12C698.124 148.48 696.164 146.44 693.684 145C691.284 143.56 688.524 142.84 685.404 142.84C682.284 142.84 679.484 143.56 677.004 145C674.524 146.44 672.564 148.48 671.124 151.12C669.684 153.76 668.964 156.96 668.964 160.72C668.964 164.4 669.684 167.6 671.124 170.32C672.564 172.96 674.524 175 677.004 176.44C679.484 177.88 682.284 178.6 685.404 178.6ZM764.055 193.96C757.175 193.96 751.055 192.52 745.695 189.64C740.415 186.76 736.215 182.84 733.095 177.88C730.055 172.84 728.535 167.12 728.535 160.72C728.535 154.24 730.055 148.52 733.095 143.56C736.215 138.52 740.415 134.6 745.695 131.8C751.055 128.92 757.175 127.48 764.055 127.48C770.855 127.48 776.935 128.92 782.295 131.8C787.655 134.6 791.855 138.48 794.895 143.44C797.935 148.4 799.455 154.16 799.455 160.72C799.455 167.12 797.935 172.84 794.895 177.88C791.855 182.84 787.655 186.76 782.295 189.64C776.935 192.52 770.855 193.96 764.055 193.96ZM764.055 178.6C767.175 178.6 769.975 177.88 772.455 176.44C774.935 175 776.895 172.96 778.335 170.32C779.775 167.6 780.495 164.4 780.495 160.72C780.495 156.96 779.775 153.76 778.335 151.12C776.895 148.48 774.935 146.44 772.455 145C769.975 143.56 767.175 142.84 764.055 142.84C760.935 142.84 758.135 143.56 755.655 145C753.175 146.44 751.175 148.48 749.655 151.12C748.215 153.76 747.495 156.96 747.495 160.72C747.495 164.4 748.215 167.6 749.655 170.32C751.175 172.96 753.175 175 755.655 176.44C758.135 177.88 760.935 178.6 764.055 178.6ZM811.968 193V128.44H829.848V146.68L827.328 141.4C829.248 136.84 832.328 133.4 836.568 131.08C840.808 128.68 845.968 127.48 852.048 127.48V144.76C851.248 144.68 850.528 144.64 849.888 144.64C849.248 144.56 848.568 144.52 847.848 144.52C842.728 144.52 838.568 146 835.368 148.96C832.248 151.84 830.688 156.36 830.688 162.52V193H811.968ZM891.806 193.96C884.206 193.96 878.286 192.04 874.046 188.2C869.806 184.28 867.686 178.48 867.686 170.8V114.16H886.406V170.56C886.406 173.28 887.126 175.4 888.566 176.92C890.006 178.36 891.966 179.08 894.446 179.08C897.406 179.08 899.926 178.28 902.006 176.68L907.046 189.88C905.126 191.24 902.806 192.28 900.086 193C897.446 193.64 894.686 193.96 891.806 193.96ZM857.726 144.28V129.88H902.486V144.28H857.726Z" fill="#8888FF"/>
<path d="M123.85 220.981L107.209 221.027C86.6592 221.027 70 204.368 70 183.818C70 163.268 86.6592 146.609 107.209 146.609H109.066C107.759 143.767 107.123 140.663 107.209 137.536C107.101 122.351 119.324 109.953 134.509 109.845C134.632 109.845 134.757 109.845 134.882 109.845C138.624 109.895 142.323 110.664 145.774 112.111C154.63 72.1393 194.213 46.9145 234.185 55.7711C262.319 62.0043 284.291 83.9775 290.525 112.111C313.495 119.811 329.244 140.995 330 165.209C330.02 196.016 305.063 221.007 274.256 221.027C274.234 221.027 274.213 221.027 274.191 221.027" stroke="#8888FF" stroke-width="13" stroke-linecap="round" stroke-linejoin="round"/>
<path d="M245.646 153.805C210.914 134.836 168.054 139.421 138.122 165.311C135.408 167.597 135.062 171.652 137.348 174.366C137.458 174.496 137.575 174.624 137.695 174.746L147.91 184.96C150.182 187.285 153.852 187.49 156.369 185.434C181.233 164.377 217.56 163.987 242.869 184.505C245.632 186.74 246.06 190.793 243.825 193.555C243.688 193.725 243.542 193.887 243.389 194.042L233.174 204.257C230.938 206.498 227.388 206.735 224.873 204.814C210.852 194.119 191.537 193.684 177.05 203.737C174.235 205.795 173.622 209.746 175.681 212.561C175.889 212.845 176.12 213.112 176.372 213.357L191.127 228.112" stroke="#8888FF" stroke-width="13" stroke-linecap="round" stroke-linejoin="round"/>
<path d="M266.976 159.619C266.976 165.952 261.841 171.087 255.507 171.087C249.173 171.087 244.039 165.952 244.039 159.619C244.039 153.285 249.173 148.15 255.507 148.15C261.841 148.15 266.976 153.285 266.976 159.619Z" stroke="#8888FF" stroke-width="13" stroke-linecap="round" stroke-linejoin="round"/>
<path d="M211.64 235.123C211.64 241.457 206.505 246.592 200.172 246.592C193.838 246.592 188.703 241.457 188.703 235.123C188.703 228.789 193.838 223.655 200.172 223.655C206.505 223.655 211.64 228.789 211.64 235.123Z" stroke="#8888FF" stroke-width="13" stroke-linecap="round" stroke-linejoin="round"/>
</svg>
