<svg width="1500" height="300" viewBox="0 0 1500 300" fill="none" xmlns="http://www.w3.org/2000/svg">
<path d="M437.806 194.44C431.086 194.44 424.646 193.56 418.486 191.8C412.326 189.96 407.366 187.6 403.606 184.72L410.206 170.08C413.806 172.64 418.046 174.76 422.926 176.44C427.886 178.04 432.886 178.84 437.926 178.84C441.766 178.84 444.846 178.48 447.166 177.76C449.566 176.96 451.326 175.88 452.446 174.52C453.566 173.16 454.126 171.6 454.126 169.84C454.126 167.6 453.246 165.84 451.486 164.56C449.726 163.2 447.406 162.12 444.526 161.32C441.646 160.44 438.446 159.64 434.926 158.92C431.486 158.12 428.006 157.16 424.486 156.04C421.046 154.92 417.886 153.48 415.006 151.72C412.126 149.96 409.766 147.64 407.926 144.76C406.166 141.88 405.286 138.2 405.286 133.72C405.286 128.92 406.566 124.56 409.126 120.64C411.766 116.64 415.686 113.48 420.886 111.16C426.166 108.76 432.766 107.56 440.686 107.56C445.966 107.56 451.166 108.2 456.286 109.48C461.406 110.68 465.926 112.52 469.846 115L463.846 129.76C459.926 127.52 456.006 125.88 452.086 124.84C448.166 123.72 444.326 123.16 440.566 123.16C436.806 123.16 433.726 123.6 431.326 124.48C428.926 125.36 427.206 126.52 426.166 127.96C425.126 129.32 424.606 130.92 424.606 132.76C424.606 134.92 425.486 136.68 427.246 138.04C429.006 139.32 431.326 140.36 434.206 141.16C437.086 141.96 440.246 142.76 443.686 143.56C447.206 144.36 450.686 145.28 454.126 146.32C457.646 147.36 460.846 148.76 463.726 150.52C466.606 152.28 468.926 154.6 470.686 157.48C472.526 160.36 473.446 164 473.446 168.4C473.446 173.12 472.126 177.44 469.486 181.36C466.846 185.28 462.886 188.44 457.606 190.84C452.406 193.24 445.806 194.44 437.806 194.44ZM512.65 193.96C507.29 193.96 502.49 192.92 498.25 190.84C494.09 188.76 490.85 185.6 488.53 181.36C486.21 177.04 485.05 171.56 485.05 164.92V128.44H503.77V162.16C503.77 167.52 504.89 171.48 507.13 174.04C509.45 176.52 512.69 177.76 516.85 177.76C519.73 177.76 522.29 177.16 524.53 175.96C526.77 174.68 528.53 172.76 529.81 170.2C531.09 167.56 531.73 164.28 531.73 160.36V128.44H550.45V193H532.69V175.24L535.93 180.4C533.77 184.88 530.57 188.28 526.33 190.6C522.17 192.84 517.61 193.96 512.65 193.96ZM605.952 193.96C600.512 193.96 595.752 192.76 591.672 190.36C587.592 187.96 584.392 184.32 582.072 179.44C579.832 174.48 578.712 168.24 578.712 160.72C578.712 153.12 579.792 146.88 581.952 142C584.112 137.12 587.232 133.48 591.312 131.08C595.392 128.68 600.272 127.48 605.952 127.48C612.032 127.48 617.472 128.88 622.272 131.68C627.152 134.4 630.992 138.24 633.792 143.2C636.672 148.16 638.112 154 638.112 160.72C638.112 167.52 636.672 173.4 633.792 178.36C630.992 183.32 627.152 187.16 622.272 189.88C617.472 192.6 612.032 193.96 605.952 193.96ZM567.792 216.28V128.44H585.672V141.64L585.312 160.84L586.512 179.92V216.28H567.792ZM602.712 178.6C605.832 178.6 608.592 177.88 610.992 176.44C613.472 175 615.432 172.96 616.872 170.32C618.392 167.6 619.152 164.4 619.152 160.72C619.152 156.96 618.392 153.76 616.872 151.12C615.432 148.48 613.472 146.44 610.992 145C608.592 143.56 605.832 142.84 602.712 142.84C599.592 142.84 596.792 143.56 594.312 145C591.832 146.44 589.872 148.48 588.432 151.12C586.992 153.76 586.272 156.96 586.272 160.72C586.272 164.4 586.992 167.6 588.432 170.32C589.872 172.96 591.832 175 594.312 176.44C596.792 177.88 599.592 178.6 602.712 178.6ZM688.804 193.96C683.364 193.96 678.604 192.76 674.524 190.36C670.444 187.96 667.244 184.32 664.924 179.44C662.684 174.48 661.564 168.24 661.564 160.72C661.564 153.12 662.644 146.88 664.804 142C666.964 137.12 670.084 133.48 674.164 131.08C678.244 128.68 683.124 127.48 688.804 127.48C694.884 127.48 700.324 128.88 705.124 131.68C710.004 134.4 713.844 138.24 716.644 143.2C719.524 148.16 720.964 154 720.964 160.72C720.964 167.52 719.524 173.4 716.644 178.36C713.844 183.32 710.004 187.16 705.124 189.88C700.324 192.6 694.884 193.96 688.804 193.96ZM650.644 216.28V128.44H668.524V141.64L668.164 160.84L669.364 179.92V216.28H650.644ZM685.564 178.6C688.684 178.6 691.444 177.88 693.844 176.44C696.324 175 698.284 172.96 699.724 170.32C701.244 167.6 702.004 164.4 702.004 160.72C702.004 156.96 701.244 153.76 699.724 151.12C698.284 148.48 696.324 146.44 693.844 145C691.444 143.56 688.684 142.84 685.564 142.84C682.444 142.84 679.644 143.56 677.164 145C674.684 146.44 672.724 148.48 671.284 151.12C669.844 153.76 669.124 156.96 669.124 160.72C669.124 164.4 669.844 167.6 671.284 170.32C672.724 172.96 674.684 175 677.164 176.44C679.644 177.88 682.444 178.6 685.564 178.6ZM733.495 193V103.96H752.215V193H733.495ZM777.749 217.24C774.389 217.24 771.069 216.72 767.789 215.68C764.509 214.64 761.829 213.2 759.749 211.36L766.589 198.04C768.029 199.32 769.669 200.32 771.509 201.04C773.429 201.76 775.309 202.12 777.149 202.12C779.789 202.12 781.869 201.48 783.389 200.2C784.989 199 786.429 196.96 787.709 194.08L791.069 186.16L792.509 184.12L815.669 128.44H833.669L804.509 196.96C802.429 202.16 800.029 206.24 797.309 209.2C794.669 212.16 791.709 214.24 788.429 215.44C785.229 216.64 781.669 217.24 777.749 217.24ZM788.789 195.52L759.989 128.44H779.309L801.629 182.44L788.789 195.52ZM916.812 194.44C910.332 194.44 904.292 193.4 898.692 191.32C893.172 189.16 888.372 186.12 884.292 182.2C880.212 178.28 877.012 173.68 874.692 168.4C872.452 163.12 871.332 157.32 871.332 151C871.332 144.68 872.452 138.88 874.692 133.6C877.012 128.32 880.212 123.72 884.292 119.8C888.452 115.88 893.292 112.88 898.812 110.8C904.332 108.64 910.372 107.56 916.932 107.56C924.212 107.56 930.772 108.84 936.612 111.4C942.532 113.88 947.492 117.56 951.492 122.44L939.012 133.96C936.132 130.68 932.932 128.24 929.412 126.64C925.892 124.96 922.052 124.12 917.892 124.12C913.972 124.12 910.372 124.76 907.092 126.04C903.812 127.32 900.972 129.16 898.572 131.56C896.172 133.96 894.292 136.8 892.932 140.08C891.652 143.36 891.012 147 891.012 151C891.012 155 891.652 158.64 892.932 161.92C894.292 165.2 896.172 168.04 898.572 170.44C900.972 172.84 903.812 174.68 907.092 175.96C910.372 177.24 913.972 177.88 917.892 177.88C922.052 177.88 925.892 177.08 929.412 175.48C932.932 173.8 936.132 171.28 939.012 167.92L951.492 179.44C947.492 184.32 942.532 188.04 936.612 190.6C930.772 193.16 924.172 194.44 916.812 194.44ZM1002.54 127.48C1007.66 127.48 1012.22 128.52 1016.22 130.6C1020.3 132.6 1023.5 135.72 1025.82 139.96C1028.14 144.12 1029.3 149.48 1029.3 156.04V193H1010.58V158.92C1010.58 153.72 1009.42 149.88 1007.1 147.4C1004.86 144.92 1001.66 143.68 997.5 143.68C994.54 143.68 991.86 144.32 989.46 145.6C987.14 146.8 985.3 148.68 983.94 151.24C982.66 153.8 982.02 157.08 982.02 161.08V193H963.3V103.96H982.02V146.32L977.82 140.92C980.14 136.6 983.46 133.28 987.78 130.96C992.1 128.64 997.02 127.48 1002.54 127.48ZM1085.87 193V180.4L1084.67 177.64V155.08C1084.67 151.08 1083.43 147.96 1080.95 145.72C1078.55 143.48 1074.83 142.36 1069.79 142.36C1066.35 142.36 1062.95 142.92 1059.59 144.04C1056.31 145.08 1053.51 146.52 1051.19 148.36L1044.47 135.28C1047.99 132.8 1052.23 130.88 1057.19 129.52C1062.15 128.16 1067.19 127.48 1072.31 127.48C1082.15 127.48 1089.79 129.8 1095.23 134.44C1100.67 139.08 1103.39 146.32 1103.39 156.16V193H1085.87ZM1066.19 193.96C1061.15 193.96 1056.83 193.12 1053.23 191.44C1049.63 189.68 1046.87 187.32 1044.95 184.36C1043.03 181.4 1042.07 178.08 1042.07 174.4C1042.07 170.56 1042.99 167.2 1044.83 164.32C1046.75 161.44 1049.75 159.2 1053.83 157.6C1057.91 155.92 1063.23 155.08 1069.79 155.08H1086.95V166H1071.83C1067.43 166 1064.39 166.72 1062.71 168.16C1061.11 169.6 1060.31 171.4 1060.31 173.56C1060.31 175.96 1061.23 177.88 1063.07 179.32C1064.99 180.68 1067.59 181.36 1070.87 181.36C1073.99 181.36 1076.79 180.64 1079.27 179.2C1081.75 177.68 1083.55 175.48 1084.67 172.6L1087.55 181.24C1086.19 185.4 1083.71 188.56 1080.11 190.72C1076.51 192.88 1071.87 193.96 1066.19 193.96ZM1120.33 193V128.44H1139.05V193H1120.33ZM1129.69 119.44C1126.25 119.44 1123.45 118.44 1121.29 116.44C1119.13 114.44 1118.05 111.96 1118.05 109C1118.05 106.04 1119.13 103.56 1121.29 101.56C1123.45 99.56 1126.25 98.56 1129.69 98.56C1133.13 98.56 1135.93 99.52 1138.09 101.44C1140.25 103.28 1141.33 105.68 1141.33 108.64C1141.33 111.76 1140.25 114.36 1138.09 116.44C1136.01 118.44 1133.21 119.44 1129.69 119.44ZM1195.67 127.48C1200.79 127.48 1205.35 128.52 1209.35 130.6C1213.43 132.6 1216.63 135.72 1218.95 139.96C1221.27 144.12 1222.43 149.48 1222.43 156.04V193H1203.71V158.92C1203.71 153.72 1202.55 149.88 1200.23 147.4C1197.99 144.92 1194.79 143.68 1190.63 143.68C1187.67 143.68 1184.99 144.32 1182.59 145.6C1180.27 146.8 1178.43 148.68 1177.07 151.24C1175.79 153.8 1175.15 157.08 1175.15 161.08V193H1156.43V128.44H1174.31V146.32L1170.95 140.92C1173.27 136.6 1176.59 133.28 1180.91 130.96C1185.23 128.64 1190.15 127.48 1195.67 127.48Z" fill="#00BBC5"/>
<path d="M74.9199 149.964V91.2862L150.816 61" stroke="#00BBC5" stroke-width="14" stroke-linecap="round" stroke-linejoin="round"/>
<path d="M297.924 178.463V104.345L150.807 61.009V162.562" stroke="#00BBC5" stroke-width="14" stroke-linecap="round" stroke-linejoin="round"/>
<path d="M109.61 77.4426V164.385" stroke="#00BBC5" stroke-width="14" stroke-linecap="round" stroke-linejoin="round"/>
<path d="M173.648 83.9944V155.496" stroke="#00BBC5" stroke-width="14" stroke-linecap="round" stroke-linejoin="round"/>
<path d="M200.396 91.2861V143.664" stroke="#00BBC5" stroke-width="14" stroke-linecap="round" stroke-linejoin="round"/>
<path d="M226.143 100.139V142.284" stroke="#00BBC5" stroke-width="14" stroke-linecap="round" stroke-linejoin="round"/>
<path d="M250.753 108.83V142.284" stroke="#00BBC5" stroke-width="14" stroke-linecap="round" stroke-linejoin="round"/>
<path d="M275.083 114.29V153.961" stroke="#00BBC5" stroke-width="14" stroke-linecap="round" stroke-linejoin="round"/>
<path d="M123.183 130.29L96.0374 135.064" stroke="#00BBC5" stroke-width="14" stroke-linecap="round" stroke-linejoin="round"/>
<path d="M149.561 198.488C138.691 197.788 128.015 195.271 117.976 191.043C110.494 189.094 81.7604 161.749 69.0268 173.31C63.8287 178.03 78.9538 192.577 101.127 215.229C108.969 223.224 124.708 223.351 187.762 238.62C203.375 242.401 241.178 220.282 259.958 218.766C280.507 217.079 275.011 217.719 290.939 223.468L305.288 179.663C291.798 177.352 278.549 173.809 265.707 169.077C257.812 165.457 249.566 162.66 241.097 160.73C211.749 154.746 197.861 167.417 179.072 174.528C173.323 176.703 160.851 180.34 154.471 183.137C151.223 184.297 148.743 186.963 147.82 190.285C147.274 192.251 147.447 194.346 148.307 196.196C149.561 199.147 152.485 203.1 156.33 202.197C172.24 198.47 182.393 196.782 186.02 195.645L217.742 188.498" stroke="#00BBC5" stroke-width="14" stroke-linecap="round" stroke-linejoin="round"/>
<path fill-rule="evenodd" clip-rule="evenodd" d="M292.103 229.37L313.564 234.866C315.608 235.463 317.766 234.38 318.509 232.384L332.885 184.69C333.387 182.724 332.2 180.724 330.233 180.223C330.168 180.205 330.101 180.191 330.033 180.177L308.573 174.682C306.528 174.08 304.367 175.164 303.628 177.163L289.252 224.858C288.746 226.817 289.925 228.815 291.884 229.32C291.957 229.339 292.03 229.356 292.103 229.37Z" stroke="#00BBC5" stroke-width="14" stroke-linecap="round" stroke-linejoin="round"/>
</svg>
